<svg xmlns="http://www.w3.org/2000/svg" viewBox="0 0 356.48 102.09"><g data-name="Слой 2"><g data-name="Слой 1"><path d="M6 66.56a1.74 1.74 0 0 1-1-.25c-.42-.58-.46-1-.13-1.12.09-.08.25 0 .51.12l.25.38 1-.5A58.28 58.28 0 0 0 16 58.7 61.6 61.6 0 0 0 25.14 48q3.27-4.23 8-11.72 6.54-9.84 10.69-15a65.74 65.74 0 0 1 8.55-8.85 70.64 70.64 0 0 1 5.66-4.37l.37-.25-.63-.37a44.28 44.28 0 0 0-13.9-5.71 35.59 35.59 0 0 0-18.74 1.62 78.75 78.75 0 0 0-13.32 6.23 37.28 37.28 0 0 0-8.68 6.61q-2.76 3-2.76 3.86c0 .17-.09.17-.25 0s-.17-.45 0-.87q1.88-5 11.94-11A71.94 71.94 0 0 1 23.26 2.6 37.09 37.09 0 0 1 34.45.1a33.3 33.3 0 0 1 12.32 1.38 60.15 60.15 0 0 1 10.94 4.86l1.63 1 1.51-.75q5-2.25 6.41-.63c.34.59.38 1 .13 1.13-.17-.17-.25-.29-.25-.38q0-1.74-5 .63l-1.39.74q0 .26 5.16 3.37a53.37 53.37 0 0 0 10.94 4.61q12.69 4 21.12 0a16.8 16.8 0 0 0 4.4-3 3.66 3.66 0 0 1 .88-.5c.17 0 .33.13.5.38a.62.62 0 0 1 .13.62 9.16 9.16 0 0 1-2.39 2.31 15 15 0 0 1-3.77 2.3l-2.64.75a29.09 29.09 0 0 1-5.16.37 33.58 33.58 0 0 1-4.77-.24 57.78 57.78 0 0 1-22.63-8.73l-2.8-1.61q-.63 0-5.28 4a92.67 92.67 0 0 0-7.17 7.35A159.22 159.22 0 0 0 37 34.27Q30 45 28 47.86a81.83 81.83 0 0 1-9.3 10.84 60.52 60.52 0 0 1-6.92 4.87C8.76 65.4 6.87 66.39 6 66.56Zm19.74 2.62c-.08-.17.17-.5.76-1a70.51 70.51 0 0 0 7.79-7.86q5.66-6.6 15-22.19a102.18 102.18 0 0 1 7.17-10.72q6.16-7.6 12.07-9.35a1.15 1.15 0 0 1 .69-.13 2 2 0 0 0 .82-.12 1.54 1.54 0 0 1 1.13.37c.25.25.38.44.38.56s-.13.11-.38-.06-.5-.2-1-.12a11.62 11.62 0 0 0-4.4 2.24 35.14 35.14 0 0 0-7.1 6.73 102.34 102.34 0 0 0-7.73 11.72q-6.68 11-11.82 18a61.4 61.4 0 0 1-11.46 11.3q-1.52 1.13-1.89.63ZM28.79 93.49c-.08.17-.29.08-.63-.25l-.38-.12 1.14-1.75L41 71.79Q56.21 47.87 63.36 39q.89-1 1.26-.87c.25 0 .38 0 .38.13q0 .62-4.53 7.1l-3 4.24.25.38.25.49 2.26-1.24A20 20 0 0 1 65 47.36c.84 0 1.34.25 1.51.75.33.83-.42 2.45-2.27 4.86l-1.63 1.87q4.77 1.88 11.69-2a55.28 55.28 0 0 0 4.4-2.86c.17-.17.32-.21.44-.13s.15.21.07.38l-.63.62a26.88 26.88 0 0 1-4.65 3q-6.54 3.38-12.07 1.62l-1.14 1.25q-4.51 4.28-6.16 1.36a4.27 4.27 0 0 1 0-3.24l.13-.62-3 4.23q-6.41 8.73-14.46 22.07-7.56 12.09-8.44 12.97Zm26.91-35a2.84 2.84 0 0 0 2.38-.87 8.15 8.15 0 0 0 1.07-.87c.46-.42.86-.79 1.2-1.12l.37-.63a8.13 8.13 0 0 1-2.89-2.74q-.12-.37-.75.12a5.22 5.22 0 0 0-1.26 1.88q-1.38 3.82-.12 4.19Zm5.65-4.11c.09 0 .32-.21.69-.62s.82-.94 1.32-1.56a14.64 14.64 0 0 0 1.14-1.6 6.49 6.49 0 0 0 1-1.75c.17-.41.21-.66.13-.74-.25-.25-1.64.2-4.15 1.37-2 1.08-3 1.83-3 2.24 0 .25.36.75 1.07 1.5a2.87 2.87 0 0 0 1.8 1.12Z"/><path d="M80.09 58.7a1.94 1.94 0 0 1-.88-1.87 6.81 6.81 0 0 1 .5-2.61l.25-.63-.75.38a6.54 6.54 0 0 1-1.14.74c-.17.09-.46.25-.88.5s-.75.46-1 .63a1.28 1.28 0 0 1-1.57-.07 1.4 1.4 0 0 1-.32-1.68 8.63 8.63 0 0 1 2.71-3 12 12 0 0 1 4-2.25 1.76 1.76 0 0 1 2.13.63c.17.25.3.33.38.25.42-.17.71-.08.88.25l-.13.12a3 3 0 0 1-.25.44 4.09 4.09 0 0 0-.25.43 13.7 13.7 0 0 0-3.27 4.49c-.42 1.33-.37 2.2.13 2.62q1.13.75 5.15-.87A46.91 46.91 0 0 0 96.05 51q2.15-1.62 2-.87-.12.49-3.45 2.87a60.18 60.18 0 0 1-5.85 3.74 27.85 27.85 0 0 1-3.27 1.49 13.74 13.74 0 0 1-3.08.82 3.66 3.66 0 0 1-2.31-.35Zm-3.4-4.86c-.42.5-.59.75-.5.75a20.36 20.36 0 0 0 2.14-1.12c2.84-1.58 4.27-2.79 4.27-3.62-.17-.5-.84-.33-2 .5a17 17 0 0 0-3.91 3.49Z"/><path d="M70.53 93.12a4 4 0 0 1-3.14-.5 4.89 4.89 0 0 1-1.51-2.75 10.78 10.78 0 0 1 1-5.86 29.68 29.68 0 0 1 6.54-8.91 43.06 43.06 0 0 1 10.31-7.42 56.49 56.49 0 0 1 7.92-3.24c3.94-1.41 6.12-2.33 6.54-2.74a3.36 3.36 0 0 0 .44-1.5 5.8 5.8 0 0 0 .06-1.87c-.42-1-1.3-1.37-2.64-1.12a2.56 2.56 0 0 0-1.88.75.31.31 0 0 1-.32.06c-.12 0-.19-.11-.19-.19s0-.23.19-.44a3 3 0 0 1 .94-.56c.59-.33 1.14-.66 1.64-1a38.63 38.63 0 0 0 4.21-4.49q3.08-3.62 3.08-4h-.56a7 7 0 0 0-1.89.93c-1 .63-2.45 1.56-4.21 2.81-.34.17-.53.14-.57-.06s.11-.44.44-.69a32.82 32.82 0 0 1 3-2.12c2.93-1.83 4.4-2 4.4-.5a7.21 7.21 0 0 1-1.13 2.12A36.36 36.36 0 0 1 97.43 56l-.5.5.5.12c1.68.59 2.43 1.87 2.27 3.87v.75l2.51-1.24q2.15-1.25 7.67-4.74L117.3 50l.38-.13a.33.33 0 0 1 .37.38l-.12.12-2.14 1.63-1.26.87-6.53 4.34a84.77 84.77 0 0 1-8.55 5l-.38 1.24a41.89 41.89 0 0 1-5.28 8.48A97.08 97.08 0 0 1 80.9 86.69q-6.46 5.93-10.37 6.43Zm-.63-.63a16.56 16.56 0 0 0 6-3 47.2 47.2 0 0 0 6.41-6q1.26-1.37 5.78-6.85l2.52-3.24 3.14-4.24c2.76-4 4.15-6.11 4.15-6.36L92 64.94a49.81 49.81 0 0 0-8.8 3.86 43.82 43.82 0 0 0-12 9.73 23.48 23.48 0 0 0-4 6.42 9.57 9.57 0 0 0-.81 5.55 2.63 2.63 0 0 0 3.51 1.99Z"/><path d="M79.46 102.09q-3.52 0-.51-6.73l1-1.87q6.55-12.34 19.37-23.81 5.16-4.5 15.47-10.23a7 7 0 0 0 2.64-2.45l1.13-1.75-.51.38-.25.25a7.28 7.28 0 0 1-2.89 1.74c-.92.25-1.55.08-1.89-.5q-1-1.86 2.71-5.67t6.35-3.8c.67 0 1 .12 1.13.37.25.17.42.21.5.13l1.76-2.15a26.38 26.38 0 0 1 2.77-3.24c.75-.75 1.26-1.13 1.51-1.13l.25.25c0 .25-.34.71-1 1.37q-2.9 3.49-9.8 13.47l-.89 1.28a93.65 93.65 0 0 0 13.57-7.24l1.26-.87c.17-.16.34-.08.5.25a2.07 2.07 0 0 1-.62.62l-.51.38q-2.89 2.11-14.83 8l-1.51 2Q106.62 74.8 94.8 88.88q-11.07 13.22-15.34 13.21Zm-.38-.75q2.9.25 10.18-7.73a309 309 0 0 0 23.89-30.54l2.26-3.07a77 77 0 0 0-8 4.61 61.77 61.77 0 0 0-9.94 8.11 82 82 0 0 0-8.92 10q-8.92 11.22-9.93 17c-.3 1.04-.13 1.62.46 1.62ZM114.41 57q1.38 0 3.83-2.31a28.31 28.31 0 0 0 3.84-4.3 4.42 4.42 0 0 0 .88-1.62.33.33 0 0 0-.38-.37q-2.27 0-6.54 5c-2.04 2.35-2.64 3.6-1.63 3.6Z"/><path d="M138.3 58.33q-3 .87-4-.75c-.5-1 0-2.49 1.51-4.49q.75-1 .63-1a5.49 5.49 0 0 1-2 .24l-1.76.13-1.89 2c-1.76 2-2.6 3.16-2.51 3.5s0 .37-.25.37l-.26-.25a1.47 1.47 0 0 1-.37-.25 1.29 1.29 0 0 1-.13-1l.88-1.62c.5-.66 1.78-2.1 3.84-4.3s3.41-3.63 4.08-4.3c.92-.75 1.51-1 1.76-.75q.89.63-2.64 4.24l-2 1.87 1.38-.12a5.74 5.74 0 0 0 3.4-1c1.76-1.66 2.89-2.25 3.39-1.75q.63.51-.63 1.5a33 33 0 0 0-3.08 2.93 18.18 18.18 0 0 0-2.2 2.68c-.42 1.25-.14 1.87.82 1.87a7.39 7.39 0 0 0 3.21-.87 52.12 52.12 0 0 0 9.68-5.74l2.39-1.62c.16-.08.29-.08.37 0s.09.21 0 .38a63.6 63.6 0 0 1-6 4.36 21.12 21.12 0 0 1-7.62 3.74Z"/><path d="M159.79 56.58q6-3.73 8.93-5.86l.5-.37q.38-.26.63 0c.17.17.17.29 0 .37a86.93 86.93 0 0 1-12.32 8.11c-2.93 1.49-5 1.62-6.29.37-1.17-1-.88-2.53.88-4.61a19.6 19.6 0 0 1 2-2.25l.12-.12-.88.5c-2 .91-3.27 1.12-3.77.62-.59-.91-.38-2 .63-3.11a16.63 16.63 0 0 1 2.07-1.94 9.7 9.7 0 0 1 1.85-1.29c.33-.08.62.09.88.5s-.34 1-1.51 1.87c-.59.5-1.13 1-1.64 1.5a8.91 8.91 0 0 0-1.13 1.31c-.25.37-.33.6-.25.68.33.34 1.76-.2 4.27-1.62a12.38 12.38 0 0 0 3-2.12c.92-.66 1.47-.87 1.64-.62.42.42-.09 1.17-1.51 2.24l-3.9 4c-1.84 1.83-2.6 3.16-2.26 4 .5.75 1.59.86 3.27.32a17.38 17.38 0 0 0 4.79-2.48Z"/><path d="M175.13 58.33q-3 .87-4-.75c-.51-1 0-2.49 1.51-4.49q.75-1 .63-1a5.52 5.52 0 0 1-2 .24l-1.76.13-1.88 2c-1.76 2-2.6 3.16-2.52 3.5s0 .37-.25.37l-.25-.25a1.56 1.56 0 0 1-.38-.25 1.3 1.3 0 0 1-.12-1l.88-1.62c.5-.66 1.78-2.1 3.83-4.3s3.42-3.63 4.09-4.3c.92-.75 1.51-1 1.76-.75q.87.63-2.64 4.24L170 52l1.38-.12a5.7 5.7 0 0 0 3.39-1c1.76-1.66 2.9-2.25 3.4-1.75q.63.51-.63 1.5a33 33 0 0 0-3.08 2.93 17.53 17.53 0 0 0-2.2 2.68c-.42 1.25-.15 1.87.82 1.87a7.31 7.31 0 0 0 3.2-.87 51.48 51.48 0 0 0 9.68-5.74l2.39-1.62c.17-.08.3-.08.38 0s.08.21 0 .38a63 63 0 0 1-6 4.36 21 21 0 0 1-7.6 3.71Z"/><path d="M189.46 59.2q-2-2 2.89-7.1l.13-.13c.42-.58.59-.87.5-.87a19 19 0 0 1-3.64.75l-1.26.12.13.62a3.11 3.11 0 0 1-.76 2.37c-.67 1-1.38 1.33-2.14 1s-.62-1.5.63-3.49a29.34 29.34 0 0 1 5.28-5.74.71.71 0 0 1 .88-.12c.67.25.51.87-.5 1.87l-3 3 1.51-.12A8.45 8.45 0 0 0 195 49.6a20.38 20.38 0 0 1 4-3q1.13-.37 1.26.12c.08.09-.05.3-.38.63a18.52 18.52 0 0 1-1.88 1.5q-6.28 4.74-7.92 8.61c-.42 1-.33 1.54.25 1.62.76-.17 1.22-.17 1.39 0s.71 0 1.63-.44a11.88 11.88 0 0 1 1.89-.81 10.89 10.89 0 0 0 2.07-1.06c1.05-.62 1.76-1 2.14-1.25s1.09-.66 2.14-1.37l2.13-1.43c.38-.25 1.07-.73 2.08-1.43s1.63-1.15 1.88-1.31c.25 0 .42.16.51.49A122.38 122.38 0 0 1 198 57.33q-6.53 3.87-8.54 1.87Zm-3.52-3.86c.17 0 .46-.21.88-.63a2.67 2.67 0 0 0 .76-1.12 2.86 2.86 0 0 0 .12-.87c0-.08-.19.06-.56.44a8.24 8.24 0 0 0-1.07 1.3 3.29 3.29 0 0 0-.5.88Z"/><path d="M207.57 60.45q0-1.74 2.76-5.49l.88-1.24-.12.12a1 1 0 0 0-.44.19c-.21.12-.4.23-.57.31-2.51 1.33-4.07 2-4.65 2a1 1 0 0 1-.75-.24q-.88-1.25 1.63-4.37 2.64-3.61 4.15-4.24l.38-.12q.49 0 .75.75c.17.25-.42 1-1.76 2.24a23.54 23.54 0 0 0-2.07 2.06c-.72.79-1.28 1.45-1.7 2s-.59.86-.51.94.36 0 1.07-.31 1.55-.69 2.52-1.19 1.78-1 2.45-1.37a33.73 33.73 0 0 0 2.89-2.24c1.34-1.25 2.14-1.75 2.39-1.5a.91.91 0 0 1 .13 1 15.31 15.31 0 0 1-2.27 2.37q-5.4 5.35-6.28 7.6-1.14 3 4.4.5a102.26 102.26 0 0 0 16.84-10.35.51.51 0 0 1 .63.25 70.65 70.65 0 0 1-8.92 6.11 52.34 52.34 0 0 1-9.68 5.24q-4.15 1.6-4.15-1.02Zm8-16.33c-.75-.92-.84-1.67-.25-2.25a.8.8 0 0 1 .69-.31 1.46 1.46 0 0 1 .57.25.31.31 0 0 1 .12.44c-.33.74-.33 1.29 0 1.62a2.38 2.38 0 0 0 1.89.37c1.17-.16 1.76-.37 1.76-.62a.12.12 0 0 1 .13-.13c.16 0 .25.13.25.38a.52.52 0 0 1-.13.37 3.69 3.69 0 0 1-2.6.76 3 3 0 0 1-2.39-.88ZM241.64 57.71a2.06 2.06 0 0 1 0-2 12.13 12.13 0 0 1 2.64-3.71 8.07 8.07 0 0 1 2.26-2l1.26-.88c.42 0 .63-.12.63-.37 0-.08.2-.13.62-.13a2.35 2.35 0 0 1 1 .25l.75-1.24a41.56 41.56 0 0 0 4.2-10.12 41.2 41.2 0 0 0 1.26-11.35c-.08-.58-.25-.87-.5-.87-.76 0-3.14.79-7.17 2.37a1 1 0 0 0-.38.12l-.62.25.25.13q.75.38-.51.75a1.18 1.18 0 0 0-.5.12c-.84.25-1.38.25-1.63 0s-.51-.37-.51-.62q0-1 4-2.5 8.3-3.48 21.87-5.23a70.71 70.71 0 0 1 12.95-.63q4.78.51 4.78 2.5a2.81 2.81 0 0 1-1.38 1.74.77.77 0 0 1-1 0l-.38-.25.76-.87c.5-.5.75-.83.75-1-.08-.75-2.93-1-8.55-.75a113 113 0 0 0-19 2.87l-2.77.63.13 2.36a51.76 51.76 0 0 1-.5 7.49 58.78 58.78 0 0 1-1.51 7 41.27 41.27 0 0 1-3 6.36c-2.35 4.15-4.32 6.9-5.91 8.22q-2.93 2.73-4.29 1.36Zm.88-.25c.41.25 1.38-.38 2.89-1.87s2.34-2.79 2.51-3.62a1.41 1.41 0 0 0 .25-1.37v-.37l-1.25 1.24a18.63 18.63 0 0 0-3.65 4c-.67.99-.92 1.66-.75 1.99ZM257.85 58.7a2 2 0 0 1-.88-1.87 6.82 6.82 0 0 1 .51-2.61l.25-.63-.73.41a6.15 6.15 0 0 1-1.13.74c-.17.09-.46.25-.88.5s-.75.46-1 .63a1.28 1.28 0 0 1-1.57-.07 1.4 1.4 0 0 1-.32-1.68 8.69 8.69 0 0 1 2.7-3 12.21 12.21 0 0 1 4-2.25 1.76 1.76 0 0 1 2.14.63c.17.25.3.33.38.25.42-.17.71-.08.88.25l-.13.12a3 3 0 0 1-.25.44 4.09 4.09 0 0 0-.25.43 13.56 13.56 0 0 0-3.27 4.49c-.42 1.33-.38 2.2.13 2.62q1.13.75 5.15-.87A46.91 46.91 0 0 0 273.82 51q2.15-1.62 2-.87-.12.49-3.45 2.87a61.42 61.42 0 0 1-5.85 3.74 27.85 27.85 0 0 1-3.27 1.49 13.74 13.74 0 0 1-3.08.82 3.71 3.71 0 0 1-2.32-.35Zm-3.39-4.86c-.42.5-.59.75-.5.75a19.77 19.77 0 0 0 2.13-1.12q4.28-2.37 4.28-3.62c-.17-.5-.84-.33-2 .5a17 17 0 0 0-3.91 3.49Z"/><path d="M280.74 58.33q-3 .87-4-.75c-.5-1 0-2.49 1.51-4.49q.75-1 .63-1a5.49 5.49 0 0 1-2 .24l-1.76.13-1.89 2c-1.76 2-2.59 3.16-2.51 3.5s0 .37-.25.37l-.25-.25a1.38 1.38 0 0 1-.38-.25 1.29 1.29 0 0 1-.13-1l.88-1.62c.5-.66 1.78-2.1 3.84-4.3s3.41-3.63 4.08-4.3c.92-.75 1.51-1 1.76-.75q.88.63-2.64 4.24l-2 1.87 1.38-.12a5.71 5.71 0 0 0 3.4-1c1.76-1.66 2.89-2.25 3.39-1.75.42.34.21.84-.62 1.5a31.84 31.84 0 0 0-3.08 2.93 17.77 17.77 0 0 0-2.21 2.68c-.42 1.25-.14 1.87.82 1.87a7.39 7.39 0 0 0 3.21-.87 51.8 51.8 0 0 0 9.68-5.74l2.39-1.62c.16-.08.29-.08.37 0s.09.21 0 .38a63.6 63.6 0 0 1-6 4.36 21.12 21.12 0 0 1-7.62 3.74Z"/><path d="M297.58 58.2q-2.64-.87-.88-6.48l.25-1c-.16-.16-.71.13-1.63.88a32.38 32.38 0 0 0-2.64 2.3 12 12 0 0 0-1.89 2.1 2.18 2.18 0 0 0-.37.87q0 .51-.51 0-1-1 2.9-6.23a22.93 22.93 0 0 1 3.52-3.87q1-.87 1.5-.24c.26.33-.16 1.08-1.25 2.24a15 15 0 0 0-2.52 2.87 1.87 1.87 0 0 0 .51-.38 32.3 32.3 0 0 1 9.8-5.86 2.8 2.8 0 0 1 2.14-.12 1.21 1.21 0 0 1 .63 1.37 9.1 9.1 0 0 1-1.45 2.68 14.09 14.09 0 0 1-2.2 2.68c-.59.58-1 .75-1.26.5-.08-.08 0-.25.38-.5a20.42 20.42 0 0 0 2.52-3.12 9.77 9.77 0 0 0 1.25-2.74c0-.75-1.67-.25-5 1.5a1.8 1.8 0 0 1-.37.25 25.44 25.44 0 0 0-3.65 2.24.46.46 0 0 0 .13.37c.25.25.16 1-.25 2.12a10.31 10.31 0 0 0-.26 2.5c-.08 1.74.46 2.62 1.64 2.62 1.67 0 4.23-1.17 7.67-3.49q1-.63 3.77-2.87l1.76-1.25.38-.25c.16-.08.29-.08.37 0v.5l-1 .75a64.92 64.92 0 0 1-9.18 6.23q-3.04 1.46-4.81.83Z"/><path d="M308.64 56.71q-1.63-1.62.26-4.24a8.24 8.24 0 0 1 4-3.49c1-.42 1.72-.42 2.14 0 .33.25.39.67.19 1.25a3.1 3.1 0 0 1-1.2 1.49 8.18 8.18 0 0 1-3.64 1.5 1.06 1.06 0 0 0-.88.62c-1 1.75-.55 2.74 1.38 3q5.65 0 14.08-5.86l1.51-1c.08-.09.21-.09.38 0a.24.24 0 0 1 .12.37 38.46 38.46 0 0 1-10.56 6q-5.89 2.23-7.78.36Zm1.89-4.24a5.46 5.46 0 0 0 2.52-1 3.9 3.9 0 0 0 1.5-1.62c.09-.25 0-.37-.25-.37l-1.38.75c-1.68 1.24-2.47 1.99-2.39 2.24Z"/><path d="M341.84 58.45q2 .38 12.19-7.48a9.92 9.92 0 0 1 2-1.37c.17-.08.3-.06.38.06a.24.24 0 0 1 0 .32c-.17.16-.88.74-2.14 1.74l-2.45 1.81-2.26 1.68c-.55.42-1.18.88-1.89 1.37s-1.28.88-1.7 1.13-.9.52-1.44.81a4.45 4.45 0 0 1-1.32.5l-1.13.12A1.75 1.75 0 0 1 341 59a4 4 0 0 1-.94-.75c-.84-.83-1.09-2.24-.76-4.23.08-.25.21-.63.38-1.13a9 9 0 0 0 .31-1.06.89.89 0 0 0-.06-.56q-1 .75-2 1.62c-2.6 2.17-3.9 3.62-3.9 4.37a.22.22 0 0 1-.25.25c-.5 0-.67-.21-.5-.63a46.16 46.16 0 0 1 3.27-5.36 34.1 34.1 0 0 0 3-5.11c.09-.41 0-.66-.12-.75a2 2 0 0 0-1.13.13q-4.79 1-11.32 6.36a22.78 22.78 0 0 0-1.82 1.68L323 55.9a4.83 4.83 0 0 0-.9 1.1l-.13.25c-.08.08-.23.06-.44-.06s-.31-.23-.31-.32q0-.75 4.15-5.61c1-1.16 1.84-2.07 2.51-2.74.84-.83 1.42-1.16 1.76-1a.54.54 0 0 1 .13.38c0 .41-.55 1.16-1.64 2.24l-.25.25a11.43 11.43 0 0 0 1.26-.87q5.52-4.52 9.55-4.52a3 3 0 0 1 1.76.44 1.24 1.24 0 0 1 .51 1.3 9.46 9.46 0 0 1-1.89 3.37 16.36 16.36 0 0 0-1.13 1.5l-.13.12a1.19 1.19 0 0 0 .38-.25 4.06 4.06 0 0 1 1.81-.88 1.1 1.1 0 0 1 .57.12.44.44 0 0 1 .18.38v.44a2 2 0 0 1-.18.62 1.81 1.81 0 0 0-.19.68q-1.31 5.24 1.46 5.61Z"/></g></g></svg>