<?xml version="1.0" encoding="UTF-8"?>
<svg id="_Слой_2" data-name="Слой 2" xmlns="http://www.w3.org/2000/svg" viewBox="0 0 283.58 76.78">
  <defs>
    <style>
      .cls-1 {
        fill: #231f20;
      }
    </style>
  </defs>
  <g id="Layer_1" data-name="Layer 1">
    <g>
      <path class="cls-1" d="M4.5,50.06c-.31,0-.56-.06-.75-.19-.31-.44-.34-.72-.09-.84,.06-.06,.19-.03,.38,.09l.19,.28,.75-.38c2.44-1.37,4.75-3,6.94-4.88,2.06-1.81,4.34-4.5,6.84-8.06,1.62-2.12,3.62-5.06,6-8.81,3.25-4.94,5.91-8.69,7.97-11.25,2.06-2.56,4.19-4.78,6.38-6.66,1.62-1.38,3.03-2.47,4.22-3.28l.28-.19-.47-.28c-3.44-2.12-6.91-3.56-10.41-4.31-4.5-.88-9.16-.47-13.97,1.22-3.19,1.12-6.5,2.69-9.94,4.69-2.69,1.56-4.85,3.22-6.47,4.97C.97,13.68,.28,14.64,.28,15.08c0,.13-.06,.13-.19,0-.12-.12-.12-.34,0-.66,.94-2.5,3.91-5.25,8.91-8.25,2.38-1.5,5.16-2.91,8.35-4.22C20.03,.89,22.82,.27,25.69,.08c3-.25,6.06,.09,9.19,1.03,2.81,.94,5.53,2.16,8.16,3.66l1.22,.75,1.12-.56c2.5-1.13,4.09-1.28,4.78-.47,.25,.44,.28,.72,.09,.84-.13-.12-.19-.22-.19-.28,0-.88-1.25-.72-3.75,.47l-1.03,.56c0,.13,1.28,.97,3.84,2.53,2.69,1.5,5.41,2.66,8.16,3.47,6.31,2,11.56,2,15.75,0,1.37-.69,2.47-1.44,3.28-2.25,.38-.25,.59-.38,.66-.38,.12,0,.25,.09,.38,.28,.12,.19,.16,.34,.09,.47-.13,.31-.72,.89-1.78,1.73-1.06,.84-2,1.42-2.81,1.74l-1.97,.56c-1,.19-2.28,.28-3.84,.28s-2.81-.06-3.56-.19c-5.81-.88-11.44-3.06-16.88-6.56l-2.06-1.22c-.31,0-1.63,1-3.94,3-2.31,2.19-4.1,4.03-5.34,5.53-2,2.38-4.56,5.94-7.69,10.69-3.5,5.38-5.75,8.78-6.75,10.22-2.62,3.56-4.94,6.28-6.94,8.16-1.25,1.06-2.97,2.28-5.16,3.66-2.19,1.38-3.6,2.13-4.22,2.25Zm14.72,1.97c-.06-.12,.12-.38,.56-.75,2.75-2.5,4.69-4.47,5.81-5.91,2.81-3.31,6.53-8.88,11.16-16.69,2.25-3.75,4.03-6.44,5.34-8.06,3.06-3.81,6.06-6.16,9-7.03,.06-.06,.23-.09,.52-.09s.48-.03,.61-.09c.38,0,.66,.09,.84,.28s.28,.33,.28,.42-.09,.08-.28-.05c-.13-.12-.38-.16-.75-.09-.94,.19-2.03,.75-3.28,1.69-1.94,1.38-3.7,3.06-5.3,5.06-1.59,2-3.52,4.94-5.77,8.81-3.31,5.5-6.25,10-8.81,13.5-2.5,3.25-5.34,6.09-8.53,8.53-.75,.56-1.22,.72-1.41,.47Z"/>
      <path class="cls-1" d="M21.47,70.31c-.06,.12-.22,.06-.47-.19l-.28-.09,.84-1.31,9-14.72c7.56-12,13.13-20.22,16.69-24.66,.44-.5,.75-.72,.94-.66,.19,0,.28,.03,.28,.09,0,.31-1.12,2.09-3.38,5.34l-2.25,3.19,.19,.28,.19,.38,1.69-.94c1.62-.81,2.81-1.28,3.56-1.41,.62,0,1,.19,1.12,.56,.25,.63-.31,1.84-1.69,3.66l-1.22,1.41c2.38,.94,5.28,.44,8.72-1.5,1.06-.62,2.16-1.34,3.28-2.16,.12-.12,.23-.16,.33-.09,.09,.06,.11,.16,.05,.28l-.47,.47c-1.38,1.06-2.53,1.81-3.47,2.25-3.25,1.69-6.25,2.1-9,1.22l-.84,.94c-2.25,2.13-3.78,2.47-4.59,1.03-.31-.62-.31-1.44,0-2.44l.09-.47c-.13,.19-.88,1.25-2.25,3.19-3.19,4.38-6.78,9.91-10.78,16.6-3.75,6.06-5.84,9.31-6.28,9.75Zm20.07-26.35c.5,.13,1.09-.09,1.78-.66,.19-.12,.45-.34,.8-.66,.34-.31,.64-.59,.89-.84l.28-.47c-.81-.44-1.53-1.13-2.16-2.06-.06-.19-.25-.16-.56,.09-.31,.25-.63,.72-.94,1.41-.69,1.94-.72,3-.09,3.19Zm4.22-3.09c.06,0,.23-.16,.52-.47,.28-.31,.61-.7,.98-1.17s.66-.86,.84-1.17c.38-.5,.62-.94,.75-1.31,.12-.31,.16-.5,.09-.56-.19-.19-1.22,.16-3.09,1.03-1.5,.81-2.25,1.38-2.25,1.69,0,.19,.27,.56,.8,1.12,.53,.56,.99,.84,1.36,.84Z"/>
      <path class="cls-1" d="M59.73,44.15c-.44-.25-.66-.72-.66-1.41s.12-1.34,.38-1.97l.19-.47-.56,.28c-.31,.25-.59,.44-.84,.56-.13,.06-.34,.19-.66,.38-.31,.19-.56,.34-.75,.47-.44,.25-.83,.23-1.17-.05s-.42-.7-.23-1.27c.25-.62,.92-1.37,2.02-2.25,1.09-.88,2.08-1.44,2.95-1.69,.75-.19,1.28-.03,1.59,.47,.12,.19,.22,.25,.28,.19,.31-.12,.53-.06,.66,.19l-.09,.09c-.06,.13-.13,.23-.19,.33-.06,.09-.13,.2-.19,.33-1.25,1.25-2.06,2.38-2.44,3.38-.31,1-.28,1.66,.09,1.97,.56,.38,1.84,.16,3.84-.66,2.06-.81,4.62-2.38,7.69-4.69,1.06-.81,1.56-1.03,1.5-.66-.06,.25-.92,.97-2.58,2.16-1.66,1.19-3.11,2.13-4.36,2.81-.81,.44-1.63,.81-2.44,1.12-.81,.31-1.58,.52-2.3,.61-.72,.09-1.3,.02-1.73-.23Zm-2.53-3.66c-.31,.38-.44,.56-.38,.56s.59-.28,1.59-.84c2.12-1.19,3.19-2.09,3.19-2.72-.13-.38-.62-.25-1.5,.38-1.06,.69-2.03,1.56-2.91,2.62Z"/>
      <path class="cls-1" d="M52.6,70.03c-.94,.19-1.72,.06-2.34-.38-.56-.5-.94-1.19-1.12-2.06-.19-1.38,.06-2.84,.75-4.41,1-2.25,2.62-4.48,4.88-6.7,2.25-2.22,4.81-4.08,7.69-5.58,2-1,3.97-1.81,5.91-2.44,2.94-1.06,4.56-1.75,4.88-2.06,.12-.12,.23-.5,.33-1.13,.09-.62,.11-1.09,.05-1.41-.31-.75-.97-1.03-1.97-.84-.56,0-1.03,.19-1.41,.56-.06,.06-.14,.08-.23,.05-.09-.03-.14-.08-.14-.14-.06-.06-.02-.17,.14-.33s.39-.3,.7-.42c.44-.25,.84-.5,1.22-.75,.56-.44,1.61-1.56,3.14-3.38,1.53-1.81,2.3-2.81,2.3-3h-.42c-.16,0-.63,.23-1.41,.7-.78,.47-1.83,1.17-3.14,2.11-.25,.13-.39,.11-.42-.05-.03-.16,.08-.33,.33-.52,1.06-.81,1.81-1.34,2.25-1.59,2.19-1.37,3.28-1.5,3.28-.38,0,.19-.28,.72-.84,1.59-1.25,1.69-2.69,3.22-4.31,4.59l-.38,.38,.38,.09c1.25,.44,1.81,1.41,1.69,2.91v.56l1.88-.94c1.06-.62,2.97-1.81,5.72-3.56l5.53-3.94,.28-.09c.19,0,.28,.09,.28,.28l-.09,.09-1.59,1.22-.94,.66-4.88,3.28c-1.63,1.12-3.75,2.38-6.38,3.75l-.28,.94c-.63,1.56-1.94,3.69-3.94,6.38-3.19,4.44-6.39,8.14-9.61,11.11-3.22,2.97-5.8,4.58-7.74,4.83Zm-.47-.47c1.13-.19,2.63-.94,4.5-2.25,1.63-1.25,3.22-2.75,4.78-4.5,.63-.69,2.06-2.41,4.31-5.16l1.88-2.44,2.34-3.19c2.06-3,3.09-4.59,3.09-4.78l-4.41,1.59c-2.12,.69-4.31,1.66-6.56,2.91-3.44,1.94-6.41,4.38-8.91,7.31-1.31,1.56-2.3,3.17-2.95,4.83s-.86,3.05-.61,4.17c.38,1.25,1.22,1.75,2.53,1.5Z"/>
      <path class="cls-1" d="M59.26,76.78c-1.75,0-1.88-1.69-.38-5.06l.75-1.41c3.25-6.19,8.06-12.16,14.44-17.91,2.56-2.25,6.41-4.81,11.53-7.69,.81-.44,1.47-1.06,1.97-1.88l.84-1.31-.38,.28-.19,.19c-.75,.69-1.47,1.12-2.16,1.31-.69,.19-1.16,.06-1.41-.38-.5-.94,.17-2.36,2.02-4.27,1.84-1.91,3.42-2.86,4.74-2.86,.5,0,.78,.09,.84,.28,.19,.13,.31,.16,.38,.09l1.31-1.59c1.06-1.37,1.75-2.19,2.06-2.44,.56-.56,.94-.84,1.13-.84l.19,.19c0,.19-.25,.53-.75,1.03-1.44,1.75-3.88,5.13-7.31,10.13l-.66,.94c3.81-1.69,7.19-3.5,10.13-5.44l.94-.66c.12-.12,.25-.06,.38,.19-.06,.13-.22,.28-.47,.47l-.38,.28c-1.44,1.06-5.13,3.06-11.06,6l-1.12,1.5c-4.75,6.88-10.06,13.85-15.94,20.91-5.5,6.62-9.31,9.94-11.44,9.94Zm-.28-.56c1.44,.12,3.97-1.81,7.59-5.81,5.56-6.19,11.5-13.85,17.82-22.97l1.69-2.34c-2.12,1.06-4.12,2.22-6,3.47-2.19,1.38-4.66,3.41-7.41,6.09-2.75,2.69-4.97,5.19-6.66,7.5-4.44,5.63-6.91,9.88-7.41,12.75-.19,.87-.06,1.31,.38,1.31Zm26.35-33.38c.69,0,1.64-.58,2.86-1.74,1.22-1.16,2.17-2.23,2.86-3.23,.44-.62,.66-1.03,.66-1.22s-.09-.28-.28-.28c-1.13,0-2.75,1.25-4.88,3.75-1.56,1.81-1.97,2.72-1.22,2.72Z"/>
      <path class="cls-1" d="M103.14,43.87c-1.5,.44-2.5,.25-3-.56-.38-.75,0-1.88,1.12-3.38,.38-.5,.53-.75,.47-.75-.25,.13-.75,.19-1.5,.19l-1.31,.09-1.41,1.5c-1.31,1.5-1.94,2.38-1.88,2.63,.06,.19,0,.28-.19,.28l-.19-.19c-.12-.06-.22-.12-.28-.19-.12-.19-.16-.44-.09-.75l.66-1.22c.38-.5,1.33-1.58,2.86-3.24,1.53-1.66,2.55-2.73,3.05-3.24,.69-.56,1.12-.75,1.31-.56,.44,.31-.22,1.38-1.97,3.19l-1.5,1.41,1.03-.09c1.19-.06,2.03-.31,2.53-.75,1.31-1.25,2.16-1.69,2.53-1.31,.31,.25,.16,.62-.47,1.12-.69,.56-1.45,1.3-2.3,2.2-.84,.91-1.39,1.58-1.64,2.02-.31,.94-.11,1.41,.61,1.41s1.52-.22,2.39-.66c1.62-.62,4.03-2.06,7.22-4.31l1.78-1.22c.12-.06,.22-.06,.28,0,.06,.06,.06,.16,0,.28-.19,.25-1.69,1.34-4.5,3.28-2.19,1.56-4.06,2.5-5.63,2.81Z"/>
      <path class="cls-1" d="M112.71,45.46c0-.87,.69-2.25,2.06-4.12l.66-.94-.09,.09c-.06,0-.17,.05-.33,.14-.16,.09-.3,.17-.42,.23-1.88,1-3.03,1.5-3.47,1.5-.25,0-.44-.06-.56-.19-.44-.62-.03-1.72,1.22-3.28,1.31-1.81,2.34-2.88,3.09-3.19l.28-.09c.25,0,.44,.19,.56,.56,.12,.19-.31,.75-1.31,1.69-.5,.44-1.02,.95-1.55,1.55-.53,.59-.95,1.09-1.27,1.5-.31,.41-.44,.64-.38,.7,0,.06,.27-.01,.8-.23,.53-.22,1.16-.52,1.88-.89,.72-.38,1.33-.72,1.83-1.03,.56-.38,1.28-.94,2.16-1.69,1-.94,1.59-1.31,1.78-1.12,.19,.25,.22,.5,.09,.75-.13,.25-.69,.84-1.69,1.78-2.69,2.69-4.25,4.59-4.69,5.72-.56,1.44,.47,1.59,3.09,.47,3.31-1.44,7.5-4.03,12.56-7.78,.25-.12,.47-.09,.66,.09-1.81,1.5-4.03,3.03-6.66,4.59-3.19,2.06-5.6,3.38-7.22,3.94-2.06,.81-3.09,.56-3.09-.75Z"/>
      <path class="cls-1" d="M135.4,42.56c3-1.88,5.22-3.34,6.66-4.41l.38-.28c.19-.12,.34-.12,.47,0,.12,.13,.12,.22,0,.28-3.88,2.94-6.94,4.97-9.19,6.09-2.19,1.12-3.75,1.22-4.69,.28-.88-.75-.66-1.91,.66-3.47,.31-.44,.81-1,1.5-1.69l.09-.09-.66,.38c-1.5,.69-2.44,.84-2.81,.47-.44-.69-.28-1.47,.47-2.34,.31-.38,.83-.86,1.55-1.45,.72-.59,1.17-.92,1.36-.98,.25-.06,.47,.06,.66,.38,.12,.25-.25,.72-1.12,1.41-.44,.38-.84,.75-1.22,1.12s-.66,.7-.84,.98-.25,.45-.19,.52c.25,.25,1.31-.16,3.19-1.22,.94-.5,1.69-1.03,2.25-1.59,.69-.5,1.09-.66,1.22-.47,.31,.31-.06,.88-1.12,1.69l-2.91,3c-1.38,1.38-1.94,2.38-1.69,3,.38,.56,1.19,.64,2.44,.23,1.25-.41,2.44-1.02,3.56-1.83Z"/>
      <path class="cls-1" d="M146.84,43.87c-1.5,.44-2.5,.25-3-.56-.38-.75,0-1.88,1.12-3.38,.38-.5,.53-.75,.47-.75-.25,.13-.75,.19-1.5,.19l-1.31,.09-1.41,1.5c-1.31,1.5-1.94,2.38-1.88,2.63,.06,.19,0,.28-.19,.28l-.19-.19c-.12-.06-.22-.12-.28-.19-.12-.19-.16-.44-.09-.75l.66-1.22c.38-.5,1.33-1.58,2.86-3.24,1.53-1.66,2.55-2.73,3.05-3.24,.69-.56,1.12-.75,1.31-.56,.44,.31-.22,1.38-1.97,3.19l-1.5,1.41,1.03-.09c1.19-.06,2.03-.31,2.53-.75,1.31-1.25,2.16-1.69,2.53-1.31,.31,.25,.16,.62-.47,1.12-.69,.56-1.45,1.3-2.3,2.2-.84,.91-1.39,1.58-1.64,2.02-.31,.94-.11,1.41,.61,1.41s1.52-.22,2.39-.66c1.62-.62,4.03-2.06,7.22-4.31l1.78-1.22c.12-.06,.22-.06,.28,0,.06,.06,.06,.16,0,.28-.19,.25-1.69,1.34-4.5,3.28-2.19,1.56-4.06,2.5-5.63,2.81Z"/>
      <path class="cls-1" d="M157.53,44.52c-1-1-.28-2.78,2.16-5.34l.09-.09c.31-.44,.44-.66,.38-.66-.75,.25-1.66,.44-2.72,.56l-.94,.09,.09,.47c.12,.44-.06,1.03-.56,1.78-.5,.75-1.03,1-1.59,.75-.62-.25-.47-1.13,.47-2.63,.69-1.12,2-2.56,3.94-4.31,.19-.19,.41-.22,.66-.09,.5,.19,.38,.66-.38,1.41l-2.25,2.25,1.12-.09c1.56-.12,2.78-.56,3.66-1.31,1.25-1.13,2.25-1.88,3-2.25,.56-.19,.88-.16,.94,.09,.06,.06-.03,.22-.28,.47s-.72,.63-1.41,1.13c-3.13,2.38-5.1,4.53-5.91,6.47-.31,.75-.25,1.16,.19,1.22,.56-.12,.91-.12,1.03,0,.12,.13,.53,.02,1.22-.33,.69-.34,1.16-.55,1.41-.61,.25-.06,.76-.33,1.55-.8,.78-.47,1.31-.78,1.59-.94,.28-.16,.81-.5,1.59-1.03,.78-.53,1.31-.89,1.59-1.08s.8-.55,1.55-1.08c.75-.53,1.22-.86,1.41-.98,.19,0,.31,.13,.38,.38-2.13,1.63-4.66,3.34-7.6,5.16-3.25,1.94-5.38,2.41-6.38,1.41Zm-2.63-2.91c.12,0,.34-.16,.66-.47,.31-.31,.5-.59,.56-.84,.06-.19,.09-.41,.09-.66,0-.06-.14,.05-.42,.33s-.55,.61-.8,.98c-.25,.38-.38,.6-.38,.66h.28Z"/>
      <path class="cls-1" d="M172.34,47.62c1.19,.69,2.81,.55,4.88-.42,2.06-.97,3.94-2.3,5.63-3.99,.62-.62,1.31-1.47,2.06-2.53,.25-.38,.34-.62,.28-.75,0-.06,.03-.09,.09-.09,.62,0,.31,.81-.94,2.44-1.81,2.31-4.08,4.09-6.8,5.34-2.72,1.25-4.7,1.22-5.95-.09-.38-.5-.61-1.02-.7-1.55s.03-1.13,.38-1.78c.34-.66,.59-1.11,.75-1.36,.16-.25,.52-.75,1.08-1.5l.66-.94-.09,.09c-.06,0-.17,.05-.33,.14-.16,.09-.3,.17-.42,.23-1.88,1-3.03,1.5-3.47,1.5-.25,0-.44-.06-.56-.19-.44-.62-.03-1.72,1.22-3.28,1.31-1.81,2.34-2.88,3.09-3.19l.28-.09c.25,0,.44,.19,.56,.56,.12,.19-.31,.75-1.31,1.69-.5,.44-1.02,.95-1.55,1.55-.53,.59-.95,1.09-1.27,1.5-.31,.41-.44,.64-.38,.7,0,.06,.27-.01,.8-.23,.53-.22,1.16-.52,1.88-.89,.72-.38,1.33-.72,1.83-1.03,.56-.38,1.28-.94,2.16-1.69,1-.94,1.59-1.31,1.78-1.12,.25,.19,.28,.44,.09,.75-.19,.31-.75,.91-1.69,1.78-1.12,1-2.16,2.13-3.09,3.38-1.94,2.62-2.25,4.31-.94,5.06Zm6.47-13.78c-.81,0-1.41-.22-1.78-.66-.56-.69-.63-1.25-.19-1.69,.19-.19,.36-.26,.52-.23,.16,.03,.3,.09,.42,.19,.12,.09,.16,.2,.09,.33-.25,.56-.25,.97,0,1.22,.25,.25,.72,.34,1.41,.28,.88-.12,1.31-.28,1.31-.47,0-.06,.03-.09,.09-.09,.12,0,.19,.09,.19,.28,0,.13-.03,.22-.09,.28-.38,.38-1.03,.56-1.97,.56Z"/>
      <path class="cls-1" d="M196.25,43.4c-.25-.38-.25-.88,0-1.5,.19-.62,.84-1.56,1.97-2.81,.56-.69,1.13-1.19,1.69-1.5l.94-.66c.31,0,.47-.09,.47-.28,0-.06,.16-.09,.47-.09,.25,0,.5,.06,.75,.19l.56-.94c1.62-3.06,2.66-5.59,3.09-7.59,.75-3.25,1.06-6.1,.94-8.53-.06-.44-.19-.66-.38-.66-.56,0-2.34,.59-5.34,1.78-.06,0-.16,.03-.28,.09l-.47,.19,.19,.09c.38,.19,.25,.38-.38,.56-.13,0-.25,.03-.38,.09-.63,.19-1.03,.19-1.22,0-.25-.12-.38-.28-.38-.47,0-.5,1-1.12,3-1.88,4.13-1.75,9.56-3.06,16.32-3.94,4.38-.5,7.6-.66,9.66-.47,2.38,.25,3.56,.88,3.56,1.88-.06,.44-.41,.88-1.03,1.31-.25,.19-.5,.19-.75,0l-.28-.19,.56-.66c.38-.38,.56-.62,.56-.75-.06-.56-2.19-.75-6.38-.56-5.19,.38-9.91,1.09-14.16,2.16l-2.06,.47,.09,1.78c0,2.06-.13,3.94-.38,5.63-.5,2.81-.88,4.56-1.12,5.25-.63,1.69-1.38,3.28-2.25,4.78-1.75,3.13-3.22,5.19-4.41,6.19-1.44,1.38-2.5,1.72-3.19,1.03Zm.66-.19c.31,.19,1.03-.28,2.16-1.41,1.13-1.19,1.75-2.09,1.88-2.72,.25-.38,.31-.72,.19-1.03v-.28l-.94,.94c-1.06,.88-1.97,1.88-2.72,3-.5,.75-.69,1.25-.56,1.5Z"/>
      <path class="cls-1" d="M208.35,44.15c-.44-.25-.66-.72-.66-1.41s.12-1.34,.38-1.97l.19-.47-.56,.28c-.31,.25-.59,.44-.84,.56-.13,.06-.34,.19-.66,.38-.31,.19-.56,.34-.75,.47-.44,.25-.83,.23-1.17-.05s-.42-.7-.23-1.27c.25-.62,.92-1.37,2.02-2.25,1.09-.88,2.08-1.44,2.95-1.69,.75-.19,1.28-.03,1.59,.47,.12,.19,.22,.25,.28,.19,.31-.12,.53-.06,.66,.19l-.09,.09c-.06,.13-.13,.23-.19,.33-.06,.09-.13,.2-.19,.33-1.25,1.25-2.06,2.38-2.44,3.38-.31,1-.28,1.66,.09,1.97,.56,.38,1.84,.16,3.84-.66,2.06-.81,4.62-2.38,7.69-4.69,1.06-.81,1.56-1.03,1.5-.66-.06,.25-.92,.97-2.58,2.16-1.66,1.19-3.11,2.13-4.36,2.81-.81,.44-1.63,.81-2.44,1.12-.81,.31-1.58,.52-2.3,.61-.72,.09-1.3,.02-1.73-.23Zm-2.53-3.66c-.31,.38-.44,.56-.38,.56s.59-.28,1.59-.84c2.12-1.19,3.19-2.09,3.19-2.72-.13-.38-.62-.25-1.5,.38-1.06,.69-2.03,1.56-2.91,2.62Z"/>
      <path class="cls-1" d="M225.41,43.87c-1.5,.44-2.5,.25-3-.56-.38-.75,0-1.88,1.12-3.38,.38-.5,.53-.75,.47-.75-.25,.13-.75,.19-1.5,.19l-1.31,.09-1.41,1.5c-1.31,1.5-1.94,2.38-1.88,2.63,.06,.19,0,.28-.19,.28l-.19-.19c-.12-.06-.22-.12-.28-.19-.12-.19-.16-.44-.09-.75l.66-1.22c.38-.5,1.33-1.58,2.86-3.24,1.53-1.66,2.55-2.73,3.05-3.24,.69-.56,1.12-.75,1.31-.56,.44,.31-.22,1.38-1.97,3.19l-1.5,1.41,1.03-.09c1.19-.06,2.03-.31,2.53-.75,1.31-1.25,2.16-1.69,2.53-1.31,.31,.25,.16,.62-.47,1.12-.69,.56-1.45,1.3-2.3,2.2-.84,.91-1.39,1.58-1.64,2.02-.31,.94-.11,1.41,.61,1.41s1.52-.22,2.39-.66c1.62-.62,4.03-2.06,7.22-4.31l1.78-1.22c.12-.06,.22-.06,.28,0,.06,.06,.06,.16,0,.28-.19,.25-1.69,1.34-4.5,3.28-2.19,1.56-4.06,2.5-5.63,2.81Z"/>
      <path class="cls-1" d="M237.98,43.77c-1.31-.44-1.53-2.06-.66-4.88l.19-.75c-.13-.12-.53,.09-1.22,.66-.5,.38-1.16,.95-1.97,1.73-.81,.78-1.28,1.3-1.41,1.55-.19,.31-.28,.53-.28,.66,0,.25-.13,.25-.38,0-.5-.5,.22-2.06,2.16-4.69,.87-1.19,1.75-2.16,2.62-2.91,.5-.44,.88-.5,1.12-.19,.19,.25-.13,.81-.94,1.69-.81,.75-1.44,1.47-1.88,2.16,.12-.06,.25-.16,.38-.28,2.44-2.06,4.88-3.53,7.31-4.41,.69-.25,1.22-.28,1.59-.09s.53,.53,.47,1.03c-.06,.38-.42,1.05-1.08,2.02-.66,.97-1.21,1.64-1.64,2.02-.44,.44-.75,.56-.94,.38-.06-.06,.03-.19,.28-.38,.31-.25,.94-1.03,1.88-2.34,.62-1.13,.94-1.81,.94-2.06,0-.56-1.25-.19-3.75,1.12-.06,.06-.16,.13-.28,.19-1.56,.88-2.47,1.44-2.72,1.69,0,.13,.03,.22,.09,.28,.19,.19,.12,.72-.19,1.59-.13,.5-.19,1.12-.19,1.88-.06,1.31,.34,1.97,1.22,1.97,1.25,0,3.16-.88,5.72-2.63,.5-.31,1.44-1.03,2.81-2.16l1.31-.94,.28-.19c.12-.06,.22-.06,.28,0v.38l-.75,.56c-3.06,2.38-5.35,3.94-6.85,4.69s-2.69,.97-3.56,.66Z"/>
      <path class="cls-1" d="M246.23,42.65c-.81-.81-.75-1.88,.19-3.19,.69-1.19,1.69-2.06,3-2.62,.75-.31,1.28-.31,1.59,0,.25,.19,.3,.5,.14,.94-.16,.44-.45,.81-.89,1.12-.88,.63-1.78,1-2.72,1.12-.25,0-.47,.16-.66,.47-.75,1.31-.41,2.06,1.03,2.25,2.81,0,6.31-1.47,10.5-4.41l1.12-.75c.06-.06,.16-.06,.28,0,.12,.06,.16,.16,.09,.28-2.31,1.88-4.94,3.38-7.88,4.5s-4.88,1.22-5.81,.28Zm1.41-3.19c.44,0,1.06-.25,1.88-.75,.56-.38,.94-.78,1.12-1.22,.06-.19,0-.28-.19-.28l-1.03,.56c-1.25,.94-1.84,1.5-1.78,1.69Z"/>
      <path class="cls-1" d="M269.58,43.49c-.56-.81-.72-1.78-.47-2.91,.06-.19,.16-.47,.28-.84,.12-.38,.2-.64,.23-.8,.03-.16,.01-.3-.05-.42-.5,.38-1,.78-1.5,1.22-1.94,1.63-2.91,2.72-2.91,3.28,0,.13-.06,.19-.19,.19-.38,0-.5-.16-.38-.47,.12-.38,.94-1.72,2.44-4.03,1.38-2.12,2.12-3.41,2.25-3.84,.06-.31,.03-.5-.09-.56-.13-.06-.41-.03-.84,.09-2.38,.5-5.19,2.09-8.44,4.78-.31,.25-.77,.67-1.36,1.27-.59,.59-1.12,1.13-1.59,1.59s-.7,.74-.7,.8l-.09,.19c-.06,.06-.17,.05-.33-.05-.16-.09-.23-.17-.23-.23,0-.38,1.03-1.78,3.09-4.22,.75-.88,1.37-1.56,1.88-2.06,.62-.62,1.06-.87,1.31-.75,.06,.06,.09,.16,.09,.28,0,.31-.41,.88-1.22,1.69l-.19,.19c.12-.06,.44-.28,.94-.66,2.75-2.25,5.12-3.38,7.13-3.38,.56,0,1,.11,1.31,.33,.31,.22,.44,.55,.38,.98-.06,.5-.53,1.34-1.41,2.53-.31,.38-.59,.75-.84,1.12l-.09,.09c.12-.06,.22-.12,.28-.19,.62-.44,1.06-.66,1.31-.66,.56,0,.69,.44,.38,1.31-.06,.19-.09,.31-.09,.38-.38,1.25-.41,2.28-.09,3.09,.56,.94,1.5,1.28,2.81,1.03,1.31-.25,2.81-.84,4.5-1.78,2.5-1.5,4.44-3.34,5.81-5.53,.25-.38,.34-.62,.28-.75,0-.06,.03-.09,.09-.09,.62,0,.31,.81-.94,2.44-1.81,2.31-4.13,4.11-6.94,5.39-2.81,1.28-4.75,1.27-5.81-.05Z"/>
    </g>
  </g>
</svg>