<?xml version="1.0" encoding="UTF-8"?>
<svg id="_Слой_2" data-name="Слой 2" xmlns="http://www.w3.org/2000/svg" viewBox="0 0 178.44 346.81">
  <defs>
    <style>
      .cls-1 {
        fill: #231f20;
        stroke: #b4bbc8;
        stroke-miterlimit: 10;
        stroke-width: 2px;
      }
    </style>
  </defs>
  <g id="Layer_1" data-name="Layer 1">
    <g>
      <path class="cls-1" d="M14.71,36.03h-6.44c1.88-7.26,3.33-14.73,4.36-22.42,5.02-4.23,10.09-7.4,15.2-9.48,5.11-2.09,10.27-3.13,15.47-3.13,6.23,0,12.07,1.47,17.52,4.4,5.45,2.94,9.56,7.06,12.34,12.39,2.78,5.33,4.17,11.2,4.17,17.61,0,5.81-1.06,11.32-3.18,16.52-2.66,6.78-7.11,14.04-13.34,21.78-6.23,7.75-19.3,22.36-39.21,43.84H59.63c5.5,0,9.15-.54,10.94-1.63,1.78-1.09,3.89-4.11,6.31-9.08,.24-.42,.6-1.09,1.09-2h6.9c-4.96,11.8-8.62,20.85-10.98,27.14-12.16-.67-23.11-1-32.86-1-8.71,0-22.06,.33-40.03,1v-5.35c18.39-19.18,31.5-33.51,39.3-42.98,7.81-9.47,13.37-18.17,16.7-26.09,2.3-5.32,3.45-11.01,3.45-17.06,0-7.99-1.94-14.07-5.81-18.24-3.87-4.17-8.89-6.26-15.07-6.26-5.57,0-10.53,1.79-14.88,5.35-3.33,2.66-6.66,7.56-9.98,14.7Z"/>
      <path class="cls-1" d="M114.09,30.23h-6.08c1.94-6.59,3.54-13.28,4.81-20.06,4.35-3.09,8.76-5.38,13.23-6.9,4.47-1.51,9-2.27,13.59-2.27,5.74,0,10.84,1.13,15.31,3.4,4.47,2.27,7.84,5.47,10.1,9.61,2.26,4.14,3.4,8.42,3.4,12.83,0,10.82-5.9,20.4-17.7,28.75,6.59,1.76,11.71,4.54,15.34,8.35,5.81,6.06,8.71,14.02,8.71,23.88,0,12.84-4.79,23.85-14.37,33.06-9.58,9.2-21.56,13.8-35.94,13.8-7.98,0-15.86-1.54-23.66-4.63,1.75-7.74,3.05-15.61,3.9-23.6h5.44c2.17,7.02,5.06,11.95,8.65,14.79,3.59,2.84,8.08,4.27,13.46,4.27,7.73,0,14.16-2.66,19.3-7.99,5.13-5.32,7.7-12.46,7.7-21.42s-2.72-15.99-8.17-21.28c-5.45-5.29-13.16-7.94-23.14-7.94-.91,0-1.94,.03-3.09,.09v-6.35c10.59-3.09,17.99-7.03,22.19-11.84,4.21-4.81,6.31-10.06,6.31-15.75,0-5.38-1.66-9.71-4.98-12.98-3.32-3.27-7.85-4.9-13.58-4.9-4.95,0-9.27,1.39-12.95,4.17-2.72,2.12-5.31,5.75-7.79,10.89Z"/>
      <path class="cls-1" d="M3.63,176.9c0-25.29,4.62-43.93,13.87-55.91,7.43-9.62,17.08-14.43,28.92-14.43,7.49,0,14.16,2.03,19.99,6.08,5.83,4.05,10.46,10.51,13.87,19.38,3.41,8.86,5.12,20.74,5.12,35.62s-1.54,27.74-4.62,39.48c-3.08,11.74-8.34,20.57-15.77,26.5-5.62,4.42-12.75,6.63-21.4,6.63-13.6,0-23.66-5.54-30.19-16.61-6.53-11.07-9.79-26.65-9.79-46.74Zm18.06-5.08c0,12.51,.56,22.5,1.67,30,1.12,7.49,2.84,13.59,5.16,18.31s4.74,7.99,7.25,9.83c2.51,1.84,5.51,2.76,9.01,2.76,4.23,0,7.94-1.37,11.14-4.12,3.2-2.75,5.96-7.96,8.29-15.63s3.49-19,3.49-33.98c0-13.95-1.06-27.19-3.17-39.69-.97-5.5-2.36-10.15-4.17-13.96-1.81-3.81-3.99-6.63-6.52-8.47-2.54-1.84-5.77-2.76-9.69-2.76s-6.9,.94-9.47,2.81c-2.57,1.87-4.79,4.68-6.66,8.43-1.39,2.72-2.6,6.86-3.62,12.41-1.81,9.55-2.72,20.91-2.72,34.08Z"/>
      <path class="cls-1" d="M128.87,171.67c-10.59-7.47-17.36-13.44-20.32-17.92-2.96-4.48-4.44-9.47-4.44-14.97,0-8.65,3.5-16.19,10.51-22.6,7.01-6.41,16.26-9.62,27.74-9.62,10.33,0,18.28,2.51,23.84,7.53,5.56,5.02,8.34,11.29,8.34,18.79,0,5.87-1.81,11.41-5.43,16.61-3.62,5.21-10.02,10.94-19.19,17.21,7.6,5.39,13.17,9.72,16.7,12.99s6.22,6.78,8.06,10.53c1.84,3.75,2.76,8.17,2.76,13.25,0,10.05-3.78,18.69-11.33,25.92-7.55,7.23-17.47,10.85-29.73,10.85-11.3,0-20.05-2.89-26.24-8.67-6.2-5.78-9.29-13.05-9.29-21.83,0-6.53,1.75-12.48,5.26-17.83,3.5-5.35,11.09-12.11,22.77-20.26Zm6.79,4.79c-6.89,4.71-11.88,9.71-15,15.01-3.11,5.3-4.67,10.73-4.67,16.29,0,6.72,2.34,12.42,7.02,17.11,4.68,4.69,10.4,7.03,17.17,7.03,6.22,0,11.38-2.09,15.49-6.26,4.11-4.17,6.16-9.32,6.16-15.43,0-3.93-.92-7.68-2.76-11.25-1.84-3.57-4.94-7.38-9.29-11.44-3.08-2.9-7.79-6.59-14.12-11.06Zm7.34-14.66c6.82-4.76,11.58-9.24,14.3-13.43,2.72-4.2,4.08-8.68,4.08-13.45,0-6.1-1.98-11.09-5.93-14.99-3.96-3.89-9.1-5.84-15.44-5.84s-11.31,1.77-15.08,5.3c-3.77,3.53-5.66,7.92-5.66,13.18,0,3.5,.63,6.55,1.9,9.15,1.27,2.6,3.5,5.37,6.71,8.33,3.2,2.96,8.24,6.88,15.12,11.76Z"/>
      <path class="cls-1" d="M14.71,247.15h-6.44c1.88-7.26,3.33-14.73,4.36-22.42,5.02-4.23,10.09-7.4,15.2-9.48,5.11-2.09,10.27-3.13,15.47-3.13,6.23,0,12.07,1.47,17.52,4.4,5.45,2.94,9.56,7.06,12.34,12.39,2.78,5.33,4.17,11.2,4.17,17.61,0,5.81-1.06,11.32-3.18,16.52-2.66,6.78-7.11,14.04-13.34,21.78-6.23,7.75-19.3,22.36-39.21,43.84H59.63c5.5,0,9.15-.54,10.94-1.63,1.78-1.09,3.89-4.11,6.31-9.08,.24-.42,.6-1.09,1.09-2h6.9c-4.96,11.8-8.62,20.85-10.98,27.14-12.16-.67-23.11-1-32.86-1-8.71,0-22.06,.33-40.03,1v-5.35c18.39-19.18,31.5-33.51,39.3-42.98,7.81-9.47,13.37-18.17,16.7-26.09,2.3-5.32,3.45-11.01,3.45-17.06,0-7.99-1.94-14.07-5.81-18.24-3.87-4.17-8.89-6.26-15.07-6.26-5.57,0-10.53,1.79-14.88,5.35-3.33,2.66-6.66,7.56-9.98,14.7Z"/>
      <path class="cls-1" d="M114.09,241.35h-6.08c1.94-6.59,3.54-13.28,4.81-20.06,4.35-3.09,8.76-5.38,13.23-6.9,4.47-1.51,9-2.27,13.59-2.27,5.74,0,10.84,1.13,15.31,3.4,4.47,2.27,7.84,5.47,10.1,9.61,2.26,4.14,3.4,8.42,3.4,12.83,0,10.82-5.9,20.4-17.7,28.75,6.59,1.76,11.71,4.54,15.34,8.35,5.81,6.06,8.71,14.02,8.71,23.88,0,12.84-4.79,23.85-14.37,33.06-9.58,9.2-21.56,13.8-35.94,13.8-7.98,0-15.86-1.54-23.66-4.63,1.75-7.74,3.05-15.61,3.9-23.6h5.44c2.17,7.02,5.06,11.95,8.65,14.79,3.59,2.84,8.08,4.27,13.46,4.27,7.73,0,14.16-2.66,19.3-7.99,5.13-5.32,7.7-12.46,7.7-21.42s-2.72-15.99-8.17-21.28c-5.45-5.29-13.16-7.94-23.14-7.94-.91,0-1.94,.03-3.09,.09v-6.35c10.59-3.09,17.99-7.03,22.19-11.84,4.21-4.81,6.31-10.06,6.31-15.75,0-5.38-1.66-9.71-4.98-12.98-3.32-3.27-7.85-4.9-13.58-4.9-4.95,0-9.27,1.39-12.95,4.17-2.72,2.12-5.31,5.75-7.79,10.89Z"/>
    </g>
  </g>
</svg>