<svg xmlns="http://www.w3.org/2000/svg" viewBox="0 0 103.69 64.83"><g data-name="Слой 2"><g data-name="Слой 1"><path d="M33 64.75a23.91 23.91 0 0 1-8.77-3.34q-3.82-2.46-8.78-8.7c-.75-1-1.35-1.49-1.8-1.34a28.86 28.86 0 0 1-8.1 2 7.74 7.74 0 0 1-4.49-1.11A2.4 2.4 0 0 1 .5 48.8q1.25-1.89 4.62-2.34a9.43 9.43 0 0 1 6.74 1.11l2 1.12 2.25-1.12q5.85-2.67 13.5-10Q47 21.69 52.13 8.31q2-5.8.23-6.47a10.57 10.57 0 0 0-5.4.67 41.4 41.4 0 0 0-10.57 5.35 35.05 35.05 0 0 0-14.29 18.3q-1.92 5.58-.79 9.14c.3 1.05.6 1.56.9 1.56.15.3.53.45 1.13.45a1.83 1.83 0 0 0 1.35-.45h.67c.3.15.08.38-.67.67a8.83 8.83 0 0 1-1.13.45 2.36 2.36 0 0 1-2.47-1.12 10.78 10.78 0 0 1-1.35-4.23q-.68-9.38 7.65-19.19A44.08 44.08 0 0 1 46.06.72c4.2-1.34 7.2-.81 9 1.56a6.4 6.4 0 0 1 .67 2.9q0 10.05-16.87 27.89Q26.71 45.79 17.71 49.8l-1.8.9 2.25 2.9L20 55.94c.75 1 1.2 1.53 1.35 1.67a27.35 27.35 0 0 0 7.88 4.91 13.06 13.06 0 0 0 10.57-.45q1.58-.89 1.8-.66.45.45.45.66c0 .6-1.73 1.42-5.17 2.46a10.36 10.36 0 0 1-3.88.22ZM2.87 51.37Q4 51.82 9.39 50c1.65-.45 2.47-.74 2.47-.89.15-.15-.15-.37-.9-.67a8.07 8.07 0 0 0-5.17-.12c-1.95.53-3.15 1.31-3.6 2.35a.6.6 0 0 0 .68.7Z"/><path d="M103.65 1.17c.15.3-.08.74-.67 1.34a9.61 9.61 0 0 1-2.48 1.78q-3.15 1.56-18.45 14.06l-3.6 2.9 2-.23q7.42-.66 9.67 3.8 1.8 3.57 0 9.14A38.44 38.44 0 0 1 85 43.78a37.7 37.7 0 0 1-12.38 11Q65 59.17 58.43 59.4a14.09 14.09 0 0 1-8.77-2.35 8.8 8.8 0 0 1-4.28-6.35 10.41 10.41 0 0 1 2.25-7.37 16 16 0 0 1 7-5.57q9.66-4 12.59-1.79a2.81 2.81 0 0 1 1.13 2.68c-.15.6-.45.74-.9.45l-.23-.9a1.75 1.75 0 0 0-.22-1.11c-.45-.6-2.1-.63-5-.11a18.54 18.54 0 0 0-7.2 2.78c-3.3 2.39-5.4 4.39-6.3 6q-3.37 6.24 2 10 5.67 3.64 16.5-1.61t16-13q7.2-10.92 5.18-16.73c-.76-1.78-2.25-2.6-4.5-2.45a19.77 19.77 0 0 0-4.28 1 15.65 15.65 0 0 0-3.71 1.79c-1 .67-1.39 1.22-1.24 1.67.45.89.23 1.11-.67.67-.6-.3-.9-.23-.9.22v.89h-.28c-.15 0-.22-.59-.22-1.78A8.11 8.11 0 0 1 74 22.81 72.2 72.2 0 0 1 80.59 16 78.3 78.3 0 0 1 89 8.75L91.5 7l-5.17-.22a28.75 28.75 0 0 1-8.1-1.34c-2.1-.75-3.45-1-4-.9q-1.58.45-5.85 4a11.32 11.32 0 0 0-1.91 1.9 19.71 19.71 0 0 0-1.58 2.12 3.59 3.59 0 0 0-.56 1.11l.67-.22h.46c0 .3-.31.6-.91.89-.6.45-1 .52-1.34.22-.61-.59-.23-1.78 1.12-3.57a20.48 20.48 0 0 1 7.65-6.69q2.47-1.11 6.07.22 4.05 1.8 11.25 1.34a12.06 12.06 0 0 0 6.53-2l3.77-2.24q3.15-1.79 4.05-.45Z"/></g></g></svg>