<svg xmlns="http://www.w3.org/2000/svg" viewBox="0 0 504.39 199.27"><title>dear</title><g id="Слой_2" data-name="Слой 2"><g id="Слой_1-2" data-name="Слой 1"><path d="M229,68.23c1.26-.87,2-1.06,2.09-.56l-.19.56Q223.66,74.08,196.83,82L193,83.14q-10.28,7.36-18.18,10.09a49.43,49.43,0,0,1-18.17,2.36q-14.27-.37-17.31,0a9.26,9.26,0,0,0-3.24,2.08q-6.27,4.53-7.61,4.72a1.78,1.78,0,0,1-1.33-.19c-1.4-.88-.76-2.27,1.9-4.15A18.18,18.18,0,0,1,134,95.59a15.4,15.4,0,0,0,5-2.83A136.93,136.93,0,0,0,156.3,76l1.14-1.13Q139,57.29,149.64,35q5.9-11.89,18.94-22T194.17.68q15-3,24.16,7.27T224,34.08a76.6,76.6,0,0,1-28.73,47.17,34.32,34.32,0,0,0,4.76-1.32,146.33,146.33,0,0,0,16.36-5.47Q225.57,70.88,229,68.23ZM132.52,98.05l-1,.18-1.14.76-1.91,1.51c0,.13.32,0,1-.38s1.26-.78,1.9-1.22S132.39,98.17,132.52,98.05Zm47.38-8.31c.5-.25,1-.53,1.61-.85s1.18-.66,1.81-1l1.9-1.14c.64-.37,1.24-.75,1.81-1.13s1.08-.72,1.52-1a2.63,2.63,0,0,0,.86-.84l.38-.19-2.47.19q-13.89,2.07-27.4-6.8-.19-.37-3.24,2.64a110,110,0,0,1-11.79,11.14l-3.81,3c-.13.12,0,.25.38.37a48.21,48.21,0,0,0,5.71.19q18.27,0,23.78-1.32A48.82,48.82,0,0,0,179.9,89.74Zm12-7.73q1.91-.75,9.33-8.12a80.06,80.06,0,0,0,20.93-36.6q4.76-19.44-5.33-29.44-8-8.49-24-5.28A60.48,60.48,0,0,0,175,11.06q-13.32,8.69-20.55,19.63T147.84,53q.66,11.43,10.37,20.48c.12.12,2.44-2.86,6.94-9s7.14-9.77,7.9-11Q188.08,33,194,27.1A45.59,45.59,0,0,1,202,20c2.53-1.7,4.25-2.3,5.14-1.8.5.38.44.76-.19,1.13a12.56,12.56,0,0,0-2.1,1.14q-7.8,5.66-27.4,32.83-5.7,7.74-15,19.62l-2.09,2.64q10.84,8.31,22.26,7.55A56.27,56.27,0,0,0,191.88,82Z"/><path d="M225.75,76.16c-.51-.63-.51-1.57,0-2.83s1.65-3.08,3.8-5.47a22.92,22.92,0,0,1,3.24-3l1.9-1.14c.64,0,.95-.18.95-.56,0-.12.32-.19,1-.19.89.25,1.4.57,1.53.94-.26.26-.45.32-.57.19a1.23,1.23,0,0,0-.58.76l-.38,1.7a3.65,3.65,0,0,0,.77,3.39q5.7,5.1,15.22-2.07l1.33-.76c.5-.25.82-.12,1,.38l-2.28,1.7a18.81,18.81,0,0,1-7,3.2,10.57,10.57,0,0,1-7.61-.94,10.63,10.63,0,0,1-1.72-1.7c-.25-.5-.44-.63-.57-.37a19,19,0,0,1-3.61,4.9Q227.65,78.43,225.75,76.16Zm1.14-.19q.77.94,4.38-2.64a12.56,12.56,0,0,0,3.8-5.66,5.75,5.75,0,0,0,.38-1.7l-.19-.76-1.9,1.89A31.32,31.32,0,0,0,228,73C227.14,74.59,226.76,75.59,226.89,76Z"/><path d="M213,133.14c-.12.25-.44.13-.95-.38l-.57-.19,1.71-2.64,18.27-29.62q23-36.23,33.86-49.62c.89-1,1.53-1.45,1.91-1.33s.57.07.57.19q0,.95-6.85,10.76l-4.57,6.41.38.57.38.75,3.43-1.88a30.18,30.18,0,0,1,7.23-2.83c1.26,0,2,.37,2.28,1.13.51,1.26-.64,3.71-3.42,7.36l-2.48,2.83q7.23,2.84,17.7-3c2.15-1.26,4.37-2.7,6.66-4.34.25-.25.47-.31.66-.19s.22.32.1.57l-.95.94a40.23,40.23,0,0,1-7,4.53q-9.9,5.1-18.27,2.45l-1.71,1.89q-6.85,6.42-9.33,2.07a6.51,6.51,0,0,1,0-4.9l.2-.94q-.39.56-4.57,6.41-9.7,13.22-21.88,33.4Q214.33,131.82,213,133.14Zm40.72-53c1,.25,2.22-.19,3.61-1.32A15.28,15.28,0,0,0,259,77.48c.7-.63,1.3-1.2,1.81-1.7l.57-.94A12.45,12.45,0,0,1,257,70.69q-.19-.57-1.14.18a7.72,7.72,0,0,0-1.9,2.84C252.51,77.61,252.45,79.74,253.72,80.12Zm8.56-6.23c.12,0,.48-.31,1.05-.94s1.23-1.41,2-2.36A22.52,22.52,0,0,0,267,68.23a9.8,9.8,0,0,0,1.52-2.64c.25-.63.31-1,.19-1.13-.38-.38-2.47.32-6.28,2.08-3,1.63-4.57,2.76-4.57,3.39,0,.38.54,1.13,1.62,2.27S261.52,73.89,262.28,73.89Z"/><path d="M284,76.16c-.51-.63-.51-1.57,0-2.83s1.65-3.08,3.8-5.47a22.92,22.92,0,0,1,3.24-3l1.9-1.14c.63,0,.95-.18.95-.56,0-.12.32-.19.95-.19.89.25,1.4.57,1.53.94-.26.26-.45.32-.57.19a1.23,1.23,0,0,0-.58.76l-.38,1.7a3.65,3.65,0,0,0,.77,3.39q5.7,5.1,15.22-2.07l1.33-.76c.5-.25.82-.12.95.38l-2.28,1.7a18.81,18.81,0,0,1-7,3.2,10.57,10.57,0,0,1-7.61-.94,10.23,10.23,0,0,1-1.72-1.7c-.25-.5-.44-.63-.57-.37a19,19,0,0,1-3.61,4.9Q285.87,78.43,284,76.16Zm1.14-.19q.76.94,4.38-2.64a12.56,12.56,0,0,0,3.8-5.66,6.1,6.1,0,0,0,.38-1.7l-.19-.76-1.9,1.89A31.32,31.32,0,0,0,286.25,73C285.36,74.59,285,75.59,285.11,76Z"/><path d="M336.48,67.1c.51-.12.83,0,.95.38l-.76.75-3.42,2.64-4.95,3.4-5.52,3.59a14.47,14.47,0,0,0-2.38,1.32c-1.2.75-2.18,1.32-2.94,1.7a15.27,15.27,0,0,1-5.43,2,4.31,4.31,0,0,1-3.52-.76,2.88,2.88,0,0,1-.57-3.11,14.29,14.29,0,0,1,3.43-5.47A61.75,61.75,0,0,1,318,68c2.15-1.38,3.36-2.45,3.61-3.2.13-.5-.19-.69-.95-.57A20.41,20.41,0,0,0,312.51,68c-.13,0-.48.26-1.05.76a7.61,7.61,0,0,1-1.62,1.13l-.76.38c-.38-.38-.5-.63-.38-.76A58.28,58.28,0,0,1,313.65,66a15.12,15.12,0,0,1,5.71-2.55q2.65-.47,3.42,1.23.77,1.51-4.75,5.85-8.76,6.8-8.76,10A1.52,1.52,0,0,0,310,82a3.53,3.53,0,0,0,2.56-.29,28.93,28.93,0,0,0,3.14-1.32q1.33-.66,3.81-2l3.23-1.88c1.27-.76,3.17-2,5.71-3.78l5.52-4A16.84,16.84,0,0,1,336.48,67.1Z"/><path d="M335.91,83.14q0-2.64,4.19-8.3L341.43,73l-.19.19a1.63,1.63,0,0,0-.67.28,9.77,9.77,0,0,1-.86.47c-3.8,2-6.15,3-7,3a1.58,1.58,0,0,1-1.14-.37q-1.33-1.89,2.48-6.61,4-5.48,6.28-6.41l.57-.19c.5,0,.88.37,1.14,1.13q.38.57-2.67,3.4A36.5,36.5,0,0,0,336.2,71c-1.08,1.2-1.94,2.2-2.57,3s-.89,1.29-.76,1.41.53,0,1.61-.47,2.35-1,3.81-1.79S341,71.69,342,71.06a46.8,46.8,0,0,0,4.37-3.39c2-1.89,3.24-2.64,3.62-2.27a1.35,1.35,0,0,1,.19,1.51,22.42,22.42,0,0,1-3.43,3.59q-8.17,8.11-9.51,11.51-1.71,4.33,6.28.94Q353.6,78.62,369,67.29a1.06,1.06,0,0,1,1.33.19,107,107,0,0,1-13.51,9.24q-9.7,6.24-14.65,7.93Q335.91,87.11,335.91,83.14Z"/><path d="M364.07,77.48c-1.65-1.63-1.53-3.77.38-6.42a12.48,12.48,0,0,1,6.09-5.28c1.52-.63,2.59-.63,3.23,0,.51.38.6,1,.29,1.89a4.81,4.81,0,0,1-1.81,2.26,12.4,12.4,0,0,1-5.52,2.27,1.59,1.59,0,0,0-1.33.94c-1.52,2.64-.83,4.15,2.09,4.53q8.56,0,21.31-8.87l2.28-1.51c.13-.12.32-.12.58,0a.38.38,0,0,1,.19.57,58.51,58.51,0,0,1-16,9Q366.92,80.32,364.07,77.48Zm2.85-6.42a8.3,8.3,0,0,0,3.81-1.51A5.86,5.86,0,0,0,373,67.1c.12-.38,0-.56-.38-.56l-2.09,1.13C368,69.55,366.79,70.69,366.92,71.06Z"/><path d="M1.52,186.26c-.12.25-.44.12-.95-.38L0,185.69l1.71-2.64L20,153.42Q43,117.2,53.85,103.8c.88-1,1.52-1.44,1.9-1.32s.57.06.57.19q0,.94-6.85,10.75l-4.57,6.42.38.56.39.76,3.42-1.89a30.79,30.79,0,0,1,7.23-2.83c1.27,0,2,.38,2.28,1.13q.76,1.89-3.42,7.36l-2.47,2.83q7.22,2.83,17.69-3,3.24-1.87,6.66-4.34c.25-.25.48-.31.67-.18s.22.31.09.56l-.95,1a39.72,39.72,0,0,1-7,4.52q-9.9,5.1-18.27,2.46l-1.71,1.88Q43,137,40.53,132.67a6.44,6.44,0,0,1,0-4.91l.19-.94q-.39.57-4.57,6.42-9.7,13.2-21.88,33.39Q2.86,184.93,1.52,186.26Zm40.72-53c1,.25,2.22-.19,3.62-1.33a15.41,15.41,0,0,0,1.61-1.32c.7-.62,1.3-1.19,1.81-1.69l.57-1a12.36,12.36,0,0,1-4.38-4.15c-.12-.38-.5-.31-1.14.19a7.79,7.79,0,0,0-1.9,2.83Q40.33,132.67,42.24,133.24ZM50.8,127c.13,0,.48-.31,1.05-.94s1.24-1.42,2-2.36a23.26,23.26,0,0,0,1.71-2.36,9.83,9.83,0,0,0,1.52-2.64c.25-.63.32-1,.19-1.14Q56.7,117,51,119.65q-4.56,2.46-4.56,3.4c0,.37.53,1.13,1.61,2.26S50,127,50.8,127Z"/><path d="M72.49,129.27c-.51-.63-.51-1.57,0-2.83s1.65-3.08,3.81-5.47a22.94,22.94,0,0,1,3.23-3l1.9-1.13c.64,0,.95-.19.95-.57q0-.18,1-.18c.88.25,1.39.56,1.52.94-.26.25-.45.31-.57.19a1.14,1.14,0,0,0-.57.75l-.38,1.7a3.67,3.67,0,0,0,.76,3.4q5.7,5.08,15.22-2.08l1.33-.75c.51-.25.82-.13.95.37l-2.28,1.7a19,19,0,0,1-7,3.21,10.69,10.69,0,0,1-7.61-.94,10.92,10.92,0,0,1-1.71-1.7c-.26-.5-.45-.63-.58-.38a18.77,18.77,0,0,1-3.61,4.91Q74.39,131.53,72.49,129.27Zm1.14-.19q.77.94,4.38-2.64a12.51,12.51,0,0,0,3.8-5.66,5.78,5.78,0,0,0,.39-1.7l-.2-.75-1.9,1.89a31.32,31.32,0,0,0-5.33,5.85C73.89,127.7,73.5,128.71,73.63,129.08Z"/><path d="M43,199.27q-5.32,0-.76-10.18l1.52-2.83q9.9-18.69,29.3-36,7.8-6.79,23.4-15.48a10.33,10.33,0,0,0,4-3.77l1.71-2.64-.76.57-.38.37a10.8,10.8,0,0,1-4.38,2.64q-2.09.57-2.85-.75-1.51-2.83,4.09-8.59t9.61-5.75q1.52,0,1.71.57c.38.25.64.31.76.18l2.67-3.2a39.8,39.8,0,0,1,4.18-4.91c1.14-1.13,1.91-1.7,2.29-1.7l.38.38c0,.38-.51,1.07-1.53,2.08q-4.38,5.28-14.84,20.37l-1.33,1.89a141.36,141.36,0,0,0,20.55-10.94l1.9-1.32c.26-.25.51-.13.76.37a3.06,3.06,0,0,1-1,1l-.76.56q-4.38,3.21-22.45,12.08l-2.28,3Q84.1,158,66.21,179.27,49.47,199.28,43,199.27Zm-.57-1.13q4.38.38,15.41-11.7Q74.77,167.77,94,140.22l3.43-4.72a113.43,113.43,0,0,0-12.18,7,94.52,94.52,0,0,0-15,12.26,123.59,123.59,0,0,0-13.51,15.1q-13.52,17-15,25.66C41.29,197.26,41.54,198.14,42.43,198.14ZM95.89,131c1.4,0,3.33-1.16,5.81-3.49a43.06,43.06,0,0,0,5.8-6.51,6.49,6.49,0,0,0,1.33-2.45.5.5,0,0,0-.57-.57q-3.42,0-9.89,7.55Q93.6,131,95.89,131Z"/><path d="M132,133.05q-4.56,1.32-6.09-1.14-1.14-2.26,2.29-6.79c.76-1,1.07-1.51.95-1.51a7.81,7.81,0,0,1-3,.38l-2.66.19-2.85,3c-2.67,3-3.93,4.78-3.81,5.28s0,.57-.38.57l-.38-.38a2.33,2.33,0,0,1-.57-.38,2,2,0,0,1-.19-1.51l1.33-2.45q1.14-1.52,5.8-6.51t6.19-6.51c1.39-1.13,2.28-1.51,2.66-1.13q1.33.94-4,6.41l-3.05,2.83,2.09-.18c2.41-.13,4.13-.63,5.14-1.51q4-3.78,5.14-2.65c.63.51.31,1.26-1,2.27a47.83,47.83,0,0,0-4.66,4.43,25.78,25.78,0,0,0-3.33,4.06c-.64,1.89-.23,2.83,1.23,2.83a11.12,11.12,0,0,0,4.86-1.32q4.94-1.89,14.65-8.68l3.61-2.45q.38-.19.57,0c.13.12.13.31,0,.56q-.57.77-9.13,6.61Q136.8,132.1,132,133.05Z"/><path d="M153.73,134.37q-3-3,4.38-10.76l.19-.19c.63-.88.89-1.32.76-1.32a28.2,28.2,0,0,1-5.52,1.14l-1.9.18.19,1c.25.88-.13,2.07-1.14,3.58s-2.09,2-3.24,1.51-.95-2.26,1-5.28q2.09-3.41,8-8.68a1.06,1.06,0,0,1,1.33-.19q1.52.57-.76,2.83l-4.57,4.53,2.28-.19a12.71,12.71,0,0,0,7.42-2.64,31.06,31.06,0,0,1,6.09-4.53c1.14-.38,1.78-.31,1.91.19.12.13-.07.44-.57.94a26.34,26.34,0,0,1-2.86,2.27q-9.51,7.17-12,13c-.63,1.51-.5,2.32.38,2.45,1.15-.25,1.84-.25,2.1,0s1.07,0,2.47-.66a18.63,18.63,0,0,1,2.86-1.23,16.18,16.18,0,0,0,3.14-1.6c1.58-.95,2.66-1.57,3.23-1.89s1.65-1,3.23-2.07,2.67-1.8,3.24-2.17,1.62-1.1,3.14-2.17l2.85-2c.38,0,.64.26.76.76q-6.47,4.91-15.41,10.38Q156.77,137.39,153.73,134.37Zm-5.32-5.85c.25,0,.69-.31,1.33-1a4,4,0,0,0,1.14-1.69,4.37,4.37,0,0,0,.19-1.32c0-.13-.29.09-.86.66a12,12,0,0,0-1.61,2,5.19,5.19,0,0,0-.77,1.32Z"/><path d="M176.37,130.59q-2.48-2.44.38-6.41a12.52,12.52,0,0,1,6.09-5.28q2.28-.95,3.24,0c.5.37.6,1,.28,1.88a4.78,4.78,0,0,1-1.81,2.27,12.19,12.19,0,0,1-5.51,2.26,1.61,1.61,0,0,0-1.33.94c-1.53,2.65-.83,4.15,2.09,4.53q8.56,0,21.31-8.87l2.28-1.51q.2-.18.57,0a.38.38,0,0,1,.19.57,58.59,58.59,0,0,1-16,9.06Q179.23,133.42,176.37,130.59Zm2.86-6.41a8.31,8.31,0,0,0,3.8-1.51,6,6,0,0,0,2.29-2.45c.12-.38,0-.57-.38-.57l-2.1,1.13Q179,123.62,179.23,124.18Z"/><path d="M230,136.25q0-2.64,4.18-8.3l1.33-1.88-.18.18a1.64,1.64,0,0,0-.67.29c-.32.19-.6.34-.86.47q-5.7,3-7,3a1.55,1.55,0,0,1-1.14-.38q-1.34-1.89,2.48-6.6,4-5.47,6.27-6.42l.57-.19c.51,0,.89.38,1.15,1.13q.38.57-2.67,3.4a38,38,0,0,0-3.14,3.11c-1.08,1.2-1.93,2.21-2.57,3s-.88,1.29-.76,1.42.54,0,1.62-.47,2.35-1,3.81-1.8,2.69-1.44,3.71-2.07a50.53,50.53,0,0,0,4.37-3.4c2-1.88,3.24-2.64,3.62-2.26a1.35,1.35,0,0,1,.19,1.51,22.56,22.56,0,0,1-3.43,3.58q-8.18,8.12-9.51,11.51-1.71,4.35,6.28.95,10.08-4.35,25.49-15.67a1.08,1.08,0,0,1,1.34.19A107,107,0,0,1,251,129.84q-9.71,6.22-14.65,7.92Q230,140.22,230,136.25Z"/><path d="M232.5,199.27q-5.33,0-.76-10.18l1.52-2.83q9.9-18.69,29.3-36,7.8-6.79,23.4-15.48a10.33,10.33,0,0,0,4-3.77l1.71-2.64-.76.57-.38.37a10.8,10.8,0,0,1-4.38,2.64q-2.08.57-2.85-.75-1.51-2.83,4.09-8.59t9.61-5.75q1.51,0,1.71.57c.38.25.64.31.76.18l2.67-3.2a39.8,39.8,0,0,1,4.18-4.91c1.14-1.13,1.91-1.7,2.29-1.7l.38.38c0,.38-.51,1.07-1.53,2.08q-4.38,5.28-14.84,20.37l-1.33,1.89a141.36,141.36,0,0,0,20.55-10.94l1.9-1.32c.26-.25.51-.13.76.37a3.06,3.06,0,0,1-.95,1l-.76.56q-4.38,3.21-22.45,12.08l-2.28,3Q273.6,158,255.71,179.27,239,199.28,232.5,199.27Zm-.57-1.13q4.38.38,15.41-11.7,16.93-18.67,36.15-46.22l3.43-4.72a113.43,113.43,0,0,0-12.18,7,94.52,94.52,0,0,0-15,12.26,123.59,123.59,0,0,0-13.51,15.1q-13.51,17-15,25.66C230.79,197.26,231,198.14,231.93,198.14ZM285.39,131c1.4,0,3.33-1.16,5.81-3.49A43.06,43.06,0,0,0,297,121a6.49,6.49,0,0,0,1.33-2.45.5.5,0,0,0-.57-.57q-3.42,0-9.89,7.55Q283.1,131,285.39,131Z"/><path d="M272.83,186.26c-.12.25-.44.12-.95-.38l-.57-.19,1.71-2.64,18.27-29.63q23-36.22,33.87-49.62c.88-1,1.52-1.44,1.9-1.32s.57.06.57.19q0,.94-6.85,10.75l-4.56,6.42.38.56.38.76,3.42-1.89a30.79,30.79,0,0,1,7.23-2.83c1.27,0,2,.38,2.29,1.13q.75,1.89-3.43,7.36L324,127.76q7.23,2.83,17.69-3,3.24-1.87,6.66-4.34c.25-.25.48-.31.67-.18s.22.31.09.56l-.95,1a39.72,39.72,0,0,1-7,4.52q-9.9,5.1-18.26,2.46l-1.72,1.88q-6.84,6.42-9.32,2.08a6.44,6.44,0,0,1,0-4.91l.19-.94q-.39.57-4.57,6.42-9.7,13.2-21.88,33.39Q274.17,184.93,272.83,186.26Zm40.72-53c1,.25,2.22-.19,3.62-1.33a14.42,14.42,0,0,0,1.61-1.32c.7-.62,1.3-1.19,1.81-1.69l.57-1a12.25,12.25,0,0,1-4.37-4.15c-.13-.38-.51-.31-1.15.19a7.92,7.92,0,0,0-1.9,2.83Q311.64,132.67,313.55,133.24Zm8.56-6.23c.13,0,.48-.31,1.05-.94s1.24-1.42,2-2.36a23.26,23.26,0,0,0,1.71-2.36,9.83,9.83,0,0,0,1.52-2.64c.26-.63.32-1,.19-1.14q-.57-.55-6.28,2.08-4.56,2.46-4.56,3.4c0,.37.54,1.13,1.61,2.26S321.35,127,322.11,127Z"/><path d="M299.85,187.76a6.54,6.54,0,0,1-2.66-.75,4.76,4.76,0,0,1-1.34-4.15q0-3.21,2.48-8.3A72.56,72.56,0,0,1,309.74,159a115.46,115.46,0,0,1,16.37-14.62q8-6,15.22-7l2.47-.38,1.53-1.89,6.46-8.3-1.71.94q-4,2.46-5.71,1.14a3.12,3.12,0,0,1-.38-1.7c.26-1.51,1.65-4,4.19-7.36,1.77-2,2.92-3,3.42-3,.89,0,1.34.25,1.34.75a20,20,0,0,1-1.53,1.7q-5.7,7-5.32,9.06,1.32,0,6.85-3.77a20.4,20.4,0,0,0,4.56-4.16c3.3-3.39,5.26-5,5.9-4.9.38,0,.57.06.57.19s-1,1.44-2.85,3.58L347,136.44q4.75-.94,17.12-7a84.8,84.8,0,0,0,13.13-7.92,17.42,17.42,0,0,1,1.9-1.32.76.76,0,0,1,.76.37l-1.14,1.14a118.46,118.46,0,0,1-16.36,9.81q-11,5.09-15.79,6.22a4,4,0,0,0-1.81,1.51q-1.05,1.32-8.09,10.95Q323.64,168,316.31,176.07t-12.65,10.75A11.69,11.69,0,0,1,299.85,187.76Zm-1.9-1.5q3,2.07,12.18-6.61,7.23-6.79,22.07-26.6l10.46-14.34a.34.34,0,0,0-.38-.38q-7,.57-16.93,8.11a93.65,93.65,0,0,0-8.76,7.55q-16.92,15.85-19.4,27.93Q296.62,185.12,298,186.26Z"/><path d="M337.9,185.69a6,6,0,0,1-4.76-.76,7.42,7.42,0,0,1-2.28-4.15,16.3,16.3,0,0,1,1.52-8.86,45,45,0,0,1,9.9-13.5,64.78,64.78,0,0,1,15.6-11.22,86.85,86.85,0,0,1,12-4.91q8.94-3.21,9.89-4.15a5,5,0,0,0,.67-2.26,8.72,8.72,0,0,0,.09-2.83c-.63-1.51-2-2.08-4-1.7a3.9,3.9,0,0,0-2.86,1.13.41.41,0,0,1-.47.09c-.19-.06-.29-.15-.29-.28s0-.34.29-.66a4.39,4.39,0,0,1,1.42-.85c.89-.5,1.72-1,2.48-1.51a58.48,58.48,0,0,0,6.37-6.79q4.66-5.48,4.66-6h-.85a10.35,10.35,0,0,0-2.86,1.42c-1.59.94-3.71,2.36-6.37,4.24-.51.26-.8.22-.86-.09s.16-.66.67-1a53.26,53.26,0,0,1,4.56-3.21c4.44-2.76,6.66-3,6.66-.75a10.81,10.81,0,0,1-1.71,3.21,55,55,0,0,1-8.75,9.24l-.76.76.76.18q3.81,1.33,3.42,5.85v1.14l3.81-1.89q3.22-1.89,11.61-7.17l11.22-7.93.57-.18a.5.5,0,0,1,.57.56l-.19.19-3.23,2.45-1.9,1.32-9.9,6.61a127.24,127.24,0,0,1-12.94,7.55l-.57,1.88q-1.9,4.72-8,12.83A146.83,146.83,0,0,1,353.6,176Q343.8,184.93,337.9,185.69Zm-.95-.94q3.42-.57,9.13-4.53a71.78,71.78,0,0,0,9.71-9.06q1.9-2.07,8.75-10.38l3.8-4.9,4.76-6.42q6.28-9.06,6.28-9.62l-8.94,3.21a75.19,75.19,0,0,0-13.32,5.85A66.17,66.17,0,0,0,339,163.61a35.61,35.61,0,0,0-6,9.72q-2,5-1.24,8.4C332.57,184.24,334.29,185.25,337,184.75Z"/><path d="M403,131q-3-2.64,7.23-12.83c2.29-2.26,3.74-3.21,4.38-2.83s.44.69-.19,1.32l-.67.66c-.19.19-.5.47-1,.85a8.65,8.65,0,0,0-1.23,1.32l-3.43,3.78c2.16.37,3.24,1.13,3.24,2.26s-1.18,2.71-3.52,4.34S403.86,131.85,403,131Zm.76-.57c.13.26.54.26,1.24,0a6.92,6.92,0,0,0,2-1.13c1.9-1.51,3-2.57,3.23-3.2s0-1.14-.76-1.51a2.1,2.1,0,0,0-1.9-.19,9.82,9.82,0,0,0-2.47,2.73C404.05,128.55,403.61,129.65,403.73,130.4Z"/><path d="M427,135.12a1.77,1.77,0,0,1-.57-1.7q.38-4.14,8.56-12.26l1.14-1.32h-.38a7.86,7.86,0,0,0-1.33.75q-10.1,8.31-13.7,7.36-2.67-.95-.76-4.15a21.3,21.3,0,0,1,1.71-2.07l.57-.57c1.27-1.26,2-1.51,2.28-.76.13.26-.44,1.2-1.71,2.84q-2.47,2.82-1.9,3.39c.25.25,1.45-.19,3.61-1.32a31.16,31.16,0,0,0,7.23-4.53l1.52-1.13-.76-.94q-2.85-2.64,1.91-7.36,5.5-5.1,6.85-1.89c.38.88.12,2.14-.76,3.77a44.54,44.54,0,0,1-3,4.53l-.57.57.57-.19a2.86,2.86,0,0,1,2.85,0c.26.38-.69,1.57-2.85,3.59q-7.43,7.35-9.51,11.51l-.57,1.13.76.19a18.53,18.53,0,0,0,3.42-.95,43.28,43.28,0,0,0,4.95-2.83q5.13-3.21,14.65-10a3.08,3.08,0,0,1,1.9-.56l.19.18-.76.76L438.36,131a54.08,54.08,0,0,1-5.33,3.21C429.86,135.81,427.83,136.13,427,135.12Zm6.27-16.6c.64.25,1.59-.38,2.86-1.89q4.19-4.53,4.18-6.6c0-.25-.44-.25-1.33,0a13.85,13.85,0,0,0-4.94,4.53C432.59,116.57,432.34,117.89,433.22,118.52Z"/><path d="M455.3,136.25c-1-.5-1.08-1.06-.19-1.69s1.39-.57,1.9.18a1,1,0,0,1-.29,1.33A1.2,1.2,0,0,1,455.3,136.25Zm6.47-10.56q-.39-.19,0-1.89,1.14-4.33,7.13-12.83t19.69-26.23Q500,70,502.86,68.7a2.82,2.82,0,0,1,1.14-.18c.26,0,.39.12.39.37q0,.77-6.66,8.49-14.09,16.8-23,29.06-8.74,12.07-11.41,18.68C463,125.88,462.53,126.07,461.77,125.69Z"/></g></g></svg>