<svg xmlns="http://www.w3.org/2000/svg" viewBox="0 0 175.36 67.7"><title>Details</title><g id="Слой_2" data-name="Слой 2"><g id="Слой_1-2" data-name="Слой 1"><path d="M67.74,45.09c.84-.58,1.3-.71,1.38-.38l-.12.38q-4.78,3.85-22.51,9.1L44,54.94a49.44,49.44,0,0,1-12,6.67,33.13,33.13,0,0,1-12,1.56c-6.28-.17-10.1-.17-11.44,0a5.85,5.85,0,0,0-2.13,1.37q-4.15,3-5,3.11a1.1,1.1,0,0,1-.88-.12C-.45,67,0,66,1.73,64.79A11.62,11.62,0,0,1,5,63.17,10.41,10.41,0,0,0,8.27,61.3,90.63,90.63,0,0,0,19.71,50.2l.76-.75Q8.28,37.85,15.31,23.14q3.9-7.85,12.51-14.52T44.73.45q9.93-2,16,4.8t3.77,17.27a50.61,50.61,0,0,1-19,31.17,22.8,22.8,0,0,0,3.14-.87A97.1,97.1,0,0,0,59.44,49.2,37.42,37.42,0,0,0,67.74,45.09ZM4,64.79l-.63.12-.76.5-1.25,1c0,.08.2,0,.62-.25s.84-.52,1.26-.81S3.91,64.87,4,64.79ZM35.3,59.3c.34-.17.69-.35,1.07-.56l1.2-.69,1.25-.74q.63-.37,1.2-.75l1-.69a1.67,1.67,0,0,0,.57-.56l.25-.12-1.63.12Q31,56.69,22.1,50.82c-.08-.16-.8.42-2.14,1.75a71,71,0,0,1-7.79,7.35l-2.52,2c-.08.08,0,.17.25.25a34.11,34.11,0,0,0,3.78.12q12.06,0,15.71-.87A31.69,31.69,0,0,0,35.3,59.3Zm7.92-5.11q1.26-.49,6.16-5.36A53,53,0,0,0,63.21,24.64Q66.36,11.8,59.69,5.19,54.41-.42,43.85,1.7A40.13,40.13,0,0,0,32,7.31a46.16,46.16,0,0,0-13.58,13,23.84,23.84,0,0,0-4.33,14.77Q14.56,42.6,21,48.58q.12.12,4.59-5.92t5.22-7.3q9.93-13.59,13.83-17.45a30,30,0,0,1,5.28-4.68c1.67-1.12,2.8-1.51,3.39-1.18.33.25.29.5-.13.75a8.16,8.16,0,0,0-1.38.74q-5.16,3.75-18.1,21.7-3.78,5.11-9.93,13L22.35,50q7.17,5.49,14.71,5A37.66,37.66,0,0,0,43.22,54.19Z"/><path d="M65.35,51.2c-1.09-1.08-1-2.5.25-4.24a8.19,8.19,0,0,1,4-3.49c1-.42,1.72-.42,2.14,0,.33.25.4.66.19,1.24a3.12,3.12,0,0,1-1.2,1.5,8.13,8.13,0,0,1-3.64,1.5,1,1,0,0,0-.88.62q-1.52,2.61,1.38,3,5.65,0,14.08-5.86l1.51-1c.08-.08.21-.08.38,0a.25.25,0,0,1,.12.38,38.46,38.46,0,0,1-10.56,6C69.2,52.32,66.61,52.44,65.35,51.2ZM67.24,47a5.47,5.47,0,0,0,2.51-1,3.93,3.93,0,0,0,1.51-1.62c.08-.25,0-.37-.25-.37l-1.39.74C68,46,67.15,46.71,67.24,47Z"/><path d="M98.54,52.94q2,.38,12.2-7.48a9.5,9.5,0,0,1,2-1.37c.16-.08.29-.06.37.06s.09.23,0,.31-.88.75-2.13,1.75L108.53,48c-1,.7-1.71,1.27-2.26,1.68s-1.17.87-1.88,1.37-1.28.87-1.7,1.12-.9.52-1.45.81a3.8,3.8,0,0,1-1.32.5c-.33,0-.71.09-1.13.13a1.77,1.77,0,0,1-1.07-.19,4.45,4.45,0,0,1-.94-.75q-1.26-1.24-.75-4.24c.08-.25.2-.62.37-1.12s.27-.85.32-1.06a.82.82,0,0,0-.07-.56q-1,.75-2,1.62-3.9,3.24-3.9,4.37c0,.16-.08.24-.25.24-.5,0-.67-.2-.5-.62A49.68,49.68,0,0,1,93.26,46a35.19,35.19,0,0,0,3-5.11c.08-.42,0-.67-.13-.75a2.07,2.07,0,0,0-1.13.12q-4.78,1-11.32,6.36c-.42.34-1,.9-1.82,1.69l-2.14,2.12a4.58,4.58,0,0,0-.94,1.06l-.13.25c-.08.08-.23.06-.43-.07s-.32-.23-.32-.31q0-.75,4.15-5.61c1-1.16,1.84-2.08,2.51-2.74.84-.83,1.43-1.17,1.76-1a.48.48,0,0,1,.13.37c0,.42-.55,1.17-1.63,2.25l-.26.25A13.22,13.22,0,0,0,85.84,44q5.53-4.5,9.56-4.49a3.08,3.08,0,0,1,1.76.43,1.28,1.28,0,0,1,.5,1.31,9.3,9.3,0,0,1-1.89,3.37c-.42.5-.79,1-1.13,1.49l-.12.13a1.47,1.47,0,0,0,.37-.25,4.11,4.11,0,0,1,1.76-.87,1.1,1.1,0,0,1,.57.12.42.42,0,0,1,.19.38V46a1.77,1.77,0,0,1-.19.63,1.81,1.81,0,0,0-.19.68Q95.77,52.57,98.54,52.94Z"/><path d="M113.5,53.19a1.94,1.94,0,0,1-.88-1.87,7.06,7.06,0,0,1,.5-2.62l.25-.62-.75.37a6.08,6.08,0,0,1-1.13.75c-.17.09-.46.25-.88.5l-1,.62a1.28,1.28,0,0,1-1.57-.06,1.39,1.39,0,0,1-.31-1.68,8.48,8.48,0,0,1,2.7-3,11.83,11.83,0,0,1,4-2.25,1.76,1.76,0,0,1,2.14.63c.16.24.29.33.37.24.42-.16.72-.08.88.25l-.12.13c-.09.17-.17.31-.25.43a3.63,3.63,0,0,0-.25.44A13.56,13.56,0,0,0,113.88,50c-.42,1.33-.38,2.2.12,2.62.76.5,2.47.21,5.16-.87a47.14,47.14,0,0,0,10.31-6.24q2.13-1.62,2-.87-.14.49-3.46,2.87a60.18,60.18,0,0,1-5.85,3.74,28.48,28.48,0,0,1-3.26,1.49,13.17,13.17,0,0,1-3.08.81A3.69,3.69,0,0,1,113.5,53.19Zm-3.39-4.86c-.43.5-.59.75-.51.75A21.67,21.67,0,0,0,111.74,48Q116,45.59,116,44.34c-.16-.5-.83-.33-2,.5A17,17,0,0,0,110.11,48.33Z"/><path d="M136,54.31a1.8,1.8,0,0,1-.88-.62,3,3,0,0,1-.25-1.5q.25-2.49,4.4-7.23l1-1.12-.76.62q-2,1.5-6,4c-2.6,1.42-4.19,1.79-4.78,1.13-.67-.83-.5-2,.5-3.37,1.77-2.33,2.77-2.91,3-1.75.09.34-.25.88-1,1.62a7.94,7.94,0,0,0-1,1.25,10.44,10.44,0,0,0-.75,1.25c-.17.33-.21.54-.13.62.33.33,1.72-.2,4.15-1.62a44.45,44.45,0,0,0,9.3-6.73,9.27,9.27,0,0,1,1.51-1.12c1-.09,1.51.12,1.51.62q0,.49-3.14,3.37a46.8,46.8,0,0,0-5.91,6.85c-1.18,1.92-1.34,3-.5,3.12a5.93,5.93,0,0,0,3.58-.87q2.19-1.12,7.6-4.74l1.2-.81,1.45-1,1.13-.81,1.63-1.12a.36.36,0,0,1,.44.06c.13.13.11.27-.06.44l-.63.5-1.89,1.37q-10.43,7.11-13,7.6C136.76,54.48,136.17,54.48,136,54.31Z"/><path d="M152.6,54.94q0-1.75,2.76-5.49l.88-1.25-.12.13a1,1,0,0,0-.44.19c-.21.12-.4.23-.57.31q-3.77,2-4.65,2a1,1,0,0,1-.75-.25q-.89-1.24,1.63-4.36Q154,42.6,155.49,42l.38-.12c.33,0,.58.24.75.74.17.25-.42,1-1.76,2.25a24.8,24.8,0,0,0-2.07,2c-.72.8-1.28,1.46-1.7,2s-.59.85-.5.94.35,0,1.06-.32,1.56-.68,2.52-1.18,1.78-1,2.45-1.37a30.85,30.85,0,0,0,2.89-2.25c1.34-1.24,2.14-1.74,2.39-1.49a.89.89,0,0,1,.13,1,14.4,14.4,0,0,1-2.27,2.37q-5.4,5.37-6.28,7.61c-.76,1.91.63,2.12,4.15.62q6.66-2.87,16.85-10.35a.71.71,0,0,1,.88.13,72.66,72.66,0,0,1-8.93,6.11,51.22,51.22,0,0,1-9.68,5.23C154,57,152.6,56.68,152.6,54.94Z"/></g></g></svg>