<svg xmlns="http://www.w3.org/2000/svg" viewBox="0 0 215.77 67.7"><title>DressCode</title><g id="Слой_2" data-name="Слой 2"><g id="Слой_1-2" data-name="Слой 1"><path d="M67.74,45.09c.84-.58,1.3-.71,1.38-.38l-.12.38q-4.78,3.85-22.51,9.1L44,54.94a49.44,49.44,0,0,1-12,6.67,33.13,33.13,0,0,1-12,1.56c-6.28-.17-10.1-.17-11.44,0a6,6,0,0,0-2.14,1.37c-2.76,2-4.44,3-5,3.11a1.1,1.1,0,0,1-.88-.12C-.45,67,0,66,1.73,64.79A11.62,11.62,0,0,1,5,63.17,10.41,10.41,0,0,0,8.27,61.3,90.63,90.63,0,0,0,19.71,50.2l.76-.75Q8.28,37.85,15.31,23.14q3.9-7.85,12.51-14.52T44.73.45q9.93-2,16,4.8t3.77,17.27a50.61,50.61,0,0,1-19,31.17,22.39,22.39,0,0,0,3.14-.87A97.1,97.1,0,0,0,59.44,49.2,37.42,37.42,0,0,0,67.74,45.09ZM4,64.79l-.63.12-.76.5-1.25,1c0,.08.2,0,.62-.25s.84-.52,1.26-.81S3.91,64.87,4,64.79ZM35.3,59.3c.34-.17.69-.35,1.07-.56s.77-.44,1.19-.69l1.26-.74q.63-.37,1.2-.75l1-.69a1.77,1.77,0,0,0,.57-.56l.25-.12-1.63.12Q31,56.69,22.1,50.82c-.17-.16-.92.42-2.26,1.75A72,72,0,0,1,12,59.92l-2.39,2c-.08.08,0,.17.25.25a34.11,34.11,0,0,0,3.78.12q12.06,0,15.71-.87A31.69,31.69,0,0,0,35.3,59.3Zm7.92-5.11c.84-.33,2.9-2.12,6.16-5.36A53,53,0,0,0,63.21,24.64Q66.36,11.8,59.69,5.19,54.41-.42,43.85,1.7A40.13,40.13,0,0,0,32,7.31a46,46,0,0,0-13.57,13,23.79,23.79,0,0,0-4.34,14.77Q14.56,42.6,21,48.58l.75-.75c.51-.58,1.11-1.35,1.83-2.31s1.44-1.93,2.2-2.93q3.51-4.73,5-7.23l3.89-5.61Q42,20.53,44.61,17.91a30,30,0,0,1,5.28-4.68c1.67-1.12,2.8-1.51,3.39-1.18.34.25.29.5-.13.75a8.16,8.16,0,0,0-1.38.74,47.21,47.21,0,0,0-7.42,7.61q-6.41,7.73-10.68,14-3.41,4.74-9.94,13.09L22.35,50q7.17,5.49,14.71,5A37.66,37.66,0,0,0,43.22,54.19Z"/><path d="M68.74,54.94q2.9,0,7.92-3.12,5.79-3.62,10.44-7.11c.5-.5.84-.58,1-.25a.16.16,0,0,1,0,.25Q86.6,46,80.69,50.07c-3.61,2.33-5.91,3.74-6.92,4.24q-5,2.63-7.42.5-2-1.74,1-5.61A47.13,47.13,0,0,1,72,44.71a9.38,9.38,0,0,1,1.38-1.12l.51-.5L73.14,43a2.59,2.59,0,0,0-2.13.62c-1.35,1-2.14,1.58-2.39,1.75l-1.76,1.12c-.34-.17-.42-.33-.25-.5l3-2.24a12,12,0,0,0,1.89-1.5c.5-.5.84-.54,1-.13.08.25.54.38,1.38.38a1.51,1.51,0,0,1,.75.37c.34.25.5.46.5.63q0,.87-3.26,3.74Q66.36,52.33,67,54.06C67.15,54.65,67.74,54.94,68.74,54.94Z"/><path d="M84,51.2c-1.09-1.08-1-2.5.25-4.24a8.19,8.19,0,0,1,4-3.49c1-.42,1.72-.42,2.14,0,.33.25.39.66.19,1.24a3.12,3.12,0,0,1-1.2,1.5,8.16,8.16,0,0,1-3.65,1.5,1,1,0,0,0-.87.62q-1.52,2.61,1.38,3,5.66,0,14.08-5.86l1.51-1c.08-.08.21-.08.38,0a.26.26,0,0,1,.12.38,38.46,38.46,0,0,1-10.56,6C87.81,52.32,85.21,52.44,84,51.2ZM85.84,47a5.46,5.46,0,0,0,2.52-1,3.9,3.9,0,0,0,1.5-1.62c.09-.25,0-.37-.25-.37l-1.38.74C86.55,46,85.76,46.71,85.84,47Z"/><path d="M117.4,44.46a.71.71,0,0,1,.88.13,72.77,72.77,0,0,1-6.67,4.86,20.19,20.19,0,0,1-4.9,2.37,32.72,32.72,0,0,1-6.66,1.62,2.53,2.53,0,0,0-1.76.87c-1.26,1.33-2.39,1.94-3.4,1.81s-1.42-.93-1.26-2.43a9.29,9.29,0,0,1,.76-2.87q.38-.37,1.26.75a2.08,2.08,0,0,0,2.13,1.12c.26,0,.55-.29.88-.87A20.48,20.48,0,0,0,99.92,49l.63-1.74.25-.75a4.84,4.84,0,0,1,.5-1.12q.26-.37,1.89-2.37c1.76-1.58,2.85-2.29,3.27-2.12.58.08.29.7-.88,1.87a16.41,16.41,0,0,0-3,3,20.67,20.67,0,0,0-1.76,3.74,16.83,16.83,0,0,1-.56,1.68c-.38,1-.61,1.56-.7,1.56.09.09.42.09,1,0s1.28-.2,2.07-.37a17.93,17.93,0,0,0,1.95-.5,24.66,24.66,0,0,0,3-1A18.47,18.47,0,0,0,110,49.51c.88-.54,1.51-.91,1.89-1.12s1.23-.81,2.58-1.81S116.81,44.88,117.4,44.46ZM97,54.06l.75-.62-1.13-.5a4,4,0,0,1-1.38-.75l-.38-.37c-.17,0-.37.67-.63,2-.16,1.09,0,1.63.38,1.63C95.14,55.6,95.94,55.15,97,54.06Z"/><path d="M132.86,44.46a.71.71,0,0,1,.88.13,72.58,72.58,0,0,1-6.66,4.86,20.44,20.44,0,0,1-4.91,2.37,32.57,32.57,0,0,1-6.66,1.62,2.55,2.55,0,0,0-1.76.87c-1.26,1.33-2.39,1.94-3.39,1.81s-1.43-.93-1.26-2.43a9.62,9.62,0,0,1,.75-2.87q.38-.37,1.26.75a2.1,2.1,0,0,0,2.14,1.12c.25,0,.54-.29.88-.87A22,22,0,0,0,115.38,49l.63-1.74.25-.75a4.8,4.8,0,0,1,.51-1.12c.16-.25.79-1,1.88-2.37,1.76-1.58,2.85-2.29,3.27-2.12.59.08.29.7-.88,1.87a16.28,16.28,0,0,0-3,3,19.9,19.9,0,0,0-1.77,3.74,14.16,14.16,0,0,1-.56,1.68,5.2,5.2,0,0,1-.69,1.56c.08.09.42.09,1,0s1.28-.2,2.08-.37a19.24,19.24,0,0,0,2-.5,25.06,25.06,0,0,0,2.95-1,18.55,18.55,0,0,0,2.52-1.31c.87-.54,1.5-.91,1.88-1.12s1.24-.81,2.58-1.81S132.27,44.88,132.86,44.46Zm-20.37,9.6.76-.62-1.13-.5a4.08,4.08,0,0,1-1.39-.75l-.37-.37c-.17,0-.38.67-.63,2-.17,1.09,0,1.63.37,1.63C110.61,55.6,111.4,55.15,112.49,54.06Z"/><path d="M148,51.57a2.5,2.5,0,0,1-.88-2.87A10.77,10.77,0,0,1,149.64,45a12.87,12.87,0,0,1,4-2.87,3.38,3.38,0,0,1,2-.31c.58.13.88.4.88.81A4.54,4.54,0,0,1,155,45.21q-1.89,1.62-2.52,1.62c-.59,0-.5-.25.25-.75a10.32,10.32,0,0,0,2.39-2q1-1.19.63-1.56c-.25-.25-1.05.08-2.39,1a13.71,13.71,0,0,0-4.21,3.92c-1,1.54-1.36,2.68-.94,3.43s1.59,1,3.77.75a23,23,0,0,0,7-2.12,42.82,42.82,0,0,0,6.66-4l1-.62.63-.5a.48.48,0,0,1,.5.37l-.63.5a47.71,47.71,0,0,1-5.28,3.49l-2.77,1.37C153.86,52.65,150.12,53.15,148,51.57Z"/><path d="M164,50.32c-.34-.41-.34-1,0-1.87a11.45,11.45,0,0,1,2.51-3.61,15.87,15.87,0,0,1,2.14-2l1.26-.75c.42,0,.63-.12.63-.37,0-.08.2-.12.62-.12.59.16.92.37,1,.62-.17.17-.29.21-.38.12a.8.8,0,0,0-.37.5L171.2,44a2.43,2.43,0,0,0,.51,2.24q3.76,3.36,10.06-1.37l.87-.5c.34-.17.55-.08.63.25l-1.5,1.12a12.49,12.49,0,0,1-4.66,2.12,7,7,0,0,1-5-.62A7,7,0,0,1,171,46.08c-.17-.33-.29-.41-.37-.24a12.79,12.79,0,0,1-2.39,3.24C166.26,50.91,164.87,51.32,164,50.32Zm.75-.12c.33.42,1.3-.17,2.89-1.75a8.14,8.14,0,0,0,2.52-3.74,3.83,3.83,0,0,0,.25-1.12l-.13-.5-1.25,1.25a20.56,20.56,0,0,0-3.52,3.86C165,49.29,164.71,50,164.79,50.2Z"/><path d="M173.47,64.79c-.42-.25-.46-.83-.13-1.75q.75-2,8.68-14l1.5-2.62-.25.25a2.93,2.93,0,0,1-2,1,1.47,1.47,0,0,1-.38-.07,1.8,1.8,0,0,0-.37-.06c-.42-.41-.17-1.16.75-2.24,2.1-2.08,3.52-2.79,4.28-2.12.16.16.58-.21,1.25-1.13.25-.41.67-1,1.26-1.87a132.24,132.24,0,0,1,11.32-14.71q6.9-7.6,11.94-9.35,2.64-1.25,4,.63,1.89,2.87-4.4,9.84a71.29,71.29,0,0,1-11.56,10.23q-3.78,2.74-9.31,6l-3.27,1.75L183.65,49q-9.43,14.1-9.68,15.34a3.68,3.68,0,0,1-.19.62C173.74,65,173.63,65,173.47,64.79ZM181,47.21l.38-.13a7.2,7.2,0,0,0,1.76-1.24,3.6,3.6,0,0,0,1.25-1.63c.26-.33.3-.45.13-.37l-.75.37C182.18,45.38,181.26,46.38,181,47.21Zm6.92-4,3-1.62a70.6,70.6,0,0,0,18.23-14q5.67-6.22,5.66-9.47a1.63,1.63,0,0,0-.25-1.37q-.75-.75-4.28,1-6.92,4.13-16.84,17.58Q187.55,42.85,187.93,43.22Z"/><path d="M193,51.2c-1.09-1.08-1-2.5.25-4.24a8.22,8.22,0,0,1,4-3.49q1.5-.63,2.13,0c.34.25.4.66.19,1.24a3.16,3.16,0,0,1-1.19,1.5,8.21,8.21,0,0,1-3.65,1.5,1.05,1.05,0,0,0-.88.62q-1.5,2.61,1.38,3,5.67,0,14.09-5.86l1.5-1c.09-.08.21-.08.38,0a.25.25,0,0,1,.13.38,38.46,38.46,0,0,1-10.56,6C196.81,52.32,194.21,52.44,193,51.2ZM194.84,47a5.47,5.47,0,0,0,2.51-1,3.87,3.87,0,0,0,1.51-1.62c.08-.25,0-.37-.25-.37l-1.38.74C195.55,46,194.75,46.71,194.84,47Z"/></g></g></svg>