<?xml version="1.0" encoding="utf-8"?>
<!-- Generator: Adobe Illustrator 26.0.1, SVG Export Plug-In . SVG Version: 6.00 Build 0)  -->
<svg version="1.1" id="Layer_1" xmlns="http://www.w3.org/2000/svg" xmlns:xlink="http://www.w3.org/1999/xlink" x="0px" y="0px"
	 viewBox="0 0 197 492.5" style="enable-background:new 0 0 197 492.5;" xml:space="preserve">
<style type="text/css">
	.st0{clip-path:url(#SVGID_00000170276114680713937380000015735358737135031478_);}
	.st1{fill:#FFFFFF;}
</style>
<g>
	<g>
		<defs>
			<rect id="SVGID_1_" x="0.4" y="-20.6" width="255.3" height="513.1"/>
		</defs>
		<clipPath id="SVGID_00000176722846644607771600000016500653726019379591_">
			<use xlink:href="#SVGID_1_"  style="overflow:visible;"/>
		</clipPath>
		<g style="clip-path:url(#SVGID_00000176722846644607771600000016500653726019379591_);">
			<path class="st1" d="M59.5,353.1c-0.6-0.2-1.4,0.1-1.7,0.2c-2.2-0.9-4.2-2.2-6.4-2.5c-2.6-0.4-5.4-0.5-8,0.1
				c-3.7,0.9-6.8-0.1-10-1.6c-1.6-0.8-3.2-1.8-4.9-2.2c-2.2-0.4-4.8-1.1-6.6-0.3c-7.2,3-13.2,7.9-17.8,12.2c2.7,2.5,5.2,4.8,7.7,7
				c-0.5,0.5-0.9,1.1-1.4,1.6c4-1.1,7.4-2.7,9.4-6.9c2.5-5.1,6.9-7.8,12.4-8.7c2.4-0.4,4.5,0.1,5.2,2.8c0.6,2.6,1.3,5.2,1.5,7.8
				c0.5,6.2,0.8,12.4,1.2,18.6c0.3,0.1,0.6,0.1,0.9,0.2c7.6-9,15.1-18,22.7-27c0.6-1.1,1-2,0.1-3.4c-1.3-1.8-2.1-4.1-2.7-6.3
				c-1.9-7.1-3.8-14.2-5.3-21.4c-1.8-8.3-3.2-16.6-4.7-24.9c0.3-0.1,0.6-0.1,0.9-0.2c0.4,1.5,0.9,3,1.3,4.6c2,9,3.8,18.1,5.9,27.1
				c1.5,6.4,2.9,12.9,5.1,19c1.2,3.2,1,5.4-1,7.7c-4.4,5.1-8.9,10.1-13.3,15.3c-4.4,5.2-10.7,9.5-8.2,18c-0.8-0.2-1.3-0.3-2-0.4
				c0,1.5,0,2.8,0,4s0.1,2.4,0.3,3.6c2.1,11.8-0.4,22.3-8.8,31.1c-1.6,1.7-3.1,3.7-4.4,5.6c-4.4,6.6-7.7,13.4-3,21.6
				c-1.1,0-2.3,0.3-2.5,0c-1.8-3.1-3.5-6.4-5.5-10.3c0.7,3.6,1.3,6.5,1.8,9.3c-0.3,0.1-0.5,0.2-0.8,0.4c-1.5-7.3-6.7-11.6-12.1-15.7
				c-3.1-2-5.9-4-8.8-5.9c-3-1.9-5.4-4.3-6.1-7.8c-1-5-1.5-10.2-2.4-15.2c-0.9-5.6-1.8-11.2-3-16.7c-0.4-1.8-1.8-3.4-2.5-4.7
				c0,7.4-0.2,14.9,0,22.5c0.3,11.1,3.5,20.5,14.5,26c4,2,7,5.7,10.5,8.7c-0.2,0.3-0.4,0.5-0.6,0.8c-4.6-4.4-9.6-8.3-16-11.1
				c1.8,5.7,3.5,10.8,7.2,14.8c2.1,2.3,4.4,4.3,7.9,4.1c0.6,0,1.2,0.2,1.9,0.2c-0.3,0.6-0.4,1.6-1,1.9c-3.3,2-3.7,5.2-3.8,8.6
				c-0.1,1.1,0,2.1,0,3.2c-0.3,0-0.5,0.1-0.8,0.1c-0.3-2-0.6-4.1-0.9-6.1c-3.6,2.6-2.8,10-0.2,12.1c0.9,0.7,2.4,1.1,3.5,0.9
				c0.8-0.2,1.6-1.6,1.8-2.6c0.4-1.8,0.2-3.8,0.6-5.6c0.6-2.8,1.1-5.7,2.2-8.2c1.2-2.8,4-4.1,6.8-3.8c-0.5,0.4-0.8,0.8-1.2,1
				c-3.6,1.7-5.2,4.7-5.6,8.6c-0.2,2.5-0.3,5-0.5,7.4c-0.2,2.7-1,5.1-4.2,5.7c-2.6,0.4-5.1-1-6.5-3.8c-2.3-4.7-1.5-10.4,2.2-14.1
				c1.2-1.2,2.7-2,4.1-3c-3.1-2.1-5.2-3.5-7.4-4.9c-0.5-0.3-1.1-0.5-1.6-0.5c-12.7-0.2-21.8-6.9-29.5-16.1c-1.2-1.5-1.9-3.5-2.4-5.4
				c-2-7.2-1.4-14.3,0.7-21.4c1-3.3,2.4-6.9,2-10.1c-0.9-6.9,0.7-13.3,2.3-19.7c1.7-7.1,4.9-13.9,12.5-16.4
				c5.9-1.9,12.2-3.7,18.7-2.6c0.9,0.1,2.1-0.3,2.8-0.9c4.3-3.4,8.4-6.9,12.7-10.3c5.6-4.4,11.6-5.3,18-1.7c2.1,1.2,4.6,2.3,7,2.4
				c5,0.1,10-0.5,15.2-0.9c-3.9-9.6-8-19.6-12-29.6c0.2-0.1,0.5-0.2,0.7-0.3c0.6,1.1,1.3,2.2,1.8,3.4c3.5,8.4,7.1,16.9,10.4,25.4
				c0.8,1.9,1.7,3.1,3.6,4c1.6,0.8,2.8,2.3,4.2,3.5C62.2,354.1,60.9,353.5,59.5,353.1z M17.7,440.6c0.3,1.2,0.6,2.4,1,3.7
				c0.4-0.2,0.7-0.3,0.7-0.4c1.7-6.9,5.8-12.4,10.4-17.5c7.3-8.2,10.3-17.6,8.7-28.6c-0.5-3.2,0.3-6.5,0.2-9.8
				c-0.1-3.5-0.8-7.1-1-10.6c-0.4-5.8-0.7-11.7-1-17.4c-3.5,2-5.3,6-4.2,10c0.1,0.4,0.3,0.7,0.4,1.1c3.7,11.3,0.1,19.1-11.1,23
				c-4.2,1.5-8.9,1.9-13.4,2.7c-2.7,0.5-4.4,2.4-5.2,4.5c-2.1,5.8-3.7,11.7-5.5,17.6c-0.5,1.6-0.7,3.3-1.5,4.9c0-1.7,0-3.5,0-4.9
				c-1,1.1-2.3,2.2-3.2,3.6c-1.7,2.5-0.7,6.1,2.3,8.4c2.8,2.1,5.8,3.9,8.5,6c3.3,2.6,6.5,5.4,10.1,7.8c-2.6-5.3-5.2-10.6-7.8-15.9
				c0.2-0.1,0.3-0.2,0.5-0.3c0.8,1.2,1.6,2.4,2.5,3.6c0.1,0,0.2-0.1,0.3-0.1c-0.3-0.9-0.5-1.8-0.8-2.7c0.2-0.1,0.3-0.2,0.5-0.3
				c2,3.4,3.9,6.8,5.9,10.3c-0.7-5.8-1.4-11.4-2.1-17.1c0.1,0,0.3,0,0.4,0C14.8,428.3,16.3,434.5,17.7,440.6
				C17.8,440.7,17.7,440.6,17.7,440.6z M30.9,372.2c-0.8,5.3,0.5,10.8-2.9,15c-0.3,0-0.7,0-1,0.1c-1-5-2-9.9-3-14.9
				c0.3-0.1,0.5-0.1,0.8-0.2c1,3.9,2.1,7.8,3.1,11.7c0.2,0,0.4,0,0.6,0c0.3-2.7,0.6-5.4,0.9-8.2c0.3-2.8,0.1-5.6,0.8-8.3
				c0.7-2.6,2.2-5,3.4-7.4c0.4-0.9,1.4-1.5,1.7-2.4c0.3-1,0.5-2.5,0.1-3.3c-0.4-0.7-1.9-1-2.9-0.9c-4.2,0.3-7.7,2.1-10.1,5.5
				s-4.7,6.7-8,9.4c-2.8,2.4-4.3,6.2-6.5,9.6c0.3-1.6,0.6-3,1-4.9c-3.1,1.9-4.6,4.4-4.3,7.5c0.2,2.9,0.9,5.8,1.4,8.8
				c-0.4,0-0.7,0.1-0.8,0c-3.4-4.2-3-12.4,0.7-16.2c4.1-4.2,3-9.1-2.8-11.1c-4.3-1.5-8.7-2.1-13.1-0.7c-0.8,0.2-1.5,0.4-2.3,0.5
				c-10.5,2-15.9,7.1-17.7,17.5c-1.1,6.2-1.1,12.6-1.8,18.9c-0.4,3.7-1.1,7.5-2.1,11c-1.9,6.5-2.2,12.9-0.8,19.4
				c0.4,1.8,1,3.7,2.1,5.2c6.7,9.4,16.3,14,27.9,16.9c-1.5-3-3.2-5.2-3.6-7.7c-1-5.2-3.1-9.6-5.9-14c-4-6.1-5.1-13.3-4.7-20.6
				c0.5-7.9,0.9-15.9-1.5-23.8c2.8,1.2,6.1,5,7.1,9.4c1.4,6.7,2.1,13.5,3,20.3c0.3,2.1,0.4,4.3,1.3,6.5c0.3-3,0.6-5.9,0.9-8.9
				c0.2,0,0.4,0,0.6,0c0.1,2.2,0.2,4.3,0.3,6.5c3.2-3.9,2-8.9,3.8-13.8c0.2,1.5,0.2,2.3,0.3,3.1c0.3,0,0.5-0.1,0.8-0.1
				c-0.8-5.6-1.5-11.2-2.4-16.8c-0.9-5.2,0.4-9.9,2.2-14.5c0.4-0.1,0.7-0.2,1.1-0.2c0.8,1.9,1.7,3.8,2.3,5.8
				c1.1,3.4,2.1,6.8,3.2,10.2c0.6,1.9,2,2.9,4.1,2.7c2.7-0.3,5.5-0.8,8.2-1.2c1.7-0.2,2.2-1.1,1.7-2.7c-0.4-1.3-0.6-2.7-0.4-4.2
				c0.7,1.7,1.4,3.4,2,5.1c0.1,0,0.3,0,0.4-0.1c-0.6-2.6-1.3-5.3-1.9-7.9c0.2-0.1,0.4-0.1,0.6-0.2c1,2.5,2,5.1,3.1,8.1
				c0.6-0.3,1.4-0.6,2.1-1l-0.1,0.1C31.8,387.1,34.5,380.4,30.9,372.2z M-1.4,406.2c2.3-3.7,4-6.5,5.5-9c-2-5.6-4.1-11.3-6.2-17.3
				C-5.9,388.8-0.3,396.9-1.4,406.2z"/>
			<path class="st1" d="M49.7,117.4c0.1-0.2,0.2-0.3,0.4-0.5c1.3,0.8,2.6,1.9,4,2.5c1.1,0.4,2.5,0.2,3.8,0.2
				c-0.4-1.2-0.4-2.8-1.2-3.5c-1.5-1.4-3.3-2.6-5.1-3.5c-1.7-0.8-2.8,0.1-3,2c-0.2,1.4-0.3,2.8-1,4.2c-0.1-1-0.3-1.9-0.5-3.6
				c-1,1-1.6,1.7-2.1,2.1c1.7,2.8,3,5.2,4.5,7.7c1.4-1.4-1.2-4.7,2.2-5.3c0.2,2.3,0.5,4.5,0.5,6.8c0.1,6,0,12,0,17.9
				c2.8,0.9,4-0.2,4.6-2s1-3.6,1.3-5.5c0.9-5.4,3.1-10.2,6.7-14.4c2.7-3.2,8.2-5.5,12.6-4.6c-2.5,1.7-4.4,3.2-6.5,4.4
				c-4,2.3-6.5,5.5-7,10.1c-0.2,1.8-0.4,3.5-0.5,5.3c-0.4,0-0.7-0.1-1.1-0.1c0.4-3.3,0.7-6.7,1.1-9.8c-2.7,3.4-3,7.8-4.1,12
				c-0.5,1.8-1,3.7-2,5.2c-1.4,2.4-3.7,1.6-5.5,0.6c-0.7-0.4-0.9-2-1-3.1c-0.1-3,0-6.1,0-9.2c-0.3,0-0.6,0-0.9,0
				c0,9.6,0,19.2,0,28.7c-0.3,0-0.5,0-0.8,0c-0.1-1.2-0.2-2.3-0.2-3.5c-0.1-8.4-0.3-16.7-0.4-25.1c-0.1-4.6-1.6-8.9-4.4-12.8
				c-1.4,3.6-2.3,7.3-3.3,11c-0.3,1-0.6,2-0.9,3c-1.1-0.5-2.6-0.7-3.3-1.6c-1.6-2-2.8-4.2-4-6.1c-3.2,1.6-6.4,3.3-9.7,4.9
				c-1.8,0.9-3.7,1.5-5.3,2.5c-7.1,4.7-16.5,3.2-21.8-3.5c-0.8-0.9-2.3-1.9-3.4-1.9c-5.3,0.3-10-1.5-14.5-3.8
				c-9.9-5-15.7-15.8-14.4-26.8c0.1-0.7-0.8-1.8-1.4-2.4c-3.1-2.7-6.7-5-9.5-8c-5-5.3-4.2-9.8,2-13.8c6.5-4.2,20.8-2.4,27.3,4
				c-1.7-0.7-2.6-1.2-3.6-1.5c-4-1.2-7.9-2.7-12-3.5c-4.3-0.8-8.5-0.1-12.1,2.7c-4.3,3.4-4.9,6.4-1.1,10.3c3.1,3.3,6.9,5.9,10.5,8.7
				c1.4,1.1,2,1.8,1.8,3.8c-0.4,2.9-0.4,6,0.4,8.8c3.4,12.1,13.7,19.7,26.2,20.2c1.6,0.1,3.8,1,4.7,2.3c3.6,4.7,8.5,6.1,14,5.9
				c1.9-0.1,3.8-1.3,5.6-1.9c-2.5-0.9-4.7-1-6.8-1.5c-8.3-1.7-15.1-9.9-14.1-17.4c0.4-3-0.8-4.8-3.1-6.1c-2.3-1.4-4.8-2.5-7-3.9
				c-5.1-3.3-7.8-7.8-6.5-14.1c0.5-2.2,0.9-4.5,1.6-6.6c2.2-5.9,2.7-12,1.4-18.2c-0.3-1.5-0.8-3-0.6-4.4c0.5-2.9-0.6-4.8-2.7-6.4
				c0,0,0.1-0.3,0.4-1.1c1.4,1.7,2.8,3,3.8,4.6c2.7,4.3,7.4,5.4,11.7,2.6c4.6-3.1,9.6-3.7,14.8-2c4.9,1.6,9.2,4.1,12.8,8
				c4.4,4.8,9,9.6,13.5,14.3c5.3,5.4,9.5,11.5,12,18.6c0.1,0.4,0.5,0.7,0.7,1c0.3-0.1,0.6-0.1,0.8-0.2c-0.3-14.3-0.6-28.7-0.9-42.2
				c2.4,12.6,2.7,26.1,2.1,39.8c4-11,4.5-22.6,5.3-34.2c0.4,3,0.4,5.9,0.4,8.9C55.8,82.2,55.2,91,51.4,99c-1.9,4-2.4,7.9-2.5,12.3
				c0.7-0.4,1.6-1.1,1.8-1c3.1,2.3,6.1,4.6,8.9,7.2c0.5,0.5,0.2,2.7-0.4,3.4c-0.8,0.8-2.5,1.3-3.7,1.1c-1.4-0.2-2.6-1.3-3.9-2
				C50.9,118.9,50.3,118.2,49.7,117.4z M12.7,111.2c0.2-1.2,0.3-1.6,0.4-2.5c3.1,6.3,7.6,10.3,14.4,11.3c-0.9-1-1.8-1.9-2.7-2.9
				c-5.6-6.1-9.6-13.1-13.1-20.5c-4.1-9.3-10-17.1-19.6-21.4c-1.5-0.7-3.1-1.1-4.6-1.6c-0.3,0.2-0.5,0.4-0.8,0.6
				c0.4,1.5,0.4,3.4,1.3,4.5c2.6,3.2,5.3,6.4,8.4,9.1c3.7,3.3,7.9,6.1,8.3,11.8c0,0.3,0.5,0.6,0.7,0.9c-0.5,1-1.4,2-1.6,3.1
				C2.5,110,5,114.4,11,116.8c2.9,1.1,5.9,2.1,9.2,2.7c-0.5-0.5-1.1-0.9-1.6-1.4c-3.8-4.1-7.8-8.1-11.4-12.4c-1.1-1.3-1.3-3.4-2-5.2
				C7.7,103.8,10,107.2,12.7,111.2z M20.6,105.2c0.2-0.2,0.5-0.3,0.7-0.5c3,5.1,6.1,10.2,9.1,15.3c0.4-0.2,0.8-0.5,1.3-0.7
				c-3.5-7.4-6.9-14.7-10.4-22.1c0.2-0.1,0.3-0.2,0.5-0.3c1.9,3.5,4,6.8,5.7,10.4c1.7,3.5,3.2,7.2,5,10.7c-1-7.3-4.5-13.8-7.1-20.6
				c0.2-0.1,0.5-0.2,0.7-0.3c2.3,5.3,4.7,10.7,7,16c0.2,0,0.3,0,0.5-0.1c-1.1-6.2-2.3-12.4-3.4-18.6c0.3-0.1,0.6-0.1,0.8-0.2
				c1.2,5.5,2.6,11,3.6,16.6c0.4,2.1,1.5,4.5-0.6,6.7c-0.5,0.5,0.8,2.8,1.3,4.2c2.7-2.7,5.5-5.4,8.3-8.1c0.2,0.2,0.4,0.5,0.7,0.7
				c-3.1,3.6-6.3,7.2-9.8,11.3c0.9,1.6,2.1,3.9,3.7,7c1.5-4.9,2.6-8.9,3.9-12.9c0.3-1,0.7-2.1,1.4-2.9c3.9-4.4,4.6-9.3,2.7-14.7
				c-2-6.1-4.9-11.7-9.3-16.5c-5.8-6.1-11.5-12.5-17.7-18.4c-5.2-5.1-11.4-8.4-19-7.1c-1.8,0.3-3.6,1.2-5.2,2.1
				c-4.8,2.8-6.6,2.7-11-0.7c-0.4-0.3-0.9-0.6-1.8-1.2c0.6,3.8,1.3,7.1,1.4,10.4c0.1,3.4-0.3,6.9-0.9,10.3s-1.7,6.7-2.4,10.1
				c-0.9,4.7,0.9,8.4,4.7,11.1c2.3,1.7,5,2.9,7.4,4.4c3.2,1.9,5.2,4.1,4.6,8.4c-1,6.7,3.2,11.1,8.4,14.2c7.1,4.2,18.8,2.6,24.9-2.9
				c0.8-0.8,1.3-1.8,2.3-3.3c-8.9-0.6-16.7-2.3-24-5.8c-4.6-2.2-7.4-7.4-6-12.7c1.6-6.4-0.3-10.8-5.5-14.7c-3.5-2.6-6.6-6-9.5-9.4
				c-1.6-1.9-3.3-4.8-1.3-7c2.1-2.3,4.7-0.3,7,0.7C3,78.2,9,86,13.3,95.3c3.2,6.8,6.7,13.3,12.1,18.8
				C23.8,111.1,22.2,108.1,20.6,105.2z"/>
			<path class="st1" d="M116.1,379c5.6,0.6,10.3,3,14.5,7.1c3.5,3.4,7.6,6.4,11.6,9.2c1.6,1.1,3.9,1.4,5.9,1.5
				c3.5,0.1,5.7-2.2,5.9-5.7c0.1-1.4,0.1-2.8-0.1-4.2c-0.6-4.9,1.4-8.3,5.2-11.3c3.4-2.7,6.8-5.6,9.4-9c1.6-2.1,1.9-5.3,2.1-8.1
				c0.1-1.3-1.2-2.7-2.5-3.9c2.1,3.4,2,6.9,0,9.9c-1.9,2.8-4.4,5.3-6.9,7.7c-1.4,1.4-3.3,2.2-4.9,3.4c-3.6,2.8-5,6.6-4.6,11.1
				c0.1,0.9,0.3,1.8,0.4,2.7c0.2,4.2-2.6,6.9-6.3,5.1c-4.7-2.2-9.3-5-13.1-8.5c-4.4-4-8.9-7.3-14.9-8.1c-1.6-0.2-2-0.9-2.3-2.4
				c-0.6-3.4,0.5-5.8,2.8-8.4c9.1-10.4,20.2-17.8,32.3-24.2c-14.9,4.4-26.1,14.1-35.5,25.2c-2.9-1.6-5.3-3.1-8-4.3
				c-4-1.8-7.7-3.7-9.1-8.6c-1.6,1.9-1,3.7,0.3,4.8c2.6,2.2,5.5,4.1,8.4,5.9c2.1,1.4,5.3,1.3,5.5,5c0.1,2.3,2.2,4.3,0.5,7
				c-0.8,1.3-0.2,3.4-0.6,5c-0.3,1.3-1.1,2.4-2.2,3.4c0-2.3,0-4.7,0-7c-0.1-7.1-3.2-10.4-10.2-11.4c-2.4-0.3-4.8-1.2-7.2-1.8
				c-2-0.5-2-1.5-1-3c1-1.6,2-3.2,2.5-5.1c-1.8,2.5-5.3,3.9-4.8,7.8c0,0.4-0.3,0.9-0.6,1.1c-5.9,3.4-8,9.4-10.2,15.3
				c-0.3,0.7-0.5,1.5-1.5,2.3c-0.2-1-0.8-2.2-0.4-2.9c3.5-6.5,7-12.9,10.8-19.2c0.8-1.4,2.4-2.4,3.7-3.6c-0.2-0.3-0.5-0.6-0.7-0.9
				c-1.3,1-3,1.7-3.8,3c-3.2,5.2-6.2,10.6-9.3,15.9c-0.6,1.1-1,2.4-1.9,3.6c-4-8.2-8.7-16.1-5.9-25.9c-0.3-0.1-0.5-0.2-0.8-0.3
				c-0.6,1.6-1.7,3.3-1.6,4.9c0.2,3.7,0.5,7.6,1.6,11.1c2.6,8.6,7.2,16.3,12.1,23.8c3.4,5.1,6.7,10.3,9.8,15.7
				c3.1,5.3,2.7,8.5-1.5,12.9c-5.2,5.4-9.7,11.3-13.3,17.9c-4.8,8.8-12.8,12.3-22.5,11.5c-7.8-0.6-15.4-0.4-23.1,1.1
				c-2.6,0.5-4.9,1.3-6.2,4.5c1.3-0.8,2.2-1.4,3.4-2.2c0.4,1.9,0.7,3.5,1.1,5.1c2.6,10,5.4,20,7.6,30c1.1,5.1,0.8,10.5,1.5,15.7
				c2.1,15.2,2.7,30.5,1.8,45.8c-0.8,13.9-1.9,27.8-2.6,41.7c-0.6,11.4-0.8,22.8-1.2,34.3c0.3,0,0.7,0,1,0c1-16.9,2-33.8,3-50.7
				c0.1,0,0.2,0,0.4,0c0,10.3,0,20.6,0,31c0.3,0,0.6,0,0.9,0c0-10.2,0-20.3,0-30.5c0.3,0,0.6,0,0.8,0c0.4,7.5,0.7,15,1.1,22.5
				c0.3,0,0.7,0,1,0c-0.4-10.2-0.8-20.5-1.1-30.7c-0.2,0-0.5-0.1-0.7-0.1c-0.6,1.2-1.2,2.4-1.8,3.5c3.6-39.9,1.1-79.3-11.9-118.5
				c7.9,0,14.8,0,21.1,0c-1.6,10.8-3.2,21.6-4.8,32.5c0.4,0.1,0.9,0.1,1.3,0.2c0.4-2.6,0.7-5.2,1.2-7.7c1.3-7.3,2.6-14.7,3.8-22
				c0.4-2.1,1.3-3,3.6-2.9c11.7,0.3,19.5-5.6,25-15.7c2.8-5.1,6.7-9.6,10.4-14.1c5.3-6.4,5.9-10.3,1.6-17.5
				c-3.8-6.3-8-12.4-11.8-18.7c-0.7-1.2-0.9-3.2-0.4-4.6c1.1-3.3,2.4-6.5,4.2-9.5c1.3-2.2,3.1-4.1,5-5.8c1.9-1.7,4.2-2.3,6.9-1.1
				c1.7,0.8,3.8,0.9,5.8,1.2c3.9,0.6,6.2,2.1,6.7,6c0.5,3.8,0,7.7,0.1,11.5c0,1.2,0.7,2.4,1.1,3.6c1.1-0.7,2.6-1.2,3.1-2.2
				C113.7,385.2,114.8,382.2,116.1,379z"/>
			<path class="st1" d="M-17.4,208.5c0.6,1.3,1.1,2.5,1.8,3.7c0.6,1.1,1.5,2.1,2.3,3.3c-2.3,3-1.5,6,0.4,8.8
				c3.6,5.4,8.1,9.7,14.6,11.5c0.7,0.2,1.7,0.9,1.8,1.5c1.4,5.4,2.2,10.9,1,16.5c-1.2,5.3-4.9,8.2-9.9,10.4
				c-0.4-1.1-0.8-2.1-1.2-3.2c-0.1-0.2-0.2-0.5-0.4-0.7c-2.3-3.4-4.5-6.9-6.8-10.3c-0.3,0.2-0.6,0.3-0.8,0.5
				c2.7,5.1,5.4,10.2,8.1,15.4c4.8-2.5,10.6-4.9,11.6-11.2c0.8-5.5,0.2-11.2,0.2-17.1c0.6,0.7,1.4,1.2,1.8,2
				c1.7,3.7,3.7,7.3,4.9,11.1c1.9,6,2.9,12.3,4.9,18.3c1.2,3.7,3.2,7.1,5,10.5c3.5,6.6,6.2,13.4,6.2,20.9c0,4.3-1,8.6-1.6,13
				c-0.3,0.1-0.5,0.1-0.8,0.2c-2.8-4.6-5.6-9.2-8.6-13.8c-2.9-4.4-5.9-8.8-8.9-13.2c-0.2,0.1-0.4,0.3-0.7,0.4
				c5.7,8.9,11.2,18,17.2,26.7c1.8,2.7,2.6,5.2,2.1,9.3c-2.2-2-4.4-3.3-5.7-5.2c-2.6-4.1-4.7-8.5-7.1-12.8c-0.6-1-1.2-2-2.4-2.7
				c1.1,2.2,2.2,4.4,3.4,6.5c-2.5,2.8-6,3.6-9.8,2.3c-4.1-1.4-5.4-3.2-5.5-7.8c-0.1-3.1-1.1-5.6-3.3-7.7c-1.9-1.8-3.9-3.6-5.8-5.4
				c-0.3,0.3-0.6,0.6-0.9,0.9c2.1,1.8,4.2,3.5,6.2,5.3c2.1,2,3.1,4.5,3.1,7.5c0,6.7,5.3,10.5,11.9,8.6c0.9-0.3,1.9-0.6,2.9-0.9
				c3.2,6.8,8,11.6,15.9,13.9c-0.8-5.7-1.4-10.9-2.2-16.5c1,0,2,0,2.9,0c5,0.2,9.6-1.1,13.4-4.2c2-1.6,3.5-4.2,4.6-6.7
				c1.6-3.6,2.5-7.5,3.8-11.3c2.9-8.2,9.3-13.4,15.8-18.6c2.8-2.2,5.5-4.7,7.6-7.5c4.1-5.6,3.6-10.2-1.2-15.2
				c-1.8-1.9-3.8-3.8-5.7-5.7c-2.1-2.1-3-4.7-2.7-7.6c0.9-8-1.3-11.9-8.8-14.8c-2.3-0.9-4.7-1.4-7-2c1.8-14.6,3.7-29.1,5.3-42.2
				c0,3.8,0.3,9.2-0.1,14.5c-0.4,7-1.4,14-1.9,21.1c-0.1,1.5,0.8,3,1.7,4.5c2.7-16.8,4.6-33.5,3.2-50.9c-0.5,6.9-0.9,13.3-1.2,17
				c-0.4-7.4-0.9-17.4-1.4-27.4c-0.1,0-0.2,0-0.4,0c-1.1,13.5-2.1,26.9-3.2,40.4c-0.3,0-0.5,0-0.8,0c0-10.7,0-21.4,0-32
				c-0.3,0-0.5,0-0.8,0c-0.7,18.3-1.3,36.5-2,55.2c-7.2-0.5-13.2-3.7-18.4-8.6c-5.4-5.1-7.3-11.6-6.9-19c-0.4,0-0.8,0-1.2-0.1
				c-0.3,1.8-1,3.5-0.9,5.3c0.2,5,2,9.5,5.4,13.3c6,6.8,13.4,10.5,22.6,11.2c3.6,0.3,7.2,1.5,10.5,2.9c4,1.7,5.6,5.3,5,9.6
				c-0.8,4.8,0.6,8.6,4.2,11.7c1.7,1.5,3.3,3.2,4.8,4.9c3.9,4.2,4.2,8.6,0.5,13.1c-2.1,2.5-4.5,4.9-7.2,6.7
				c-11.4,7.3-18,17.7-20.7,30.8c-1.1,5.3-5.2,7.2-9.6,8.9c-2.2,0.8-4.5,1.2-6.6,1.7c-0.4-5.6-0.5-10.7-1.2-15.7
				c-0.9-6.9-3.2-13.4-6.8-19.3c-4.2-6.7-5.8-14.3-7.9-21.8c-1-3.7-2.6-7.3-4.5-10.6c-1.5-2.7-3.8-4.6-7.2-5.7
				c-6-1.9-10.8-5.9-14.1-11.4c-1.3-2.2-2.8-4.5,0-6.9c0.4-0.3,0.1-1.7-0.3-2.3c-0.7-1.3-1.8-2.4-2.5-3.7c-2.5-4.4-1.4-7.7,3.5-8.9
				c5-1.2,10.2-1.7,15.3-2.4c4.2-0.6,8.2-1.6,11.2-5c0.6-0.6,1-1.4,1.5-2.1c-0.4-0.2-0.7-0.4-0.8-0.4c-4.9,5.1-11.4,5.4-17.9,6.2
				c-3.6,0.4-7.3,1.1-10.8,2.1C-16.5,201.3-17.9,204-17.4,208.5L-17.4,208.5z"/>
			<path class="st1" d="M104.2,199.5c-1.8-2.1-3.7-4.2-5.8-6.6c1.9,1,3.4,1.9,4.9,2.5c5.2,2.1,9.7,0.4,11.1-4.9
				c1.4-5.1,4.8-6.2,9.3-5.8c4.4,0.4,8.9,0.9,13.3,1.2c2.4,0.2,4.3,0.9,5.7,3c1.5,2.2,3.4,4.1,5.2,6.1c0.3-0.2,0.5-0.4,0.8-0.6
				c-2-2.5-4-5-5.9-7.5c2.1-1,4.3-2,7.1-3.4c1.2,1.4,2.7,3.1,4.3,4.9c0.2-0.2,0.4-0.3,0.7-0.5c-1.2-1.7-2.1-3.7-3.7-4.9
				c-2-1.6-1.5-3.5-0.8-5c0.6-1.1,2.4-2.1,3.7-2.2c1.8,0,3.6,0.8,5.4,1.4c2.8,1,5,0.4,6.7-2.1c2.9-4.1,4.5-8.8,4.3-13.7
				c-0.2-2.8-2.2-5.5-3.6-8.2c-0.5-0.9-1.5-1.5-2.2-2.2c0.1-0.2,0.2-0.4,0.2-0.4c7.1-3.4,10.3-9.2,10.7-17c0.1-2.7,0.9-5.5,1.6-8.2
				c2.9-10.9-3.1-19.6-14.6-20.1c-3.9-0.2-7.9,0.6-11.6,1.8c-4.9,1.6-9,1.7-13.3-1.9c-6.6-5.5-13.7-5.6-20.9-1
				c-2.3,1.5-4.7,2.7-6.7,4.5c-5,4.6-11,6.4-17.6,7.2c-7.1,0.9-13.3,4-18.9,8.2c-5,3.8-6.7,9.4-7.5,15.4c-0.1,0.5,0.3,1,0.7,2
				c0.5-1.1,1-1.6,1.1-2.2c2.7-13.5,12.8-18.5,24.7-20.8c7.1-1.4,13.7-2.9,19.1-8c2.2-2.1,5-3.6,7.6-5.2c5.2-3.3,10.5-3.3,15.7,0
				c2.2,1.4,4.3,2.9,6.5,4.4c-2.6,2.7-5.1,5-8.5,6.7c-7.6,3.8-14.6,8.7-21.8,13.2c0.2,0.3,0.4,0.6,0.6,1c6.7-4.2,13.5-8.4,20.2-12.7
				c0.2,0.3,0.4,0.6,0.5,0.8c-7.1,4.5-14.2,8.9-21.3,13.4c0.2,0.3,0.3,0.6,0.5,0.9c6.2-3.7,12.7-7.2,18.7-11.3
				c4.1-2.9,7.5-6.8,11.2-10.2c0.5-0.5,1.2-1.1,1.8-1.3c3.8-1,7.7-1.7,11.5-2.8c7-2,13.2-0.3,18.5,4.4c2.8,2.5,3.9,5.7,3.1,9.4
				c-1.2,6-2.5,12.1-3.8,18.1c-1.1,5.1-5.1,7.7-9.3,9.9c-1,0.5-2.6-0.2-4.6-0.3c1.6,1.2,2.9,2.1,4.1,3c3.7,2.8,6.5,6.2,5.4,11.1
				c-0.8,3.6-2.2,7.1-3.7,10.6c-0.9,2.1-2.7,2.6-5,1.8c-1.8-0.6-3.6-1.2-5.5-1.3c-3.5-0.2-5.5,1.5-6,4.9c-0.7,4.6-2.5,6.2-7.1,5.8
				c-5.2-0.4-10.5-1.1-15.7-1.5c-2.2-0.2-4.6-0.1-6.8,0.3c-2.6,0.4-4.3,2.1-4.9,4.6c-1.6,6.9-6.1,8.2-12.7,4.3
				c-4.1-2.4-8.3-4.6-12.8-6.2c-3.4-1.2-6.9,0.1-7.9,2.4c-0.7,1.5-0.7,3.2-1,4.8c-7.7,0.4-15.2-7-15.9-15.8c-0.3-4.7-0.4-9.3-0.6-14
				c-0.1-1.4-0.3-2.9-0.4-4.3c-0.3,0-0.6,0-0.9,0c0,2.5-0.1,5,0,7.4c0.2,4.7,0.1,9.4,0.7,14c1.2,8.4,10.2,15.4,18.8,15.2
				c1.2,0,2.6,1.3,3.8,2.3c3.2,2.7,6.2,5.8,9.6,8.3c2.7,2,6,2.2,9.4,1.4c6.6-1.5,7.6-1,10.9,4.7c4.4,7.5,6.6,8.2,14.7,4.8
				c4.2-1.8,7.8-4.3,9.9-8.6c1-2.2,2.7-3.2,5.2-3.2c3.3,0.1,5.6-1.4,7.5-4.4s4.8-5.3,7.1-8c3.2-3.7,1.8-11.4-2.5-13.8
				c-0.2-0.1-0.6,0-1.2,0.1c1.1,2.1,2.1,4.1,3.2,6.1c1.2,2.4,1,4.5-0.8,6.6c-2.9,3.4-5.6,6.9-8.7,10.1c-1,1-2.8,1.5-4.3,1.7
				c-3,0.3-4.9,1.7-6.3,4.3c-2.9,5.4-7.9,8-13.6,9.3c-4.1,0.9-5.8-0.1-7.7-3.8c-0.1-0.3-0.2-0.5-0.4-0.8c-4.1-8.3-5.2-8.8-14.4-7.4
				c-5,0.8-8.9-1.7-12.4-4.7c-2.6-2.2-5-4.6-7.4-6.9c-2.2-2.1-1.5-5.2,1.4-6.2c3.6-1.3,9.1,1.1,11.3,4.2c2.2,3.2,4.9,6,7.4,8.9
				C103.1,200.6,103.6,200,104.2,199.5z"/>
			<path class="st1" d="M88.9,352.1c2.7,1.5,4.5,0.8,4.9-2c0.5-3.3,0.7-6.7,0.6-10.1c-0.1-3.2-0.8-6.3-1.4-9.4c0,3.6,0,7.3,0,11
				c-0.2-0.1-0.6-0.2-0.6-0.3c-3.6-8.3-7.7-16.4-10.8-24.9c-3.5-9.5-4.5-19.6-2.7-29.7c0.3-1.9,1.2-3.8,2.1-5.5
				c1.7-3.3,4.5-4.9,8.1-4.3c4.7,0.8,8.6-0.7,12.2-3.6c7.8-6.4,16.9-7.7,26.4-6.5c2.6,0.3,5.1,1.9,7.5,3.3c2.9,1.7,5.7,3.7,8.2,5.9
				c2.2,1.9,4.5,4,5.9,6.5c2.3,4.2-0.3,8.4-5,8.8c-3.7,0.2-7.4,0.2-11,0.6c-8,1-13.6,5.7-17.6,12.4c-4,6.5-5.7,13.7-7.5,20.9
				c-1.4,5.7-3.3,11.3-5.5,16.8c2.8-8.5,3.9-17.2,3.9-26.1c0-1.7-0.2-3.3-0.4-5c-1,13.5-1.6,27.1-10,39.2c1.1-0.3,1.6-0.5,2.1-0.6
				c0.2,0.2,0.3,0.4,0.5,0.6c-0.7,0.5-1.5,1-2.2,1.5c-0.6,0.5-1.2,1-1.6,1.8c2.9-0.7,4.7-2.6,6.2-5.1c4.3-7.4,6.6-15.5,8.8-23.7
				c1.7-6.3,3.7-12.6,6.4-18.5c4.2-9,11.7-13.5,21.8-13.3c3,0.1,5.9,0,8.9,0.2c4.1,0.2,6.9,3.1,6.9,7.1c0,0.6,0,1.2,0,1.8
				c0.1,5.5,1.1,6.2,6.4,5.6c8.9-1,16.5,2,23,7.8c1.5,1.3,2.8,3.8,2.7,5.7c-0.1,4.4,1.7,7.6,4.6,10.5c0.3,0.3,0.4,0.6,0.8,1.2
				c-5.4,1.9-10.6,3.8-15.9,5.7c0.1,0.3,0.2,0.6,0.3,0.9c5.4-1.9,10.8-3.7,16.7-5.8c0.6,2,1.5,3.8,1.8,5.8c0.1,0.7-1,1.9-1.9,2.3
				c-3.8,1.7-7.7,3.2-11.5,4.8c-0.8,0.3-1.6,0.8-2.3,1.2c0.1,0.2,0.2,0.5,0.3,0.7c5.1-1.9,10.1-3.7,15.4-5.7c0.1,3.5-2,5-4.6,5.5
				c-4.7,1-9.6,1.8-14.4,2.4c-12.3,1.5-24.4,3.8-35.2,10.2c-1.3,0.8-2.5,1.8-3.6,3.1c4.4-2,8.7-4.2,13.1-5.9
				c10.8-4.2,22.2-5.3,33.5-6.7c2.8-0.4,5.7-1,8.4-2c3.9-1.4,5.6-5.6,4.9-9.7c-0.7-4.2-2.5-7.7-5.5-10.7c-1.9-1.9-2.9-4.1-2.8-6.9
				c0.3-4.3-1.9-7.6-5.4-10.1c-6.8-4.8-14.2-7.5-22.6-6.7c-3.9,0.4-3.9,0.3-4.3-3.7c0-0.4-0.1-0.8-0.1-1.2c0.5-4.3-0.5-7.5-5.5-8
				c-0.4,0-0.8-0.5-1.2-0.8c4.4-5.5,4.5-10.2-3.6-16.7c-3.5-2.8-7.2-5.3-11.1-7.5c-5.4-3.2-11.4-2.3-17.2-1.8
				c-6,0.5-11.4,2.6-16.2,6.3c-3.7,2.9-7.6,4.3-12.5,3.3c-3.9-0.8-7.6,0.8-9.3,4.4c-1.7,3.4-3.1,7.2-3.5,10.9
				c-1.3,13.5,1.9,26.2,8,38.3c2.1,4.1,3.9,8.3,5.8,12.4c0.7,1.5,1.2,3.2,1.7,4.8C92.3,348.7,92.6,351.2,88.9,352.1z"/>
			<path class="st1" d="M-40.5,276.2c5.1,1.7,6.7,5.9,7.3,10.6c0.3,1.8,0.2,3.8,0.1,5.6c-0.2,3.1-0.6,6.1-0.9,9.2
				c-0.3,2.6,0.9,4.3,3,5.7c4.3,2.8,8.8,2.1,13.5,1.3c9.3-1.6,14.5-1.9,21.1,7.2c-5.3-2-9.2-0.1-13.1,2.7c-7.7,5.6-9.3,5.5-16.5-0.7
				c-1.7-1.4-3.3-3.3-4-5.3c-0.5-1.5-1-2.6-2.4-3.3c-3.5-1.7-4.6-4.5-4.2-8.4c0.5-4.6,1.1-9.3,0.8-13.9c-0.4-7.1-5.2-10.5-12.1-9
				c-2.2,0.5-4.2,2.1-6.6,3.3c0,0-0.5-0.3-0.7-0.8c-2.8-5.3-5.3-10.6-5.2-16.9c0.1-3.9,0.7-7.1,4.5-8.9c2.1-1,2.4-2.5,1.6-4.6
				c-1.5-4.2-0.5-8,2.7-10.9c2.3-2.1,5-4.1,7.8-5.2c6.6-2.7,13.5-4.9,20.8-1.9c-0.9-8.1,2.1-12,8-10.1c-0.4,0.2-0.6,0.4-0.9,0.5
				c-6.4,2.2-7.5,6.3-3.6,11.9c0.8,1.1,0.5,3.3,0.1,4.9c-0.2,1-1.5,1.8-2.3,2.6c-2.5,2.7-2.9,5.1-0.7,8c1.3,1.8,3.2,3.2,4.9,4.7
				c1.1,0.9,2.3,1.6,3.5,2.3c-0.1,0.2-0.3,0.4-0.4,0.6c-1.7-0.8-3.4-1.5-5-2.5c-6.7-4.5-7.4-9.6-2.3-15.6c2.1-2.5,1.7-3.9-1.5-5.3
				c-7.8-3.2-22.1,0.5-27.4,7.1c-1.9,2.4-2.7,5-1.9,8.1c1.2,4.6,1.2,4.7-3.2,7.2c-2.5,1.4-3.3,3.2-3.5,6c-0.4,6.3,2,11.8,4.6,17.6
				C-50.4,275.9-45.4,274.6-40.5,276.2z M-12.7,309.9c-5.3,0.7-10.5,1.4-16.2,2.1c1.3,1.4,2.6,3.3,4.3,4.5c7.7,5.3,5.4,5.7,13.9,0.8
				c3-1.7,6.3-3.1,9.5-4.6C-4.3,309.6-8.3,309.3-12.7,309.9z"/>
			<path class="st1" d="M59.1,456.2c-2,13.4-4,26.8-6,40.1c-0.1,0-0.2,0-0.3,0c1.2-9.9,2.4-19.7,3.6-29.6c-0.1,0-0.2-0.1-0.3-0.1
				c-0.4,1.2-1,2.3-1.1,3.5c-1.2,8.6-2.4,17.1-3.5,25.7c-2,15.7-3.8,31.4-5.7,47c-0.4,3-0.6,5.9-0.3,9c1.5-9.3,2.9-18.7,4.4-28
				c-3.8,35.9-4.5,71.8-3.6,107.8c0.3,0,0.7,0.1,1,0.1c0.2-1,0.5-2,0.5-3.1c0.1-9.9,0.4-19.9,0.2-29.8c-0.4-25.5,1.5-50.9,4.1-76.2
				c2.2-21.2,5.3-42.4,8-63.6c0.1-0.9,0.1-1.8,0.2-2.6C59.9,456.4,59.5,456.3,59.1,456.2z"/>
			<path class="st1" d="M77.1,45.8c-2.2-1.7-4.3-3.4-6.6-5c-2.3-1.6-3.4-3.5-2.6-6.4c2.6-9.6-2.9-13.5-10.8-15.3
				c-5.7-1.3-11.8-1.2-17.8-1.7c-2.4-0.2-4.8-0.1-7.2-0.3c-4.2-0.3-7.6-2.1-10.1-5.5c-1.4-1.9-2.7-3.9-4.1-5.9
				c-1.8-2.7-4.4-3.9-7.6-4.1c-4.5-0.2-8.7,0.8-12.6,3C-8,8.1-13.9,11.5-19.7,14.9c-4.2,2.4-7.2,5.8-8.8,10.5
				c-1.6,4.7-2.4,4.9-7.3,4.5c-9.6-0.9-16.9,5.8-16.6,15.4c0.3,7.5,2.5,14.4,5.4,21.3c0.8,1.8,1.5,3.7,2.3,5.6
				c0.4-0.1,0.7-0.2,1.1-0.3c-0.5-1.6-0.9-3.2-1.4-4.8c-1.8-6.6-4.1-13.1-5.2-19.8c-1.6-9.5,4.2-15.4,13.9-15.1c7,0.2,7.5,0,9.7-6.5
				c1.3-3.8,3.6-6.9,7-9c6.2-3.8,12.4-7.6,18.7-11.2C1,4.2,3.3,3.6,5.5,3.1c6.4-1.4,9.4,0,12.3,5.9c3.7,7.4,9.5,10.8,17.7,10.7
				c5.9-0.1,11.9,0.2,17.9,0.6c2.4,0.2,4.9,0.8,7.2,1.8c6,2.7,7.3,5.1,6,11.5c-0.8,3.9,0.5,6.5,3.7,8.5c2.2,1.3,4.3,2.8,6.4,4.2
				C76.8,46.1,77,46,77.1,45.8z"/>
			<path class="st1" d="M70.7,150.7c1.9-0.5,3.8-1,5.6-1.6c9-2.8,17.8-1.5,26.8,0.2c12,2.2,24.1,4.1,36.1,6
				c4.4,0.7,8.8,0.7,12.9-1.9c-1.8,0.2-3.6,0.7-5.3,0.5c-10-1.2-20.1-2.4-30.1-3.9c-8-1.2-16-2.9-24.1-4.2c-6.9-1.1-13.4,0.2-19.8,3
				c-0.9,0.4-1.6,0.9-2.5,1.4C70.6,150.3,70.6,150.5,70.7,150.7z"/>
			<path class="st1" d="M35.6,459c1.4,6,2.9,12.1,4.1,18.1c0.9,4.8,1.3,9.6,2.2,14.4c3,17,1.3,34.2,1.6,51.3
				c2.7-18.3,0.6-36.6,1-55.1c-0.3,1.1-0.7,2.1-1.2,3.6C42,480.1,40.2,469.2,35.6,459z"/>
			<path class="st1" d="M101.2,162.4c-6.7-4.5-19.6-7.4-33.3-7.6c11.2-3.4,21.6-2.3,32.6-0.3c-8.1-4.2-29.8-4-35,0.8
				c9.6,3.8,19,7.5,28.4,11.2c-6.7-4.8-14.4-7.3-21.9-10.5C82.2,155.7,91.6,159.4,101.2,162.4z"/>
			<path class="st1" d="M68,62.1c-2.2,14.8-8.2,28.2-15,41.3C61.4,90.8,67.3,77.4,68,62.1z"/>
			<path class="st1" d="M147.5,335.3c-11.9,6.8-23.2,14.4-32.6,24.5C125.8,351.6,136.6,343.5,147.5,335.3z"/>
			<path class="st1" d="M64,367.5c1.3,11.8,8.9,20.2,15.5,29.3C74.8,386.8,67.2,378.3,64,367.5z"/>
			<path class="st1" d="M25.1,305.2c-5.2-11.1-11-22-19.3-31.2C12.3,284.4,18.7,294.8,25.1,305.2z"/>
			<path class="st1" d="M139.2,387.6c-1.6-1.4-2.6-2.2-3.6-3.1c0,0,0,0.1-0.1,0.1c1.3,1.2,2.6,3.2,4.1,3.4c1.8,0.2,4.7-4.5,4-6.6
				c-1.3-4.2-3.1-8.3-4.9-12.3c-0.5-1-2.2-1.4-3.5-1.7c4.5,3.8,6.2,9,6.7,14.4C142.1,383.4,140.3,385.3,139.2,387.6z"/>
			<path class="st1" d="M104.4,358.3c7.2-5.9,14.5-11.7,21.7-17.6c-0.3-0.3-0.5-0.7-0.8-1c-7.3,5.8-14.6,11.7-21.9,17.5
				C103.7,357.6,104,358,104.4,358.3z"/>
			<path class="st1" d="M61.6,375.1c2.5,9.1,7.7,16.8,13.4,24.2c0.2-0.1,0.4-0.2,0.6-0.4C71,391,66.3,383,61.6,375.1z"/>
			<path class="st1" d="M95.2,344.8c2-9.8,0.1-19.5-1.8-29.2C94.1,325.3,94.6,335,95.2,344.8z"/>
			<path class="st1" d="M55.3,333.9c-3.3-8.6-6.6-17.1-9.9-25.7c-0.4,0.2-0.8,0.3-1.2,0.5c3.4,8.6,6.8,17.2,10.2,25.8
				C54.7,334.2,55,334,55.3,333.9z"/>
			<path class="st1" d="M70.5,404.3c-4.7-6.6-9.3-13.2-14-19.8c-0.4,0.3-0.7,0.5-1.1,0.8c4.7,6.6,9.3,13.1,14,19.7
				C69.7,404.7,70.1,404.5,70.5,404.3z"/>
			<path class="st1" d="M42,66.5c1.6,9.4,3.2,18.8,4.8,28.2C47.2,85,45.1,75.7,42,66.5z"/>
			<path class="st1" d="M2,9.3c-3.9,2.6-4.8,14.5-0.5,21.6c-0.4-3.7-1.3-7.5-1.2-11.2C0.4,16.1,1.5,12.5,2,9.3z"/>
			<path class="st1" d="M97.4,344.7c2.8-5.4,5-20.6,4.1-27.7C100.2,325.4,98.8,335.3,97.4,344.7z"/>
			<path class="st1" d="M76,83c-1.4,2.8-3,5.5-4.3,8.3c-3.4,7.7-9.1,12.6-17.2,14.7c-0.6,0.2-1.3,0.5-2.2,0.9
				C62.1,107.2,72.8,96.2,76,83L76,83z"/>
			<path class="st1" d="M131.3,186.7c4.3,5.2,8.6,10.4,12.9,15.6C141.6,195.7,137.3,190.5,131.3,186.7z"/>
			<path class="st1" d="M111.5,298.2c2.9-6.1,7-11,13.1-14C118.7,284.2,112.4,290.9,111.5,298.2z"/>
			<path class="st1" d="M9.7,271.4c4.5,8.3,9.1,16.6,13.6,24.9c0.2-0.1,0.5-0.3,0.7-0.4c-4.5-8.3-9-16.6-13.5-25
				C10.3,271.1,10,271.3,9.7,271.4z"/>
			<path class="st1" d="M62.3,147.4c-5.1-0.6-1.5,5.5-5.3,5.6c1.1,1.7,2.1,2.1,2.9,0.2c0.5-1.2,0.7-2.6,1.1-4.2
				c1,1.1,1.8,1.9,2.6,2.8c0.3-0.1,0.5-0.1,0.8-0.2c-0.6-3.3-1.1-6.6-1.7-9.8c-0.1,0-0.2,0-0.3,0C62.3,143.6,62.3,145.4,62.3,147.4z
				"/>
			<path class="st1" d="M160.9,357.8c-6.5,0.7-12.2,3.9-18.1,6.5c0.1,0.2,0.2,0.5,0.2,0.7c6-2.2,12-4.3,18-6.5
				C161,358.3,161,358.1,160.9,357.8z"/>
			<path class="st1" d="M96.4,199.8c-4-3.7-8-7.4-12-11.1c-0.3,0.3-0.6,0.7-0.9,1c4,3.7,8,7.4,12,11.1
				C95.7,200.5,96,200.1,96.4,199.8z"/>
			<path class="st1" d="M60.3,382.7c3.9,5.7,7.8,11.4,11.7,17.1c0.3-0.2,0.5-0.4,0.8-0.6c-3.8-5.8-7.7-11.5-11.5-17.3
				C60.9,382.2,60.6,382.4,60.3,382.7z"/>
			<path class="st1" d="M102.1,202.5c-1.6-3.8-8.1-10.2-11.8-11.6C94.2,194.8,98.1,198.6,102.1,202.5z"/>
			<path class="st1" d="M147.8,147.1c7.3-0.3,13.8-3.2,20.4-5.9c-0.1-0.2-0.1-0.5-0.2-0.7C161.2,142.7,154.5,144.9,147.8,147.1z"/>
			<path class="st1" d="M56.5,413.9c3.5,6.3,7,12.5,10.5,18.8c0.3-0.1,0.5-0.3,0.8-0.4c-3.5-6.2-6.9-12.5-10.4-18.7
				C57.2,413.6,56.9,413.7,56.5,413.9z"/>
			<path class="st1" d="M76,82.9c1.9-6.1,4.1-12.2,5.6-18.4c1-4.2,0.1-8.6-2-12.5c0.4,1.5,0.8,3,1.2,4.5c1.6,6.2-0.5,11.9-2.2,17.7
				C77.7,77.1,76.9,80,76,82.9C76,83,76,82.9,76,82.9z"/>
			<path class="st1" d="M48,421.6c3.5,6,7,11.9,10.6,17.9c0.3-0.2,0.6-0.3,0.9-0.5c-3.5-6-7-11.9-10.6-17.9
				C48.6,421.3,48.3,421.4,48,421.6z"/>
			<path class="st1" d="M42.6,259c5.2,0,10.4,0,16.1,0c-5.6-1.9-10.8-2.1-16-1.1C42.6,258.3,42.6,258.6,42.6,259z"/>
			<path class="st1" d="M91.8,416.2c-2.9-3.9-5.8-7.9-8.7-11.8c-0.4,0.3-0.7,0.5-1.1,0.8c2.9,3.9,5.9,7.9,8.8,11.8
				C91.1,416.7,91.5,416.4,91.8,416.2z"/>
			<path class="st1" d="M122.7,196.8c3.4,4.4,6.7,8.8,10.1,13.2C131,204.4,127.3,200.1,122.7,196.8z"/>
			<path class="st1" d="M121.1,199.8c2.7,3.8,5.4,7.7,8,11.5C128.4,206.1,125.2,202.7,121.1,199.8z"/>
			<path class="st1" d="M56.9,226.4c-4.4-0.9-7.8,1-10.3,5.7C49.9,230.2,53.4,228.3,56.9,226.4z"/>
			<path class="st1" d="M84.4,167.1c-4.9-2.5-9.9-5.1-14.8-7.6c-0.1,0.3-0.3,0.6-0.4,0.8c4.9,2.5,9.9,5.1,14.8,7.6
				C84.1,167.7,84.3,167.4,84.4,167.1z"/>
			<path class="st1" d="M128.6,191.8c2.9,3.7,5.7,7.4,8.6,11.1c0.3-0.2,0.6-0.5,0.9-0.7c-2.9-3.7-5.8-7.4-8.7-11.1
				C129.1,191.3,128.9,191.5,128.6,191.8z"/>
			<path class="st1" d="M61,431.7c-2.8-5.2-5.6-10.3-8.4-15.5c-0.2,0.1-0.4,0.2-0.6,0.4c2.8,5.2,5.5,10.4,8.3,15.5
				C60.5,432,60.7,431.9,61,431.7z"/>
			<path class="st1" d="M44,254.9c4.1-1.2,8.2-2.4,12.7-3.7C51.6,250.7,47.4,251.5,44,254.9z"/>
			<path class="st1" d="M128.7,108.4c-3.9,3.7-7.8,7.4-11.7,11.1c0.2,0.2,0.4,0.4,0.7,0.7c3.8-3.8,7.5-7.7,11.3-11.5
				C128.9,108.6,128.8,108.5,128.7,108.4z"/>
			<path class="st1" d="M137.7,188c2.7,3.6,5.4,7.3,8.2,10.9C144.7,194.1,141.7,190.7,137.7,188z"/>
			<path class="st1" d="M48.8,224.4c-3-1-6.7,1.1-9.3,5.5C42.8,227.9,45.8,226.2,48.8,224.4z"/>
			<path class="st1" d="M149.9,367c3.9-1.6,7.9-3.2,11.8-4.8c-0.1-0.3-0.3-0.7-0.4-1c-3.9,1.6-7.9,3.1-11.8,4.7
				C149.6,366.3,149.8,366.6,149.9,367z"/>
			<path class="st1" d="M132.7,203.6c-3-3.8-6-7.6-9.1-11.4c-0.2,0.2-0.4,0.3-0.7,0.5c3,3.9,5.9,7.7,8.9,11.6
				C132.2,204,132.5,203.8,132.7,203.6z"/>
			<path class="st1" d="M65.4,160.6c3.8,2.9,7.6,5.8,11.4,8.7c0.2-0.3,0.4-0.6,0.7-0.9c-3.9-2.9-7.7-5.8-11.6-8.7
				C65.8,160,65.6,160.3,65.4,160.6z"/>
			<path class="st1" d="M32.8,67.6c1.5,4.7,2.9,9.5,4.4,14.2c0.3-0.1,0.6-0.2,0.9-0.3c-1.5-4.8-3-9.6-4.5-14.3
				C33.4,67.4,33.1,67.5,32.8,67.6z"/>
			<path class="st1" d="M74.7,171.3c-2.7-2.8-5.4-5.7-8.2-8.5c-0.2,0.2-0.5,0.5-0.7,0.7c2.7,2.9,5.3,5.8,8,8.7
				C74.2,171.8,74.5,171.6,74.7,171.3z"/>
			<path class="st1" d="M60.6,26.5c-3.4-0.4-6.8,2.7-7.7,7.1C55.5,31.3,58.2,28.8,60.6,26.5z"/>
			<path class="st1" d="M39.6,265.9c3.3,2,6.7,4,10,6C46.9,268.8,43.9,266.2,39.6,265.9z"/>
			<path class="st1" d="M192.6,338.7c-4.4,1.1-8.7,2.3-13.1,3.4c0.1,0.2,0.1,0.5,0.2,0.7c4.4-1,8.7-2.1,13.1-3.1
				C192.7,339.4,192.7,339.1,192.6,338.7z"/>
			<path class="st1" d="M112.4,119c1.3-2,2.6-4.1,3.9-6.1c-0.2-0.1-0.4-0.3-0.6-0.4c-2.5,3.3-5,6.5-7.6,9.8c0.1,0.1,0.3,0.2,0.4,0.4
				C109.9,121.4,111.2,120.2,112.4,119L112.4,119z"/>
			<path class="st1" d="M65.7,167.6c1.8,2.6,3.5,5.2,5.3,7.8c0.4-0.2,0.7-0.5,1.1-0.7c-1.8-2.6-3.6-5.1-5.4-7.7
				C66.4,167.2,66.1,167.4,65.7,167.6z"/>
			<path class="st1" d="M39,222.7c-3.2-0.7-5.5,2-5.2,6.6C35.5,227.1,37.2,224.9,39,222.7z"/>
			<path class="st1" d="M82.7,192.3c2.2,2.3,4.5,4.7,6.7,7c0.4-0.3,0.7-0.7,1.1-1c-2.3-2.3-4.6-4.6-7-6.9
				C83.2,191.7,82.9,192,82.7,192.3z"/>
			<path class="st1" d="M41.5,261.8c3.4,0.6,6.9,1.2,10.3,1.8c0.1-0.3,0.1-0.7,0.2-1c-3.4-0.6-6.9-1.3-10.3-1.9
				C41.7,261.1,41.6,261.4,41.5,261.8z"/>
			<path class="st1" d="M153.9,140.4c3.6-1.5,7.2-3.1,10.8-4.6c-0.1-0.3-0.3-0.6-0.4-0.9c-3.6,1.5-7.1,3.1-10.7,4.6
				C153.7,139.8,153.8,140.1,153.9,140.4z"/>
			<path class="st1" d="M55.4,445.2c-2.1-3.4-4.3-6.7-6.4-10.1c-0.2,0.2-0.5,0.3-0.7,0.5c2.1,3.4,4.3,6.7,6.4,10.1
				C54.9,445.5,55.1,445.3,55.4,445.2z"/>
			<path class="st1" d="M112.5,118.9c0.7-0.1,1.6,0.1,1.9-0.3c2.4-2.5,4.6-5.1,6.9-7.6c-0.3-0.3-0.5-0.5-0.8-0.8
				C117.8,113.1,115.1,116,112.5,118.9C112.4,119,112.5,118.9,112.5,118.9z"/>
			<path class="st1" d="M109.6,285.4c-1,3.1-1.9,6.2-2.9,9.3c0.3,0.1,0.6,0.2,0.9,0.3c1-3.1,2.1-6.2,3.1-9.3
				C110.3,285.7,110,285.5,109.6,285.4z"/>
			<path class="st1" d="M73.7,134.2c2.6-2.1,5.1-4.2,7.7-6.3c-0.2-0.3-0.4-0.5-0.6-0.8c-2.6,2.1-5.1,4.2-7.7,6.3
				C73.3,133.6,73.5,133.9,73.7,134.2z"/>
			<path class="st1" d="M53,25c-3.4,0.2-5.4,2.1-6.2,5.4c1.4-1.9,3.2-4.2,5-6.5C52.1,24.3,52.5,24.7,53,25z"/>
			<path class="st1" d="M77,138.6c2.4-2,4.7-3.9,7.1-5.9c-0.2-0.2-0.4-0.5-0.6-0.7c-2.4,1.9-4.8,3.9-7.2,5.8
				C76.6,138.1,76.8,138.4,77,138.6z"/>
			<path class="st1" d="M39.1,73c0.8,4,1.6,8,2.4,12c0.2,0,0.4-0.1,0.6-0.1c-0.7-4-1.5-8.1-2.2-12.1C39.6,72.9,39.4,73,39.1,73z"/>
			<path class="st1" d="M77.1,140.7c3.2,0.6,6.4,1.5,9.4-0.2c0-0.3-0.1-0.6-0.1-0.8C83.3,140,80.2,140.3,77.1,140.7z"/>
			<path class="st1" d="M186,330.2c-3,0.8-6,1.7-9,2.5c0.1,0.3,0.1,0.5,0.2,0.8c3-0.8,6-1.6,9.1-2.3
				C186.2,330.9,186.1,330.5,186,330.2z"/>
			<path class="st1" d="M153,192c-1.7-2-3.4-4.1-5.1-6.1c-0.3,0.2-0.6,0.5-0.9,0.7c1.7,2,3.4,4.1,5.2,6.1
				C152.4,192.4,152.7,192.2,153,192z"/>
			<path class="st1" d="M120.1,206c1.6,2.1,3.3,4.3,4.9,6.4c0.3-0.2,0.6-0.5,0.9-0.7c-1.8-2.1-3.5-4.2-5.3-6.2
				C120.5,205.6,120.3,205.8,120.1,206z"/>
			<path class="st1" d="M85.6,416.1c-1.6-1.9-3.1-3.7-4.7-5.6c-0.3,0.2-0.5,0.4-0.8,0.7c1.6,1.9,3.1,3.7,4.7,5.6
				C85.1,416.5,85.4,416.3,85.6,416.1z"/>
			<path class="st1" d="M79.5,415.4c1.2,1.6,2.5,3.2,3.7,4.9c0.3-0.3,0.7-0.5,1-0.8c-1.3-1.6-2.6-3.2-3.9-4.8
				C80,414.9,79.8,415.2,79.5,415.4z"/>
			<path class="st1" d="M18.7,213.1c1.7-0.9,3.4-1.7,5.1-2.6c-0.1-0.3-0.2-0.5-0.4-0.8C21.2,209.5,19.5,210.5,18.7,213.1z"/>
			<path class="st1" d="M23.7,391c1.1-4.1-1-7.6-2-11.3c-0.3,0.1-0.6,0.1-0.9,0.2C21.8,383.6,22.8,387.2,23.7,391
				C23.8,390.9,23.7,391,23.7,391z"/>
			<path class="st1" d="M17.7,440.6c1,0.7,1.9,1,1.8-0.7c-0.3-3.6-0.7-7.2-1.7-10.8C17.8,432.9,17.8,436.8,17.7,440.6
				C17.8,440.7,17.7,440.6,17.7,440.6z"/>
			<path class="st1" d="M29.9,402.6c-0.3,3.2-0.6,6.3-0.9,9.5c0.4,0,0.8,0.1,1.1,0.1c0.3-3.2,0.7-6.3,1-9.5
				C30.7,402.6,30.3,402.6,29.9,402.6z"/>
			<path class="st1" d="M32.9,395.7c0.3,2.8,0.6,5.6,0.8,8.4c0.3,0,0.7-0.1,1-0.1c-0.2-2.8-0.4-5.6-0.6-8.5
				C33.7,395.6,33.3,395.7,32.9,395.7z"/>
			<path class="st1" d="M51.1,362.1c0.9-1.9,1.7-3.8,2.6-5.7c-0.3-0.1-0.6-0.3-0.9-0.4c-0.9,1.9-1.7,3.8-2.6,5.7
				C50.5,361.8,50.8,362,51.1,362.1z"/>
			<path class="st1" d="M12.3,125.3c4.9,1.4,9.8,1.7,14.5-0.5c-2.4,0.3-4.8,0.9-7.2,0.9C17.3,125.8,14.8,125.5,12.3,125.3z"/>
		</g>
	</g>
</g>
</svg>
