<?xml version="1.0" encoding="UTF-8"?>
<svg id="_Слой_2" data-name="Слой 2" xmlns="http://www.w3.org/2000/svg" viewBox="0 0 383.83 940.38">
  <defs>
    <style>
      .cls-1 {
        fill: #d8d8d8;
      }
    </style>
  </defs>
  <g id="Layer_1" data-name="Layer 1">
    <g>
      <path class="cls-1" d="M198.67,526.86c2.06-1.77,3.88-4.04,6.24-5.17,2.8-1.33,4.18-3.12,5.3-5.96,5.01-12.69,10.33-25.26,15.59-37.85,.73-1.75,1.74-3.37,2.62-5.05,.34,.15,.69,.29,1.03,.44-6.04,14.91-12.09,29.82-17.92,44.21,7.86,.53,15.31,1.47,22.74,1.32,3.51-.07,7.25-1.77,10.43-3.54,9.66-5.39,18.54-4.11,26.92,2.48,6.4,5.03,12.58,10.34,18.97,15.37,1.09,.86,2.89,1.51,4.2,1.29,9.74-1.61,19.06,1.02,27.94,3.91,11.24,3.66,16.09,13.91,18.62,24.45,2.29,9.53,4.7,19.17,3.38,29.42-.62,4.83,1.53,10.16,2.99,15.1,3.15,10.63,4.03,21.27,1.01,32.01-.79,2.82-1.79,5.88-3.62,8.05-11.52,13.71-25.19,23.71-44.07,24.05-.8,.01-1.69,.31-2.37,.74-3.23,2.05-6.4,4.2-11.04,7.27,2.13,1.52,4.4,2.74,6.15,4.48,5.54,5.48,6.79,14.02,3.32,20.99-2.05,4.12-5.74,6.27-9.66,5.66-4.85-.76-5.95-4.35-6.3-8.43-.32-3.69-.47-7.39-.8-11.08-.5-5.71-2.94-10.2-8.31-12.77-.6-.29-1.06-.88-1.81-1.53,4.19-.42,8.3,1.49,10.14,5.67,1.7,3.85,2.48,8.14,3.34,12.31,.57,2.74,.3,5.66,.91,8.38,.33,1.5,1.5,3.63,2.67,3.92,1.58,.39,3.92-.24,5.23-1.3,3.86-3.13,5.12-14.14-.26-18.02-.45,3.08-.89,6.12-1.33,9.16-.39-.04-.77-.08-1.16-.12,0-1.6,.08-3.21-.01-4.8-.28-4.97-.78-9.81-5.73-12.77-.76-.46-.96-1.86-1.42-2.83,.93-.13,1.86-.43,2.78-.37,5.17,.35,8.65-2.73,11.75-6.1,5.56-6.04,8.04-13.66,10.76-22.11-9.53,4.16-16.97,10-23.91,16.59-.32-.38-.65-.77-.97-1.15,5.19-4.39,9.78-9.96,15.68-12.93,16.36-8.22,21.22-22.22,21.63-38.85,.28-11.22,.05-22.46,.05-33.52-1.05,1.92-3.1,4.28-3.68,6.97-1.78,8.23-3.06,16.57-4.4,24.88-1.23,7.57-1.97,15.23-3.53,22.73-1.07,5.13-4.72,8.72-9.14,11.59-4.35,2.83-8.53,5.93-12.66,9.08-8.06,6.14-15.8,12.58-18.03,23.46l-1.18-.55c.84-4.27,1.69-8.53,2.76-13.95-3.11,5.87-5.56,10.7-8.28,15.37-.28,.49-2.12,.07-3.73,.07,6.96-12.2,2.09-22.35-4.52-32.17-1.98-2.95-4.14-5.84-6.59-8.4-12.59-13.2-16.32-28.84-13.2-46.48,.31-1.74,.38-3.54,.45-5.32,.07-1.91,.02-3.83,.02-6.03-1.04,.2-1.79,.34-3.05,.58,3.75-12.69-5.67-19.12-12.28-26.85-6.54-7.65-13.21-15.18-19.79-22.79-3.02-3.5-3.31-6.74-1.52-11.52,3.42-9.11,5.48-18.77,7.68-28.29,3.1-13.43,5.81-26.95,8.73-40.42,.5-2.31,1.26-4.56,1.9-6.84,.43,.08,.86,.16,1.28,.24-2.33,12.4-4.43,24.84-7.06,37.17-2.29,10.72-5.08,21.35-7.89,31.95-.86,3.25-2.09,6.6-3.98,9.33-1.47,2.12-.84,3.4,.09,5.05,11.3,13.4,22.59,26.81,33.88,40.23,.45-.11,.91-.21,1.36-.32,.57-9.23,.99-18.48,1.78-27.69,.33-3.92,1.25-7.81,2.22-11.64,1.01-3.99,4.1-4.69,7.7-4.13,8.3,1.29,14.89,5.31,18.56,12.96,2.95,6.15,8.06,8.64,14.02,10.24-.71-.81-1.41-1.63-2.12-2.44,3.74-3.42,7.47-6.85,11.48-10.52-6.83-6.44-15.81-13.71-26.56-18.23-2.77-1.16-6.64-.25-9.86,.41-2.55,.52-4.89,2.08-7.3,3.23-4.75,2.27-9.44,3.72-14.97,2.43-3.8-.89-8.04-.79-11.93-.18-3.25,.51-6.29,2.4-9.57,3.73-.44-.05-1.59-.51-2.55-.25-2.13,.57-4.16,1.51-6.23,2.29Zm68.39,128.4c2.23-9.24,4.47-18.48,6.7-27.72,.19,.02,.37,.03,.56,.05-1.06,8.43-2.12,16.87-3.2,25.5,2.98-5.15,5.92-10.24,8.86-15.33,.24,.15,.48,.3,.72,.45-.38,1.36-.75,2.71-1.13,4.07,.15,.06,.3,.12,.45,.19,1.22-1.8,2.44-3.6,3.67-5.4,.25,.16,.51,.32,.76,.48-3.87,7.89-7.74,15.78-11.61,23.67,5.38-3.7,10.11-7.84,15.07-11.69,4.09-3.18,8.53-5.91,12.68-9.03,4.48-3.37,6.02-8.84,3.5-12.51-1.41-2.05-3.32-3.77-4.79-5.39,0,2.08,0,4.67,0,7.26-1.18-2.4-1.5-4.9-2.21-7.28-2.61-8.77-5.08-17.6-8.2-26.2-1.16-3.21-3.6-6.07-7.69-6.76-6.69-1.12-13.6-1.78-19.94-3.99-16.75-5.84-22.11-17.49-16.63-34.3,.18-.56,.42-1.11,.58-1.68,1.62-5.89-1.05-11.95-6.3-14.9-.48,8.53-.89,17.25-1.49,25.95-.37,5.3-1.27,10.56-1.49,15.86-.19,4.86,.93,9.85,.23,14.6-2.41,16.4,2.03,30.42,13,42.7,6.84,7.66,12.94,15.87,15.46,26.15,.04,.18,.46,.27,1.09,.62,.51-1.9,.99-3.69,1.46-5.48,0,0-.12,.12-.12,.12Zm-8.77-74.16l-.09-.09c1.07,.5,2.15,1.01,3.1,1.46,1.7-4.41,3.16-8.21,4.62-12.01,.29,.1,.57,.21,.86,.31-.96,3.93-1.92,7.87-2.88,11.8,.22,.03,.45,.07,.67,.1,1.01-2.55,2.02-5.1,3.04-7.64,.27,2.28-.09,4.32-.62,6.31-.62,2.36,.04,3.66,2.6,3.98,4.1,.51,8.17,1.24,12.27,1.72,3.07,.36,5.18-1.15,6.11-4.04,1.64-5.06,3.03-10.21,4.71-15.25,.98-2.93,2.32-5.75,3.5-8.61,.53,.11,1.07,.23,1.6,.34,2.67,6.93,4.61,13.94,3.3,21.66-1.4,8.3-2.42,16.67-3.6,25,.38,.06,.75,.11,1.13,.17,.13-1.18,.25-2.36,.49-4.58,2.77,7.36,.93,14.82,5.72,20.64,.16-3.23,.31-6.46,.47-9.69,.32-.01,.64-.02,.95-.03,.46,4.42,.91,8.83,1.37,13.24,1.35-3.25,1.53-6.47,1.98-9.67,1.41-10.11,2.49-20.29,4.53-30.27,1.36-6.62,6.28-12.2,10.53-14.01-3.51,11.76-2.89,23.61-2.2,35.45,.64,10.95-1.07,21.66-6.97,30.77-4.29,6.62-7.39,13.19-8.85,20.9-.7,3.67-3.23,7-5.42,11.46,17.22-4.22,31.57-11.18,41.62-25.16,1.59-2.21,2.59-5.06,3.16-7.76,2.05-9.74,1.59-19.37-1.25-29-1.58-5.34-2.52-10.92-3.18-16.47-1.11-9.38-1.15-18.92-2.75-28.2-2.68-15.58-10.82-23.13-26.47-26.14-1.16-.22-2.34-.45-3.47-.81-6.67-2.08-13.23-1.16-19.62,1.03-8.62,2.95-10.38,10.18-4.21,16.5,5.55,5.69,6.11,17.97,1.08,24.25-.11,.14-.55,.02-1.16,.02,.73-4.4,1.77-8.71,2.08-13.07,.34-4.73-1.88-8.4-6.49-11.22,.57,2.75,1.01,4.94,1.5,7.29-3.32-5.08-5.59-10.83-9.75-14.35-4.9-4.15-8.29-9.05-11.87-14.1-3.61-5.09-8.93-7.76-15.15-8.27-1.45-.12-3.73,.35-4.3,1.32-.72,1.24-.4,3.36,.09,4.92,.41,1.33,1.89,2.29,2.55,3.58,1.85,3.63,4.07,7.21,5.1,11.08,1.05,3.95,.81,8.23,1.22,12.36,.4,4.07,.91,8.14,1.37,12.21,.29-.02,.59-.03,.88-.05,1.56-5.84,3.12-11.68,4.68-17.51,.38,.1,.76,.2,1.14,.3-1.52,7.4-3.03,14.79-4.55,22.19-.52-.03-1.04-.05-1.57-.08-5.13-6.34-3.1-14.43-4.34-22.39-5.39,12.26-1.36,22.25,10.72,28.12Zm38.42-16.43c-3.18,8.89-6.22,17.38-9.23,25.78,2.24,3.64,4.87,7.92,8.23,13.39-1.64-13.91,6.82-26.08,1-39.18Z"/>
      <path class="cls-1" d="M216.76,176.14c-1.94,1.07-3.78,2.71-5.84,3.05-1.76,.29-4.28-.4-5.49-1.62-1.01-1.02-1.44-4.35-.66-5.08,4.15-3.87,8.74-7.29,13.29-10.7,.32-.24,1.64,.84,2.75,1.44-.04-6.45-.87-12.28-3.68-18.3-5.6-12-6.5-25.16-6.69-38.28-.06-4.42,0-8.84,.57-13.29,1.17,17.26,1.97,34.5,7.87,50.98-.82-20.36-.4-40.61,3.2-59.37-.44,20.13-.91,41.53-1.38,62.93,.42,.09,.84,.17,1.26,.26,.37-.48,.89-.91,1.08-1.45,3.79-10.69,10.07-19.75,17.95-27.83,6.84-7.01,13.57-14.12,20.2-21.33,5.28-5.75,11.76-9.47,19.03-11.93,7.79-2.63,15.17-1.75,22.07,2.92,6.32,4.28,13.35,2.56,17.39-3.84,1.48-2.34,3.53-4.33,5.6-6.82,.49,1.18,.72,1.6,.67,1.64-3.25,2.41-4.88,5.32-4.1,9.63,.37,2.08-.41,4.4-.84,6.58-1.84,9.26-1.14,18.26,2.15,27.13,1.18,3.17,1.76,6.58,2.45,9.91,1.93,9.4-2.11,16.17-9.75,21.11-3.35,2.17-7.02,3.85-10.47,5.89-3.43,2.04-5.16,4.65-4.56,9.15,1.5,11.22-8.6,23.47-21.05,26.04-3.18,.66-6.44,.85-10.13,2.2,2.8,1.02,5.58,2.82,8.41,2.91,8.14,.25,15.43-1.84,20.82-8.83,1.45-1.87,4.61-3.28,7.06-3.39,18.72-.81,34.01-12.18,39.12-30.19,1.17-4.12,1.11-8.82,.57-13.12-.37-2.99,.55-4.13,2.66-5.73,5.41-4.09,11.04-8.07,15.68-12.95,5.56-5.84,4.67-10.29-1.71-15.35-5.38-4.27-11.69-5.35-18.11-4.09-6.06,1.19-11.91,3.44-17.84,5.29-1.48,.46-2.88,1.18-5.43,2.25,9.78-9.51,31.03-12.18,40.77-5.92,9.2,5.92,10.44,12.63,3.01,20.54-4.22,4.49-9.53,7.93-14.23,11.99-1.03,.89-2.29,2.48-2.16,3.6,1.92,16.53-6.65,32.64-21.49,40.04-6.83,3.41-13.76,6.16-21.69,5.68-1.64-.1-3.89,1.35-5.02,2.77-7.99,10.03-21.93,12.31-32.58,5.27-2.42-1.6-5.3-2.46-7.92-3.77-4.83-2.4-9.63-4.88-14.46-7.33-1.73,2.72-3.55,6.11-5.92,9.05-1.03,1.27-3.22,1.61-4.88,2.37-.46-1.47-.98-2.92-1.39-4.41-1.5-5.48-2.96-10.97-4.99-16.39-4.22,5.93-6.42,12.21-6.54,19.14-.22,12.47-.4,24.93-.62,37.4-.03,1.75-.2,3.49-.3,5.23-.38,0-.75,0-1.13,0,0-14.29,0-28.59,0-42.88-.44,0-.87,0-1.31-.01,0,4.55,.12,9.11-.06,13.66-.06,1.6-.41,4-1.44,4.58-2.69,1.51-6.11,2.7-8.24-.86-1.41-2.35-2.24-5.13-2.94-7.81-1.62-6.24-2.05-12.88-6.12-17.9,.51,4.73,1.05,9.7,1.58,14.67-.54,.06-1.07,.12-1.61,.18-.27-2.65-.49-5.29-.8-7.94-.8-6.88-4.57-11.66-10.47-15.08-3.09-1.79-5.94-3.99-9.71-6.56,6.61-1.22,14.73,2.2,18.79,6.93,5.36,6.24,8.69,13.38,10.03,21.5,.46,2.77,1.1,5.54,1.98,8.2,.87,2.62,2.6,4.33,6.83,2.96,0-8.68-.07-17.68,.04-26.67,.04-3.38,.5-6.75,.77-10.11,5.13,.84,1.19,5.86,3.32,7.89,2.14-3.67,4.2-7.21,6.67-11.44-.66-.67-1.62-1.65-3.11-3.16-.33,2.53-.52,3.96-.71,5.39-1.16-2.06-1.31-4.16-1.56-6.25-.33-2.77-2.05-4.15-4.54-2.98-2.78,1.31-5.48,3.07-7.68,5.2-1.19,1.15-1.25,3.47-1.82,5.27,1.88-.07,3.94,.32,5.61-.31,2.17-.81,4.03-2.42,6.03-3.69,.18,.26,.37,.52,.55,.77-.9,1.13-1.79,2.27-2.69,3.41Zm68.89-28.7c-.94,2.61-1.25,5.74-2.93,7.72-5.42,6.41-11.33,12.41-17.07,18.54-.71,.75-1.55,1.38-2.33,2.06,4.88-.85,9.36-2.31,13.75-4,9.09-3.49,12.72-10.03,10.8-19.63-.32-1.62-1.54-3.07-2.35-4.6,.37-.45,1.03-.88,1.06-1.35,.55-8.39,6.8-12.59,12.34-17.55,4.59-4.11,8.68-8.82,12.55-13.63,1.36-1.69,1.37-4.45,2-6.72-.39-.31-.78-.62-1.17-.93-2.28,.81-4.63,1.46-6.84,2.44-14.42,6.37-23.09,18.11-29.47,31.9-5.13,11.08-11.15,21.58-19.49,30.61-1.32,1.43-2.66,2.86-4,4.28,10.22-1.51,16.9-7.42,21.5-16.86,.24,1.36,.33,1.93,.64,3.7,4.03-5.85,7.52-10.92,11.01-15.98Zm-29.94,20.23c8.16-8.15,13.39-17.92,18.13-28.02,6.47-13.79,15.31-25.43,29.86-31.59,3.3-1.4,7.29-4.37,10.21-1.1,2.97,3.34,.41,7.67-2,10.5-4.3,5.04-8.87,10.08-14.14,14.03-7.71,5.78-10.61,12.39-8.17,21.93,2.02,7.9-2.08,15.68-8.98,19.01-10.87,5.25-22.44,7.86-35.76,8.69,1.47,2.1,2.23,3.74,3.45,4.86,9.03,8.28,26.62,10.61,37.16,4.36,7.85-4.65,13.98-11.19,12.55-21.25-.91-6.4,2.09-9.74,6.89-12.54,3.71-2.16,7.62-4.05,11.11-6.52,5.65-4.01,8.44-9.57,7.04-16.6-1.01-5.07-2.75-10.01-3.6-15.1-.84-5.04-1.42-10.22-1.28-15.31,.13-4.96,1.32-9.89,2.15-15.53-1.32,.86-2.05,1.27-2.71,1.77-6.71,5.12-9.39,5.2-16.49,1.06-2.4-1.4-5.05-2.74-7.74-3.19-11.42-1.91-20.69,3.09-28.45,10.62-9.16,8.87-17.69,18.39-26.35,27.76-6.55,7.08-10.87,15.49-13.9,24.62-2.69,8.13-1.69,15.45,4.1,22,1.02,1.15,1.66,2.76,2.13,4.26,1.86,5.94,3.59,11.92,5.78,19.24,2.44-4.56,4.28-8.01,5.58-10.46-5.27-6.08-9.95-11.48-14.63-16.88,.34-.34,.67-.68,1.01-1.02,4.14,4.04,8.29,8.07,12.37,12.05,.69-2.1,2.64-5.44,1.89-6.22-3.16-3.34-1.46-6.88-.92-10.03,1.42-8.33,3.53-16.54,5.37-24.79,.42,.1,.84,.19,1.26,.29-1.7,9.25-3.39,18.49-5.09,27.74,.23,.03,.47,.06,.7,.1,3.47-7.96,6.94-15.92,10.41-23.87,.34,.15,.68,.3,1.01,.45-3.89,10.15-9.2,19.85-10.66,30.78,2.79-5.26,4.92-10.76,7.52-16.03,2.61-5.28,5.68-10.34,8.54-15.5,.25,.15,.51,.3,.76,.45-5.17,10.97-10.34,21.95-15.51,32.92,.63,.35,1.27,.69,1.9,1.04,4.55-7.59,9.1-15.19,13.66-22.78,.36,.23,.72,.46,1.08,.69-2.41,4.36-4.83,8.73-7.24,13.09Z"/>
      <path class="cls-1" d="M120.33,563.14c-8.31,.85-15.35,4.45-21.61,10.55-5.26,5.13-11.28,9.57-17.37,13.71-2.38,1.62-5.86,2.1-8.87,2.21-5.18,.2-8.53-3.31-8.81-8.57-.11-2.07-.12-4.18,.14-6.22,.93-7.27-2.13-12.39-7.76-16.81-5.07-3.98-10.14-8.3-13.97-13.4-2.34-3.11-2.8-7.93-3.19-12.07-.18-1.94,1.79-4.09,3.77-5.89-3.07,5.12-3.02,10.3,.04,14.8,2.86,4.22,6.62,7.88,10.3,11.46,2.1,2.04,4.91,3.32,7.25,5.14,5.37,4.18,7.42,9.81,6.8,16.49-.12,1.33-.46,2.64-.52,3.97-.32,6.34,3.82,10.24,9.47,7.58,6.99-3.29,13.89-7.46,19.6-12.61,6.6-5.95,13.34-10.84,22.21-12.14,2.38-.35,2.93-1.28,3.36-3.59,.96-5.15-.73-8.6-4.18-12.55-13.56-15.48-30.19-26.62-48.18-36.05,22.28,6.58,38.99,21.03,52.94,37.61,4.29-2.34,7.96-4.63,11.87-6.41,5.92-2.69,11.48-5.59,13.63-12.81,2.44,2.81,1.44,5.55-.42,7.13-3.89,3.3-8.22,6.11-12.53,8.87-3.16,2.02-7.88,1.93-8.14,7.46-.16,3.46-3.24,6.47-.78,10.51,1.18,1.95,.29,5.06,.83,7.53,.41,1.88,1.6,3.6,3.29,5.13,0-3.48-.03-6.95,0-10.43,.13-10.62,4.71-15.57,15.23-17.02,3.64-.5,7.18-1.77,10.78-2.63,2.98-.71,3.01-2.3,1.54-4.54-1.56-2.37-3.01-4.81-3.77-7.66,2.73,3.68,7.96,5.81,7.13,11.68-.07,.52,.43,1.41,.91,1.69,8.82,5.11,12,13.96,15.23,22.78,.4,1.1,.77,2.21,2.31,3.49,.25-1.45,1.19-3.26,.64-4.28-5.18-9.64-10.49-19.22-16.06-28.64-1.25-2.11-3.64-3.56-5.5-5.31,.36-.45,.71-.89,1.07-1.34,1.93,1.49,4.48,2.59,5.69,4.53,4.85,7.77,9.32,15.77,13.84,23.74,.94,1.65,1.48,3.52,2.83,5.37,5.97-12.2,13.04-24.07,8.76-38.67,.39-.13,.78-.27,1.17-.4,.84,2.44,2.48,4.93,2.36,7.32-.29,5.57-.78,11.28-2.37,16.59-3.87,12.89-10.7,24.39-18.12,35.57-5.08,7.66-10.05,15.42-14.66,23.37-4.57,7.89-4.03,12.66,2.3,19.31,7.72,8.12,14.45,16.83,19.85,26.69,7.2,13.16,19.03,18.32,33.56,17.22,11.6-.88,23.05-.54,34.46,1.68,3.83,.75,7.27,2.01,9.28,6.74-1.99-1.25-3.29-2.07-5.13-3.22-.61,2.8-1.07,5.19-1.67,7.55-3.81,14.94-8.06,29.78-11.32,44.83-1.65,7.59-1.21,15.61-2.28,23.36-3.16,22.72-3.96,45.52-2.7,68.39,1.14,20.74,2.77,41.45,3.81,62.2,.86,17.03,1.17,34.08,1.73,51.13-.49,.02-.99,.05-1.48,.07-1.51-25.2-3.03-50.4-4.54-75.6-.18,0-.36,0-.54,0,0,15.4,0,30.81,0,46.21-.44,0-.87,.01-1.31,.02,0-15.16,0-30.31,0-45.47-.42,0-.85-.01-1.27-.02-.55,11.19-1.1,22.37-1.65,33.56-.49-.02-.98-.05-1.47-.07,.57-15.3,1.14-30.59,1.71-45.89,.36-.05,.71-.1,1.07-.14,.87,1.76,1.75,3.51,2.62,5.27-5.4-59.59-1.66-118.33,17.78-176.79-11.79,0-22.04,0-31.51,0,2.37,16.14,4.75,32.31,7.12,48.48-.66,.1-1.31,.2-1.97,.29-.58-3.85-1.1-7.71-1.76-11.55-1.87-10.94-3.82-21.87-5.69-32.82-.53-3.09-1.96-4.44-5.38-4.36-17.5,.38-29.07-8.37-37.29-23.41-4.14-7.58-9.93-14.34-15.48-21.05-7.96-9.62-8.88-15.41-2.38-26.14,5.69-9.39,11.92-18.45,17.57-27.86,1.08-1.8,1.28-4.82,.6-6.85-1.63-4.9-3.65-9.77-6.22-14.24-1.87-3.26-4.59-6.18-7.45-8.67-2.85-2.49-6.23-3.46-10.25-1.57-2.59,1.22-5.73,1.33-8.65,1.75-5.84,.85-9.25,3.16-10.02,8.94-.75,5.64,.04,11.47-.13,17.21-.06,1.81-1.05,3.6-1.61,5.4-1.61-1.09-3.89-1.82-4.69-3.34-2.18-4.13-3.74-8.59-5.76-13.47Z"/>
      <path class="cls-1" d="M319.61,308.75c-.89,1.87-1.66,3.8-2.69,5.58-.95,1.65-2.18,3.15-3.41,4.89,3.5,4.5,2.19,8.97-.55,13.12-5.35,8.11-12.13,14.49-21.85,17.14-1.08,.29-2.52,1.32-2.76,2.26-2.05,8.07-3.34,16.23-1.45,24.56,1.79,7.86,7.27,12.24,14.8,15.5,.62-1.62,1.22-3.18,1.82-4.74,.18-.37,.36-.73,.54-1.1,3.39-5.12,6.78-10.25,10.16-15.37,.41,.25,.83,.51,1.24,.76-4.02,7.58-8.03,15.16-12.16,22.94-7.19-3.7-15.79-7.24-17.24-16.66-1.26-8.17-.26-16.69-.26-25.52-.89,.98-2.09,1.81-2.63,2.95-2.56,5.47-5.48,10.87-7.26,16.6-2.79,9.01-4.38,18.39-7.24,27.37-1.74,5.45-4.74,10.54-7.49,15.62-5.3,9.78-9.29,20.03-9.2,31.24,.05,6.45,1.56,12.89,2.42,19.33,.41,.11,.81,.22,1.22,.33,4.25-6.86,8.4-13.78,12.78-20.55,4.29-6.63,8.81-13.1,13.22-19.64,.33,.22,.66,.45,.98,.67-8.5,13.33-16.79,26.8-25.61,39.92-2.68,3.99-3.91,7.79-3.19,13.93,3.34-2.99,6.64-4.93,8.48-7.8,3.92-6.09,7.07-12.68,10.57-19.04,.85-1.54,1.83-3,3.65-4.03-1.67,3.25-3.35,6.5-5.02,9.73,3.77,4.17,9,5.39,14.61,3.42,6.08-2.13,8.04-4.75,8.16-11.62,.08-4.58,1.59-8.38,4.95-11.48,2.9-2.67,5.76-5.38,8.64-8.07,.44,.44,.87,.87,1.31,1.31-3.1,2.64-6.28,5.19-9.26,7.96-3.21,2.97-4.61,6.73-4.63,11.16-.04,9.95-7.98,15.62-17.71,12.79-1.4-.41-2.79-.87-4.38-1.37-4.79,10.11-12,17.29-23.67,20.7,1.13-8.54,2.14-16.22,3.25-24.66-1.53,0-2.92-.06-4.3,0-7.43,.37-14.32-1.71-20-6.2-3.04-2.4-5.26-6.29-6.86-9.94-2.36-5.41-3.7-11.25-5.7-16.82-4.37-12.18-13.91-20-23.52-27.82-4.11-3.34-8.2-6.97-11.32-11.2-6.12-8.31-5.31-15.27,1.76-22.73,2.76-2.91,5.66-5.67,8.47-8.53,3.1-3.16,4.48-6.98,4-11.36-1.3-11.94,1.97-17.69,13.1-22.09,3.4-1.34,7.06-2.04,10.42-2.99-2.74-21.79-5.48-43.48-7.93-62.97,0,5.69-.38,13.67,.09,21.59,.63,10.51,2.06,20.96,2.81,31.47,.16,2.22-1.16,4.54-2.49,6.7-4.02-25.01-6.85-49.94-4.74-76.02,.71,10.35,1.35,19.84,1.74,25.41,.56-11,1.32-25.92,2.08-40.84l.53,.04c1.59,20.11,3.17,40.22,4.76,60.33,.39-.02,.79-.04,1.18-.07,0-15.94,0-31.89,0-47.83,.4-.01,.8-.03,1.2-.04,.99,27.27,1.99,54.54,3,82.37,10.82-.8,19.71-5.49,27.47-12.79,8.12-7.64,10.86-17.31,10.24-28.28,.6-.03,1.21-.06,1.81-.1,.48,2.63,1.46,5.29,1.35,7.9-.3,7.5-3.04,14.22-8.01,19.84-8.96,10.13-20.06,15.73-33.76,16.72-5.31,.38-10.7,2.23-15.65,4.36-5.96,2.57-8.42,7.93-7.42,14.29,1.13,7.15-.93,12.79-6.34,17.48-2.57,2.23-4.9,4.76-7.22,7.26-5.8,6.25-6.25,12.87-.71,19.52,3.1,3.72,6.67,7.35,10.72,9.93,17.05,10.88,26.82,26.48,30.95,45.94,1.66,7.85,7.79,10.8,14.29,13.22,3.25,1.21,6.76,1.74,9.84,2.49,.58-8.29,.74-15.95,1.73-23.5,1.34-10.24,4.73-19.96,10.17-28.76,6.21-10.05,8.71-21.32,11.78-32.48,1.52-5.5,3.9-10.88,6.66-15.88,2.26-4.09,5.72-6.87,10.76-8.49,8.92-2.87,16.13-8.82,21.1-16.96,1.97-3.23,4.18-6.78,.03-10.35-.52-.45-.16-2.5,.37-3.49,1.05-1.94,2.67-3.57,3.77-5.48,3.75-6.53,2.07-11.51-5.19-13.22-7.47-1.76-15.18-2.57-22.8-3.65-6.3-.89-12.26-2.4-16.67-7.43-.83-.94-1.5-2.03-2.29-3.11,.67-.32,1.08-.6,1.13-.54,7.34,7.57,17.06,8.11,26.66,9.25,5.42,.65,10.89,1.59,16.11,3.13,6.33,1.87,8.44,5.9,7.64,12.66l.03-.05Z"/>
      <path class="cls-1" d="M138.13,295.31c2.73-3.12,5.46-6.24,8.65-9.89-2.81,1.46-5.01,2.81-7.36,3.78-7.69,3.19-14.47,.64-16.59-7.34-2.02-7.62-7.19-9.21-13.81-8.63-6.64,.58-13.26,1.4-19.91,1.82-3.65,.23-6.35,1.38-8.51,4.53-2.23,3.26-5.11,6.07-7.71,9.08-.38-.3-.77-.59-1.15-.89,2.97-3.75,5.94-7.5,8.88-11.21-3.13-1.48-6.47-3.06-10.63-5.02-1.81,2.07-4.08,4.67-6.36,7.28-.33-.23-.65-.46-.98-.69,1.8-2.49,3.2-5.46,5.5-7.34,2.95-2.43,2.28-5.28,1.13-7.48-.88-1.66-3.62-3.18-5.57-3.23-2.68-.06-5.43,1.21-8.08,2.12-4.21,1.45-7.4,.53-10.05-3.19-4.4-6.16-6.79-13.17-6.39-20.44,.23-4.18,3.29-8.25,5.36-12.23,.69-1.32,2.23-2.21,3.33-3.25-.2-.36-.24-.55-.35-.6-10.55-5.14-15.3-13.8-15.91-25.3-.22-4.1-1.28-8.2-2.34-12.2-4.32-16.33,4.7-29.18,21.85-29.93,5.76-.25,11.84,.94,17.36,2.73,7.35,2.39,13.48,2.47,19.8-2.87,9.8-8.28,20.5-8.36,31.25-1.44,3.37,2.17,7.07,3.99,9.99,6.66,7.51,6.86,16.45,9.53,26.26,10.72,10.56,1.28,19.9,6,28.27,12.3,7.45,5.62,10.01,14.08,11.23,22.97,.1,.7-.52,1.49-1.09,3.01-.79-1.57-1.43-2.37-1.61-3.27-4-20.18-19.17-27.66-36.85-31.08-10.57-2.05-20.45-4.3-28.53-12-3.28-3.13-7.47-5.34-11.34-7.82-7.79-4.99-15.66-4.89-23.45,.03-3.24,2.05-6.36,4.27-9.76,6.57,3.94,4.05,7.55,7.39,12.7,9.94,11.34,5.62,21.78,13.04,32.6,19.73-.3,.48-.6,.96-.9,1.44-10.04-6.3-20.08-12.59-30.12-18.89-.26,.41-.53,.82-.79,1.23,10.58,6.65,21.17,13.31,31.75,19.96-.26,.43-.52,.86-.78,1.28-9.32-5.59-18.98-10.7-27.85-16.92-6.11-4.29-11.13-10.13-16.66-15.24-.82-.76-1.74-1.65-2.76-1.91-5.71-1.46-11.53-2.54-17.2-4.13-10.52-2.95-19.66-.46-27.67,6.6-4.21,3.72-5.75,8.54-4.61,14.1,1.85,8.99,3.67,17.99,5.66,26.95,1.68,7.57,7.56,11.49,13.82,14.72,1.51,.78,3.94-.24,6.83-.52-2.4,1.74-4.26,3.08-6.1,4.44-5.57,4.13-9.65,9.31-8.11,16.58,1.15,5.41,3.33,10.64,5.5,15.76,1.33,3.13,4.07,3.91,7.47,2.65,2.61-.97,5.39-1.8,8.15-2,5.17-.36,8.14,2.29,8.92,7.28,1.07,6.84,3.67,9.21,10.66,8.73,7.83-.53,15.62-1.67,23.45-2.26,3.35-.25,6.79-.08,10.11,.45,3.82,.61,6.45,3.15,7.34,6.94,2.43,10.24,9.09,12.22,18.98,6.36,6.05-3.59,12.45-6.81,19.04-9.21,5.11-1.86,10.25,.17,11.81,3.65,.98,2.18,1,4.79,1.44,7.21,11.53,.55,22.74-10.51,23.7-23.64,.51-6.95,.61-13.93,.96-20.89,.11-2.15,.4-4.29,.61-6.43,.47,.01,.94,.03,1.41,.04,0,3.71,.11,7.42-.02,11.12-.25,6.96-.16,13.98-1.09,20.85-1.72,12.61-15.16,22.93-28.03,22.62-1.86-.05-3.95,1.96-5.62,3.38-4.82,4.07-9.2,8.73-14.29,12.39-4.05,2.92-9,3.24-14.1,2.09-9.84-2.22-11.33-1.43-16.23,6.99-6.52,11.2-9.83,12.24-21.87,7.13-6.33-2.69-11.69-6.39-14.71-12.86-1.52-3.26-4.02-4.84-7.79-4.76-4.94,.1-8.4-2.04-11.22-6.51-2.8-4.43-7.15-7.85-10.64-11.88-4.78-5.52-2.65-16.97,3.74-20.62,.31-.18,.83,.02,1.77,.08-1.66,3.18-3.2,6.1-4.71,9.04-1.81,3.54-1.52,6.76,1.18,9.85,4.37,5,8.41,10.31,12.99,15.1,1.45,1.51,4.16,2.26,6.39,2.5,4.43,.48,7.27,2.53,9.35,6.45,4.28,8.09,11.74,11.97,20.27,13.87,6.13,1.36,8.68-.15,11.43-5.72,.2-.4,.37-.81,.57-1.21,6.12-12.33,7.76-13.14,21.56-11.02,7.46,1.15,13.21-2.54,18.52-7.01,3.84-3.23,7.39-6.8,11.03-10.26,3.26-3.11,2.22-7.73-2.04-9.22-5.37-1.88-13.53,1.57-16.8,6.28-3.27,4.71-7.29,8.91-10.98,13.34-.83-.77-1.66-1.54-2.49-2.31Z"/>
      <path class="cls-1" d="M160.96,523.06c-4.05,2.18-6.67,1.2-7.25-2.98-.69-4.98-1.03-10.06-.87-15.07,.15-4.71,1.15-9.4,2.03-14.07,0,5.42,0,10.83,0,16.4,.32-.17,.84-.26,.95-.52,5.44-12.35,11.46-24.49,16.09-37.14,5.22-14.24,6.65-29.19,3.98-44.27-.51-2.86-1.8-5.65-3.14-8.26-2.48-4.85-6.68-7.37-12.08-6.44-7.07,1.21-12.89-1.08-18.14-5.39-11.62-9.55-25.2-11.48-39.46-9.68-3.87,.49-7.67,2.82-11.14,4.9-4.31,2.58-8.48,5.51-12.27,8.8-3.3,2.86-6.7,6.03-8.78,9.77-3.47,6.24,.47,12.61,7.46,13.07,5.48,.36,11.01,.24,16.44,.89,12.01,1.43,20.23,8.53,26.33,18.5,5.9,9.64,8.54,20.44,11.26,31.26,2.14,8.51,4.93,16.85,8.15,25.08-4.16-12.67-5.88-25.65-5.82-38.91,.01-2.47,.27-4.95,.67-7.44,1.54,20.14,2.45,40.4,14.86,58.55-1.59-.48-2.4-.72-3.21-.96-.24,.3-.48,.6-.72,.91,1.07,.76,2.17,1.49,3.21,2.3,.92,.71,1.77,1.51,2.36,2.64-4.29-.97-7.08-3.84-9.24-7.54-6.44-11.02-9.85-23.1-13.15-35.32-2.54-9.4-5.45-18.85-9.59-27.62-6.31-13.39-17.43-20.2-32.54-19.83-4.42,.11-8.84,.05-13.25,.25-6.12,.28-10.33,4.69-10.36,10.65,0,.89,0,1.78-.02,2.67-.13,8.15-1.62,9.29-9.57,8.36-13.22-1.54-24.58,3.06-34.28,11.65-2.21,1.96-4.17,5.64-4.09,8.47,.18,6.62-2.57,11.39-6.93,15.74-.4,.4-.65,.96-1.16,1.75,8.02,2.89,15.87,5.71,23.73,8.54-.16,.45-.31,.91-.47,1.36-8.07-2.8-16.15-5.6-24.97-8.65-.95,2.91-2.23,5.74-2.66,8.69-.15,1.03,1.53,2.9,2.79,3.47,5.66,2.58,11.49,4.82,17.23,7.23,1.2,.5,2.32,1.2,3.47,1.8-.14,.35-.29,.7-.43,1.05-7.55-2.78-15.09-5.57-23.05-8.5-.17,5.26,3.06,7.41,6.84,8.22,7.08,1.53,14.28,2.66,21.47,3.57,18.35,2.31,36.37,5.69,52.58,15.28,2,1.18,3.78,2.71,5.34,4.58-6.52-2.96-12.93-6.21-19.59-8.82-16.06-6.3-33.09-7.96-50.02-10.06-4.23-.53-8.5-1.52-12.5-2.98-5.78-2.12-8.32-8.3-7.25-14.41,1.1-6.25,3.71-11.48,8.19-15.92,2.84-2.8,4.39-6.06,4.11-10.35-.42-6.48,2.9-11.4,8.02-15.03,10.1-7.16,21.15-11.24,33.8-10.04,5.85,.55,5.86,.38,6.4-5.49,.05-.59,.17-1.2,.1-1.78-.73-6.36,.69-11.19,8.19-11.95,.63-.06,1.2-.76,1.81-1.17-6.49-8.16-6.74-15.25,5.34-24.93,5.19-4.16,10.82-7.86,16.55-11.25,8.04-4.76,16.96-3.36,25.67-2.7,8.97,.68,17.02,3.85,24.11,9.41,5.5,4.32,11.35,6.41,18.62,4.89,5.83-1.22,11.28,1.19,13.94,6.57,2.5,5.07,4.65,10.72,5.18,16.28,1.94,20.19-2.85,39.15-11.95,57.16-3.08,6.09-5.86,12.33-8.66,18.56-1.03,2.29-1.77,4.71-2.53,7.11-1.25,3.96-1.66,7.67,3.83,9.1Z"/>
      <path class="cls-1" d="M375.04,415.44c3.77-8.65,7.41-16.86,6.83-26.32-.26-4.15-1.56-6.94-5.23-8.99-6.5-3.64-6.55-3.81-4.74-10.72,1.21-4.62,.03-8.48-2.83-12.03-7.97-9.88-29.22-15.4-40.88-10.64-4.87,1.99-5.49,4.1-2.31,7.88,7.6,9.04,6.53,16.53-3.51,23.3-2.28,1.54-4.92,2.53-7.4,3.77-.19-.32-.38-.64-.57-.95,1.74-1.16,3.61-2.15,5.18-3.5,2.57-2.21,5.29-4.38,7.3-7.05,3.3-4.39,2.79-7.9-.97-11.97-1.21-1.3-3.12-2.44-3.47-3.94-.55-2.33-1-5.58,.18-7.26,5.89-8.36,4.25-14.44-5.35-17.76-.39-.13-.73-.4-1.34-.74,8.77-2.87,13.3,2.92,11.95,15.05,10.96-4.4,21.18-1.1,31.09,2.91,4.27,1.73,8.25,4.67,11.7,7.8,4.77,4.32,6.27,10.07,4.04,16.27-1.16,3.23-.65,5.42,2.43,6.93,5.61,2.74,6.62,7.4,6.7,13.26,.13,9.38-3.63,17.28-7.73,25.21-.38,.73-1.15,1.26-1.09,1.2-3.58-1.83-6.53-4.17-9.84-4.9-10.31-2.27-17.4,2.86-18.04,13.45-.42,6.89,.44,13.9,1.18,20.81,.61,5.73-1.14,9.92-6.3,12.49-2.13,1.06-2.82,2.58-3.6,4.88-1.02,3.01-3.47,5.84-5.96,7.98-10.78,9.23-13.06,9.36-24.59,1.05-5.82-4.19-11.7-7.04-19.62-4.01,9.86-13.61,17.6-13.26,31.54-10.82,6.99,1.23,13.74,2.23,20.2-1.96,3.18-2.06,4.95-4.53,4.47-8.43-.55-4.56-1.1-9.13-1.41-13.71-.19-2.79-.22-5.64,.16-8.4,.98-7.06,3.32-13.37,10.92-15.87,7.23-2.37,14.72-.32,20.93,5.73Zm-79.64,48.65c4.83,2.34,9.67,4.33,14.17,6.93,12.7,7.33,9.2,6.65,20.74-1.19,2.61-1.78,4.51-4.61,6.48-6.69-8.52-1.1-16.38-2.07-24.22-3.13-6.49-.88-12.56-.41-17.17,4.1Z"/>
      <path class="cls-1" d="M205.37,678.42c2.98,19.97,5.95,39.94,8.93,59.92,.16-.01,.32-.03,.48-.04-1.79-14.71-3.58-29.42-5.37-44.13,.13-.06,.27-.13,.4-.19,.59,1.73,1.46,3.41,1.71,5.19,1.82,12.76,3.62,25.53,5.23,38.33,2.93,23.39,5.74,46.8,8.57,70.2,.53,4.41,.92,8.84,.41,13.39-2.17-13.93-4.34-27.86-6.51-41.8,5.64,53.53,6.67,107.17,5.37,160.88-.5,.07-1,.14-1.49,.21-.27-1.53-.75-3.06-.77-4.59-.18-14.84-.58-29.68-.35-44.52,.61-38.05-2.26-75.93-6.17-113.7-3.28-31.69-7.92-63.24-11.95-94.85-.17-1.31-.2-2.63-.29-3.95,.6-.12,1.19-.23,1.79-.35Z"/>
      <path class="cls-1" d="M178.56,65.88c3.26-2.48,6.46-5.05,9.79-7.42,3.36-2.39,5.05-5.29,3.91-9.51-3.88-14.34,4.32-20.19,16.16-22.93,8.57-1.99,17.64-1.85,26.5-2.55,3.55-.28,7.12-.13,10.67-.39,6.25-.45,11.38-3.17,15.14-8.21,2.13-2.85,4.08-5.83,6.08-8.77,2.72-3.99,6.58-5.87,11.31-6.06,6.68-.27,12.99,1.17,18.79,4.5,8.74,5.03,17.43,10.15,26.14,15.23,6.24,3.65,10.68,8.69,13.14,15.64,2.46,6.97,3.51,7.37,10.88,6.64,14.35-1.41,25.24,8.6,24.72,22.97-.4,11.13-3.79,21.55-8.07,31.72-1.16,2.76-2.27,5.54-3.4,8.31-.52-.17-1.05-.34-1.57-.5,.68-2.38,1.38-4.75,2.03-7.13,2.68-9.83,6.14-19.52,7.81-29.52,2.36-14.13-6.34-23-20.76-22.58-10.42,.3-11.12-.06-14.45-9.77-1.96-5.73-5.32-10.26-10.44-13.4-9.23-5.65-18.47-11.31-27.88-16.66-2.91-1.65-6.31-2.63-9.61-3.33-9.58-2.04-14.05,.02-18.41,8.74-5.5,11-14.1,16.17-26.45,15.92-8.88-.18-17.79,.25-26.65,.86-3.62,.25-7.37,1.22-10.69,2.7-8.95,3.98-10.91,7.66-9.01,17.21,1.16,5.82-.69,9.76-5.58,12.75-3.25,1.99-6.35,4.21-9.52,6.33-.2-.26-.4-.52-.6-.79Z"/>
      <path class="cls-1" d="M315.41,424.47c2.55-2.41,5.05-4.89,7.67-7.23,5.31-4.75,10.81-9.3,15.96-14.21,1.74-1.66,2.66-4.17,3.95-6.29-.32-.2-.64-.4-.96-.6-7.87,6.18-15.74,12.35-23.61,18.53-.27-.3-.54-.61-.81-.91,2.74-2.52,5.38-5.16,8.26-7.52,3.67-3.01,7.47-5.87,11.33-8.64,6.02-4.33,6.59-5.8,4.61-13.26-.34-1.27-.65-2.54-.97-3.81,.36-.19,.73-.37,1.09-.56,1.08,2.16,2.64,4.21,3.15,6.5,2.59,11.65-2.3,33.97-19.91,41.47-7.33,3.12-14.33,6.59-18.24,14.12-.15,.28-.74,.34-2.14,.92,1.2-5.57,4.25-8.8,7.98-11.66,4.93-3.78,9.89-7.52,14.69-11.46,3.44-2.82,6.76-5.81,9.89-8.97,1.41-1.42,2.23-3.42,2.44-5.74-7.79,6.79-15.58,13.57-23.37,20.36-.33-.35-.66-.71-.99-1.06Z"/>
      <path class="cls-1" d="M188.11,222.4c-2.8-.79-5.62-1.5-8.39-2.37-13.37-4.19-26.61-2.21-40,.27-17.91,3.32-35.92,6.17-53.93,8.88-6.51,.98-13.17,1.04-19.25-2.8,2.65,.25,5.35,.98,7.93,.68,14.98-1.76,29.97-3.55,44.89-5.76,12.01-1.78,23.91-4.32,35.91-6.22,10.24-1.63,20.07,.36,29.52,4.43,1.28,.55,2.44,1.38,3.66,2.07-.11,.27-.23,.54-.34,.81Z"/>
      <path class="cls-1" d="M240.5,682.65c-2.05,9.01-4.32,17.99-6.09,27.05-1.39,7.12-2,14.39-3.27,21.53-4.49,25.4-1.96,50.98-2.41,76.5-4.03-27.25-.91-54.7-1.5-82.17,.51,1.59,1.01,3.17,1.73,5.43,1.92-16.99,4.74-33.13,11.53-48.35Z"/>
      <path class="cls-1" d="M142.63,239.94c10.07-6.67,29.27-11.1,49.76-11.39-16.66-5.07-32.22-3.44-48.6-.38,12.14-6.24,44.51-5.98,52.23,1.22-14.28,5.63-28.37,11.19-42.46,16.74,9.95-7.13,21.51-10.94,32.72-15.65-15.33-.5-29.32,4.96-43.64,9.45Z"/>
      <path class="cls-1" d="M192.2,90.16c3.35,22.1,12.29,42.09,22.45,61.65-12.66-18.7-21.4-38.83-22.45-61.65Z"/>
      <path class="cls-1" d="M73.5,497.97c17.82,10.11,34.59,21.5,48.61,36.5-16.2-12.17-32.41-24.34-48.61-36.5Z"/>
      <path class="cls-1" d="M198.07,545.96c-2,17.56-13.32,30.22-23.14,43.68,7.09-14.87,18.49-27.48,23.14-43.68Z"/>
      <path class="cls-1" d="M256.12,453.06c7.78-16.64,16.38-32.8,28.8-46.59-9.6,15.53-19.2,31.06-28.8,46.59Z"/>
      <path class="cls-1" d="M85.95,575.95c2.32-2.04,3.81-3.35,5.3-4.66,.03,.04,.06,.08,.09,.12-2.01,1.77-3.89,4.77-6.07,5.01-2.68,.29-7.01-6.75-6.04-9.83,1.99-6.28,4.57-12.4,7.39-18.36,.7-1.47,3.27-2.06,5.21-2.59-6.78,5.69-9.26,13.37-10.04,21.44-.25,2.63,2.51,5.56,4.16,8.87Z"/>
      <path class="cls-1" d="M137.88,532.36c-10.8-8.76-21.61-17.53-32.41-26.29,.39-.5,.78-.99,1.17-1.49,10.91,8.71,21.81,17.42,32.72,26.13-.5,.55-.99,1.1-1.49,1.65Z"/>
      <path class="cls-1" d="M201.64,557.34c-3.8,13.59-11.56,25.04-19.96,36.13-.32-.18-.63-.37-.95-.55,6.97-11.86,13.94-23.72,20.91-35.58Z"/>
      <path class="cls-1" d="M151.5,512.1c-2.93-14.67-.08-29.13,2.66-43.6-.89,14.53-1.77,29.06-2.66,43.6Z"/>
      <path class="cls-1" d="M211.08,495.82c4.94-12.79,9.88-25.57,14.82-38.36,.61,.24,1.21,.48,1.82,.72-5.06,12.81-10.13,25.62-15.19,38.43-.48-.26-.97-.53-1.45-.79Z"/>
      <path class="cls-1" d="M188.44,600.91c6.97-9.85,13.94-19.69,20.91-29.54,.54,.38,1.08,.75,1.62,1.13-6.95,9.81-13.89,19.62-20.84,29.43-.57-.34-1.13-.68-1.7-1.02Z"/>
      <path class="cls-1" d="M319.58,308.8c7.76-2.48,13.02,2.34,18.11,6.69,4.64,3.96,5.59,10.01,3.14,16.74,.3-15.29-9.61-20.2-21.21-23.5-.02,.02-.05,.07-.05,.07Z"/>
      <path class="cls-1" d="M230.91,96.82c-2.41,14.03-4.81,28.06-7.22,42.09-.43-14.52,2.58-28.44,7.22-42.09Z"/>
      <path class="cls-1" d="M290.63,11.46c5.85,3.86,7.11,21.63,.71,32.28,.65-5.58,1.91-11.17,1.78-16.73-.12-5.39-1.67-10.75-2.49-15.55Z"/>
      <path class="cls-1" d="M148.29,512.02c-4.23-8.01-7.4-30.81-6.1-41.35,1.85,12.56,4.02,27.25,6.1,41.35Z"/>
      <path class="cls-1" d="M180.16,121.36c2.15,4.13,4.5,8.17,6.41,12.41,5.14,11.42,13.58,18.83,25.75,21.96,.97,.25,1.88,.72,3.32,1.29-14.69,.5-30.67-15.92-35.39-35.75l-.09,.09Z"/>
      <path class="cls-1" d="M294.59,79.59c7.2-7.6,14.41-15.19,21.61-22.79,.4,.37,.81,.74,1.21,1.11-7.04,7.77-14.07,15.53-21.11,23.3-.57-.54-1.14-1.08-1.71-1.62Z"/>
      <path class="cls-1" d="M97.72,276.18c-6.44,7.77-12.88,15.53-19.32,23.3,3.92-9.87,10.34-17.65,19.32-23.3Z"/>
      <path class="cls-1" d="M304.06,385.96c-.18,.37-.36,.73-.54,1.1-.63-1.15-1.72-2.27-1.79-3.45-.09-1.49,.63-3.04,1.01-4.56l-.13,.14c3.05-5.08,6.11-10.16,9.16-15.24,.28,.17,.57,.34,.85,.51-2.85,7.17-5.7,14.33-8.55,21.5Z"/>
      <path class="cls-1" d="M127.23,442.54c-4.34-9.05-10.48-16.38-19.62-20.97,8.93,.16,18.32,10.2,19.62,20.97Z"/>
      <path class="cls-1" d="M279.1,402.66c-6.79,12.38-13.58,24.77-20.37,37.15-.37-.2-.73-.39-1.1-.59,6.72-12.42,13.44-24.85,20.16-37.27,.43,.24,.87,.47,1.3,.71Z"/>
      <path class="cls-1" d="M200.71,217.55c7.54-.89,2.29,8.24,7.94,8.41-1.6,2.59-3.12,3.16-4.39,.27-.79-1.79-1-3.84-1.57-6.21-1.53,1.65-2.67,2.88-3.81,4.12-.38-.11-.75-.22-1.13-.32,.82-4.89,1.65-9.79,2.47-14.68,.16-.02,.33-.04,.49-.05,0,2.75,0,5.5,0,8.46Z"/>
      <path class="cls-1" d="M302.73,379.05c-1.44,2.98-2.87,5.96-4.31,8.96-1.57-4.23,3.9-19.11,10.18-26.42-2.26,6.63-4.14,12.12-6.01,17.6,0,0,.14-.15,.14-.15Z"/>
      <path class="cls-1" d="M53.43,531.56c9.76,1.09,18.28,5.79,27.06,9.72-.12,.37-.25,.73-.37,1.1-8.96-3.23-17.92-6.45-26.88-9.68,.07-.38,.13-.76,.2-1.14Z"/>
      <path class="cls-1" d="M149.83,295.7c5.98-5.51,11.97-11.01,17.95-16.52,.46,.49,.92,.99,1.38,1.48-5.96,5.53-11.92,11.06-17.88,16.6-.48-.52-.96-1.04-1.44-1.56Z"/>
      <path class="cls-1" d="M203.7,568.7c-5.81,8.51-11.62,17.02-17.42,25.53-.41-.27-.82-.55-1.23-.82,5.73-8.62,11.46-17.23,17.19-25.85,.49,.38,.98,.77,1.47,1.15Z"/>
      <path class="cls-1" d="M141.25,299.82c2.31-5.72,12.08-15.22,17.59-17.31-5.81,5.72-11.57,11.38-17.59,17.31Z"/>
      <path class="cls-1" d="M73.06,217.11c-10.88-.42-20.55-4.84-30.38-8.74,.11-.36,.22-.72,.33-1.07,10.02,3.27,20.03,6.55,30.05,9.82Z"/>
      <path class="cls-1" d="M209.24,615.26c-5.23,9.33-10.47,18.66-15.7,28-.4-.22-.8-.44-1.19-.66,5.18-9.33,10.35-18.65,15.53-27.98,.46,.22,.91,.43,1.37,.65Z"/>
      <path class="cls-1" d="M310.8,395.6c3.71-5.54,9.25-10.51,16.19-14.06-5.63,4.89-11.26,9.78-16.19,14.06Z"/>
      <path class="cls-1" d="M180.24,121.27c-2.84-9.16-6.15-18.22-8.34-27.53-1.48-6.3-.13-12.78,3.05-18.68-.59,2.24-1.19,4.48-1.77,6.72-2.4,9.26,.72,17.82,3.28,26.47,1.29,4.35,2.47,8.73,3.7,13.11,0,0,.08-.09,.08-.09Z"/>
      <path class="cls-1" d="M332.9,67.89c-7.76,6.52-15.52,13.03-23.29,19.55-.37-.43-.74-.86-1.11-1.3,7.79-6.44,15.58-12.88,23.38-19.32,.34,.36,.68,.71,1.02,1.07Z"/>
      <path class="cls-1" d="M221.95,626.7c-5.25,8.92-10.5,17.83-15.75,26.75-.43-.26-.87-.51-1.3-.77,5.26-8.89,10.52-17.77,15.78-26.66,.42,.23,.85,.45,1.27,.68Z"/>
      <path class="cls-1" d="M302.83,321.17q-1.19-13.03-4.81-19.36c6.23,.75,9.02,11.11,4.81,19.36Z"/>
      <path class="cls-1" d="M230.13,384.05c-7.76,0-15.51,0-24.03,0,8.33-2.79,16.08-3.14,23.95-1.57,.03,.52,.06,1.05,.08,1.57Z"/>
      <path class="cls-1" d="M332.51,388.02c-6.3,5.21-12.59,10.42-18.89,15.63-.38-.46-.76-.93-1.13-1.39,6.37-5.15,12.75-10.3,19.12-15.44,.3,.4,.6,.81,.9,1.21Z"/>
      <path class="cls-1" d="M156.64,618.7c4.34-5.89,8.68-11.77,13.02-17.66,.54,.39,1.07,.78,1.61,1.17-4.39,5.87-8.78,11.73-13.17,17.6-.48-.37-.97-.74-1.45-1.11Z"/>
      <path class="cls-1" d="M322.18,68.03c-5.72,5.26-10.56,11.57-17.59,15.27-.25-.3-.51-.59-.76-.89,5.82-5.1,11.64-10.2,17.47-15.29,.3,.3,.59,.61,.89,.91Z"/>
      <path class="cls-1" d="M110.5,291.28c-5.03,6.55-10.06,13.1-15.09,19.66,2.79-8.34,8.19-14.68,15.09-19.66Z"/>
      <path class="cls-1" d="M301.54,361.33c-1.71,7.27-3.3,14.05-4.9,20.83-2.46-4.16-.04-15.05,4.9-20.83Z"/>
      <path class="cls-1" d="M112.89,295.79c-3.99,5.72-7.99,11.45-11.98,17.17,1.14-7.77,5.87-12.96,11.98-17.17Z"/>
      <path class="cls-1" d="M208.68,335.39c6.52-1.39,11.59,1.47,15.34,8.45-4.9-2.7-10.04-5.53-15.34-8.45Z"/>
      <path class="cls-1" d="M167.68,246.99c7.37-3.8,14.73-7.6,22.1-11.4,.22,.42,.44,.84,.66,1.27-7.38,3.77-14.77,7.55-22.15,11.32-.2-.39-.4-.79-.6-1.18Z"/>
      <path class="cls-1" d="M101.7,283.73c-4.28,5.54-8.56,11.07-12.85,16.6-.44-.35-.89-.69-1.33-1.04,4.33-5.54,8.65-11.07,12.98-16.61,.4,.35,.8,.69,1.2,1.04Z"/>
      <path class="cls-1" d="M202.65,641.87c4.19-7.7,8.37-15.39,12.56-23.09,.32,.17,.64,.35,.96,.52-4.13,7.73-8.25,15.46-12.38,23.19-.38-.21-.77-.41-1.15-.62Z"/>
      <path class="cls-1" d="M228.02,377.97c-6.11-1.76-12.22-3.52-18.93-5.45,7.48-.78,13.81,.35,18.93,5.45Z"/>
      <path class="cls-1" d="M101.54,159.29c5.84,5.52,11.69,11.04,17.53,16.55-.33,.34-.66,.67-1,1.01-5.63-5.71-11.27-11.43-16.9-17.14,.12-.14,.24-.28,.37-.42Z"/>
      <path class="cls-1" d="M88.16,278.19c-4.06,5.43-8.13,10.86-12.19,16.29,1.65-7.26,6.25-12.36,12.19-16.29Z"/>
      <path class="cls-1" d="M315.45,37.61c-3.05,5.13-6.09,10.27-9.14,15.4-.55-.32-1.1-.65-1.65-.98,3.12-5.09,6.24-10.18,9.36-15.27,.47,.28,.95,.56,1.42,.84Z"/>
      <path class="cls-1" d="M220.85,332.43c4.44-1.54,10.01,1.59,13.9,8.28-5.03-2.99-9.45-5.63-13.9-8.28Z"/>
      <path class="cls-1" d="M69.88,545.25c-5.88-2.37-11.76-4.75-17.64-7.12,.2-.5,.39-1,.59-1.49,5.89,2.34,11.79,4.68,17.68,7.02-.21,.53-.42,1.07-.63,1.6Z"/>
      <path class="cls-1" d="M95.53,301.4c4.51-5.69,9.02-11.39,13.53-17.08,.33,.26,.66,.51,.99,.77-4.41,5.75-8.82,11.5-13.24,17.24-.43-.31-.86-.62-1.29-.93Z"/>
      <path class="cls-1" d="M309.97,28.33c-2.8,6.15-5.6,12.3-8.4,18.46-.54-.25-1.09-.49-1.63-.74,2.84-6.16,5.69-12.33,8.53-18.49,.5,.26,1,.52,1.5,.77Z"/>
      <path class="cls-1" d="M196.02,237.18c-5.68,4.34-11.36,8.68-17.05,13.02-.33-.44-.66-.88-.98-1.32,5.75-4.32,11.51-8.63,17.26-12.95,.26,.42,.51,.83,.77,1.25Z"/>
      <path class="cls-1" d="M244.64,98.48c-2.2,7.09-4.39,14.18-6.59,21.27-.45-.15-.91-.29-1.36-.44,2.26-7.13,4.51-14.27,6.77-21.4l1.19,.57Z"/>
      <path class="cls-1" d="M182.09,253.17c4.05-4.24,8.11-8.49,12.16-12.73,.36,.34,.72,.68,1.08,1.02-3.99,4.31-7.98,8.62-11.97,12.92-.42-.4-.85-.81-1.27-1.21Z"/>
      <path class="cls-1" d="M203.14,37.03c5.01-.55,10.09,3.98,11.51,10.67-3.78-3.51-7.82-7.25-11.51-10.67Z"/>
      <path class="cls-1" d="M234.51,394.32c-4.97,2.97-9.95,5.94-14.92,8.92,4.03-4.58,8.5-8.4,14.92-8.92Z"/>
      <path class="cls-1" d="M6.17,503.09c6.51,1.68,13.03,3.36,19.54,5.04-.09,.37-.18,.73-.27,1.1-6.51-1.54-13.02-3.07-19.53-4.61,.09-.51,.18-1.02,.26-1.53Z"/>
      <path class="cls-1" d="M125.82,175.07c-1.95-3.04-3.9-6.08-5.85-9.11,.28-.2,.55-.4,.83-.6,3.76,4.88,7.53,9.75,11.29,14.63-.19,.17-.38,.35-.58,.52-1.92-1.82-3.84-3.64-5.76-5.46l.06,.02Z"/>
      <path class="cls-1" d="M195.52,247.72c-2.63,3.89-5.26,7.77-7.9,11.66-.56-.37-1.11-.74-1.67-1.11,2.69-3.83,5.37-7.65,8.06-11.48,.5,.31,1.01,.62,1.51,.93Z"/>
      <path class="cls-1" d="M300.41,78.65c4.97-4.33,9.95-8.65,14.92-12.98,.25,.25,.51,.5,.76,.75-4.54,4.76-9.08,9.52-13.61,14.29-.69-.69-1.38-1.37-2.07-2.06Z"/>
      <path class="cls-1" d="M235.48,329.88c4.76-1.02,8.16,3.02,7.76,9.9-2.61-3.33-5.13-6.54-7.76-9.9Z"/>
      <path class="cls-1" d="M170.25,284.51c-3.33,3.5-6.66,7-9.99,10.49-.52-.51-1.05-1.02-1.58-1.54,3.46-3.43,6.92-6.85,10.38-10.28,.39,.44,.79,.88,1.18,1.33Z"/>
      <path class="cls-1" d="M231.64,388.3c-5.12,.87-10.25,1.74-15.37,2.61-.09-.49-.18-.98-.27-1.48,5.12-.94,10.23-1.87,15.35-2.81,.1,.56,.19,1.12,.29,1.67Z"/>
      <path class="cls-1" d="M341.44,114.1c-4.35,2.15-8.7,4.3-13.05,6.45-.26-.54-.52-1.08-.78-1.63,4.39-2.09,8.77-4.19,13.16-6.28,.22,.48,.45,.97,.67,1.45Z"/>
      <path class="cls-1" d="M331.7,396.47c-4.2,3.3-8.4,6.61-12.59,9.91-.33-.43-.67-.86-1-1.3,4.22-3.27,8.45-6.54,12.67-9.81,.31,.4,.61,.8,.92,1.19Z"/>
      <path class="cls-1" d="M63.96,207.07c-5.36-2.3-10.72-4.6-16.07-6.9,.19-.44,.38-.87,.57-1.31l15.94,6.88-.44,1.33Z"/>
      <path class="cls-1" d="M211.03,661.97c3.2-5.02,6.39-10.05,9.59-15.08,.37,.23,.73,.46,1.1,.69-3.2,5.02-6.4,10.04-9.61,15.07-.36-.23-.72-.45-1.08-.68Z"/>
      <path class="cls-1" d="M125.76,175.05c-.97-.14-2.33,.09-2.86-.47-3.51-3.71-6.85-7.58-10.25-11.4,.4-.39,.81-.79,1.21-1.18,3.97,4.35,7.94,8.69,11.93,13.05,.02,.01-.04,0-.04,0Z"/>
      <path class="cls-1" d="M130.08,423.52c1.45,4.64,2.91,9.28,4.36,13.92-.46,.15-.92,.3-1.38,.45-1.55-4.61-3.09-9.22-4.64-13.83,.55-.18,1.1-.36,1.65-.54Z"/>
      <path class="cls-1" d="M183.64,197.78c-3.83-3.13-7.66-6.26-11.48-9.39,.3-.38,.61-.77,.91-1.15,3.83,3.12,7.65,6.24,11.48,9.36-.3,.39-.6,.79-.9,1.18Z"/>
      <path class="cls-1" d="M214.6,34.87c5.03,.26,8.03,3.13,9.26,8.12-2.13-2.77-4.78-6.21-7.43-9.65-.61,.51-1.22,1.02-1.83,1.53Z"/>
      <path class="cls-1" d="M178.68,204.46c-3.53-2.94-7.06-5.88-10.59-8.82,.29-.36,.58-.72,.86-1.08,3.6,2.88,7.19,5.76,10.79,8.64-.35,.42-.71,.84-1.06,1.26Z"/>
      <path class="cls-1" d="M235.29,106.5c-1.21,5.99-2.43,11.99-3.64,17.98-.28-.05-.56-.11-.83-.16,1.11-6.01,2.22-12.02,3.34-18.04,.38,.07,.76,.14,1.14,.21Z"/>
      <path class="cls-1" d="M178.58,207.46c-4.76,.83-9.62,2.17-14.06-.26,.04-.41,.09-.83,.13-1.24,4.64,.5,9.29,1.01,13.93,1.51Z"/>
      <path class="cls-1" d="M16.08,490.33c4.48,1.25,8.96,2.5,13.43,3.76-.11,.4-.22,.81-.33,1.21-4.5-1.16-9.01-2.32-13.51-3.47,.13-.5,.27-1,.4-1.5Z"/>
      <path class="cls-1" d="M65.35,284.02c2.55-3.04,5.1-6.07,7.65-9.11,.44,.36,.88,.72,1.31,1.09-2.57,3.05-5.13,6.09-7.7,9.14-.42-.37-.84-.74-1.27-1.11Z"/>
      <path class="cls-1" d="M114.41,304.93c-2.46,3.17-4.92,6.34-7.39,9.51-.45-.37-.91-.74-1.36-1.11,2.62-3.1,5.24-6.21,7.86-9.31l.89,.9Z"/>
      <path class="cls-1" d="M165.82,618.53c2.34-2.77,4.67-5.54,7.01-8.32,.4,.34,.81,.67,1.21,1.01-2.33,2.78-4.66,5.56-6.98,8.34-.41-.34-.83-.68-1.24-1.03Z"/>
      <path class="cls-1" d="M175.03,617.52c-1.86,2.42-3.71,4.84-5.57,7.26-.49-.38-.98-.77-1.47-1.15,1.93-2.4,3.86-4.79,5.79-7.19,.42,.36,.83,.72,1.25,1.08Z"/>
      <path class="cls-1" d="M265.76,315.52c-2.53-1.3-5.05-2.59-7.58-3.89,.18-.38,.37-.76,.55-1.14,3.31-.29,5.77,1.23,7.03,5.02Z"/>
      <path class="cls-1" d="M333.4,652c3.11-10.81,6.5-22.59,9.69-33.67,3.21,3.99-2.96,26.6-9.69,33.67Z"/>
      <path class="cls-1" d="M334.95,627.27c2.32,4.36-3.77,20.31-10.53,25.6,3.52-8.55,7.11-17.28,10.53-25.6Z"/>
      <path class="cls-1" d="M258.28,581.1c-1.61-6.19,1.43-11.4,2.97-16.93,.46,.11,.92,.21,1.38,.32-1.49,5.5-2.98,11-4.46,16.5,.01,.01,.1,.1,.1,.1Z"/>
      <path class="cls-1" d="M330.92,623c-2.92,3.66-5.84,7.32-8.77,10.99-.46-.37-.91-.73-1.37-1.1,2.93-3.65,5.87-7.31,8.8-10.96,.45,.36,.89,.72,1.34,1.08Z"/>
      <path class="cls-1" d="M267.17,655.14c-1.5,1.11-2.85,1.45-2.66-1.1,.4-5.41,.98-10.8,2.52-16.16,0,5.8,0,11.6,.01,17.39,.01-.01,.13-.13,.13-.13Z"/>
      <path class="cls-1" d="M248.97,598.34c.47,4.72,.94,9.44,1.42,14.17-.57,.06-1.14,.12-1.71,.18-.49-4.72-.98-9.44-1.48-14.16,.59-.06,1.18-.12,1.77-.18Z"/>
      <path class="cls-1" d="M244.49,588.12c-.42,4.19-.84,8.38-1.25,12.57-.49-.04-.98-.08-1.47-.12,.31-4.21,.61-8.42,.91-12.63,.6,.06,1.21,.12,1.81,.17Z"/>
      <path class="cls-1" d="M217.35,537.98c-1.3-2.81-2.6-5.63-3.9-8.44,.46-.22,.93-.43,1.39-.65,1.28,2.82,2.56,5.64,3.84,8.47-.44,.21-.89,.42-1.33,.62Z"/>
      <path class="cls-1" d="M275.23,184.52c-7.31,2.1-14.57,2.59-21.69-.72,3.57,.5,7.13,1.29,10.71,1.41,3.65,.12,7.32-.43,10.98-.69Z"/>
    </g>
  </g>
</svg>