<svg xmlns="http://www.w3.org/2000/svg" viewBox="0 0 105.54 258.57"><defs><style>.cls-1{fill:#b6b7b7;}</style></defs><title>flower2</title><g id="Слой_2" data-name="Слой 2"><g id="Layer_1" data-name="Layer 1"><path class="cls-1" d="M54.63,144.87a8.44,8.44,0,0,1,1.71-1.42,2.72,2.72,0,0,0,1.46-1.64c1.38-3.49,2.84-6.95,4.29-10.41.2-.48.48-.93.72-1.39l.28.12c-1.66,4.1-3.32,8.2-4.93,12.16,2.16.15,4.21.41,6.26.36a6.38,6.38,0,0,0,2.86-1,6.2,6.2,0,0,1,7.41.68c1.76,1.39,3.45,2.85,5.21,4.23a1.67,1.67,0,0,0,1.16.36c2.68-.45,5.24.28,7.68,1.07,3.09,1,4.43,3.83,5.12,6.73a22.15,22.15,0,0,1,.93,8.09,10.88,10.88,0,0,0,.82,4.15,15.52,15.52,0,0,1,.28,8.8,5.93,5.93,0,0,1-1,2.21c-3.17,3.78-6.93,6.52-12.12,6.62a1.24,1.24,0,0,0-.65.2c-.89.56-1.76,1.15-3,2a12.88,12.88,0,0,1,1.69,1.23,5,5,0,0,1,.92,5.77A2.55,2.55,0,0,1,79,195.38c-1.33-.21-1.64-1.2-1.73-2.32s-.13-2-.22-3.05a4,4,0,0,0-2.29-3.51,3.26,3.26,0,0,1-.49-.42,2.66,2.66,0,0,1,2.79,1.56A17.19,17.19,0,0,1,78,191c.15.75.08,1.56.24,2.31.1.41.42,1,.74,1.07a1.88,1.88,0,0,0,1.44-.35c1.06-.86,1.4-3.89-.08-5L80,191.61l-.32,0c0-.44,0-.88,0-1.32-.07-1.36-.21-2.69-1.57-3.51-.21-.12-.27-.51-.39-.78a5,5,0,0,1,.76-.1,4,4,0,0,0,3.23-1.68c1.53-1.66,2.21-3.75,3-6.07a22.17,22.17,0,0,0-6.57,4.56l-.27-.32c1.43-1.2,2.69-2.74,4.31-3.55,4.5-2.26,5.83-6.11,6-10.69.08-3.08,0-6.17,0-9.22a7.4,7.4,0,0,0-1,1.92c-.49,2.26-.84,4.56-1.21,6.84-.34,2.08-.54,4.19-1,6.25a5.17,5.17,0,0,1-2.51,3.19c-1.2.78-2.35,1.63-3.48,2.5-2.22,1.68-4.35,3.45-5,6.45l-.32-.15.75-3.84c-.85,1.61-1.53,2.94-2.27,4.23-.08.13-.59,0-1,0,1.92-3.35.57-6.14-1.24-8.84A17.72,17.72,0,0,0,68,175.14c-3.47-3.63-4.49-7.93-3.64-12.78a10.28,10.28,0,0,0,.13-1.46c0-.53,0-1.06,0-1.66l-.84.16c1-3.49-1.55-5.26-3.37-7.39s-3.63-4.17-5.44-6.26a2.77,2.77,0,0,1-.42-3.17,60.75,60.75,0,0,0,2.11-7.78c.86-3.69,1.6-7.41,2.4-11.12.14-.63.35-1.25.53-1.87l.35.06c-.64,3.41-1.22,6.83-1.94,10.22-.63,2.95-1.4,5.87-2.17,8.79a8.5,8.5,0,0,1-1.1,2.57,1.09,1.09,0,0,0,0,1.39q4.67,5.52,9.31,11.06l.38-.09c.15-2.54.27-5.08.48-7.61a21.76,21.76,0,0,1,.61-3.2c.28-1.1,1.13-1.29,2.12-1.14a6.35,6.35,0,0,1,5.1,3.56,5.36,5.36,0,0,0,3.86,2.82c-.2-.22-.39-.45-.58-.67l3.15-2.89a25.08,25.08,0,0,0-7.3-5,5,5,0,0,0-2.71.12,9.37,9.37,0,0,0-2,.88,5.93,5.93,0,0,1-4.12.67,8.82,8.82,0,0,0-3.28-.05,12.66,12.66,0,0,0-2.63,1,1.58,1.58,0,0,0-.7-.07A17.52,17.52,0,0,0,54.63,144.87Zm18.8,35.3c.61-2.54,1.23-5.08,1.84-7.62l.16,0c-.29,2.31-.59,4.63-.88,7L77,175.36l.2.13c-.1.37-.21.74-.31,1.12l.12,0,1-1.49.21.14c-1.06,2.16-2.13,4.33-3.19,6.5,1.48-1,2.78-2.15,4.14-3.21,1.13-.88,2.35-1.63,3.49-2.48a2.61,2.61,0,0,0,1-3.44,14,14,0,0,0-1.32-1.49v2a13,13,0,0,1-.61-2c-.71-2.41-1.39-4.84-2.25-7.2a2.7,2.7,0,0,0-2.11-1.86,33.57,33.57,0,0,1-5.49-1.1c-4.6-1.61-6.08-4.81-4.57-9.43,0-.16.12-.31.16-.46a3.6,3.6,0,0,0-1.73-4.1c-.13,2.34-.25,4.74-.41,7.13-.1,1.46-.35,2.91-.41,4.36a36.06,36.06,0,0,1,.06,4,13.77,13.77,0,0,0,3.58,11.74,17,17,0,0,1,4.25,7.19c0,.05.13.07.3.17l.4-1.51ZM71,159.78l0,0,.86.4c.46-1.21.86-2.26,1.27-3.3l.23.08c-.26,1.08-.53,2.17-.79,3.25l.18,0,.84-2.11a4.74,4.74,0,0,1-.17,1.74c-.18.65,0,1,.71,1.09,1.13.14,2.25.35,3.38.48a1.47,1.47,0,0,0,1.68-1.11c.45-1.4.83-2.81,1.29-4.2.27-.8.64-1.58,1-2.37l.44.1a11.08,11.08,0,0,1,.9,5.95c-.38,2.29-.66,4.59-1,6.88l.31.05c0-.33.07-.65.14-1.27.76,2,.26,4.08,1.57,5.68l.13-2.66h.26c.13,1.21.25,2.42.38,3.64a10.15,10.15,0,0,0,.54-2.66c.39-2.78.69-5.58,1.25-8.32a5.63,5.63,0,0,1,2.89-3.85c-1,3.23-.79,6.49-.6,9.74a13.78,13.78,0,0,1-1.92,8.46,15.71,15.71,0,0,0-2.43,5.75,14.59,14.59,0,0,1-1.49,3.15c4.74-1.16,8.68-3.07,11.44-6.92a5.62,5.62,0,0,0,.87-2.13,16,16,0,0,0-.34-8,26.67,26.67,0,0,1-.88-4.53c-.3-2.57-.31-5.2-.75-7.75-.74-4.28-3-6.36-7.28-7.19a7.7,7.7,0,0,1-.95-.22,8.46,8.46,0,0,0-5.4.29c-2.37.81-2.85,2.79-1.15,4.53a5.65,5.65,0,0,1,.29,6.67s-.15,0-.32,0c.2-1.21.49-2.39.58-3.59a3.2,3.2,0,0,0-1.79-3.08c.16.75.28,1.35.41,2-.91-1.4-1.53-3-2.68-3.94a20,20,0,0,1-3.26-3.88,5.45,5.45,0,0,0-4.17-2.27c-.4,0-1,.09-1.18.36a1.91,1.91,0,0,0,0,1.35c.11.37.52.63.7,1a17,17,0,0,1,1.4,3,21.29,21.29,0,0,1,.33,3.4c.12,1.12.25,2.24.38,3.36l.24,0,1.29-4.81.32.08-1.26,6.1-.43,0c-1.41-1.74-.85-4-1.19-6.16C66.59,155.43,67.7,158.17,71,159.78Zm10.56-4.51c-.87,2.44-1.71,4.78-2.53,7.09L81.31,166C80.86,162.21,83.18,158.87,81.58,155.27Z"/><path class="cls-1" d="M59.6,48.43a5.48,5.48,0,0,1-1.6.84,2,2,0,0,1-1.51-.44c-.28-.28-.4-1.2-.18-1.4A43,43,0,0,1,60,44.49c.09-.07.45.23.76.39a11.59,11.59,0,0,0-1-5c-1.54-3.3-1.79-6.92-1.84-10.52A24.9,24.9,0,0,1,58,25.67c.33,4.75.55,9.49,2.17,14a72,72,0,0,1,.88-16.33c-.12,5.54-.25,11.42-.38,17.31l.35.07a1.57,1.57,0,0,0,.29-.4,21,21,0,0,1,4.94-7.65q2.82-2.89,5.55-5.87a12.3,12.3,0,0,1,5.23-3.28,6.55,6.55,0,0,1,6.07.81,3.24,3.24,0,0,0,4.79-1.06,19.7,19.7,0,0,1,1.54-1.88c.13.33.19.44.18.45a2.51,2.51,0,0,0-1.13,2.65,5.21,5.21,0,0,1-.23,1.81,13.56,13.56,0,0,0,.59,7.46,17.86,17.86,0,0,1,.68,2.73c.53,2.58-.58,4.44-2.68,5.8-.93.6-1.93,1.06-2.88,1.62a2.28,2.28,0,0,0-1.25,2.52c.41,3.08-2.37,6.45-5.79,7.15a18.35,18.35,0,0,0-2.79.61,8.47,8.47,0,0,0,2.31.8,6.46,6.46,0,0,0,5.73-2.43,2.87,2.87,0,0,1,1.94-.93,11.34,11.34,0,0,0,10.76-8.3A9.32,9.32,0,0,0,95,39.74a1.45,1.45,0,0,1,.73-1.58,34.49,34.49,0,0,0,4.32-3.56c1.52-1.61,1.28-2.83-.47-4.22a5.93,5.93,0,0,0-5-1.12,45.68,45.68,0,0,0-4.9,1.45c-.41.13-.79.32-1.49.62,2.69-2.62,8.53-3.35,11.21-1.63,2.53,1.63,2.87,3.47.82,5.65a49.62,49.62,0,0,1-3.91,3.29c-.28.25-.63.68-.59,1a10.89,10.89,0,0,1-5.91,11,11.5,11.5,0,0,1-6,1.56,2,2,0,0,0-1.38.77,6.67,6.67,0,0,1-9,1.44,22.91,22.91,0,0,0-2.18-1c-1.33-.66-2.65-1.34-4-2a24.88,24.88,0,0,1-1.62,2.49c-.29.35-.89.44-1.35.65-.12-.4-.27-.8-.38-1.21-.41-1.51-.81-3-1.37-4.51a9.2,9.2,0,0,0-1.8,5.27c-.06,3.42-.11,6.85-.17,10.28,0,.48-.05,1-.08,1.44h-.31V54H60c0,1.25,0,2.5,0,3.75,0,.44-.11,1.1-.4,1.26-.74.42-1.68.74-2.26-.24a8,8,0,0,1-.81-2.14c-.45-1.72-.56-3.55-1.69-4.93.14,1.3.29,2.67.44,4l-.44.05c-.08-.73-.14-1.46-.22-2.19a5.33,5.33,0,0,0-2.88-4.14C50.83,49,50,48.34,49,47.63a6,6,0,0,1,5.16,1.91,11.8,11.8,0,0,1,2.76,5.91,14.48,14.48,0,0,0,.55,2.25c.24.73.71,1.19,1.87.82,0-2.39,0-4.86,0-7.33,0-.93.14-1.86.22-2.78,1.41.23.32,1.61.91,2.17l1.83-3.15-.85-.87c-.09.7-.14,1.09-.2,1.48a4.27,4.27,0,0,1-.42-1.72c-.09-.76-.57-1.14-1.25-.81a7.78,7.78,0,0,0-2.11,1.43c-.33.31-.35,1-.5,1.44a4.89,4.89,0,0,0,1.54-.08,9.27,9.27,0,0,0,1.66-1l.15.22Zm18.94-7.89a6.77,6.77,0,0,1-.8,2.13c-1.49,1.76-3.11,3.41-4.69,5.09-.2.21-.43.38-.65.57a19.31,19.31,0,0,0,3.79-1.1,4.32,4.32,0,0,0,3-5.4,5.39,5.39,0,0,0-.65-1.26c.1-.12.28-.24.29-.37.15-2.31,1.87-3.47,3.39-4.83a30.62,30.62,0,0,0,3.45-3.75,5.21,5.21,0,0,0,.56-1.85l-.33-.25c-.63.22-1.27.4-1.88.67-4,1.75-6.35,5-8.1,8.77a32,32,0,0,1-5.36,8.42l-1.1,1.18a7.56,7.56,0,0,0,5.91-4.64l.18,1ZM70.31,46.1a26.13,26.13,0,0,0,5-7.7c1.78-3.79,4.21-7,8.21-8.69.91-.38,2-1.2,2.81-.3s.11,2.11-.55,2.89a25.35,25.35,0,0,1-3.89,3.86c-2.12,1.59-2.92,3.41-2.25,6a4.56,4.56,0,0,1-2.47,5.23,25.8,25.8,0,0,1-9.83,2.39,8.15,8.15,0,0,0,1,1.33c2.48,2.28,7.32,2.92,10.22,1.2,2.15-1.28,3.84-3.07,3.45-5.84-.25-1.76.57-2.68,1.89-3.45,1-.59,2.1-1.11,3.06-1.79a4.27,4.27,0,0,0,1.93-4.56c-.28-1.4-.75-2.76-1-4.16a22,22,0,0,1-.35-4.21,38.16,38.16,0,0,1,.59-4.27c-.36.24-.56.35-.74.49C85.49,26,84.75,26,82.8,24.84A6.56,6.56,0,0,0,80.67,24c-3.14-.53-5.68.85-7.82,2.91-2.52,2.44-4.86,5.06-7.25,7.64a18.19,18.19,0,0,0-3.82,6.77,5.78,5.78,0,0,0,1.13,6.05,3.15,3.15,0,0,1,.59,1.17c.51,1.63,1,3.27,1.58,5.29l1.54-2.88c-1.45-1.67-2.74-3.15-4-4.64l.27-.28,3.41,3.32c.19-.58.72-1.5.52-1.71-.87-.92-.41-1.9-.26-2.76.39-2.29,1-4.55,1.48-6.82l.34.08c-.46,2.54-.93,5.08-1.39,7.63l.19,0c1-2.18,1.91-4.37,2.86-6.56l.28.12c-1.07,2.79-2.53,5.46-2.93,8.47.77-1.45,1.35-3,2.07-4.41s1.56-2.85,2.35-4.26l.21.12q-2.15,4.53-4.27,9l.52.29L72,42.31l.3.2Z"/><path class="cls-1" d="M33.09,154.84a9.77,9.77,0,0,0-5.94,2.9,34.92,34.92,0,0,1-4.78,3.77,4.76,4.76,0,0,1-2.44.61,2.26,2.26,0,0,1-2.42-2.35,9.89,9.89,0,0,1,0-1.72,4.75,4.75,0,0,0-2.13-4.62,20.07,20.07,0,0,1-3.84-3.69,6.69,6.69,0,0,1-.88-3.31c0-.54.49-1.13,1-1.62a3.62,3.62,0,0,0,0,4.07A21.68,21.68,0,0,0,14.58,152a22.19,22.19,0,0,0,2,1.41A4.83,4.83,0,0,1,18.44,158c0,.36-.13.72-.14,1.09-.09,1.74,1.05,2.81,2.6,2.09a22.57,22.57,0,0,0,5.39-3.47,11.61,11.61,0,0,1,6.11-3.34c.65-.1.8-.35.92-1a3.74,3.74,0,0,0-1.15-3.45A44.52,44.52,0,0,0,18.92,140c6.13,1.81,10.72,5.78,14.56,10.34,1.18-.64,2.19-1.27,3.26-1.76,1.63-.74,3.16-1.54,3.75-3.52a1.28,1.28,0,0,1-.12,2,33.37,33.37,0,0,1-3.44,2.44c-.87.55-2.17.53-2.24,2,0,1-.89,1.78-.22,2.89.33.53.08,1.39.23,2.07a2.69,2.69,0,0,0,.91,1.41c0-1,0-1.91,0-2.87,0-2.92,1.29-4.28,4.19-4.68,1-.14,2-.49,3-.72.82-.2.83-.64.42-1.25a7.39,7.39,0,0,1-1-2.11c.75,1,2.19,1.6,2,3.21a.6.6,0,0,0,.25.47c2.42,1.4,3.3,3.84,4.19,6.26a1.91,1.91,0,0,0,.63,1c.07-.39.33-.89.18-1.17q-2.13-4-4.42-7.88a7.77,7.77,0,0,0-1.51-1.46l.3-.37c.53.41,1.23.71,1.56,1.25,1.33,2.13,2.56,4.33,3.8,6.53a13.35,13.35,0,0,0,.78,1.47c1.64-3.35,3.59-6.61,2.41-10.63l.32-.11a6,6,0,0,1,.65,2,19.3,19.3,0,0,1-.65,4.56,37,37,0,0,1-5,9.78c-1.4,2.11-2.77,4.24-4,6.43s-1.11,3.48.63,5.31a35,35,0,0,1,5.45,7.34c2,3.62,5.24,5,9.23,4.73a35,35,0,0,1,9.48.47,3,3,0,0,1,2.55,1.85l-1.41-.89c-.17.77-.3,1.43-.46,2.08-1,4.11-2.22,8.19-3.12,12.33-.45,2.08-.33,4.29-.62,6.42a97.7,97.7,0,0,0-.75,18.8c.32,5.7.76,11.4,1.05,17.1.24,4.69.32,9.38.48,14.06l-.41,0q-.63-10.4-1.25-20.78h-.15v12.7h-.36v-12.5h-.35l-.45,9.23-.4,0,.46-12.62.3,0,.72,1.45c-1.49-16.39-.46-32.54,4.89-48.61H60.43q1,6.66,2,13.33l-.54.08c-.16-1.06-.3-2.12-.49-3.18-.51-3-1-6-1.56-9a1.25,1.25,0,0,0-1.48-1.2c-4.81.11-8-2.3-10.25-6.44a37.74,37.74,0,0,0-4.26-5.78c-2.19-2.65-2.44-4.24-.65-7.19,1.56-2.58,3.27-5.07,4.83-7.66a2.57,2.57,0,0,0,.16-1.89,21.26,21.26,0,0,0-1.71-3.91,9.53,9.53,0,0,0-2-2.39,2.41,2.41,0,0,0-2.81-.43,8.19,8.19,0,0,1-2.38.48c-1.61.24-2.55.87-2.76,2.46a46.57,46.57,0,0,0,0,4.73,5.62,5.62,0,0,1-.44,1.49c-.44-.3-1.07-.51-1.29-.92C34.07,157.41,33.65,156.19,33.09,154.84Z"/><path class="cls-1" d="M87.88,84.9c-.24.51-.45,1-.74,1.53s-.6.87-.93,1.35c1,1.23.6,2.46-.16,3.6a10.47,10.47,0,0,1-6,4.72,1.15,1.15,0,0,0-.76.62,14.16,14.16,0,0,0-.4,6.75c.49,2.16,2,3.37,4.07,4.26.17-.44.33-.87.5-1.3l.15-.3,2.79-4.23.34.21-3.34,6.31c-2-1-4.34-2-4.74-4.59a46.6,46.6,0,0,1-.07-7,3.48,3.48,0,0,0-.73.81,37.53,37.53,0,0,0-2,4.56c-.76,2.48-1.2,5.06-2,7.53A24.49,24.49,0,0,1,71.81,114a17.75,17.75,0,0,0-2.52,8.59,43.67,43.67,0,0,0,.66,5.32l.33.09c1.17-1.89,2.31-3.79,3.52-5.65s2.42-3.6,3.64-5.4l.27.18c-2.34,3.67-4.62,7.37-7,11a5.12,5.12,0,0,0-.87,3.83,13.44,13.44,0,0,0,2.33-2.15c1.08-1.67,1.94-3.48,2.91-5.23a2.58,2.58,0,0,1,1-1.11l-1.38,2.68a3.57,3.57,0,0,0,4,.94c1.67-.59,2.21-1.31,2.24-3.2a4.19,4.19,0,0,1,1.36-3.16c.8-.73,1.59-1.47,2.38-2.22l.36.37c-.85.72-1.73,1.42-2.55,2.18a4,4,0,0,0-1.27,3.07c0,2.74-2.2,4.3-4.87,3.52l-1.21-.38a9.93,9.93,0,0,1-6.5,5.69c.31-2.35.59-4.46.89-6.78-.42,0-.8,0-1.18,0a8.09,8.09,0,0,1-5.5-1.7,7.09,7.09,0,0,1-1.89-2.74c-.64-1.48-1-3.09-1.56-4.62-1.21-3.35-3.83-5.5-6.47-7.65a17.44,17.44,0,0,1-3.11-3.08c-1.69-2.29-1.46-4.2.48-6.25.76-.8,1.56-1.56,2.33-2.35a3.71,3.71,0,0,0,1.1-3.12c-.36-3.28.54-4.86,3.6-6.07a28.93,28.93,0,0,1,2.87-.83c-.76-6-1.51-12-2.18-17.31,0,1.56-.11,3.76,0,5.94.18,2.88.57,5.76.78,8.65a3.36,3.36,0,0,1-.69,1.84A86.56,86.56,0,0,1,56.8,66c.19,2.84.37,5.45.47,7,.16-3,.37-7.13.58-11.24l.14,0q.66,8.3,1.31,16.58h.33V65.16H60c.28,7.5.55,15,.83,22.65a12.11,12.11,0,0,0,7.55-3.51,9.33,9.33,0,0,0,2.82-7.78l.5,0A10.49,10.49,0,0,1,72,78.65a8.58,8.58,0,0,1-2.21,5.46,13.16,13.16,0,0,1-9.28,4.6,13.41,13.41,0,0,0-4.3,1.2,3.4,3.4,0,0,0-2,3.93,4.9,4.9,0,0,1-1.74,4.8,26.82,26.82,0,0,0-2,2,3.67,3.67,0,0,0-.19,5.37,13.35,13.35,0,0,0,2.94,2.73,18.9,18.9,0,0,1,8.51,12.63c.46,2.16,2.14,3,3.93,3.63a22.46,22.46,0,0,0,2.71.69c.16-2.28.2-4.38.47-6.46a19.8,19.8,0,0,1,2.8-7.91c1.71-2.76,2.39-5.86,3.24-8.93A20.63,20.63,0,0,1,76.7,98a4.86,4.86,0,0,1,3-2.33A10.59,10.59,0,0,0,85.46,91c.54-.89,1.15-1.87,0-2.85-.15-.12,0-.69.1-1,.29-.53.74-1,1-1.51,1-1.79.57-3.16-1.43-3.63s-4.17-.71-6.27-1a6.92,6.92,0,0,1-4.58-2c-.23-.26-.41-.56-.63-.86.18-.09.29-.16.31-.14,2,2.08,4.69,2.22,7.33,2.54a27.52,27.52,0,0,1,4.43.86c1.74.51,2.32,1.62,2.1,3.48Z"/><path class="cls-1" d="M38,81.2l2.38-2.72c-.77.4-1.38.77-2,1-2.11.88-4,.18-4.56-2S31.8,75,30,75.13s-3.65.39-5.48.5a2.79,2.79,0,0,0-2.34,1.25A29.21,29.21,0,0,1,20,79.38l-.31-.25,2.44-3.08-2.92-1.38-1.75,2-.27-.19a10.23,10.23,0,0,1,1.51-2,1.5,1.5,0,0,0,.31-2,2.05,2.05,0,0,0-1.53-.89,6.64,6.64,0,0,0-2.22.58,2.17,2.17,0,0,1-2.77-.88,8.8,8.8,0,0,1-1.76-5.62c.07-1.14.91-2.27,1.48-3.36.19-.37.61-.61.91-.89-.05-.1-.07-.15-.1-.17a7.54,7.54,0,0,1-4.37-7,16.93,16.93,0,0,0-.64-3.35c-1.19-4.49,1.29-8,6-8.23a13.94,13.94,0,0,1,4.78.75c2,.66,3.7.68,5.44-.79,2.69-2.27,5.64-2.29,8.6-.39A20.74,20.74,0,0,1,35.61,44a12.34,12.34,0,0,0,7.22,3,16.19,16.19,0,0,1,7.77,3.38c2,1.54,2.76,3.87,3.09,6.31,0,.2-.14.41-.3.83a5,5,0,0,1-.44-.9c-1.1-5.54-5.27-7.6-10.13-8.54-2.91-.56-5.63-1.18-7.85-3.3a19.6,19.6,0,0,0-3.12-2.15,5.58,5.58,0,0,0-6.44,0c-.89.56-1.75,1.17-2.69,1.8a12.61,12.61,0,0,0,3.5,2.74c3.11,1.54,6,3.58,9,5.42-.08.14-.17.27-.25.4L26.65,47.8l-.22.34,8.73,5.48L35,54c-2.57-1.54-5.22-2.95-7.66-4.66a46.3,46.3,0,0,1-4.58-4.19,2,2,0,0,0-.76-.52c-1.57-.4-3.17-.7-4.73-1.14a7.71,7.71,0,0,0-7.61,1.82,3.83,3.83,0,0,0-1.26,3.87c.5,2.48,1,5,1.55,7.41.46,2.08,2.08,3.16,3.8,4,.41.21,1.08-.07,1.88-.14L13.9,61.7c-1.53,1.13-2.65,2.56-2.23,4.56a24.44,24.44,0,0,0,1.51,4.33,1.44,1.44,0,0,0,2.06.73,8.35,8.35,0,0,1,2.24-.55,2.11,2.11,0,0,1,2.45,2c.29,1.88,1,2.53,2.93,2.4,2.15-.14,4.29-.46,6.45-.62a11.76,11.76,0,0,1,2.78.13,2.39,2.39,0,0,1,2,1.9c.66,2.82,2.5,3.36,5.21,1.75a32.4,32.4,0,0,1,5.24-2.53,2.59,2.59,0,0,1,3.25,1,8.56,8.56,0,0,1,.39,2c3.17.15,6.25-2.89,6.52-6.5.14-1.91.17-3.83.26-5.75,0-.59.11-1.18.17-1.77l.39,0c0,1,0,2,0,3-.07,1.92,0,3.85-.3,5.74-.47,3.46-4.17,6.3-7.71,6.22-.51,0-1.08.53-1.54.92-1.33,1.12-2.53,2.4-3.93,3.41a4.72,4.72,0,0,1-3.88.58c-2.71-.61-3.11-.4-4.46,1.92-1.79,3.08-2.71,3.36-6,2a7.22,7.22,0,0,1-4-3.54,2.12,2.12,0,0,0-2.14-1.31A3.34,3.34,0,0,1,18.42,82a29.85,29.85,0,0,0-2.93-3.26,4.15,4.15,0,0,1,1-5.67c.09,0,.23,0,.49,0-.46.87-.88,1.68-1.29,2.49a2.21,2.21,0,0,0,.32,2.7c1.2,1.38,2.31,2.84,3.57,4.16a3,3,0,0,0,1.76.68,3.06,3.06,0,0,1,2.57,1.78,7.76,7.76,0,0,0,5.57,3.81c1.69.38,2.39,0,3.15-1.57l.15-.33c1.69-3.39,2.13-3.62,5.93-3,2,.31,3.63-.7,5.09-1.93,1.06-.89,2-1.87,3-2.82a1.46,1.46,0,0,0-.56-2.54,4.64,4.64,0,0,0-4.62,1.73c-.9,1.3-2,2.45-3,3.67C38.44,81.62,38.21,81.41,38,81.2Z"/><path class="cls-1" d="M44.26,143.82c-1.12.61-1.84.33-2-.81a25.07,25.07,0,0,1-.24-4.15,25.6,25.6,0,0,1,.56-3.87v4.51c.09,0,.23-.07.26-.14,1.5-3.4,3.16-6.73,4.43-10.21A23.25,23.25,0,0,0,48.36,117a8.35,8.35,0,0,0-.86-2.27,3,3,0,0,0-3.32-1.77,5.94,5.94,0,0,1-5-1.48c-3.2-2.63-6.93-3.16-10.85-2.66a8.4,8.4,0,0,0-3.06,1.34,24.45,24.45,0,0,0-3.38,2.42,10.79,10.79,0,0,0-2.41,2.69,2.35,2.35,0,0,0,2.05,3.59c1.51.1,3,.07,4.52.25,3.3.39,5.56,2.34,7.24,5.08a30.12,30.12,0,0,1,3.1,8.6,58.28,58.28,0,0,0,2.24,6.89A33.48,33.48,0,0,1,37,129a13,13,0,0,1,.19-2.05c.42,5.54.67,11.11,4.08,16.1l-.88-.27-.2.25c.3.21.6.41.89.64a2.13,2.13,0,0,1,.64.72,4,4,0,0,1-2.54-2.07,39.08,39.08,0,0,1-3.61-9.72A45.75,45.75,0,0,0,33,125,9,9,0,0,0,24,119.52c-1.22,0-2.43,0-3.65.07a2.85,2.85,0,0,0-2.84,2.93c0,.24,0,.49,0,.73,0,2.24-.45,2.55-2.63,2.3a11.79,11.79,0,0,0-9.43,3.2,3.44,3.44,0,0,0-1.12,2.33,5.6,5.6,0,0,1-1.91,4.33,3,3,0,0,0-.32.48l6.53,2.35c-.05.12-.09.25-.13.37l-6.87-2.37a15.13,15.13,0,0,0-.73,2.38c0,.29.42.8.77,1,1.56.71,3.16,1.33,4.74,2,.33.14.64.33,1,.49l-.12.29L.93,140a2.07,2.07,0,0,0,1.88,2.26c1.94.43,3.92.74,5.9,1,5,.63,10,1.56,14.46,4.2a5.48,5.48,0,0,1,1.47,1.26c-1.8-.82-3.56-1.71-5.39-2.43-4.41-1.73-9.1-2.19-13.75-2.76a16.12,16.12,0,0,1-3.44-.82,3.43,3.43,0,0,1-2-4,7.83,7.83,0,0,1,2.25-4.37,3.49,3.49,0,0,0,1.13-2.85,4.57,4.57,0,0,1,2.21-4.13A13.46,13.46,0,0,1,15,124.63c1.61.15,1.61.1,1.76-1.51a2.74,2.74,0,0,0,0-.49c-.2-1.75.19-3.08,2.25-3.29.17,0,.33-.21.5-.32-1.79-2.24-1.86-4.19,1.46-6.85a40.08,40.08,0,0,1,4.55-3.1c2.21-1.31,4.67-.92,7.06-.74a12,12,0,0,1,6.63,2.59,5.87,5.87,0,0,0,5.12,1.34,3.37,3.37,0,0,1,3.84,1.81,13.55,13.55,0,0,1,1.42,4.48,28.3,28.3,0,0,1-3.29,15.71c-.84,1.68-1.61,3.39-2.38,5.11a16.71,16.71,0,0,0-.69,1.95C42.86,142.41,42.75,143.43,44.26,143.82Z"/><path class="cls-1" d="M103.12,114.23c1-2.38,2-4.63,1.88-7.23a2.7,2.7,0,0,0-1.44-2.48c-1.78-1-1.8-1-1.3-2.94a3.54,3.54,0,0,0-.78-3.31c-2.19-2.72-8-4.24-11.24-2.93-1.34.55-1.51,1.13-.63,2.17,2.09,2.49,1.79,4.55-1,6.41a20.39,20.39,0,0,1-2,1l-.16-.27a12.62,12.62,0,0,0,1.42-1,12.75,12.75,0,0,0,2-1.94c.91-1.21.77-2.17-.27-3.29-.33-.36-.85-.67-1-1.08a2.84,2.84,0,0,1,0-2c1.62-2.3,1.17-4-1.47-4.88a2.62,2.62,0,0,1-.37-.21c2.41-.79,3.66.8,3.29,4.14,3-1.21,5.82-.3,8.54.8a11.34,11.34,0,0,1,3.22,2.15,3.92,3.92,0,0,1,1.11,4.47c-.32.89-.18,1.49.67,1.9,1.54.75,1.82,2,1.84,3.65,0,2.58-1,4.75-2.13,6.93a.85.85,0,0,1-.3.33,12.83,12.83,0,0,0-2.7-1.35c-2.84-.62-4.79.79-5,3.7a34.24,34.24,0,0,0,.32,5.72A3.07,3.07,0,0,1,94,126.21a1.92,1.92,0,0,0-1,1.34,5.49,5.49,0,0,1-1.64,2.2c-3,2.54-3.59,2.57-6.76.29-1.6-1.16-3.22-1.94-5.4-1.11,2.71-3.74,4.84-3.64,8.67-3,1.93.34,3.78.61,5.56-.54a2.26,2.26,0,0,0,1.23-2.32c-.15-1.25-.3-2.51-.39-3.77a11.89,11.89,0,0,1,0-2.31c.27-1.94.92-3.68,3-4.36A5.54,5.54,0,0,1,103.12,114.23Zm-21.9,13.38c1.33.64,2.66,1.19,3.9,1.9,3.49,2,2.53,1.83,5.7-.33a11.5,11.5,0,0,0,1.79-1.84c-2.35-.3-4.51-.56-6.66-.86C84.16,126.24,82.49,126.37,81.22,127.61Z"/><path class="cls-1" d="M56.47,186.54q1.23,8.24,2.45,16.48h.14q-.73-6.07-1.48-12.14l.11-.05a8.54,8.54,0,0,1,.47,1.43c.5,3.51,1,7,1.44,10.54.81,6.43,1.58,12.86,2.36,19.3a16.13,16.13,0,0,1,.11,3.68q-.9-5.75-1.79-11.49a344,344,0,0,1,1.48,44.24l-.41.05a6.91,6.91,0,0,1-.21-1.26c0-4.08-.16-8.16-.1-12.24a261.07,261.07,0,0,0-1.7-31.26c-.9-8.72-2.17-17.39-3.28-26.08-.05-.36-.06-.73-.08-1.09Z"/><path class="cls-1" d="M49.1,18.11c.89-.68,1.77-1.38,2.69-2a2.25,2.25,0,0,0,1.08-2.61c-1.07-3.94,1.18-5.55,4.44-6.31a50.14,50.14,0,0,1,7.28-.7c1-.07,2,0,2.94-.1a5.47,5.47,0,0,0,4.16-2.26c.59-.79,1.12-1.61,1.67-2.41A3.73,3.73,0,0,1,76.47,0a9.33,9.33,0,0,1,5.17,1.24C84,2.63,86.43,4,88.83,5.43a7.88,7.88,0,0,1,3.61,4.31c.68,1.91,1,2,3,1.82a5.94,5.94,0,0,1,6.8,6.32A24.72,24.72,0,0,1,100,26.6c-.32.76-.62,1.52-.94,2.29l-.43-.14c.19-.66.38-1.31.56-2a83.78,83.78,0,0,0,2.15-8.12c.65-3.89-1.74-6.33-5.71-6.21-2.87.08-3.06,0-4-2.69A6.72,6.72,0,0,0,88.8,6.09C86.26,4.54,83.72,3,81.13,1.51A9.62,9.62,0,0,0,78.49.59C75.85,0,74.63.6,73.43,3a7.31,7.31,0,0,1-7.27,4.37c-2.45,0-4.9.07-7.33.24a9,9,0,0,0-2.94.74c-2.46,1.1-3,2.11-2.48,4.74a3,3,0,0,1-1.53,3.5c-.89.55-1.75,1.16-2.62,1.74Z"/><path class="cls-1" d="M86.73,116.71c.7-.66,1.39-1.34,2.1-2,1.46-1.31,3-2.56,4.39-3.91a8.45,8.45,0,0,0,1.09-1.73l-.26-.17-6.5,5.1-.22-.25c.75-.69,1.48-1.42,2.27-2.07,1-.83,2.05-1.61,3.11-2.37,1.66-1.19,1.82-1.6,1.27-3.65-.09-.35-.18-.7-.26-1.05l.29-.15a8.21,8.21,0,0,1,.87,1.79c.71,3.2-.63,9.34-5.47,11.4-2,.86-4,1.81-5,3.88,0,.08-.2.09-.59.26A5.22,5.22,0,0,1,86,118.6c1.35-1,2.72-2.07,4-3.15.94-.78,1.85-1.6,2.72-2.47a2.54,2.54,0,0,0,.67-1.57Q90.21,114.2,87,117Z"/><path class="cls-1" d="M51.72,61.15c-.76-.21-1.54-.41-2.3-.65-3.68-1.15-7.32-.61-11,.07-4.93.92-9.88,1.7-14.83,2.45a7.44,7.44,0,0,1-5.29-.77,10.08,10.08,0,0,0,2.18.18c4.12-.48,8.24-1,12.34-1.58,3.3-.49,6.58-1.18,9.87-1.71a14.47,14.47,0,0,1,8.12,1.22,11.29,11.29,0,0,1,1,.57Z"/><path class="cls-1" d="M66.13,187.71c-.56,2.47-1.19,4.94-1.68,7.43-.38,2-.55,4-.89,5.93-1.24,7-.54,14-.67,21-1.11-7.49-.25-15-.41-22.59L63,201A44.17,44.17,0,0,1,66.13,187.71Z"/><path class="cls-1" d="M39.22,66c2.77-1.83,8.05-3,13.68-3.13-4.58-1.39-8.86-.94-13.36-.1,3.33-1.72,12.24-1.65,14.36.34l-11.68,4.6c2.74-2,5.92-3,9-4.3C47,63.24,43.16,64.74,39.22,66Z"/><path class="cls-1" d="M52.85,24.79c.92,6.08,3.38,11.58,6.17,17C55.54,36.6,53.14,31.07,52.85,24.79Z"/><path class="cls-1" d="M20.21,136.93a55.22,55.22,0,0,1,13.37,10Z"/><path class="cls-1" d="M54.46,150.12c-.55,4.83-3.66,8.31-6.36,12C50.05,158,53.18,154.58,54.46,150.12Z"/><path class="cls-1" d="M70.42,124.58a50.83,50.83,0,0,1,7.92-12.81Z"/><path class="cls-1" d="M23.63,158.37l1.46-1.28,0,0c-.56.49-1.07,1.31-1.67,1.38s-1.93-1.86-1.66-2.71a39.89,39.89,0,0,1,2-5c.19-.41.9-.57,1.43-.72a8.32,8.32,0,0,0-2.76,5.9C22.42,156.65,23.18,157.46,23.63,158.37Z"/><path class="cls-1" d="M37.91,146.38,29,139.15l.32-.41,9,7.19Z"/><path class="cls-1" d="M55.44,153.25c-1,3.74-3.18,6.89-5.48,9.93l-.27-.15Q52.57,158.14,55.44,153.25Z"/><path class="cls-1" d="M41.66,140.81c-.81-4,0-8,.73-12Q42,134.82,41.66,140.81Z"/><path class="cls-1" d="M58,136.33q2-5.27,4.07-10.54l.51.19q-2.1,5.29-4.18,10.57Z"/><path class="cls-1" d="M51.82,165.23l5.74-8.12.45.31-5.73,8.09Z"/><path class="cls-1" d="M87.87,84.91c2.14-.68,3.58.64,5,1.84s1.54,2.75.87,4.6c.08-4.2-2.65-5.55-5.83-6.46Z"/><path class="cls-1" d="M63.49,26.62l-2,11.58A32.88,32.88,0,0,1,63.49,26.62Z"/><path class="cls-1" d="M79.91,3.15c1.61,1.06,2,5.95.2,8.88a34.37,34.37,0,0,0,.49-4.6A29.21,29.21,0,0,0,79.91,3.15Z"/><path class="cls-1" d="M40.77,140.79c-1.16-2.2-2-8.47-1.67-11.37C39.61,132.87,40.2,136.91,40.77,140.79Z"/><path class="cls-1" d="M49.54,33.37c.59,1.14,1.24,2.25,1.76,3.41a10.2,10.2,0,0,0,7.08,6c.26.07.51.2.91.35-4,.14-8.43-4.37-9.73-9.82Z"/><path class="cls-1" d="M81,21.88l6-6.26.33.3-5.81,6.41Z"/><path class="cls-1" d="M26.87,75.94l-5.31,6.41A13.05,13.05,0,0,1,26.87,75.94Z"/><path class="cls-1" d="M83.61,106.13l-.15.3c-.18-.32-.48-.62-.5-1a4.69,4.69,0,0,1,.28-1.25l0,0,2.51-4.19.24.15Q84.78,103.18,83.61,106.13Z"/><path class="cls-1" d="M35,121.68a11.88,11.88,0,0,0-5.39-5.76C32,116,34.62,118.72,35,121.68Z"/><path class="cls-1" d="M76.74,110.72l-5.6,10.21-.3-.16,5.55-10.25Z"/><path class="cls-1" d="M55.19,59.82c2.07-.25.63,2.26,2.18,2.31-.44.71-.86.87-1.2.08a10.87,10.87,0,0,1-.44-1.71l-1,1.13-.31-.09c.23-1.34.46-2.69.68-4l.14,0Z"/><path class="cls-1" d="M83.24,104.23c-.39.82-.79,1.63-1.19,2.46-.43-1.16,1.08-5.26,2.8-7.26-.62,1.82-1.13,3.33-1.65,4.84Z"/><path class="cls-1" d="M14.69,146.16c2.69.3,5,1.59,7.44,2.68l-.1.3-7.39-2.66Z"/><path class="cls-1" d="M41.2,81.31l4.93-4.55.38.41L41.6,81.73Z"/><path class="cls-1" d="M56,156.37l-4.79,7-.34-.22,4.73-7.11Z"/><path class="cls-1" d="M38.84,82.44a11.86,11.86,0,0,1,4.84-4.76Z"/><path class="cls-1" d="M20.09,59.7c-3-.12-5.65-1.33-8.35-2.41l.09-.29Z"/><path class="cls-1" d="M57.54,169.18l-4.32,7.69-.33-.18L57.16,169Z"/><path class="cls-1" d="M85.46,108.78a11.77,11.77,0,0,1,4.45-3.87Z"/><path class="cls-1" d="M49.56,33.35c-.78-2.52-1.69-5-2.29-7.58a7.27,7.27,0,0,1,.83-5.13l-.48,1.85c-.66,2.54.2,4.9.9,7.27.36,1.2.68,2.41,1,3.61Z"/><path class="cls-1" d="M91.54,18.67,85.13,24l-.3-.35,6.43-5.32Z"/><path class="cls-1" d="M61,172.32c-1.45,2.45-2.89,4.91-4.33,7.36l-.36-.21,4.34-7.33Z"/><path class="cls-1" d="M83.27,88.31c-.33-3.58-.33-3.58-1.32-5.32C83.66,83.19,84.43,86,83.27,88.31Z"/><path class="cls-1" d="M63.28,105.6H56.67a12.41,12.41,0,0,1,6.58-.43Z"/><path class="cls-1" d="M91.43,106.69,86.24,111l-.32-.38,5.26-4.25Z"/><path class="cls-1" d="M43.07,170.12l3.58-4.85.44.32-3.62,4.84Z"/><path class="cls-1" d="M88.59,18.71c-1.58,1.44-2.91,3.18-4.84,4.2l-.21-.25,4.8-4.2Z"/><path class="cls-1" d="M30.38,80.09c-1.38,1.8-2.76,3.61-4.15,5.41A10.93,10.93,0,0,1,30.38,80.09Z"/><path class="cls-1" d="M82.91,99.35c-.47,2-.9,3.87-1.34,5.73C80.89,103.94,81.56,100.94,82.91,99.35Z"/><path class="cls-1" d="M31,81.33l-3.29,4.72A6.89,6.89,0,0,1,31,81.33Z"/><path class="cls-1" d="M57.38,92.22c1.79-.38,3.19.4,4.22,2.32Z"/><path class="cls-1" d="M46.11,67.92l6.07-3.14.18.35-6.09,3.11Z"/><path class="cls-1" d="M28,78l-3.53,4.56-.36-.28,3.56-4.57Z"/><path class="cls-1" d="M55.72,176.49l3.46-6.35.26.15L56,176.66Z"/><path class="cls-1" d="M62.7,103.93l-5.21-1.5A6,6,0,0,1,62.7,103.93Z"/><path class="cls-1" d="M27.92,43.8l4.82,4.55-.28.28-4.64-4.72Z"/><path class="cls-1" d="M24.24,76.49,20.89,81A7.25,7.25,0,0,1,24.24,76.49Z"/><path class="cls-1" d="M86.74,10.34q-1.26,2.12-2.51,4.24l-.46-.27,2.58-4.2Z"/><path class="cls-1" d="M60.73,91.41c1.22-.43,2.75.43,3.82,2.27Z"/><path class="cls-1" d="M19.21,149.93l-4.85-2c.06-.14.11-.28.16-.41l4.87,1.93Z"/><path class="cls-1" d="M26.27,82.87,30,78.18l.27.21-3.64,4.74Z"/><path class="cls-1" d="M85.23,7.79l-2.31,5.07-.45-.2C83.26,11,84,9.27,84.82,7.58Z"/><path class="cls-1" d="M53.9,65.22,49.21,68.8l-.27-.37,4.75-3.56Z"/><path class="cls-1" d="M67.27,27.08c-.61,2-1.21,3.9-1.82,5.85l-.37-.12,1.86-5.89Z"/><path class="cls-1" d="M50.07,69.61l3.34-3.5.3.28L50.42,70Z"/><path class="cls-1" d="M55.86,10.18c1.37-.15,2.77,1.09,3.16,2.93Z"/><path class="cls-1" d="M64.48,108.42l-4.1,2.46A6.17,6.17,0,0,1,64.48,108.42Z"/><path class="cls-1" d="M1.7,138.33l5.37,1.39L7,140l-5.37-1.27C1.65,138.61,1.67,138.47,1.7,138.33Z"/><path class="cls-1" d="M34.6,48.14,33,45.63l.23-.16,3.1,4-.16.14-1.58-1.5Z"/><path class="cls-1" d="M53.76,68.12l-2.17,3.2-.46-.3,2.22-3.16Z"/><path class="cls-1" d="M82.6,21.63l4.11-3.57.21.2-3.75,3.93Z"/><path class="cls-1" d="M64.75,90.71c1.31-.29,2.24.83,2.13,2.72C66.17,92.51,65.47,91.63,64.75,90.71Z"/><path class="cls-1" d="M46.81,78.23c-.91,1-1.83,1.92-2.74,2.89l-.44-.43,2.86-2.82Z"/><path class="cls-1" d="M63.69,106.77l-4.22.72-.08-.41,4.22-.77C63.64,106.46,63.67,106.62,63.69,106.77Z"/><path class="cls-1" d="M93.89,31.37,90.3,33.15l-.22-.45L93.7,31Z"/><path class="cls-1" d="M91.21,109l-3.47,2.72-.27-.35,3.48-2.7Z"/><path class="cls-1" d="M17.59,56.94,13.17,55l.15-.36,4.39,1.89Z"/><path class="cls-1" d="M58,182q1.3-2.07,2.63-4.14l.3.19-2.64,4.14Z"/><path class="cls-1" d="M34.58,48.13c-.27,0-.64,0-.78-.12-1-1-1.89-2.09-2.82-3.14l.33-.32,3.28,3.59Z"/><path class="cls-1" d="M35.77,116.46l1.2,3.82-.38.13-1.28-3.81Z"/><path class="cls-1" d="M50.49,54.38,47.34,51.8l.25-.32,3.15,2.58Z"/><path class="cls-1" d="M59,9.59a2.61,2.61,0,0,1,2.55,2.23L59.51,9.17Z"/><path class="cls-1" d="M49.13,56.22,46.22,53.8l.24-.3,3,2.37Z"/><path class="cls-1" d="M64.7,29.28c-.34,1.65-.67,3.3-1,4.95l-.23,0c.3-1.66.61-3.31.91-5Z"/><path class="cls-1" d="M49.1,57.05c-1.31.22-2.64.59-3.86-.08l0-.34Z"/><path class="cls-1" d="M4.42,134.82l3.7,1-.09.33-3.72-.95C4.35,135.1,4.38,135,4.42,134.82Z"/><path class="cls-1" d="M18,78.1l2.1-2.51.36.3L18.32,78.4Z"/><path class="cls-1" d="M31.46,83.85l-2,2.61-.38-.3,2.16-2.56Z"/><path class="cls-1" d="M45.59,170.08l1.93-2.29.34.28-1.92,2.29Z"/><path class="cls-1" d="M48.13,169.8l-1.54,2-.4-.31,1.59-2Z"/><path class="cls-1" d="M73.07,86.76c-.69-.36-1.38-.72-2.08-1.07l.15-.31A1.73,1.73,0,0,1,73.07,86.76Z"/><path class="cls-1" d="M91.67,179.28c.86-3,1.79-6.21,2.67-9.26C95.22,171.11,93.52,177.33,91.67,179.28Z"/><path class="cls-1" d="M92.1,172.48c.64,1.2-1,5.58-2.9,7Z"/><path class="cls-1" d="M71,159.78c-.44-1.7.39-3.13.81-4.65l.39.09L71,159.76Z"/><path class="cls-1" d="M91,171.31l-2.41,3c-.12-.11-.25-.21-.38-.31l2.42-3Z"/><path class="cls-1" d="M73.46,180.14c-.41.31-.78.4-.73-.3a21.81,21.81,0,0,1,.69-4.44c0,1.59,0,3.19,0,4.78Z"/><path class="cls-1" d="M68.46,164.52l.39,3.9-.47.05c-.14-1.3-.27-2.6-.41-3.9Z"/><path class="cls-1" d="M67.23,161.71l-.35,3.46-.4,0c.08-1.16.17-2.32.25-3.47Z"/><path class="cls-1" d="M59.76,147.93c-.35-.78-.71-1.55-1.07-2.32l.38-.18c.36.77.71,1.55,1.06,2.33Z"/><path class="cls-1" d="M75.68,50.74a8.26,8.26,0,0,1-6-.2c1,.14,2,.35,3,.39S74.67,50.81,75.68,50.74Z"/></g></g></svg>