<?xml version="1.0" encoding="UTF-8"?>
<svg id="_Слой_2" data-name="Слой 2" xmlns="http://www.w3.org/2000/svg" viewBox="0 0 425.94 160.45">
  <defs>
    <style>
      .cls-1 {
        fill: #231f20;
      }
    </style>
  </defs>
  <g id="Layer_1" data-name="Layer 1">
    <g>
      <path class="cls-1" d="M2.18,82.65c-2.16-1.59-2.72-3.64-1.66-6.16,.69-2.51,2.46-5.21,5.3-8.1,2.84-2.89,5.69-4.97,8.54-6.25,1.61-.73,3.03-.97,4.29-.71,1.25,.26,1.89,.84,1.89,1.73,.01,1.44-1.14,3.33-3.44,5.67-2.31,2.35-4,3.52-5.07,3.53-1.25,.01-1.08-.53,.52-1.62,1.96-1.27,3.64-2.76,5.07-4.47,1.42-1.71,1.85-2.84,1.31-3.37-.72-.71-2.51,.02-5.35,2.19-3.56,2.36-6.45,5.2-8.66,8.53-2.21,3.33-2.86,5.8-1.95,7.4,.73,1.6,3.38,2.12,7.94,1.54,4.56-.58,9.6-2.14,15.13-4.69,6.06-2.74,11.76-6.37,17.1-10.89,3.91-3.26,5.77-5.24,5.59-5.96,0-.18,.09-.27,.27-.27,2.5-.02,1.27,2.05-3.71,6.21-4.8,4.34-11.21,8.42-19.23,12.25-10.88,5.64-18.83,6.79-23.87,3.43Z"/>
      <path class="cls-1" d="M80.61,83.32c-.72-1.07-.73-2.5-.04-4.3,.52-1.79,2.38-4.49,5.57-8.11,1.59-1.98,3.19-3.43,4.8-4.34l2.67-1.9c.89,0,1.34-.28,1.34-.82,0-.18,.44-.27,1.34-.28,.71,0,1.43,.17,2.15,.52l1.59-2.7c4.58-8.81,7.47-16.09,8.68-21.83,2.07-9.33,2.89-17.48,2.48-24.46-.19-1.25-.55-1.88-1.09-1.87-1.61,.01-6.7,1.76-15.26,5.23-.18,0-.45,.1-.8,.28l-1.34,.55,.54,.26c1.08,.53,.72,1.07-1.06,1.62-.36,0-.72,.1-1.07,.28-1.79,.55-2.95,.56-3.49,.03-.72-.35-1.08-.8-1.09-1.33-.01-1.43,2.83-3.25,8.55-5.44,11.77-5.11,27.32-9,46.63-11.68,12.52-1.54,21.74-2.07,27.65-1.58,6.81,.66,10.23,2.42,10.25,5.28-.17,1.26-1.14,2.52-2.92,3.79-.71,.54-1.43,.55-2.15,.02l-.81-.53,1.6-1.89c1.06-1.08,1.6-1.8,1.59-2.16-.19-1.61-6.29-2.09-18.28-1.46-14.85,1.2-28.35,3.38-40.5,6.52l-5.9,1.39,.31,5.1c.05,5.91-.26,11.28-.94,16.12-1.37,8.07-2.4,13.09-3.1,15.07-1.75,4.85-3.86,9.43-6.33,13.75-4.94,9-9.1,14.94-12.47,17.83-4.09,3.98-7.12,4.99-9.11,3.03Zm1.88-.55c.9,.53,2.95-.83,6.14-4.08,3.19-3.43,4.96-6.04,5.3-7.83,.7-1.08,.88-2.06,.51-2.96v-.81s-2.67,2.71-2.67,2.71c-3.02,2.53-5.59,5.42-7.71,8.66-1.42,2.16-1.94,3.6-1.57,4.31Z"/>
      <path class="cls-1" d="M115.27,85.18c-1.26-.7-1.9-2.04-1.91-4.01-.02-1.97,.32-3.85,1.03-5.65l.53-1.35-1.6,.82c-.89,.73-1.69,1.27-2.4,1.63-.36,.18-.98,.55-1.87,1.09-.89,.54-1.6,1-2.14,1.36-1.25,.73-2.37,.69-3.36-.11-.99-.8-1.23-2-.7-3.62,.7-1.79,2.61-3.96,5.72-6.49,3.11-2.53,5.92-4.17,8.42-4.91,2.14-.56,3.67-.12,4.58,1.3,.36,.53,.63,.71,.81,.53,.89-.36,1.52-.19,1.88,.52l-.27,.27c-.18,.36-.35,.67-.53,.94-.18,.27-.36,.59-.53,.94-3.55,3.61-5.85,6.86-6.9,9.73-.87,2.87-.76,4.75,.32,5.64,1.62,1.06,5.28,.4,11-1.97,5.89-2.38,13.19-6.92,21.91-13.62,3.02-2.35,4.45-2.99,4.28-1.92-.17,.72-2.62,2.8-7.33,6.24-4.72,3.44-8.86,6.16-12.42,8.16-2.32,1.27-4.64,2.37-6.96,3.28-2.32,.92-4.51,1.52-6.57,1.8-2.06,.29-3.72,.08-4.97-.63Zm-7.34-10.41c-.89,1.08-1.24,1.62-1.06,1.62,.18,0,1.69-.82,4.54-2.46,6.05-3.45,9.08-6.07,9.06-7.87-.37-1.07-1.8-.7-4.29,1.11-3.03,2-5.78,4.53-8.26,7.59Z"/>
      <path class="cls-1" d="M96.03,160.27c-.17,.36-.62,.18-1.35-.53l-.81-.26,2.39-3.78,25.42-42.38c21.37-34.56,37.1-58.24,47.2-71.04,1.24-1.44,2.13-2.07,2.67-1.9,.54,0,.81,.09,.81,.26,0,.9-3.17,6.03-9.54,15.39l-6.37,9.19,.54,.8,.55,1.07,4.81-2.73c4.63-2.36,8.02-3.74,10.17-4.12,1.79-.02,2.87,.51,3.24,1.58,.73,1.79-.85,5.29-4.75,10.52l-3.46,4.06c6.83,2.63,15.14,1.12,24.94-4.51,3.03-1.81,6.14-3.9,9.35-6.26,.35-.36,.67-.45,.94-.28,.27,.18,.31,.45,.14,.8l-1.33,1.35c-3.91,3.08-7.21,5.26-9.88,6.53-9.27,4.91-17.85,6.15-25.75,3.71l-2.39,2.71c-6.39,6.14-10.78,7.17-13.14,3.07-.91-1.78-.93-4.11-.06-6.98l.26-1.35c-.36,.54-2.48,3.6-6.37,9.19-9.02,12.61-19.18,28.54-30.48,47.8-10.59,17.46-16.51,26.82-17.75,28.08Zm56.83-75.95c1.43,.35,3.13-.3,5.09-1.92,.53-.36,1.29-.99,2.27-1.9,.97-.9,1.82-1.71,2.53-2.44l.79-1.35c-2.34-1.23-4.42-3.19-6.23-5.86-.18-.54-.72-.44-1.61,.28-.89,.73-1.77,2.08-2.65,4.05-1.93,5.57-1.99,8.61-.19,9.13Zm12.01-8.97c.18,0,.67-.45,1.47-1.36,.8-.9,1.73-2.03,2.79-3.38s1.86-2.47,2.39-3.38c1.06-1.44,1.76-2.7,2.12-3.78,.35-.9,.43-1.43,.25-1.61-.54-.53-3.49,.48-8.84,3.03-4.28,2.37-6.41,4-6.4,4.89,0,.54,.77,1.6,2.31,3.2,1.53,1.6,2.84,2.39,3.91,2.38Z"/>
      <path class="cls-1" d="M204.96,84.41c-1.26-.7-1.9-2.04-1.91-4.01-.02-1.97,.32-3.85,1.03-5.65l.53-1.35-1.6,.82c-.89,.73-1.69,1.27-2.4,1.63-.36,.18-.98,.55-1.87,1.09-.89,.54-1.6,1-2.14,1.36-1.25,.73-2.37,.69-3.36-.11-.99-.8-1.23-2-.7-3.62,.7-1.79,2.61-3.96,5.72-6.49,3.11-2.53,5.92-4.17,8.42-4.91,2.14-.56,3.67-.12,4.58,1.3,.36,.53,.63,.71,.81,.53,.89-.36,1.52-.19,1.88,.52l-.27,.27c-.18,.36-.35,.67-.53,.94-.18,.27-.36,.59-.53,.94-3.55,3.61-5.85,6.86-6.9,9.73-.87,2.87-.76,4.75,.32,5.64,1.62,1.06,5.28,.4,10.99-1.97,5.89-2.38,13.19-6.92,21.91-13.62,3.02-2.35,4.45-2.99,4.28-1.92-.17,.72-2.62,2.8-7.33,6.24-4.72,3.44-8.86,6.16-12.42,8.16-2.32,1.27-4.64,2.37-6.96,3.28-2.32,.92-4.51,1.52-6.56,1.8-2.06,.29-3.72,.08-4.97-.63Zm-7.34-10.41c-.89,1.08-1.24,1.62-1.06,1.62,.18,0,1.69-.82,4.54-2.46,6.06-3.45,9.08-6.07,9.07-7.87-.37-1.07-1.8-.7-4.29,1.11-3.03,2-5.78,4.53-8.26,7.59Z"/>
      <path class="cls-1" d="M230.73,82.04c-.72-1.07-.73-2.5-.04-4.3,.52-1.79,2.38-4.49,5.57-8.1,1.59-1.98,3.19-3.43,4.8-4.34l2.67-1.9c.89,0,1.34-.28,1.34-.82,0-.18,.44-.27,1.34-.28,.71,0,1.43,.17,2.15,.52l1.59-2.7c4.58-8.81,7.47-16.09,8.68-21.83,2.07-9.33,2.89-17.48,2.48-24.46-.19-1.25-.55-1.88-1.09-1.87-1.61,.01-6.7,1.76-15.26,5.23-.18,0-.45,.1-.8,.28l-1.34,.55,.54,.26c1.08,.53,.72,1.07-1.06,1.62-.36,0-.72,.1-1.07,.28-1.79,.55-2.95,.56-3.49,.03-.72-.35-1.08-.8-1.08-1.33-.01-1.43,2.83-3.25,8.55-5.44,11.77-5.11,27.32-9,46.63-11.68,12.52-1.54,21.74-2.07,27.65-1.58,6.81,.66,10.23,2.42,10.25,5.28-.17,1.26-1.14,2.52-2.92,3.78-.71,.54-1.43,.55-2.15,.02l-.81-.53,1.6-1.89c1.06-1.08,1.6-1.8,1.59-2.16-.19-1.61-6.29-2.1-18.28-1.46-14.85,1.2-28.35,3.38-40.5,6.52l-5.9,1.39,.31,5.1c.05,5.91-.26,11.28-.94,16.12-1.37,8.07-2.4,13.09-3.1,15.07-1.75,4.85-3.86,9.43-6.33,13.75-4.94,9-9.1,14.94-12.47,17.83-4.09,3.98-7.12,4.99-9.11,3.03Zm1.88-.55c.9,.53,2.95-.83,6.14-4.08,3.19-3.43,4.96-6.04,5.31-7.83,.7-1.08,.88-2.06,.51-2.96v-.81s-2.67,2.71-2.67,2.71c-3.02,2.53-5.59,5.42-7.71,8.66-1.42,2.16-1.94,3.6-1.57,4.31Z"/>
      <path class="cls-1" d="M265.39,83.9c-1.26-.7-1.9-2.04-1.91-4.01-.02-1.97,.32-3.85,1.03-5.65l.53-1.35-1.6,.82c-.89,.73-1.69,1.27-2.4,1.63-.36,.18-.98,.55-1.87,1.09-.89,.54-1.6,1-2.14,1.36-1.25,.73-2.37,.69-3.36-.11-.99-.8-1.23-2-.7-3.62,.7-1.79,2.61-3.96,5.72-6.49,3.11-2.53,5.91-4.17,8.42-4.91,2.14-.56,3.67-.12,4.58,1.3,.36,.53,.63,.71,.81,.53,.89-.36,1.52-.19,1.88,.52l-.27,.27c-.18,.36-.35,.67-.53,.94-.18,.27-.36,.59-.53,.94-3.55,3.61-5.85,6.86-6.9,9.73-.87,2.87-.76,4.75,.32,5.64,1.62,1.06,5.28,.4,11-1.97,5.89-2.38,13.19-6.92,21.91-13.62,3.02-2.35,4.45-2.99,4.28-1.92-.17,.72-2.62,2.8-7.33,6.24-4.72,3.44-8.86,6.17-12.42,8.16-2.32,1.27-4.64,2.37-6.96,3.28-2.32,.92-4.51,1.52-6.57,1.8-2.06,.29-3.72,.08-4.97-.63Zm-7.34-10.41c-.89,1.08-1.24,1.62-1.06,1.62,.18,0,1.69-.82,4.54-2.46,6.05-3.45,9.08-6.07,9.06-7.87-.37-1.07-1.8-.7-4.29,1.11-3.03,2-5.78,4.53-8.26,7.59Z"/>
      <path class="cls-1" d="M314.26,82.67c-4.29,1.29-7.16,.78-8.61-1.54-1.09-2.14-.05-5.37,3.14-9.7,1.06-1.44,1.5-2.16,1.32-2.16-.71,.37-2.14,.56-4.29,.57l-3.76,.3-3.99,4.33c-3.72,4.33-5.49,6.85-5.31,7.56,.19,.54,0,.81-.53,.81l-.54-.53c-.36-.17-.63-.35-.81-.53-.36-.53-.46-1.25-.29-2.15l1.85-3.51c1.06-1.44,3.76-4.55,8.11-9.33,4.34-4.78,7.23-7.89,8.65-9.34,1.95-1.63,3.2-2.18,3.75-1.64,1.26,.89-.6,3.95-5.56,9.18l-4.26,4.06,2.95-.29c3.4-.21,5.81-.94,7.23-2.21,3.73-3.61,6.14-4.89,7.22-3.82,.9,.71,.46,1.79-1.32,3.23-1.96,1.63-4.13,3.75-6.53,6.37-2.39,2.62-3.95,4.56-4.65,5.81-.88,2.69-.28,4.03,1.78,4.01,2.06-.02,4.33-.66,6.83-1.94,4.64-1.83,11.5-6.01,20.57-12.53l5.07-3.53c.35-.18,.62-.18,.81,0,.18,.18,.18,.45,0,.81-.53,.72-4.8,3.89-12.81,9.51-6.23,4.53-11.58,7.26-16.05,8.19Z"/>
      <path class="cls-1" d="M335.42,77.12c-.72-.89-.74-2.23-.03-4.03,.52-1.79,2.29-4.4,5.3-7.83,1.6-1.8,3.1-3.25,4.53-4.34l2.67-1.63c.89,0,1.34-.28,1.34-.82,0-.18,.44-.27,1.34-.28,1.25,.35,1.97,.79,2.16,1.32-.36,.36-.62,.45-.8,.28-.36,.18-.62,.54-.8,1.08l-.52,2.42c-.34,2.15,.03,3.76,1.12,4.82,5.41,4.79,12.56,3.74,21.46-3.14l1.87-1.09c.71-.36,1.16-.19,1.35,.53l-3.2,2.44c-2.85,2.17-6.14,3.72-9.9,4.65-3.75,.93-7.34,.51-10.75-1.25-1.08-.88-1.89-1.68-2.44-2.4-.37-.71-.64-.89-.81-.53-1.23,2.52-2.91,4.86-5.04,7.03-4.09,3.98-7.03,4.89-8.84,2.76Zm1.61-.28c.72,.89,2.77-.38,6.15-3.81,2.49-2.17,4.26-4.87,5.3-8.1,.35-1.08,.52-1.89,.52-2.42l-.28-1.07-2.66,2.71c-3.2,2.89-5.68,5.69-7.45,8.39-1.23,2.34-1.76,3.78-1.57,4.31Z"/>
      <path class="cls-1" d="M376.09,90.47c-3.38,2.54-6.37,3.77-8.97,3.7-2.59-.07-4-1.53-4.2-4.4,0-.89-.37-1.7-1.09-2.41-.54-.35-.81-.98-.82-1.87,.16-3.04,5.18-11.32,15.1-24.84l5.58-7.57c1.06-1.44,2.83-3.6,5.32-6.49,6.2-7.93,13.3-15.51,21.29-22.74,5.33-4.7,10.04-8.14,14.15-10.33,.89-.54,1.88-.46,2.96,.24,.72,.53,.72,1.25,.02,2.15-.71,.9-2.93,3.34-6.65,7.31-10.12,9.94-17.85,16.98-23.19,21.15-4.45,3.44-7.83,6.6-10.13,9.49l-7.97,10.27c-2.66,3.43-3.98,5.59-3.97,6.48l.28,1.07,1.87-1.09c4.09-3.26,7.66-4.72,10.71-4.39,3.4,.33,4.85,2.02,4.34,5.07-.34,2.15-1.4,4.58-3.16,7.28l-1.06,1.62c5.19-.04,11.13-2.24,17.8-6.6,6.68-4.35,11.43-8.69,14.26-13.01,.7-1.08,1.06-1.89,1.05-2.43,0-.54,.26-.63,.8-.28,.54,.36,.41,1.3-.38,2.82-.79,1.53-1.55,2.66-2.25,3.38-10.47,11.19-21.34,17.1-32.62,17.74l-1.86,2.16c-3.2,3.25-5.59,5.42-7.2,6.51Zm-10.46,1.7c1.09,1.43,3.85,.33,8.3-3.29,1.24-.9,2.75-2.26,4.53-4.07,1.77-1.8,2.66-2.88,2.66-3.25,0-.18-.18-.27-.54-.26-.36-.17-.63-.26-.81-.26-.9-.17-1.89-.79-2.97-1.85-1.26-.88-2.16-1.77-2.71-2.66l-.81-1.07-2.13,1.9c-2.13,1.99-3.73,4.06-4.78,6.22-2.11,4.14-2.36,7-.73,8.6Zm4.42-17.23c.18,.18,.62-.09,1.34-.82,.71-.72,1.06-1.17,1.06-1.35l-.28-.8c-.18-.17-.36-.17-.54,0-.18,.18-.44,.63-.79,1.35l-.79,1.62Zm9.44,4.49c1.44,.71,2.29,1.01,2.56,.92,.27-.09,.75-.68,1.46-1.76,3.36-4.15,4.86-7.38,4.48-9.71-.36-.53-.81-.8-1.35-.79-.72,0-2.68,.74-5.89,2.2-4.1,2.18-6.15,3.64-6.14,4.35,.56,2.14,2.18,3.74,4.88,4.79Zm16.33-37.47l2.4-1.9c5.87-4.35,12.71-10.85,20.51-19.51l2.13-2.44c-.54,0-3.74,2.72-9.6,8.14-4.26,3.8-8.44,7.95-12.52,12.46l-2.93,3.25Z"/>
    </g>
  </g>
</svg>