<?xml version="1.0" encoding="UTF-8"?>
<svg id="_Слой_2" data-name="Слой 2" xmlns="http://www.w3.org/2000/svg" viewBox="0 0 93.99 51.76">
  <defs>
    <style>
      .cls-1 {
        fill: #48494a;
      }
    </style>
  </defs>
  <g id="Layer_1" data-name="Layer 1">
    <g>
      <g>
        <g>
          <path class="cls-1" d="M21.67,51.76c-4.64,0-8.42-3.78-8.42-8.42s3.78-8.42,8.42-8.42,8.42,3.78,8.42,8.42-3.78,8.42-8.42,8.42Zm0-16.34c-4.37,0-7.92,3.55-7.92,7.92s3.55,7.92,7.92,7.92,7.92-3.55,7.92-7.92-3.55-7.92-7.92-7.92Zm0,13.64c-3.15,0-5.72-2.57-5.72-5.72s2.56-5.72,5.72-5.72,5.72,2.56,5.72,5.72-2.57,5.72-5.72,5.72Zm0-10.94c-2.88,0-5.22,2.34-5.22,5.22s2.34,5.22,5.22,5.22,5.22-2.34,5.22-5.22-2.34-5.22-5.22-5.22Z"/>
          <path class="cls-1" d="M21.67,48.35c-2.74,0-4.97-2.23-4.97-4.97s2.23-4.97,4.97-4.97,4.97,2.23,4.97,4.97-2.23,4.97-4.97,4.97Zm0-9.43c-2.46,0-4.47,2-4.47,4.47s2,4.47,4.47,4.47,4.47-2,4.47-4.47-2-4.47-4.47-4.47Z"/>
        </g>
        <g>
          <path class="cls-1" d="M77.45,51.76c-4.64,0-8.42-3.78-8.42-8.42s3.78-8.42,8.42-8.42,8.42,3.78,8.42,8.42-3.78,8.42-8.42,8.42Zm0-16.34c-4.37,0-7.92,3.55-7.92,7.92s3.55,7.92,7.92,7.92,7.92-3.55,7.92-7.92-3.55-7.92-7.92-7.92Zm0,13.64c-3.15,0-5.72-2.57-5.72-5.72s2.56-5.72,5.72-5.72,5.72,2.56,5.72,5.72-2.57,5.72-5.72,5.72Zm0-10.94c-2.88,0-5.22,2.34-5.22,5.22s2.34,5.22,5.22,5.22,5.22-2.34,5.22-5.22-2.34-5.22-5.22-5.22Z"/>
          <path class="cls-1" d="M77.45,48.35c-2.74,0-4.97-2.23-4.97-4.97s2.23-4.97,4.97-4.97,4.97,2.23,4.97,4.97-2.23,4.97-4.97,4.97Zm0-9.43c-2.46,0-4.47,2-4.47,4.47s2,4.47,4.47,4.47,4.47-2,4.47-4.47-2-4.47-4.47-4.47Z"/>
        </g>
      </g>
      <path class="cls-1" d="M2.72,16.84c-1.5,0-2.72-1.22-2.72-2.72V7.74c0-.99,.53-1.88,1.38-2.36V2.92S1.28,.83,3.83,.5h12.63s0,1.76,0,1.76H5.79s-.15,0-.35,0c-.46,0-1.98,.06-2.06,.81v2.04c1.2,.3,2.05,1.38,2.05,2.63v6.39c0,1.5-1.22,2.72-2.72,2.72ZM3.87,1c-2.06,.27-1.99,1.84-1.98,1.9v2.78s-.14,.07-.14,.07c-.77,.38-1.25,1.14-1.25,1.99v6.39c0,1.22,1,2.22,2.22,2.22s2.22-1,2.22-2.22V7.74c0-1.08-.78-2-1.84-2.18l-.21-.04V3.04c.11-1.12,1.65-1.29,2.56-1.29,.22,0,.36,0,.36,0H15.97V1H3.87Z"/>
      <g>
        <path class="cls-1" d="M68.92,38.45H30.07l-.07-.12c-.13-.22-.27-.44-.42-.65l-.29-.4h40.41l-.28,.4c-.15,.21-.29,.43-.42,.65l-.07,.12Zm-38.56-.5h38.28c.04-.06,.07-.11,.11-.17H30.25c.04,.06,.07,.11,.11,.17Z"/>
        <path class="cls-1" d="M93.99,43.63h-6.67v-.25c0-1.77-.48-3.52-1.4-5.05l-.23-.38h8.3v5.68Zm-6.17-.5h5.67v-4.68h-6.92c.79,1.45,1.22,3.05,1.26,4.68Z"/>
        <path class="cls-1" d="M11.67,43.63H6.46l-.03-5.68h6.87l-.23,.38c-.92,1.53-1.4,3.28-1.4,5.05v.25Zm-4.71-.5h4.21c.04-1.63,.47-3.24,1.26-4.68H6.93l.02,4.68Z"/>
        <path class="cls-1" d="M67.59,43.63H31.4v-.25c0-1.77-.48-3.52-1.4-5.05l-.23-.38h39.44l-.23,.38c-.92,1.53-1.4,3.28-1.4,5.05v.25Zm-35.69-.5h35.19c.04-1.63,.47-3.24,1.26-4.68H30.64c.78,1.45,1.21,3.05,1.26,4.68Z"/>
      </g>
      <path class="cls-1" d="M93.99,37.78h-8.42l-.07-.11c-1.85-2.61-4.86-4.16-8.04-4.16s-6.19,1.56-8.04,4.16l-.08,.11H29.65l-.07-.11c-1.85-2.61-4.86-4.16-8.04-4.16s-6.19,1.56-8.04,4.16l-.07,.11H6.42l-.17-34.1v-.03C7.12,.36,12.74,0,15.11,0c.49,0,.78,.02,.78,.02H90.73s.05,.02,.05,.02c3.18,1.27,3.22,5.69,3.22,5.88v31.87Zm-8.16-.5h7.66V5.91s-.04-4.23-2.86-5.4H15.88s-.3-.02-.77-.02c-1.75,0-7.53,.24-8.36,3.25l.17,33.53h6.24c1.95-2.68,5.07-4.27,8.37-4.27s6.42,1.59,8.37,4.27h39.18c1.95-2.68,5.07-4.27,8.37-4.27s6.42,1.59,8.38,4.27Zm2.51-10.55h-5.91V3.33h5.91c2.4,0,4.35,1.95,4.35,4.35v14.7c0,2.4-1.95,4.35-4.35,4.35Zm-5.41-.5h5.41c2.12,0,3.85-1.73,3.85-3.85V7.68c0-2.12-1.73-3.85-3.85-3.85h-5.41V26.22Zm-1.13,.5h-15.43V3.33h15.43V26.72Zm-14.93-.5h14.43V3.83h-14.43V26.22Zm-1.13,.5h-16.15V3.33h16.15V26.72Zm-15.65-.5h15.15V3.83h-15.15V26.22Zm-1.13,.5h-15.07V3.33h15.07V26.72Zm-14.57-.5h14.07V3.83h-14.07V26.22Zm-1.12,.5h-14.89V3.33h14.89V26.72Zm-14.39-.5h13.89V3.83h-13.89V26.22Zm-1.13,.5h-5.48c-2.4,0-4.35-1.95-4.35-4.35V7.68c0-2.4,1.95-4.35,4.35-4.35h5.48V26.72ZM12.29,3.83c-2.12,0-3.85,1.73-3.85,3.85v14.7c0,2.12,1.73,3.85,3.85,3.85h4.98V3.83h-4.98Z"/>
    </g>
  </g>
</svg>