<svg xmlns="http://www.w3.org/2000/svg" viewBox="0 0 69.92 116.67"><defs><style>.cls-1,.cls-2,.cls-3,.cls-4,.cls-5,.cls-6,.cls-7{fill:none;stroke:#9b8870;stroke-linecap:round;stroke-linejoin:round;stroke-width:0.75px;}.cls-2{stroke-dasharray:1.96 1.96;}.cls-3{stroke-dasharray:1.85 1.85;}.cls-4{stroke-dasharray:1.92 1.92;}.cls-5{stroke-dasharray:1.96 1.96;}.cls-6{stroke-dasharray:1.85 1.85;}.cls-7{stroke-dasharray:1.92 1.92;}.cls-8{fill:#9b8870;}</style></defs><title>legsgo</title><g id="Слой_2" data-name="Слой 2"><g id="Objects"><path class="cls-1" d="M19.35,88.5l.39-.92"/><path class="cls-2" d="M20.44,85.76a42.6,42.6,0,0,0,1.08-26"/><path class="cls-1" d="M21.22,58.83c-.1-.32-.21-.63-.33-.95"/><path class="cls-1" d="M27.07,61.54a5.4,5.4,0,0,1-1-.15"/><path class="cls-3" d="M24.37,60.72a5.64,5.64,0,0,1-.77-.5A12,12,0,0,1,22.21,59"/><path class="cls-1" d="M21.57,58.33c-.22-.26-.44-.52-.63-.78-.06.33-.12.66-.19,1"/><path class="cls-4" d="M20.32,60.4a10.41,10.41,0,0,1-1.12,2.65"/><path class="cls-1" d="M18.64,63.83a6.6,6.6,0,0,1-.69.71"/><path class="cls-1" d="M21.33,47.7l1-.25"/><path class="cls-5" d="M24.17,46.88A42.62,42.62,0,0,0,45.35,31.77"/><path class="cls-1" d="M45.9,31q.29-.42.54-.84"/><path class="cls-1" d="M47.35,37.25a7.5,7.5,0,0,1-.48-.88"/><path class="cls-6" d="M46.34,34.61a7.14,7.14,0,0,1-.08-.92,13.1,13.1,0,0,1,.11-1.85"/><path class="cls-1" d="M46.52,30.93c.06-.34.13-.67.21-1-.29.16-.59.31-.89.46"/><path class="cls-7" d="M44.1,31.21a10.18,10.18,0,0,1-2.77.75"/><path class="cls-1" d="M40.37,32a5.56,5.56,0,0,1-1-.11"/><path class="cls-8" d="M36.13,95.46a18.64,18.64,0,0,0,.52-6.64,6.69,6.69,0,0,0-1.15-3,2.1,2.1,0,0,0-1.28-.73,3.44,3.44,0,0,0-1.53,0,10.39,10.39,0,0,0-5.39,3.29,17.18,17.18,0,0,0-3.73,5.19,10.2,10.2,0,0,0-.89,3,1.9,1.9,0,0,0,0,1.12c0,.09.55.24,1,.27a23.39,23.39,0,0,1,3.41.21,3.53,3.53,0,0,1,.91.32,2.73,2.73,0,0,1,.78.64,6.83,6.83,0,0,1,.92,1.53c.24.51.46,1,.72,1.49a2.15,2.15,0,0,0,1,1,1.69,1.69,0,0,0,1.41-.24A3.65,3.65,0,0,0,34,101.78,19.7,19.7,0,0,0,36.13,95.46Zm0,0c-.23,1.1-.44,2.2-.73,3.28a12.77,12.77,0,0,1-1.19,3.15,4.25,4.25,0,0,1-1.12,1.31,2.09,2.09,0,0,1-1.74.43A2.67,2.67,0,0,1,30,102.45c-.33-.49-.59-1-.87-1.47a5.94,5.94,0,0,0-.9-1.28,2,2,0,0,0-.54-.37,3,3,0,0,0-.69-.18c-1-.15-2.07.11-3.29.07a5.09,5.09,0,0,1-.94-.1,1.78,1.78,0,0,1-1.12-.62,2,2,0,0,1-.41-1.17,4.25,4.25,0,0,1,.05-1,11.89,11.89,0,0,1,.95-3.43,16.62,16.62,0,0,1,4.22-5.51,11.23,11.23,0,0,1,6.17-3.09,4.08,4.08,0,0,1,1.8.16,3.58,3.58,0,0,1,.83.37,2.44,2.44,0,0,1,.66.66,7.38,7.38,0,0,1,1,3.28A22,22,0,0,1,36.13,95.46Z"/><path class="cls-8" d="M22.22,115A10.67,10.67,0,0,0,24,112.58a4,4,0,0,0,.41-1.41c.06-.59-.07-.59-.58-.65a11.63,11.63,0,0,1-3.06-.76,11.54,11.54,0,0,0-1.38-.44,3.06,3.06,0,0,0-.59-.12c-.05,0-.05,0,0,0s.11-.09.08,0a11.36,11.36,0,0,0-.94,5.54,2.36,2.36,0,0,0,.44,1.27,1.52,1.52,0,0,0,1.26.46A3.82,3.82,0,0,0,22.22,115Zm0,0a4.6,4.6,0,0,1-2.58,1.59,2,2,0,0,1-1.58-.34,3,3,0,0,1-.87-1.44,9,9,0,0,1,.36-6.41,1.37,1.37,0,0,1,.59-.58,1.56,1.56,0,0,1,.74-.13,5.14,5.14,0,0,1,.91.21,11.6,11.6,0,0,1,1.47.63,13.78,13.78,0,0,0,2.7,1.22,1.42,1.42,0,0,1,.84.51.85.85,0,0,1,.13.54c0,.15-.05.27-.08.41a5,5,0,0,1-.68,1.43A17.72,17.72,0,0,1,22.22,115Z"/><path class="cls-8" d="M24.62,111a6.56,6.56,0,0,1-2.21,0,6.39,6.39,0,0,1-2.07-.77,19.85,19.85,0,0,0,2.12.52A18.73,18.73,0,0,0,24.62,111Z"/><path class="cls-8" d="M24.11,112a6.92,6.92,0,0,1-1.64,0,7.38,7.38,0,0,1-1.61-.37c.55,0,1.09.07,1.63.12S23.57,111.9,24.11,112Z"/><path class="cls-8" d="M23.49,113.05a3.31,3.31,0,0,1-1.33,0,3.13,3.13,0,0,1-1.24-.47c.44.07.86.17,1.28.23S23.05,113,23.49,113.05Z"/><path class="cls-8" d="M22.87,113.93a2.78,2.78,0,0,1-1.15-.08,2.92,2.92,0,0,1-1-.49c.39.06.74.17,1.1.25S22.5,113.79,22.87,113.93Z"/><path class="cls-8" d="M22.3,114.73a3.5,3.5,0,0,1-1.25,0,3.32,3.32,0,0,1-1.19-.38c.42,0,.82.09,1.22.13S21.89,114.64,22.3,114.73Z"/><path class="cls-8" d="M21.62,115.43a2.88,2.88,0,0,1-1.05.08,2.92,2.92,0,0,1-1-.28,8.8,8.8,0,0,1,1,0A7.62,7.62,0,0,1,21.62,115.43Z"/><path class="cls-8" d="M20.8,116.22a2.41,2.41,0,0,1-1,.11,2.27,2.27,0,0,1-1-.35c.35,0,.67.07,1,.1S20.46,116.15,20.8,116.22Z"/><path class="cls-8" d="M36,86.83a4.94,4.94,0,0,0-1.79-1A1.65,1.65,0,0,1,36,86.83Z"/><path class="cls-8" d="M36.57,88.1a3.52,3.52,0,0,0-2-1.1A1.72,1.72,0,0,1,36.57,88.1Z"/><path class="cls-8" d="M36.77,89.13c-.41-.18-.79-.4-1.2-.58s-.8-.35-1.21-.55a3.38,3.38,0,0,1,1.32.33A3.21,3.21,0,0,1,36.77,89.13Z"/><path class="cls-8" d="M36.87,90.22c-.47-.16-.9-.37-1.36-.55s-.89-.39-1.33-.63a5.08,5.08,0,0,1,1.43.4A4.82,4.82,0,0,1,36.87,90.22Z"/><path class="cls-8" d="M36.78,91.27a7.6,7.6,0,0,0-1.54-.76A1.38,1.38,0,0,1,36.78,91.27Z"/><path class="cls-8" d="M36.64,92.19c-.35-.09-.65-.22-1-.31s-.64-.19-1-.32a2.26,2.26,0,0,1,2,.63Z"/><path class="cls-8" d="M36.4,93.32a16.09,16.09,0,0,0-1.91-.57A1.91,1.91,0,0,1,36.4,93.32Z"/><path class="cls-8" d="M36.18,94.66a3.79,3.79,0,0,1-1-.29,4.08,4.08,0,0,1-.93-.52,4.28,4.28,0,0,1,1,.29A4.18,4.18,0,0,1,36.18,94.66Z"/><path class="cls-8" d="M35.88,95.92c-.07-.17-.24-.23-.4-.3l-.5-.19c-.32-.15-.66-.27-1-.46a3.12,3.12,0,0,1,1.09.22c.17.09.33.16.49.26S35.91,95.72,35.88,95.92Z"/><path class="cls-8" d="M35.63,97.1a4.45,4.45,0,0,0-1.33-.74A1.08,1.08,0,0,1,35.63,97.1Z"/><path class="cls-8" d="M35.18,98c-.32-.08-.59-.21-.88-.31s-.58-.21-.87-.37a2,2,0,0,1,1,.14A2,2,0,0,1,35.18,98Z"/><path class="cls-8" d="M35.24,99.3c-.7-.33-1.34-.6-2.06-.88A2.44,2.44,0,0,1,35.24,99.3Z"/><path class="cls-8" d="M34.92,100.24c-.3,0-.56-.14-.84-.2s-.55-.14-.84-.25a1.62,1.62,0,0,1,.9,0A1.64,1.64,0,0,1,34.92,100.24Z"/><path class="cls-8" d="M34.26,101.09a11.09,11.09,0,0,0-1.51-.37A1.23,1.23,0,0,1,34.26,101.09Z"/><path class="cls-8" d="M33.66,102.26a5,5,0,0,0-1.48-.68A1.2,1.2,0,0,1,33.66,102.26Z"/><path class="cls-8" d="M32.94,102.84a5,5,0,0,1-.69-.2,4.24,4.24,0,0,1-.64-.32,1.43,1.43,0,0,1,.74.09A1.39,1.39,0,0,1,32.94,102.84Z"/><path class="cls-8" d="M1.65,60.38a21.83,21.83,0,0,1,2.67-6.15,7.45,7.45,0,0,1,2.47-2.36,2.27,2.27,0,0,1,.9-.24,3.39,3.39,0,0,1,.91.08,4.38,4.38,0,0,1,1.64.75,11.2,11.2,0,0,1,3.82,5.74A16.52,16.52,0,0,1,15,65.09a11.84,11.84,0,0,1-.88,3.45,4.59,4.59,0,0,1-.43.86,2.14,2.14,0,0,1-.94.82,1.79,1.79,0,0,1-1.28,0,5.71,5.71,0,0,1-.87-.38c-1.07-.57-1.89-1.33-2.81-1.69a3,3,0,0,0-.7-.19,1.86,1.86,0,0,0-.65.06A5.76,5.76,0,0,0,5,68.66c-.48.28-1,.58-1.48.84a2.69,2.69,0,0,1-1.8.34,2.09,2.09,0,0,1-1.3-1.23,4.38,4.38,0,0,1-.32-1.7,12.38,12.38,0,0,1,.53-3.32C.94,62.5,1.31,61.44,1.65,60.38Zm0,0A19.42,19.42,0,0,0,.34,66.9a3.58,3.58,0,0,0,.41,1.56,1.71,1.71,0,0,0,1.1.92A2.17,2.17,0,0,0,3.25,69c.46-.27.9-.61,1.37-.93a6.45,6.45,0,0,1,1.55-.88,2.73,2.73,0,0,1,1-.17,4.1,4.1,0,0,1,.95.17,24.26,24.26,0,0,1,3.06,1.51c.44.23,1,.38,1,.29a2,2,0,0,0,.57-1,10.61,10.61,0,0,0,.72-3,17.64,17.64,0,0,0-.67-6.35,10.48,10.48,0,0,0-3.05-5.53,3.45,3.45,0,0,0-1.34-.76A2.07,2.07,0,0,0,7,52.3a6.81,6.81,0,0,0-2.5,2.05A18.74,18.74,0,0,0,1.65,60.38Z"/><path class="cls-8" d="M4,84.28a17,17,0,0,1-.52-3,4.73,4.73,0,0,1,.12-1.58,2.75,2.75,0,0,1,.14-.4.75.75,0,0,1,.37-.4,1.38,1.38,0,0,1,1,0,14.2,14.2,0,0,0,3,.27,11.59,11.59,0,0,1,1.6.19,4.06,4.06,0,0,1,.88.27,1.37,1.37,0,0,1,.58.48,1.34,1.34,0,0,1,.23.8,9,9,0,0,1-2.87,5.74A3,3,0,0,1,7,87.42a1.93,1.93,0,0,1-1.54-.48A4.58,4.58,0,0,1,4,84.28Zm0,0a3.8,3.8,0,0,0,1.56,2.48A1.54,1.54,0,0,0,6.91,87a2.36,2.36,0,0,0,1-.88,11.37,11.37,0,0,0,1.93-5.27c0-.06,0,0,0,.07s0,0,0,0a3.11,3.11,0,0,0-.57-.19c-.44-.12-.92-.22-1.41-.31a11.34,11.34,0,0,1-3-.85c-.47-.2-.58-.26-.83.28a4,4,0,0,0-.34,1.42A11,11,0,0,0,4,84.28Z"/><path class="cls-8" d="M10.55,81.25a6.26,6.26,0,0,1-2.2.08,6.13,6.13,0,0,1-2.1-.66c.71.16,1.41.33,2.13.42A19.62,19.62,0,0,0,10.55,81.25Z"/><path class="cls-8" d="M10.11,82.27a7.19,7.19,0,0,1-3.28-.2c.56,0,1.1,0,1.64,0S9.56,82.18,10.11,82.27Z"/><path class="cls-8" d="M9.54,83.32a3.32,3.32,0,0,1-1.33.13A3.12,3.12,0,0,1,7,83c.44,0,.86.13,1.29.16S9.09,83.27,9.54,83.32Z"/><path class="cls-8" d="M9,84.24a3,3,0,0,1-1.15,0,3,3,0,0,1-1.07-.43c.39,0,.75.13,1.12.19S8.59,84.12,9,84.24Z"/><path class="cls-8" d="M8.71,85.07a3.56,3.56,0,0,1-2.46-.2c.42,0,.82,0,1.23.07S8.29,85,8.71,85.07Z"/><path class="cls-8" d="M8.13,85.91a2.62,2.62,0,0,1-1,.14,2.76,2.76,0,0,1-1-.23,8.9,8.9,0,0,1,1,0A9.25,9.25,0,0,1,8.13,85.91Z"/><path class="cls-8" d="M7.48,86.72a2.43,2.43,0,0,1-1,.17,2.33,2.33,0,0,1-1-.3c.35,0,.68,0,1,0S7.13,86.67,7.48,86.72Z"/><path class="cls-8" d="M9.39,52.64a4.88,4.88,0,0,0-2-.24A1.65,1.65,0,0,1,9.39,52.64Z"/><path class="cls-8" d="M10.37,53.6a3.57,3.57,0,0,0-2.28-.24A1.72,1.72,0,0,1,10.37,53.6Z"/><path class="cls-8" d="M11,54.48c-.46,0-.89-.07-1.33-.08s-.88,0-1.33,0a3.42,3.42,0,0,1,2.66.12Z"/><path class="cls-8" d="M11.89,55.39c-.5,0-1,0-1.47,0s-1,0-1.47-.06a5.27,5.27,0,0,1,1.48-.19A4.86,4.86,0,0,1,11.89,55.39Z"/><path class="cls-8" d="M12.13,56.56a8.15,8.15,0,0,0-1.71-.11A1.37,1.37,0,0,1,12.13,56.56Z"/><path class="cls-8" d="M12.66,57.5c-.36,0-.69,0-1,.08s-.67.07-1,.08a2.41,2.41,0,0,1,1-.33A2.24,2.24,0,0,1,12.66,57.5Z"/><path class="cls-8" d="M12.92,58.62a16.25,16.25,0,0,0-2,.21A1.88,1.88,0,0,1,12.92,58.62Z"/><path class="cls-8" d="M13.13,59.81a4.65,4.65,0,0,1-2.1,0,4.31,4.31,0,0,1,2.1,0Z"/><path class="cls-8" d="M13.38,61.09A.59.59,0,0,0,12.9,61h-.53c-.36,0-.72,0-1.09,0a2.89,2.89,0,0,1,1.08-.22,5.29,5.29,0,0,1,.56.05C13.1,60.8,13.33,60.89,13.38,61.09Z"/><path class="cls-8" d="M13.45,62.27a4.57,4.57,0,0,0-1.51-.18A1.08,1.08,0,0,1,13.45,62.27Z"/><path class="cls-8" d="M13.6,63.25c-.33,0-.63,0-.94,0s-.61,0-.94,0a2,2,0,0,1,.93-.24A2,2,0,0,1,13.6,63.25Z"/><path class="cls-8" d="M13.45,64.45c-.77,0-1.47,0-2.24,0A2.43,2.43,0,0,1,13.45,64.45Z"/><path class="cls-8" d="M13.52,65.44c-.3.07-.58.09-.86.14s-.56.08-.87.09a1.72,1.72,0,0,1,.84-.34A1.8,1.8,0,0,1,13.52,65.44Z"/><path class="cls-8" d="M13.23,66.48a11.32,11.32,0,0,0-1.53.24A1.22,1.22,0,0,1,13.23,66.48Z"/><path class="cls-8" d="M13.13,67.79a4.94,4.94,0,0,0-1.63-.06A1.2,1.2,0,0,1,13.13,67.79Z"/><path class="cls-8" d="M12.69,68.6a3.59,3.59,0,0,1-.71.08,4.53,4.53,0,0,1-.72,0,1.43,1.43,0,0,1,.71-.21A1.39,1.39,0,0,1,12.69,68.6Z"/><path class="cls-8" d="M0,60.64A15.79,15.79,0,0,1,4.28,52,23.42,23.42,0,0,0,0,60.64Z"/><path class="cls-8" d="M34.4,104.21a8.08,8.08,0,0,0,1.83-3.09,30.06,30.06,0,0,0,1.07-3.46c.3-1.17.54-2.36.76-3.55s.39-2.4.52-3.6a35.23,35.23,0,0,1-1,7.21,26,26,0,0,1-1.13,3.47A7.4,7.4,0,0,1,34.4,104.21Z"/><path class="cls-8" d="M21.26,11.12C20.51,13.07,19.72,15,19,17c-.38,1-.73,2-1.07,3s-.67,2-.94,3a36,36,0,0,1,1.77-6A62.77,62.77,0,0,1,21.26,11.12Z"/><path class="cls-8" d="M68.65,48.44c-.47,1.12-1,2.22-1.59,3.3a28.64,28.64,0,0,1-1.88,3.14,12.09,12.09,0,0,1-2.64,2.56c-1,.74-2,1.45-3,2.16.93-.8,1.87-1.57,2.82-2.33A13.81,13.81,0,0,0,65,54.75c.7-1,1.31-2,1.92-3.09S68.12,49.54,68.65,48.44Z"/><path class="cls-8" d="M12.73,37.5a8.29,8.29,0,0,0,.49,2.66,4.2,4.2,0,0,0,1.65,2.06,4.84,4.84,0,0,0,5-.37,8.93,8.93,0,0,0,3.06-4.07c.35-.8.67-1.63.95-2.49s.62-1.71.86-2.51a1.25,1.25,0,0,0,0-.81,1.87,1.87,0,0,0-.7-.67c-.73-.52-1.46-1-2.21-1.48a14.68,14.68,0,0,0-2.33-1.2,4.22,4.22,0,0,0-2.4-.31,2.08,2.08,0,0,0-1,.58c-.3.33-.59.66-.86,1a12,12,0,0,0-1.38,2.31A12.57,12.57,0,0,0,12.73,37.5Zm0,0a14.89,14.89,0,0,1,.91-5.36,13.86,13.86,0,0,1,1.19-2.49,12.38,12.38,0,0,1,.78-1.16,2.79,2.79,0,0,1,1.24-.89,4.86,4.86,0,0,1,2.95,0,13.84,13.84,0,0,1,2.64,1.05,26,26,0,0,1,2.4,1.41,3.39,3.39,0,0,1,1.21,1.23,2.6,2.6,0,0,1,.08,1.85A39.35,39.35,0,0,1,24,38.35a9.81,9.81,0,0,1-3.85,4.15,5.35,5.35,0,0,1-5.43-.11,4.39,4.39,0,0,1-1.59-2.21A8.18,8.18,0,0,1,12.73,37.5Z"/><path class="cls-8" d="M23.13,27.41a10.7,10.7,0,0,0,2.33.8,4.55,4.55,0,0,0,2.43-.14,14,14,0,0,0,4.05-2.78c1.25-1.07,2.51-2.14,3.73-3.24a12.28,12.28,0,0,0,3-3.76,26.51,26.51,0,0,0,1.6-4.59,45.49,45.49,0,0,0,1-4.78,46.43,46.43,0,0,0,.47-4.83,1.49,1.49,0,0,0-.62-1.54A6.23,6.23,0,0,0,39,1.82a9.87,9.87,0,0,0-2.26-.35,3.53,3.53,0,0,0-2,.6c-1.28.85-2.66,1.89-4,2.82l-4,2.85a10.33,10.33,0,0,0-3.25,3.43,97.46,97.46,0,0,0-3.77,9.09c-.29.77-.6,1.54-.93,2.3A2.34,2.34,0,0,0,19,24.88a5.33,5.33,0,0,0,1.92,1.5C21.62,26.75,22.38,27.06,23.13,27.41Zm0,0c-.75-.34-1.52-.64-2.26-1a5.19,5.19,0,0,1-1.95-1.49,2.45,2.45,0,0,1-.19-2.4c.29-.77.57-1.54.84-2.32,1.09-3.12,1.91-6.3,3.3-9.38a11.24,11.24,0,0,1,3.29-3.88c1.3-1,2.59-2.06,3.9-3.07l2-1.51c.67-.5,1.27-1,2-1.51A5.06,5.06,0,0,1,36.76,0a11,11,0,0,1,2.63.36,7.46,7.46,0,0,1,2.55,1,2.9,2.9,0,0,1,1,1.29,3.77,3.77,0,0,1,.18,1.51,41.5,41.5,0,0,1-.64,5A41.61,41.61,0,0,1,41.24,14a27.13,27.13,0,0,1-1.92,4.65A13,13,0,0,1,36,22.41c-1.29,1-2.62,2-3.91,3.05a14.68,14.68,0,0,1-4.16,2.66,4.54,4.54,0,0,1-2.45.12A11.35,11.35,0,0,1,23.13,27.41Z"/><path class="cls-8" d="M16.54,28.53a12.11,12.11,0,0,0,2.61,1.56A3.5,3.5,0,0,1,16.54,28.53Z"/><path class="cls-8" d="M15.57,29.42a13.34,13.34,0,0,0,2.58,1.45A3.43,3.43,0,0,1,15.57,29.42Z"/><path class="cls-8" d="M14.81,30.6a9.32,9.32,0,0,0,1.84,1.34A2.17,2.17,0,0,1,14.81,30.6Z"/><path class="cls-8" d="M13.83,32c.35.17.65.36,1,.52s.65.32,1,.51a2.42,2.42,0,0,1-1.11-.29A2.59,2.59,0,0,1,13.83,32Z"/><path class="cls-8" d="M13.39,33.27a7.53,7.53,0,0,0,1.43.76A1.26,1.26,0,0,1,13.39,33.27Z"/><path class="cls-8" d="M13.2,34.45c.58.37,1.1.66,1.7,1A1.9,1.9,0,0,1,13.2,34.45Z"/><path class="cls-8" d="M12.75,35.66a5.83,5.83,0,0,0,2.57,1.28A2.62,2.62,0,0,1,12.75,35.66Z"/><path class="cls-8" d="M12.74,37.26c.37.14.7.33,1,.48s.68.31,1,.51a2.92,2.92,0,0,1-2.08-1Z"/><path class="cls-8" d="M13.07,38.67c0,.22.19.31.35.39a5.25,5.25,0,0,0,.55.22c.36.17.73.28,1.1.46a2.94,2.94,0,0,1-1.2-.22,4.14,4.14,0,0,1-.55-.29C13.16,39.12,13,38.88,13.07,38.67Z"/><path class="cls-8" d="M13.52,40.24a5,5,0,0,0,1.88,1.22A1.86,1.86,0,0,1,13.52,40.24Z"/><path class="cls-8" d="M18.65,23.68a5.12,5.12,0,0,0,1.83,1.43A2,2,0,0,1,18.65,23.68Z"/><path class="cls-8" d="M19,22.83c.36.21.68.44,1,.62s.68.38,1,.6A2.84,2.84,0,0,1,19,22.83Z"/><path class="cls-8" d="M19.4,21.59a8,8,0,0,0,1.91,1.13A2,2,0,0,1,19.4,21.59Z"/><path class="cls-8" d="M19.72,20.1a2.66,2.66,0,0,0,1.35,1.17A1.2,1.2,0,0,1,19.72,20.1Z"/><path class="cls-8" d="M20.22,19.36c.48.26.86.46,1.35.7A1.25,1.25,0,0,1,20.22,19.36Z"/><path class="cls-8" d="M20.64,18.18A8.91,8.91,0,0,0,21.9,19,1.15,1.15,0,0,1,20.64,18.18Z"/><path class="cls-8" d="M21.05,17a5.17,5.17,0,0,0,1.52,1.05A1.45,1.45,0,0,1,21.05,17Z"/><path class="cls-8" d="M21.34,15.74c.67.44,1.28.81,2,1.21A2.63,2.63,0,0,1,21.34,15.74Z"/><path class="cls-8" d="M21.81,14.51a15.08,15.08,0,0,0,2.43,1.33A3.2,3.2,0,0,1,21.81,14.51Z"/><path class="cls-8" d="M22.37,13.29a10.39,10.39,0,0,0,2.95,1.4A3.69,3.69,0,0,1,22.37,13.29Z"/><path class="cls-8" d="M22.88,12.2a9.65,9.65,0,0,0,2.27.89A2.45,2.45,0,0,1,22.88,12.2Z"/><path class="cls-8" d="M23.45,10.88c.42.25.8.52,1.22.75s.82.45,1.24.7a3.52,3.52,0,0,1-1.37-.49A3.72,3.72,0,0,1,23.45,10.88Z"/><path class="cls-8" d="M24.39,9.94a5.59,5.59,0,0,0,1.68,1A1.58,1.58,0,0,1,24.39,9.94Z"/><path class="cls-8" d="M25,8.86a7,7,0,0,0,2.28,1.21A2.42,2.42,0,0,1,25,8.86Z"/><path class="cls-8" d="M26.16,8.32a5.22,5.22,0,0,1,1.1.5,5.8,5.8,0,0,1,1,.7A5.19,5.19,0,0,1,27.13,9,5.87,5.87,0,0,1,26.16,8.32Z"/><path class="cls-8" d="M27.53,7.28a3.6,3.6,0,0,0,2.12,1.47A1.94,1.94,0,0,1,27.53,7.28Z"/><path class="cls-8" d="M28.49,6.42A3.18,3.18,0,0,0,30.4,7.69,1.66,1.66,0,0,1,28.49,6.42Z"/><path class="cls-8" d="M29.24,5.66a10.76,10.76,0,0,1,1.12.58,8.61,8.61,0,0,1,1,.7,4.46,4.46,0,0,1-1.17-.49A4.65,4.65,0,0,1,29.24,5.66Z"/><path class="cls-8" d="M30.82,4.68a3.07,3.07,0,0,0,1.75,1.43A1.61,1.61,0,0,1,30.82,4.68Z"/><path class="cls-8" d="M31.72,4a6.08,6.08,0,0,0,2.43,1.06A2.41,2.41,0,0,1,31.72,4Z"/><path class="cls-8" d="M33.1,3.3a5.88,5.88,0,0,0,2.3,1.09A2.28,2.28,0,0,1,33.1,3.3Z"/><path class="cls-8" d="M34.31,2.17A1.92,1.92,0,0,0,35.2,3a12.2,12.2,0,0,0,1.21.47,2.75,2.75,0,0,1-1.32-.24,2.09,2.09,0,0,1-.54-.44A1.14,1.14,0,0,1,34.31,2.17Z"/><path class="cls-8" d="M35.82,1.5c0,.29.24.45.45.58l.73.35c.48.24,1,.44,1.48.69a4.94,4.94,0,0,1-1.59-.47,7.38,7.38,0,0,1-.72-.41C36,2.08,35.7,1.79,35.82,1.5Z"/><path class="cls-8" d="M23.5,26.41a7.38,7.38,0,0,0,3.1.45,3.88,3.88,0,0,0,1.47-.46,3.2,3.2,0,0,0,1.17-1,2.82,2.82,0,0,1-1.07,1.2,3.87,3.87,0,0,1-1.55.53A5.46,5.46,0,0,1,23.5,26.41Z"/><path class="cls-8" d="M36,71a8,8,0,0,1-2.72,0,4.43,4.43,0,0,1-2.43-1.23,5.36,5.36,0,0,1-1-5.34A9.75,9.75,0,0,1,33.4,60a36.15,36.15,0,0,1,4.78-2.89A2.54,2.54,0,0,1,40,56.85a3.26,3.26,0,0,1,1.4,1A26.37,26.37,0,0,1,43.19,60a13.2,13.2,0,0,1,1.45,2.44,4.92,4.92,0,0,1,.51,2.9,2.79,2.79,0,0,1-.69,1.37c-.33.33-.66.66-1,1a14.06,14.06,0,0,1-2.27,1.56A14.82,14.82,0,0,1,36,71Zm0,0a12.64,12.64,0,0,0,5-1.92,12.27,12.27,0,0,0,2.06-1.73,11.88,11.88,0,0,0,.87-1,2,2,0,0,0,.41-1.08,4,4,0,0,0-.68-2.32,15,15,0,0,0-1.54-2.11c-.57-.68-1.19-1.31-1.82-1.95a1.84,1.84,0,0,0-.77-.59,1.22,1.22,0,0,0-.8.16c-.74.37-1.56.84-2.34,1.25A26.16,26.16,0,0,0,34.14,61a9,9,0,0,0-3.54,3.66A4.81,4.81,0,0,0,31,69.6a4,4,0,0,0,2.29,1.31A7.89,7.89,0,0,0,36,71Z"/><path class="cls-8" d="M45,58.6a10.32,10.32,0,0,1-1.19-2.16A4.72,4.72,0,0,1,43.49,54a14.88,14.88,0,0,1,2-4.53c.81-1.43,1.57-2.9,2.39-4.34a13,13,0,0,1,3.19-3.89,26.4,26.4,0,0,1,4.29-2.63,40.71,40.71,0,0,1,4.59-2,41.86,41.86,0,0,1,4.83-1.42,3.61,3.61,0,0,1,1.52-.06,2.82,2.82,0,0,1,1.43.81,7.44,7.44,0,0,1,1.38,2.36,10.86,10.86,0,0,1,.78,2.55,5.05,5.05,0,0,1-.41,2.8c-.36.83-.78,1.5-1.16,2.24l-1.18,2.18c-.8,1.45-1.59,2.89-2.42,4.33a11.11,11.11,0,0,1-3.32,3.86c-2.81,1.87-5.83,3.18-8.74,4.74q-1.1.59-2.16,1.2a2.43,2.43,0,0,1-2.4.19,5.14,5.14,0,0,1-1.78-1.69C45.82,60,45.4,59.3,45,58.6Zm0,0c.46.69.89,1.4,1.38,2.06a5.05,5.05,0,0,0,1.78,1.66,2.29,2.29,0,0,0,2.3-.24c.7-.44,1.41-.87,2.13-1.28,2.82-1.69,5.79-3.23,8.39-5.16a10.21,10.21,0,0,0,2.86-3.75L66,47.45c.71-1.46,1.52-3,2.16-4.38a3.63,3.63,0,0,0,.28-2,9.76,9.76,0,0,0-.7-2.17,6.15,6.15,0,0,0-1-1.91,1.44,1.44,0,0,0-1.61-.36,43.27,43.27,0,0,0-4.7,1.22,42,42,0,0,0-4.57,1.73,26.23,26.23,0,0,0-4.28,2.3,12.23,12.23,0,0,0-3.24,3.54c-.89,1.38-1.75,2.79-2.61,4.2A13.87,13.87,0,0,0,43.55,54a4.54,4.54,0,0,0,.24,2.42A10.28,10.28,0,0,0,45,58.6Z"/><path class="cls-8" d="M39.57,58.5a11.89,11.89,0,0,0,1.18,2.8A3.51,3.51,0,0,1,39.57,58.5Z"/><path class="cls-8" d="M38.26,58.64a12.77,12.77,0,0,0,1.22,2.69A3.45,3.45,0,0,1,38.26,58.64Z"/><path class="cls-8" d="M37,59.14a8.51,8.51,0,0,0,.69,2.16A2.13,2.13,0,0,1,37,59.14Z"/><path class="cls-8" d="M35.33,59.68c.18.35.31.69.49,1s.34.65.5,1a2.43,2.43,0,0,1-.73-.89A2.52,2.52,0,0,1,35.33,59.68Z"/><path class="cls-8" d="M34.23,60.45a8.11,8.11,0,0,0,.69,1.46A1.27,1.27,0,0,1,34.23,60.45Z"/><path class="cls-8" d="M33.37,61.29c.26.64.5,1.18.79,1.8A1.94,1.94,0,0,1,33.37,61.29Z"/><path class="cls-8" d="M32.29,62a6,6,0,0,0,1.31,2.55A2.64,2.64,0,0,1,32.29,62Z"/><path class="cls-8" d="M31.34,63.28c.21.33.36.68.56,1s.37.66.53,1a2.55,2.55,0,0,1-.75-.91A2.76,2.76,0,0,1,31.34,63.28Z"/><path class="cls-8" d="M30.77,64.61c-.13.18,0,.37.05.53s.2.34.31.5c.19.34.42.66.62,1a3,3,0,0,1-.84-.89,5.85,5.85,0,0,1-.27-.56C30.58,65,30.56,64.73,30.77,64.61Z"/><path class="cls-8" d="M30.2,66.14a5.13,5.13,0,0,0,.8,2.1A1.88,1.88,0,0,1,30.2,66.14Z"/><path class="cls-8" d="M43.42,53.29a5.26,5.26,0,0,0,1.44,1.83A2,2,0,0,1,43.42,53.29Z"/><path class="cls-8" d="M44,52.55c.31.29.56.59.85.85s.58.53.87.83A2.82,2.82,0,0,1,44,52.55Z"/><path class="cls-8" d="M44.66,51.45A7.74,7.74,0,0,0,46.24,53,2,2,0,0,1,44.66,51.45Z"/><path class="cls-8" d="M45.32,50.07a2.65,2.65,0,0,0,1,1.46A1.2,1.2,0,0,1,45.32,50.07Z"/><path class="cls-8" d="M46,49.47c.4.38.72.66,1.14,1A1.22,1.22,0,0,1,46,49.47Z"/><path class="cls-8" d="M46.67,48.44a10.75,10.75,0,0,0,1,1.11A1.18,1.18,0,0,1,46.67,48.44Z"/><path class="cls-8" d="M47.36,47.4a5.07,5.07,0,0,0,1.22,1.39A1.44,1.44,0,0,1,47.36,47.4Z"/><path class="cls-8" d="M47.94,46.23c.54.58,1.05,1.1,1.63,1.65A2.64,2.64,0,0,1,47.94,46.23Z"/><path class="cls-8" d="M48.7,45.15a14.46,14.46,0,0,0,2,1.88A3.19,3.19,0,0,1,48.7,45.15Z"/><path class="cls-8" d="M49.53,44.1a10.39,10.39,0,0,0,2.52,2.06A3.66,3.66,0,0,1,49.53,44.1Z"/><path class="cls-8" d="M50.29,43.16a9.31,9.31,0,0,0,2,1.41A2.41,2.41,0,0,1,50.29,43.16Z"/><path class="cls-8" d="M51.15,42c.35.34.66.69,1,1s.69.64,1,1a3.6,3.6,0,0,1-1.21-.8A3.65,3.65,0,0,1,51.15,42Z"/><path class="cls-8" d="M52.29,41.33a5.83,5.83,0,0,0,1.39,1.37A1.59,1.59,0,0,1,52.29,41.33Z"/><path class="cls-8" d="M53.19,40.44a6.73,6.73,0,0,0,1.92,1.72A2.42,2.42,0,0,1,53.19,40.44Z"/><path class="cls-8" d="M54.4,40.19a5.27,5.27,0,0,1,1,.74,5.78,5.78,0,0,1,.77.92,5.76,5.76,0,0,1-.95-.74A6.26,6.26,0,0,1,54.4,40.19Z"/><path class="cls-8" d="M56,39.5a3.52,3.52,0,0,0,1.71,1.93A1.93,1.93,0,0,1,56,39.5Z"/><path class="cls-8" d="M57.11,38.9a3.26,3.26,0,0,0,1.56,1.69A1.68,1.68,0,0,1,57.11,38.9Z"/><path class="cls-8" d="M58,38.34a9.44,9.44,0,0,1,.94.83,8.29,8.29,0,0,1,.84.93,4.39,4.39,0,0,1-1-.76A4.23,4.23,0,0,1,58,38.34Z"/><path class="cls-8" d="M59.79,37.76a3.06,3.06,0,0,0,1.36,1.81A1.61,1.61,0,0,1,59.79,37.76Z"/><path class="cls-8" d="M60.83,37.34A5.86,5.86,0,0,0,62.94,39,2.38,2.38,0,0,1,60.83,37.34Z"/><path class="cls-8" d="M62.34,37a5.93,5.93,0,0,0,2,1.62A2.28,2.28,0,0,1,62.34,37Z"/><path class="cls-8" d="M63.79,36.17a1.88,1.88,0,0,0,.66,1c.31.28.7.47,1,.74a2.72,2.72,0,0,1-1.21-.55,1.65,1.65,0,0,1-.42-.56A1,1,0,0,1,63.79,36.17Z"/><path class="cls-8" d="M65.41,35.88c-.08.28.13.49.3.67s.41.35.63.51c.41.35.84.66,1.26,1a5.22,5.22,0,0,1-1.42-.84,5.39,5.39,0,0,1-.6-.57C65.4,36.47,65.23,36.13,65.41,35.88Z"/><path class="cls-8" d="M34.11,69.59a17.19,17.19,0,0,0,5.49-1.1A8.38,8.38,0,0,1,34.11,69.59Z"/><path class="cls-8" d="M66.52,39.35a3.36,3.36,0,0,1,.46,1.7,6.25,6.25,0,0,1-.24,1.77c-.33,1.14-.82,2.19-1.13,3.33a21.5,21.5,0,0,1,.89-3.4,7.56,7.56,0,0,0,.29-1.7A4.13,4.13,0,0,0,66.52,39.35Z"/></g></g></svg>