<svg xmlns="http://www.w3.org/2000/svg" viewBox="0 0 69.19 115.95"><defs><style>.cls-1,.cls-2,.cls-3,.cls-4,.cls-5,.cls-6,.cls-7{fill:none;stroke:#9b8870;stroke-linecap:round;stroke-linejoin:round;stroke-width:0.75px;}.cls-2{stroke-dasharray:1.96 1.96;}.cls-3{stroke-dasharray:1.85 1.85;}.cls-4{stroke-dasharray:1.92 1.92;}.cls-5{stroke-dasharray:1.96 1.96;}.cls-6{stroke-dasharray:1.85 1.85;}.cls-7{stroke-dasharray:1.92 1.92;}.cls-8{fill:#9b8870;}</style></defs><title>legsin</title><g id="Слой_2" data-name="Слой 2"><g id="Objects"><path class="cls-1" d="M49.84,28.17c-.14.3-.27.61-.4.92"/><path class="cls-2" d="M48.74,30.91a42.64,42.64,0,0,0-1.07,26"/><path class="cls-1" d="M48,57.84c.1.32.21.63.33.94"/><path class="cls-1" d="M42.11,55.12a6.8,6.8,0,0,1,1,.16"/><path class="cls-3" d="M44.82,56a6.33,6.33,0,0,1,.77.5A12.92,12.92,0,0,1,47,57.67"/><path class="cls-1" d="M47.61,58.34c.23.26.44.52.64.77l.18-1"/><path class="cls-4" d="M48.87,56.26A10.32,10.32,0,0,1,50,53.62"/><path class="cls-1" d="M50.54,52.84a5.86,5.86,0,0,1,.7-.71"/><path class="cls-1" d="M47.86,69l-1,.25"/><path class="cls-5" d="M45,69.79A42.62,42.62,0,0,0,23.84,84.9"/><path class="cls-1" d="M23.28,85.71l-.54.84"/><path class="cls-1" d="M21.83,79.42a5.81,5.81,0,0,1,.49.88"/><path class="cls-6" d="M22.85,82.06a7.12,7.12,0,0,1,.07.92,13.1,13.1,0,0,1-.11,1.85"/><path class="cls-1" d="M22.67,85.74c-.06.34-.14.67-.22,1l.89-.46"/><path class="cls-7" d="M25.08,85.46a10.27,10.27,0,0,1,2.77-.75"/><path class="cls-1" d="M28.81,84.68a5.56,5.56,0,0,1,1,.11"/><path class="cls-8" d="M33.06,21.21a18.62,18.62,0,0,0-.53,6.64,6.8,6.8,0,0,0,1.15,3A2.13,2.13,0,0,0,35,31.6a3.44,3.44,0,0,0,1.53,0,10.38,10.38,0,0,0,5.39-3.29,17.21,17.21,0,0,0,3.74-5.19,10.15,10.15,0,0,0,.88-3,2,2,0,0,0,0-1.11c0-.09-.55-.24-1-.27A23.52,23.52,0,0,1,42,18.53a4,4,0,0,1-.9-.32,2.65,2.65,0,0,1-.79-.64A6.78,6.78,0,0,1,39.43,16c-.24-.51-.46-1-.72-1.49a2.22,2.22,0,0,0-1-1.06,1.76,1.76,0,0,0-1.42.25,3.62,3.62,0,0,0-1.12,1.15A19.46,19.46,0,0,0,33.06,21.21Zm0,0c.23-1.1.44-2.2.73-3.28A12.38,12.38,0,0,1,35,14.78a4.22,4.22,0,0,1,1.11-1.31A2.12,2.12,0,0,1,37.84,13a2.67,2.67,0,0,1,1.39,1.18c.33.49.59,1,.87,1.47A5.94,5.94,0,0,0,41,17a1.86,1.86,0,0,0,.54.37,3,3,0,0,0,.69.18c1,.15,2.07-.11,3.29-.07a6.34,6.34,0,0,1,.94.09,1.87,1.87,0,0,1,1.12.63A2.18,2.18,0,0,1,48,19.34a4.91,4.91,0,0,1-.05,1A12,12,0,0,1,47,23.74a16.65,16.65,0,0,1-4.23,5.51,11.19,11.19,0,0,1-6.17,3.09,4.05,4.05,0,0,1-1.79-.16,3.4,3.4,0,0,1-.83-.37,2.44,2.44,0,0,1-.66-.66,7.38,7.38,0,0,1-1-3.28A21.34,21.34,0,0,1,33.06,21.21Z"/><path class="cls-8" d="M47,1.63A10.39,10.39,0,0,0,45.2,4.09a3.82,3.82,0,0,0-.42,1.41c-.05.59.08.58.59.65a11.35,11.35,0,0,1,3.06.76,12,12,0,0,0,1.37.44,3.21,3.21,0,0,0,.59.12c.06,0,.06,0,0,0s-.1.09-.07,0A11.36,11.36,0,0,0,51.26,2,2.37,2.37,0,0,0,50.81.71,1.55,1.55,0,0,0,49.56.24,3.79,3.79,0,0,0,47,1.63Zm0,0A4.61,4.61,0,0,1,49.54,0a1.9,1.9,0,0,1,1.58.34A2.9,2.9,0,0,1,52,1.82a8.88,8.88,0,0,1-.35,6.4,1.39,1.39,0,0,1-.59.59,1.58,1.58,0,0,1-.75.13,5,5,0,0,1-.9-.21,12.42,12.42,0,0,1-1.48-.63,14,14,0,0,0-2.69-1.22,1.42,1.42,0,0,1-.85-.51.85.85,0,0,1-.12-.54c0-.15.05-.28.08-.41A4.49,4.49,0,0,1,45,4,17,17,0,0,1,47,1.63Z"/><path class="cls-8" d="M44.57,5.64a6.44,6.44,0,0,1,4.27.8,20.28,20.28,0,0,0-2.11-.52A19.32,19.32,0,0,0,44.57,5.64Z"/><path class="cls-8" d="M45.07,4.64a7,7,0,0,1,1.65,0A7.51,7.51,0,0,1,48.33,5c-.56,0-1.1-.07-1.64-.12S45.61,4.77,45.07,4.64Z"/><path class="cls-8" d="M45.69,3.62A3.15,3.15,0,0,1,47,3.57,3.07,3.07,0,0,1,48.26,4c-.44-.07-.85-.17-1.28-.23S46.14,3.7,45.69,3.62Z"/><path class="cls-8" d="M46.32,2.74a2.79,2.79,0,0,1,1.15.08,3,3,0,0,1,1,.49c-.39-.06-.74-.17-1.11-.25S46.68,2.88,46.32,2.74Z"/><path class="cls-8" d="M46.88,1.94a3.34,3.34,0,0,1,1.26-.05,3.38,3.38,0,0,1,1.19.38c-.42,0-.82-.09-1.23-.14S47.3,2,46.88,1.94Z"/><path class="cls-8" d="M47.57,1.24a2.86,2.86,0,0,1,1-.08,2.83,2.83,0,0,1,1,.28,9,9,0,0,1-1,0A7.48,7.48,0,0,1,47.57,1.24Z"/><path class="cls-8" d="M48.38.45a2.46,2.46,0,0,1,1-.11,2.31,2.31,0,0,1,1,.35c-.35,0-.68-.07-1-.1S48.73.52,48.38.45Z"/><path class="cls-8" d="M33.15,29.84a4.9,4.9,0,0,0,1.8,1A1.66,1.66,0,0,1,33.15,29.84Z"/><path class="cls-8" d="M32.61,28.57a3.61,3.61,0,0,0,2,1.1A1.72,1.72,0,0,1,32.61,28.57Z"/><path class="cls-8" d="M32.41,27.54c.42.18.8.4,1.2.58s.8.35,1.21.55a3.29,3.29,0,0,1-1.31-.33A3.35,3.35,0,0,1,32.41,27.54Z"/><path class="cls-8" d="M32.31,26.45c.48.16.91.37,1.36.55s.9.39,1.34.63a5,5,0,0,1-1.44-.4A5.11,5.11,0,0,1,32.31,26.45Z"/><path class="cls-8" d="M32.41,25.4a7.12,7.12,0,0,0,1.54.76A1.37,1.37,0,0,1,32.41,25.4Z"/><path class="cls-8" d="M32.54,24.48c.35.09.66.22,1,.31s.64.19,1,.32A2.11,2.11,0,0,1,33.45,25,2.19,2.19,0,0,1,32.54,24.48Z"/><path class="cls-8" d="M32.79,23.35a15.94,15.94,0,0,0,1.9.57A1.88,1.88,0,0,1,32.79,23.35Z"/><path class="cls-8" d="M33,22a3.86,3.86,0,0,1,1,.29,3.51,3.51,0,0,1,.92.52,4.42,4.42,0,0,1-1-.29A4.7,4.7,0,0,1,33,22Z"/><path class="cls-8" d="M33.31,20.75c.07.17.24.23.39.3l.5.19c.33.15.66.27,1,.46a2.83,2.83,0,0,1-1.08-.23,4.66,4.66,0,0,1-.5-.25C33.46,21.12,33.28,21,33.31,20.75Z"/><path class="cls-8" d="M33.56,19.57a4.4,4.4,0,0,0,1.32.74A1.06,1.06,0,0,1,33.56,19.57Z"/><path class="cls-8" d="M34,18.63c.32.08.6.21.89.31s.57.21.87.37A2.17,2.17,0,0,1,34,18.63Z"/><path class="cls-8" d="M34,17.37c.7.33,1.33.6,2.06.88A2.42,2.42,0,0,1,34,17.37Z"/><path class="cls-8" d="M34.26,16.42c.31,0,.57.15.85.21s.55.14.83.25a1.62,1.62,0,0,1-.9,0A1.67,1.67,0,0,1,34.26,16.42Z"/><path class="cls-8" d="M34.93,15.58a11.09,11.09,0,0,0,1.51.37A1.22,1.22,0,0,1,34.93,15.58Z"/><path class="cls-8" d="M35.52,14.41a5,5,0,0,0,1.49.68A1.21,1.21,0,0,1,35.52,14.41Z"/><path class="cls-8" d="M36.24,13.83a4.31,4.31,0,0,1,.69.2,3.82,3.82,0,0,1,.64.32,1.4,1.4,0,0,1-.73-.09A1.42,1.42,0,0,1,36.24,13.83Z"/><path class="cls-8" d="M67.53,56.29a21.52,21.52,0,0,1-2.66,6.15,7.39,7.39,0,0,1-2.48,2.36,2.22,2.22,0,0,1-.9.24,3.47,3.47,0,0,1-.91-.08A4.34,4.34,0,0,1,59,64.21a11.19,11.19,0,0,1-3.83-5.74,16.51,16.51,0,0,1-.93-6.89,11.52,11.52,0,0,1,.87-3.45,4.59,4.59,0,0,1,.43-.86,2.14,2.14,0,0,1,.94-.82,1.82,1.82,0,0,1,1.29,0,5.59,5.59,0,0,1,.86.38c1.08.57,1.89,1.33,2.82,1.69a2.61,2.61,0,0,0,.69.18,1.63,1.63,0,0,0,.65,0A5.65,5.65,0,0,0,64.16,48c.48-.28,1-.58,1.48-.84a2.67,2.67,0,0,1,1.79-.34,2.08,2.08,0,0,1,1.31,1.23,4.17,4.17,0,0,1,.31,1.7,12.37,12.37,0,0,1-.52,3.32C68.24,54.17,67.88,55.23,67.53,56.29Zm0,0a19.43,19.43,0,0,0,1.31-6.53,3.56,3.56,0,0,0-.4-1.55,1.7,1.7,0,0,0-1.11-.92,2.12,2.12,0,0,0-1.4.42c-.46.27-.9.61-1.36.93a6.52,6.52,0,0,1-1.56.88,2.69,2.69,0,0,1-1,.17,4.11,4.11,0,0,1-.94-.17A23.11,23.11,0,0,1,58,48c-.44-.22-1-.37-1-.28a1.94,1.94,0,0,0-.56,1,10.29,10.29,0,0,0-.72,3,17.21,17.21,0,0,0,.67,6.35,10.35,10.35,0,0,0,3,5.53,3.42,3.42,0,0,0,1.33.76,2.1,2.1,0,0,0,1.48,0,6.88,6.88,0,0,0,2.49-2.05A18.74,18.74,0,0,0,67.53,56.29Z"/><path class="cls-8" d="M65.16,32.39a18,18,0,0,1,.53,3A4.73,4.73,0,0,1,65.57,37a3.71,3.71,0,0,1-.14.39.85.85,0,0,1-.37.41,1.41,1.41,0,0,1-1,0,14,14,0,0,0-2.94-.27,11.41,11.41,0,0,1-1.6-.19,4.06,4.06,0,0,1-.88-.27,1.39,1.39,0,0,1-.59-.48,1.32,1.32,0,0,1-.22-.8,8.9,8.9,0,0,1,2.87-5.74,2.92,2.92,0,0,1,1.46-.81,2,2,0,0,1,1.55.48A4.62,4.62,0,0,1,65.16,32.39Zm0,0A3.81,3.81,0,0,0,63.6,29.9a1.55,1.55,0,0,0-1.32-.21,2.38,2.38,0,0,0-1,.88,11.35,11.35,0,0,0-1.92,5.27c0,.06,0,0-.05-.07s0,0,0,0a2.87,2.87,0,0,0,.57.19c.44.12.91.22,1.41.31a11.27,11.27,0,0,1,3,.85c.48.2.59.26.84-.28a3.94,3.94,0,0,0,.33-1.42A10.64,10.64,0,0,0,65.16,32.39Z"/><path class="cls-8" d="M58.63,35.42a6.31,6.31,0,0,1,2.21-.08,6.2,6.2,0,0,1,2.1.66,20.21,20.21,0,0,0-2.14-.42A19.26,19.26,0,0,0,58.63,35.42Z"/><path class="cls-8" d="M59.08,34.4a7,7,0,0,1,1.65-.09,7.53,7.53,0,0,1,1.62.28c-.55,0-1.09,0-1.64,0S59.63,34.49,59.08,34.4Z"/><path class="cls-8" d="M59.65,33.34A3.27,3.27,0,0,1,61,33.22a3.22,3.22,0,0,1,1.27.41c-.45-.05-.87-.13-1.29-.16S60.09,33.4,59.65,33.34Z"/><path class="cls-8" d="M60.23,32.43a2.79,2.79,0,0,1,1.15,0,3,3,0,0,1,1.06.43c-.39,0-.74-.13-1.11-.19S60.6,32.55,60.23,32.43Z"/><path class="cls-8" d="M60.48,31.6a3.5,3.5,0,0,1,1.25-.12,3.68,3.68,0,0,1,1.21.32c-.42,0-.83-.05-1.23-.07S60.9,31.67,60.48,31.6Z"/><path class="cls-8" d="M61.05,30.75a3.07,3.07,0,0,1,1-.14,2.87,2.87,0,0,1,1,.24,7.23,7.23,0,0,1-1,0A7.36,7.36,0,0,1,61.05,30.75Z"/><path class="cls-8" d="M61.71,29.94a2.36,2.36,0,0,1,2,.14c-.36,0-.68,0-1,0S62.06,30,61.71,29.94Z"/><path class="cls-8" d="M59.8,64a4.86,4.86,0,0,0,2,.24A1.65,1.65,0,0,1,59.8,64Z"/><path class="cls-8" d="M58.81,63.07a3.61,3.61,0,0,0,2.29.24A1.73,1.73,0,0,1,58.81,63.07Z"/><path class="cls-8" d="M58.23,62.19c.46,0,.89.07,1.33.08s.87,0,1.33,0a3.42,3.42,0,0,1-2.66-.12Z"/><path class="cls-8" d="M57.29,61.28c.5,0,1,0,1.47,0s1,0,1.47.06a5.16,5.16,0,0,1-1.47.19A5.33,5.33,0,0,1,57.29,61.28Z"/><path class="cls-8" d="M57.05,60.11a8.15,8.15,0,0,0,1.71.11A1.4,1.4,0,0,1,57.05,60.11Z"/><path class="cls-8" d="M56.53,59.17c.36-.05.69,0,1-.08s.67-.08,1-.09a2.29,2.29,0,0,1-1,.34A2.22,2.22,0,0,1,56.53,59.17Z"/><path class="cls-8" d="M56.26,58.05a16.41,16.41,0,0,0,2-.21A1.9,1.9,0,0,1,56.26,58.05Z"/><path class="cls-8" d="M56.05,56.86a4.65,4.65,0,0,1,2.1,0,4.31,4.31,0,0,1-2.1,0Z"/><path class="cls-8" d="M55.8,55.58a.61.61,0,0,0,.48.13h.54c.36,0,.71,0,1.09,0a3,3,0,0,1-1.09.22,5.11,5.11,0,0,1-.55-.05C56.09,55.87,55.85,55.78,55.8,55.58Z"/><path class="cls-8" d="M55.74,54.4a4.54,4.54,0,0,0,1.51.18A1.08,1.08,0,0,1,55.74,54.4Z"/><path class="cls-8" d="M55.59,53.42c.32-.05.63,0,.94-.06s.61,0,.94,0a2.16,2.16,0,0,1-1.88.05Z"/><path class="cls-8" d="M55.74,52.21c.77,0,1.46,0,2.24,0A2.4,2.4,0,0,1,55.74,52.21Z"/><path class="cls-8" d="M55.66,51.23c.3-.08.58-.09.86-.14s.56-.08.87-.09a1.73,1.73,0,0,1-.83.34A1.85,1.85,0,0,1,55.66,51.23Z"/><path class="cls-8" d="M56,50.19A11.47,11.47,0,0,0,57.49,50,1.23,1.23,0,0,1,56,50.19Z"/><path class="cls-8" d="M56.05,48.88a5,5,0,0,0,1.63.06A1.2,1.2,0,0,1,56.05,48.88Z"/><path class="cls-8" d="M56.49,48.07a3.69,3.69,0,0,1,.72-.08,4.35,4.35,0,0,1,.71,0,1.37,1.37,0,0,1-.71.21A1.44,1.44,0,0,1,56.49,48.07Z"/><path class="cls-8" d="M69.19,56a15.77,15.77,0,0,1-4.29,8.62A23.52,23.52,0,0,0,69.19,56Z"/><path class="cls-8" d="M34.79,12.46A8.08,8.08,0,0,0,33,15.55,28.21,28.21,0,0,0,31.89,19c-.31,1.17-.55,2.36-.76,3.55s-.4,2.4-.53,3.6a35.24,35.24,0,0,1,1-7.21,24.67,24.67,0,0,1,1.13-3.47A7.3,7.3,0,0,1,34.79,12.46Z"/><path class="cls-8" d="M8.53,56c-.75,2-1.54,3.89-2.26,5.86-.38,1-.73,2-1.07,3s-.67,2-.94,3a37.21,37.21,0,0,1,1.77-6C6.79,59.79,7.59,57.85,8.53,56Z"/><path class="cls-8" d="M55.92,93.3c-.47,1.12-1,2.22-1.58,3.3a30.53,30.53,0,0,1-1.89,3.15,12,12,0,0,1-2.64,2.55c-1,.74-2,1.46-3,2.16.93-.79,1.87-1.57,2.83-2.33a14.06,14.06,0,0,0,2.59-2.52c.7-1,1.31-2,1.92-3.09S55.4,94.4,55.92,93.3Z"/><path class="cls-8" d="M0,82.36A8.24,8.24,0,0,0,.49,85a4.12,4.12,0,0,0,1.65,2.06,4.84,4.84,0,0,0,4.95-.36,9,9,0,0,0,3.06-4.08c.35-.8.67-1.63.95-2.48s.62-1.72.86-2.52a1.19,1.19,0,0,0,0-.81,1.87,1.87,0,0,0-.7-.67c-.73-.52-1.45-1-2.21-1.48a15,15,0,0,0-2.32-1.19,4.1,4.1,0,0,0-2.41-.31,2,2,0,0,0-1,.58c-.3.32-.59.66-.86,1a12.83,12.83,0,0,0-1.38,2.31A12.61,12.61,0,0,0,0,82.36Zm0,0A15.11,15.11,0,0,1,.91,77,13.86,13.86,0,0,1,2.1,74.51a11.16,11.16,0,0,1,.79-1.15,2.66,2.66,0,0,1,1.23-.9,4.94,4.94,0,0,1,3,0,13.84,13.84,0,0,1,2.64,1c.83.43,1.63.91,2.4,1.41a3.39,3.39,0,0,1,1.21,1.23A2.6,2.6,0,0,1,13.4,78a38.8,38.8,0,0,1-2.09,5.17,9.75,9.75,0,0,1-3.85,4.15A5.33,5.33,0,0,1,2,87.25,4.35,4.35,0,0,1,.44,85,8.14,8.14,0,0,1,0,82.36Z"/><path class="cls-8" d="M10.4,72.27a11.11,11.11,0,0,0,2.33.81,4.66,4.66,0,0,0,2.43-.15,14.16,14.16,0,0,0,4.05-2.77c1.25-1.08,2.51-2.15,3.73-3.25a12.16,12.16,0,0,0,3-3.76,26.11,26.11,0,0,0,1.6-4.58,46.56,46.56,0,0,0,1-4.78A46.88,46.88,0,0,0,29,49c0-.79-.1-1.17-.62-1.53a6,6,0,0,0-2.05-.74,9.24,9.24,0,0,0-2.25-.34,3.55,3.55,0,0,0-2,.59c-1.28.85-2.66,1.89-4,2.83l-4,2.84A10.33,10.33,0,0,0,10.81,56,96.53,96.53,0,0,0,7,65.13c-.29.77-.6,1.53-.93,2.29a2.34,2.34,0,0,0,.12,2.32,5.28,5.28,0,0,0,1.93,1.5C8.89,71.62,9.65,71.92,10.4,72.27Zm0,0c-.75-.34-1.52-.64-2.26-1a5.19,5.19,0,0,1-1.95-1.49A2.45,2.45,0,0,1,6,67.37c.3-.76.58-1.54.85-2.32,1.08-3.12,1.9-6.3,3.3-9.37a11.05,11.05,0,0,1,3.28-3.89c1.3-1,2.59-2.06,3.9-3.07l2-1.51c.67-.5,1.27-1,2-1.51a5.06,5.06,0,0,1,2.7-.84,11,11,0,0,1,2.63.36,7.67,7.67,0,0,1,2.55,1,3,3,0,0,1,1,1.29A3.77,3.77,0,0,1,30.42,49a41.24,41.24,0,0,1-.64,5,42.3,42.3,0,0,1-1.27,4.86,26.71,26.71,0,0,1-1.92,4.64,12.89,12.89,0,0,1-3.34,3.77c-1.29,1-2.62,2-3.91,3A14.46,14.46,0,0,1,15.18,73a4.54,4.54,0,0,1-2.45.12A10.79,10.79,0,0,1,10.4,72.27Z"/><path class="cls-8" d="M3.81,73.4A13.26,13.26,0,0,0,6.42,75,3.56,3.56,0,0,1,3.81,73.4Z"/><path class="cls-8" d="M2.84,74.28a13.34,13.34,0,0,0,2.58,1.45A3.45,3.45,0,0,1,2.84,74.28Z"/><path class="cls-8" d="M2.08,75.46A8.93,8.93,0,0,0,3.92,76.8,2.16,2.16,0,0,1,2.08,75.46Z"/><path class="cls-8" d="M1.1,76.86c.35.17.65.37,1,.52s.66.32,1,.51A2.53,2.53,0,0,1,2,77.61,2.51,2.51,0,0,1,1.1,76.86Z"/><path class="cls-8" d="M.66,78.13a8.18,8.18,0,0,0,1.43.77A1.29,1.29,0,0,1,.66,78.13Z"/><path class="cls-8" d="M.48,79.32c.58.36,1.09.65,1.69,1A1.93,1.93,0,0,1,.48,79.32Z"/><path class="cls-8" d="M0,80.52a6,6,0,0,0,2.57,1.29A2.63,2.63,0,0,1,0,80.52Z"/><path class="cls-8" d="M0,82.12c.37.14.7.33,1.05.48s.68.32,1,.51A2.82,2.82,0,0,1,1,82.83,3,3,0,0,1,0,82.12Z"/><path class="cls-8" d="M.34,83.54c0,.21.2.3.35.39l.55.22c.36.16.73.28,1.1.45a2.94,2.94,0,0,1-1.2-.22,4,4,0,0,1-.54-.29C.43,84,.24,83.75.34,83.54Z"/><path class="cls-8" d="M.79,85.1a5,5,0,0,0,1.88,1.22A1.86,1.86,0,0,1,.79,85.1Z"/><path class="cls-8" d="M5.92,68.54A5.12,5.12,0,0,0,7.75,70,2,2,0,0,1,5.92,68.54Z"/><path class="cls-8" d="M6.27,67.69c.36.21.67.44,1,.63s.69.37,1,.59a2.69,2.69,0,0,1-1.17-.38A2.65,2.65,0,0,1,6.27,67.69Z"/><path class="cls-8" d="M6.67,66.45a8,8,0,0,0,1.91,1.13A2,2,0,0,1,6.67,66.45Z"/><path class="cls-8" d="M7,65a2.66,2.66,0,0,0,1.35,1.17A1.19,1.19,0,0,1,7,65Z"/><path class="cls-8" d="M7.49,64.22c.48.27.86.46,1.35.7A1.23,1.23,0,0,1,7.49,64.22Z"/><path class="cls-8" d="M7.91,63.05a10.54,10.54,0,0,0,1.26.83A1.16,1.16,0,0,1,7.91,63.05Z"/><path class="cls-8" d="M8.32,61.88a5.11,5.11,0,0,0,1.52,1A1.44,1.44,0,0,1,8.32,61.88Z"/><path class="cls-8" d="M8.61,60.6c.67.44,1.28.81,2,1.21A2.6,2.6,0,0,1,8.61,60.6Z"/><path class="cls-8" d="M9.08,59.38a14.29,14.29,0,0,0,2.43,1.32A3.19,3.19,0,0,1,9.08,59.38Z"/><path class="cls-8" d="M9.64,58.16a10.77,10.77,0,0,0,2.95,1.39A3.71,3.71,0,0,1,9.64,58.16Z"/><path class="cls-8" d="M10.16,57.06a9.17,9.17,0,0,0,2.26.89A2.4,2.4,0,0,1,10.16,57.06Z"/><path class="cls-8" d="M10.72,55.74c.42.25.8.52,1.22.75s.82.45,1.24.7a3.58,3.58,0,0,1-1.37-.49A3.72,3.72,0,0,1,10.72,55.74Z"/><path class="cls-8" d="M11.66,54.8a5.39,5.39,0,0,0,1.68,1A1.58,1.58,0,0,1,11.66,54.8Z"/><path class="cls-8" d="M12.32,53.72a6.82,6.82,0,0,0,2.27,1.21A2.4,2.4,0,0,1,12.32,53.72Z"/><path class="cls-8" d="M13.43,53.19a5.19,5.19,0,0,1,1.1.49,5.14,5.14,0,0,1,1,.71,5.22,5.22,0,0,1-1.1-.5A6.43,6.43,0,0,1,13.43,53.19Z"/><path class="cls-8" d="M14.8,52.14a3.51,3.51,0,0,0,2.12,1.47A1.94,1.94,0,0,1,14.8,52.14Z"/><path class="cls-8" d="M15.76,51.29a3.27,3.27,0,0,0,1.91,1.27A1.67,1.67,0,0,1,15.76,51.29Z"/><path class="cls-8" d="M16.51,50.53a9.06,9.06,0,0,1,1.12.57,8.61,8.61,0,0,1,1,.7,4.46,4.46,0,0,1-1.17-.49A4.6,4.6,0,0,1,16.51,50.53Z"/><path class="cls-8" d="M18.09,49.54A3,3,0,0,0,19.84,51,1.61,1.61,0,0,1,18.09,49.54Z"/><path class="cls-8" d="M19,48.88a5.94,5.94,0,0,0,2.43,1.06A2.38,2.38,0,0,1,19,48.88Z"/><path class="cls-8" d="M20.37,48.16a5.9,5.9,0,0,0,2.3,1.1A2.28,2.28,0,0,1,20.37,48.16Z"/><path class="cls-8" d="M21.58,47a2,2,0,0,0,.9.85c.36.2.79.29,1.2.47a2.75,2.75,0,0,1-1.32-.25,1.73,1.73,0,0,1-.53-.44A1.08,1.08,0,0,1,21.58,47Z"/><path class="cls-8" d="M23.09,46.37c0,.28.24.44.45.57l.73.35c.48.24,1,.44,1.48.69a5.19,5.19,0,0,1-1.59-.46,5.86,5.86,0,0,1-.72-.42C23.22,46.94,23,46.65,23.09,46.37Z"/><path class="cls-8" d="M10.77,71.28a7.53,7.53,0,0,0,3.1.44,4,4,0,0,0,1.47-.45,3.4,3.4,0,0,0,1.17-1,2.79,2.79,0,0,1-1.07,1.19A3.89,3.89,0,0,1,13.9,72,5.64,5.64,0,0,1,10.77,71.28Z"/><path class="cls-8" d="M23.29,115.83a8,8,0,0,1-2.72,0,4.41,4.41,0,0,1-2.43-1.22,5.38,5.38,0,0,1-1-5.35,9.75,9.75,0,0,1,3.5-4.45,38.42,38.42,0,0,1,4.78-2.89,2.6,2.6,0,0,1,1.83-.21,3.29,3.29,0,0,1,1.41,1,26.46,26.46,0,0,1,1.77,2.14,13.54,13.54,0,0,1,1.45,2.44,4.92,4.92,0,0,1,.51,2.9,2.75,2.75,0,0,1-.69,1.37c-.33.34-.66.66-1,1a15,15,0,0,1-7.43,3.3Zm0,0a12.64,12.64,0,0,0,5-1.92,12.27,12.27,0,0,0,2.06-1.73,11.88,11.88,0,0,0,.87-1,2.1,2.1,0,0,0,.42-1.08,4.12,4.12,0,0,0-.69-2.32,15.58,15.58,0,0,0-1.54-2.11c-.57-.67-1.19-1.31-1.81-2a2,2,0,0,0-.78-.59,1.25,1.25,0,0,0-.8.17c-.74.36-1.56.83-2.34,1.24a26.16,26.16,0,0,0-2.31,1.33,9,9,0,0,0-3.54,3.66,4.83,4.83,0,0,0,.43,5,4.07,4.07,0,0,0,2.29,1.3A7.89,7.89,0,0,0,23.29,115.83Z"/><path class="cls-8" d="M32.22,103.47A11.71,11.71,0,0,1,31,101.3a4.62,4.62,0,0,1-.26-2.44,14.46,14.46,0,0,1,2-4.52c.81-1.44,1.57-2.91,2.4-4.34a12.59,12.59,0,0,1,3.19-3.9,27.32,27.32,0,0,1,4.28-2.63,42.59,42.59,0,0,1,4.59-2A41.81,41.81,0,0,1,52,80,3.77,3.77,0,0,1,53.55,80a2.82,2.82,0,0,1,1.43.81,7.72,7.72,0,0,1,1.39,2.37,10.77,10.77,0,0,1,.77,2.54,5,5,0,0,1-.41,2.8c-.36.83-.77,1.51-1.16,2.24l-1.18,2.18c-.8,1.45-1.59,2.89-2.42,4.34a11.16,11.16,0,0,1-3.32,3.85c-2.81,1.87-5.83,3.18-8.74,4.74-.73.39-1.45.79-2.16,1.21a2.46,2.46,0,0,1-2.39.19,5.2,5.2,0,0,1-1.79-1.7C33.09,104.87,32.67,104.16,32.22,103.47Zm0,0c.46.68.89,1.39,1.38,2a5.08,5.08,0,0,0,1.78,1.67,2.34,2.34,0,0,0,2.31-.25c.69-.44,1.4-.87,2.12-1.28,2.82-1.69,5.8-3.23,8.39-5.16a10.12,10.12,0,0,0,2.86-3.75l2.18-4.44c.71-1.45,1.52-3,2.16-4.38a3.51,3.51,0,0,0,.28-2,9.33,9.33,0,0,0-.7-2.18,6.15,6.15,0,0,0-1-1.91,1.47,1.47,0,0,0-1.61-.36,43.27,43.27,0,0,0-4.7,1.22,44.2,44.2,0,0,0-4.57,1.73,25.73,25.73,0,0,0-4.27,2.3,12.25,12.25,0,0,0-3.25,3.54c-.89,1.38-1.75,2.79-2.61,4.2a14.09,14.09,0,0,0-2.1,4.43,4.65,4.65,0,0,0,.24,2.42A10.6,10.6,0,0,0,32.22,103.47Z"/><path class="cls-8" d="M26.84,103.36a11.89,11.89,0,0,0,1.18,2.8A3.51,3.51,0,0,1,26.84,103.36Z"/><path class="cls-8" d="M25.53,103.5a12.77,12.77,0,0,0,1.22,2.69A3.43,3.43,0,0,1,25.53,103.5Z"/><path class="cls-8" d="M24.22,104a8.71,8.71,0,0,0,.69,2.17A2.15,2.15,0,0,1,24.22,104Z"/><path class="cls-8" d="M22.6,104.55c.18.34.31.68.49,1s.34.65.5,1a2.53,2.53,0,0,1-1-2Z"/><path class="cls-8" d="M21.5,105.31a8.48,8.48,0,0,0,.69,1.46A1.27,1.27,0,0,1,21.5,105.31Z"/><path class="cls-8" d="M20.64,106.16c.26.63.5,1.17.79,1.79A1.93,1.93,0,0,1,20.64,106.16Z"/><path class="cls-8" d="M19.56,106.86a6.07,6.07,0,0,0,1.31,2.56A2.66,2.66,0,0,1,19.56,106.86Z"/><path class="cls-8" d="M18.61,108.14c.21.34.36.68.56,1s.37.66.53,1a2.72,2.72,0,0,1-.75-.9A2.85,2.85,0,0,1,18.61,108.14Z"/><path class="cls-8" d="M18,109.48c-.13.17,0,.36.05.52s.2.34.31.5c.19.34.42.66.62,1a2.82,2.82,0,0,1-.83-.89,3.22,3.22,0,0,1-.27-.56C17.85,109.89,17.83,109.59,18,109.48Z"/><path class="cls-8" d="M17.47,111a5.13,5.13,0,0,0,.8,2.1A1.88,1.88,0,0,1,17.47,111Z"/><path class="cls-8" d="M30.69,98.15A5.08,5.08,0,0,0,32.14,100,2,2,0,0,1,30.69,98.15Z"/><path class="cls-8" d="M31.24,97.42c.3.28.55.58.84.85s.58.53.87.82a2.69,2.69,0,0,1-1-.65A2.56,2.56,0,0,1,31.24,97.42Z"/><path class="cls-8" d="M31.93,96.31a7.74,7.74,0,0,0,1.58,1.55A2,2,0,0,1,31.93,96.31Z"/><path class="cls-8" d="M32.59,94.93a2.71,2.71,0,0,0,1,1.47A1.21,1.21,0,0,1,32.59,94.93Z"/><path class="cls-8" d="M33.26,94.34c.4.37.72.65,1.15,1A1.24,1.24,0,0,1,33.26,94.34Z"/><path class="cls-8" d="M33.94,93.3a9,9,0,0,0,1,1.11A1.18,1.18,0,0,1,33.94,93.3Z"/><path class="cls-8" d="M34.63,92.26a4.93,4.93,0,0,0,1.22,1.39A1.44,1.44,0,0,1,34.63,92.26Z"/><path class="cls-8" d="M35.21,91.09c.54.59,1,1.1,1.63,1.65A2.62,2.62,0,0,1,35.21,91.09Z"/><path class="cls-8" d="M36,90a15,15,0,0,0,2,1.87A3.2,3.2,0,0,1,36,90Z"/><path class="cls-8" d="M36.8,89A10.48,10.48,0,0,0,39.33,91,3.71,3.71,0,0,1,36.8,89Z"/><path class="cls-8" d="M37.56,88a9,9,0,0,0,2,1.41A2.41,2.41,0,0,1,37.56,88Z"/><path class="cls-8" d="M38.43,86.88c.35.34.65.7,1,1s.69.63,1,1a3.75,3.75,0,0,1-1.21-.8A3.82,3.82,0,0,1,38.43,86.88Z"/><path class="cls-8" d="M39.56,86.19A5.65,5.65,0,0,0,41,87.56,1.58,1.58,0,0,1,39.56,86.19Z"/><path class="cls-8" d="M40.46,85.3A6.71,6.71,0,0,0,42.38,87,2.4,2.4,0,0,1,40.46,85.3Z"/><path class="cls-8" d="M41.67,85.05a5.27,5.27,0,0,1,.95.74,6.26,6.26,0,0,1,.77.92,5.27,5.27,0,0,1-1-.74A6.26,6.26,0,0,1,41.67,85.05Z"/><path class="cls-8" d="M43.25,84.36A3.54,3.54,0,0,0,45,86.3,2,2,0,0,1,43.25,84.36Z"/><path class="cls-8" d="M44.38,83.76a3.26,3.26,0,0,0,1.56,1.69A1.66,1.66,0,0,1,44.38,83.76Z"/><path class="cls-8" d="M45.3,83.2A10.65,10.65,0,0,1,47.09,85,4.46,4.46,0,0,1,45.3,83.2Z"/><path class="cls-8" d="M47.06,82.62a3.12,3.12,0,0,0,1.36,1.82A1.62,1.62,0,0,1,47.06,82.62Z"/><path class="cls-8" d="M48.1,82.2a6.09,6.09,0,0,0,2.11,1.62A2.43,2.43,0,0,1,48.1,82.2Z"/><path class="cls-8" d="M49.61,81.84a6.06,6.06,0,0,0,2,1.61A2.29,2.29,0,0,1,49.61,81.84Z"/><path class="cls-8" d="M51.06,81a1.88,1.88,0,0,0,.66,1c.31.28.7.47,1.06.74a2.7,2.7,0,0,1-1.22-.55,1.72,1.72,0,0,1-.42-.55A1.08,1.08,0,0,1,51.06,81Z"/><path class="cls-8" d="M52.68,80.74c-.08.28.13.49.31.67a8,8,0,0,0,.62.51c.41.35.84.67,1.27,1a5.35,5.35,0,0,1-1.43-.83,5.48,5.48,0,0,1-.6-.58C52.67,81.33,52.5,81,52.68,80.74Z"/><path class="cls-8" d="M21.38,114.46a17.21,17.21,0,0,0,5.49-1.11A8.44,8.44,0,0,1,21.38,114.46Z"/><path class="cls-8" d="M53.79,84.21a3.39,3.39,0,0,1,.46,1.7A6.25,6.25,0,0,1,54,87.68c-.33,1.14-.82,2.2-1.13,3.33a21.78,21.78,0,0,1,.89-3.4,7.47,7.47,0,0,0,.29-1.7A4.16,4.16,0,0,0,53.79,84.21Z"/></g></g></svg>