<?xml version="1.0" encoding="UTF-8"?>
<svg id="_Слой_2" data-name="Слой 2" xmlns="http://www.w3.org/2000/svg" viewBox="0 0 393.89 180.52">
  <defs>
    <style>
      .cls-1 {
        fill: #010101;
      }
    </style>
  </defs>
  <g id="Layer_1" data-name="Layer 1">
    <g>
      <g>
        <path class="cls-1" d="M14.92,84.82c-3.59,0-6.45-.37-8.57-1.1-4.02-1.57-6.13-4.04-6.35-7.4,0-1.68,.42-3.41,1.27-5.19,1.69-3.25,4.74-6.16,9.12-8.73,4.39-2.57,9.28-4.27,14.68-5.11,1.48-.21,2.27-.37,2.38-.47l3.97-5.19C47.71,30.75,60.45,15.96,69.66,7.25c2.75-2.73,4.34-4.04,4.76-3.93,.74,0,1.11,.37,1.11,1.1,0,.11-.53,.79-1.59,2.05l-10.31,11.17-.63,.47,.63-.16,6.82-3.15c8.57-4.72,13.27-8.71,14.12-11.96,.1-.42,0-.79-.32-1.1-.21-.31-.95-.47-2.22-.47-3.07-.21-7.04,.84-11.9,3.15-3.6,1.57-6.35,3.3-8.25,5.19l-1.43,1.1c-.21-.31,.24-1.02,1.35-2.12s2.51-2.18,4.21-3.23c4.12-2.52,8.25-4.19,12.38-5.04,2.43-.52,4.28-.42,5.55,.31,1.16,.53,1.75,1.31,1.75,2.36-.21,3.25-4.34,7.13-12.38,11.64-2.65,1.47-5.93,3.1-9.84,4.88l-1.43,.47,.79,.16c6.45,1.26,10.37,4.15,11.74,8.65,.32,.94,.42,2.47,.32,4.56,0,2.1-.26,3.93-.79,5.51-.42,1.36-1.01,3.04-1.75,5.04-1.59,3.67-3.55,7.24-5.87,10.7l-1.43,2.2c.21,.11,.82,.13,1.82,.08,1-.05,2.3-.21,3.89-.47,1.59-.26,2.86-.5,3.81-.71,3.07-.73,5.71-1.99,7.93-3.78,.42-.31,.79-.47,1.11-.47,.53,0,.58,.21,.16,.63-2.86,2.1-5.13,3.41-6.82,3.93-3.49,1.05-7.14,1.73-10.95,2.04-1.38,.11-2.28,.47-2.7,1.1-.11,.11-.26,.31-.48,.63-10.05,12.59-22.64,20.51-37.76,23.76-3.91,.84-7.3,1.26-10.15,1.26Zm-9.2-2.36c4.76,1.99,11.32,1.94,19.67-.16,11.21-2.83,21.16-8.39,29.83-16.68,4.44-4.41,6.56-6.77,6.35-7.08l-3.01,.16c-2.75,0-5.55-.1-8.41-.31-12.69-.94-19.46-1.1-20.31-.47-.11,.11-.61,.74-1.51,1.89-.9,1.16-1.98,2.57-3.25,4.25-1.27,1.68-2.33,3.1-3.17,4.25-4.02,5.46-6.51,8.92-7.46,10.39-.42,.94-.9,1.16-1.43,.63-.63-.84,.95-4.04,4.76-9.6l5.71-7.71,2.54-3.62-2.06,.31c-3.81,.74-7.48,2.04-11.03,3.93-3.54,1.89-6.32,3.99-8.33,6.29-3.81,4.51-4.6,8.18-2.38,11.01,.74,1.16,1.9,1.99,3.49,2.52Zm54.9-25.18c1.16-.1,1.9-.26,2.22-.47,.32-.21,1-1.1,2.06-2.67,6.77-10.28,9.73-18.41,8.89-24.39-.74-4.51-4.02-7.29-9.84-8.34-.85-.42-1.67-.52-2.46-.31-.79,.21-1.32,.45-1.59,.71-.26,.26-1.09,1.18-2.46,2.75l-12.06,14.32c-9.63,11.75-14.44,17.68-14.44,17.78l3.01-.16c3.59,0,6.93,.11,10,.31,8.46,.42,14.02,.58,16.66,.47Z"/>
        <path class="cls-1" d="M82.35,65.15c0-1.47,1.16-3.78,3.49-6.92l1.11-1.57-.16,.16c-.11,0-.29,.08-.56,.24-.26,.16-.5,.29-.71,.39-3.17,1.68-5.13,2.52-5.87,2.52-.42,0-.74-.1-.95-.31-.74-1.05-.05-2.88,2.06-5.51,2.22-3.04,3.97-4.82,5.24-5.35l.48-.16c.42,0,.74,.31,.95,.94,.21,.31-.53,1.26-2.22,2.83-.85,.74-1.72,1.6-2.62,2.6-.9,1-1.61,1.84-2.14,2.52-.53,.68-.74,1.08-.63,1.18,0,.11,.45-.02,1.35-.39,.9-.37,1.96-.87,3.17-1.5,1.21-.63,2.25-1.2,3.09-1.73,.95-.63,2.17-1.57,3.65-2.83,1.69-1.57,2.7-2.2,3.01-1.89,.32,.42,.37,.84,.16,1.26-.21,.42-1.17,1.42-2.86,2.99-4.55,4.51-7.19,7.71-7.93,9.6-.95,2.41,.79,2.67,5.24,.79,5.61-2.41,12.69-6.77,21.26-13.06,.42-.21,.79-.16,1.11,.16-3.07,2.52-6.82,5.09-11.27,7.71-5.39,3.46-9.47,5.66-12.22,6.61-3.49,1.36-5.24,.94-5.24-1.26Z"/>
        <path class="cls-1" d="M114.87,62.32c-2.22-.73-2.59-3.46-1.11-8.18l.32-1.26c-.21-.21-.9,.16-2.06,1.1-.85,.63-1.96,1.6-3.33,2.91-1.38,1.31-2.17,2.18-2.38,2.6-.32,.53-.48,.89-.48,1.1,0,.42-.21,.42-.63,0-.85-.84,.37-3.46,3.65-7.87,1.48-1.99,2.96-3.62,4.44-4.88,.85-.73,1.48-.84,1.9-.31,.32,.42-.21,1.36-1.59,2.83-1.38,1.26-2.43,2.47-3.17,3.62,.21-.1,.42-.26,.63-.47,4.12-3.46,8.25-5.93,12.38-7.4,1.16-.42,2.06-.47,2.7-.16s.9,.89,.79,1.73c-.11,.63-.71,1.76-1.82,3.38-1.11,1.63-2.04,2.75-2.78,3.38-.74,.74-1.27,.94-1.59,.63-.11-.1,.05-.31,.48-.63,.53-.42,1.59-1.73,3.17-3.93,1.06-1.89,1.59-3.04,1.59-3.46,0-.94-2.12-.32-6.35,1.89-.11,.11-.26,.21-.48,.31-2.65,1.47-4.18,2.42-4.6,2.83,0,.21,.05,.37,.16,.47,.32,.31,.21,1.21-.32,2.67-.21,.84-.32,1.89-.32,3.15-.11,2.2,.58,3.3,2.06,3.3,2.11,0,5.34-1.47,9.68-4.41,.85-.52,2.43-1.73,4.76-3.62l2.22-1.57,.48-.32c.21-.1,.37-.1,.48,0v.63l-1.27,.94c-5.18,3.99-9.04,6.61-11.58,7.87-2.54,1.26-4.55,1.63-6.03,1.1Z"/>
        <path class="cls-1" d="M152.16,62.64c1.69,.31,6.82-2.83,15.39-9.44,1.16-.94,2.01-1.52,2.54-1.73,.21-.1,.37-.08,.48,.08,.1,.16,.1,.29,0,.39-.21,.21-1.11,.94-2.7,2.2-.85,.63-1.88,1.39-3.09,2.28-1.22,.89-2.17,1.6-2.86,2.12-.69,.53-1.48,1.1-2.38,1.73-.9,.63-1.61,1.1-2.14,1.42-.53,.31-1.14,.66-1.83,1.02-.69,.37-1.24,.58-1.67,.63-.42,.05-.9,.11-1.43,.16-.53,.05-.98-.02-1.35-.24-.37-.21-.77-.52-1.19-.94-1.06-1.05-1.38-2.83-.95-5.35,.1-.31,.26-.79,.48-1.42,.21-.63,.34-1.07,.4-1.34,.05-.26,.02-.5-.08-.71-.85,.63-1.69,1.31-2.54,2.04-3.28,2.73-4.92,4.56-4.92,5.51,0,.21-.11,.31-.32,.31-.63,0-.85-.26-.63-.79,.21-.63,1.59-2.88,4.12-6.77,2.33-3.56,3.59-5.72,3.81-6.45,.1-.52,.05-.84-.16-.94-.21-.1-.69-.05-1.43,.16-4.02,.84-8.78,3.52-14.28,8.03-.53,.42-1.3,1.13-2.3,2.12-1.01,1-1.9,1.89-2.7,2.67-.79,.79-1.19,1.23-1.19,1.34l-.16,.32c-.1,.11-.29,.08-.56-.08-.26-.16-.4-.29-.4-.39,0-.63,1.75-2.99,5.24-7.08,1.27-1.47,2.33-2.62,3.17-3.46,1.06-1.05,1.8-1.47,2.22-1.26,.1,.11,.16,.26,.16,.47,0,.53-.69,1.47-2.06,2.83l-.32,.31c.21-.1,.74-.47,1.59-1.1,4.65-3.78,8.67-5.66,12.06-5.66,.95,0,1.69,.18,2.22,.55,.53,.37,.74,.92,.63,1.65-.11,.84-.9,2.26-2.38,4.25-.53,.63-1.01,1.26-1.43,1.89l-.16,.16c.21-.1,.37-.21,.48-.31,1.06-.73,1.8-1.1,2.22-1.1,.32,0,.56,.05,.71,.16,.16,.11,.24,.26,.24,.47v.55c0,.16-.08,.42-.24,.79-.16,.37-.24,.66-.24,.87-1.06,4.41-.42,6.77,1.9,7.08Z"/>
        <path class="cls-1" d="M165.49,59.33c-.42-.52-.42-1.31,0-2.36,.32-1.05,1.37-2.57,3.17-4.56,.95-1.05,1.85-1.89,2.7-2.52l1.59-.94c.53,0,.79-.16,.79-.47,0-.1,.26-.16,.79-.16,.74,.21,1.16,.47,1.27,.79-.21,.21-.37,.26-.48,.16-.21,.11-.37,.32-.48,.63l-.32,1.42c-.21,1.26,0,2.2,.63,2.83,3.17,2.83,7.4,2.26,12.69-1.73l1.11-.63c.42-.21,.69-.1,.79,.32l-1.9,1.42c-1.69,1.26-3.65,2.15-5.87,2.67-2.22,.53-4.34,.26-6.35-.79-.63-.52-1.11-1-1.43-1.42-.21-.42-.37-.52-.48-.31-.74,1.47-1.75,2.83-3.01,4.09-2.44,2.31-4.18,2.83-5.24,1.57Zm.95-.16c.42,.53,1.64-.21,3.65-2.2,1.48-1.26,2.54-2.83,3.17-4.72,.21-.63,.32-1.1,.32-1.42l-.16-.63-1.59,1.57c-1.9,1.68-3.39,3.3-4.44,4.88-.74,1.36-1.06,2.2-.95,2.52Z"/>
        <path class="cls-1" d="M154.85,106.85c-.1,.21-.37,.1-.79-.31l-.48-.16,1.43-2.2,15.23-24.7c12.8-20.14,22.21-33.93,28.24-41.38,.74-.84,1.27-1.21,1.59-1.1,.32,0,.48,.05,.48,.16,0,.53-1.9,3.52-5.71,8.97l-3.81,5.35,.32,.47,.32,.63,2.86-1.57c2.75-1.36,4.76-2.15,6.03-2.36,1.06,0,1.69,.31,1.9,.94,.42,1.05-.53,3.09-2.86,6.14l-2.06,2.36c4.02,1.57,8.94,.74,14.76-2.52,1.8-1.05,3.65-2.25,5.55-3.62,.21-.21,.4-.26,.56-.16,.16,.11,.18,.26,.08,.47l-.79,.79c-2.33,1.79-4.28,3.04-5.87,3.78-5.5,2.83-10.58,3.52-15.23,2.05l-1.43,1.57c-3.81,3.57-6.4,4.15-7.78,1.73-.53-1.05-.53-2.41,0-4.09l.16-.79c-.21,.31-1.48,2.1-3.81,5.35-5.39,7.34-11.48,16.63-18.25,27.85-6.35,10.17-9.89,15.63-10.63,16.36Zm33.96-44.21c.84,.21,1.85-.16,3.01-1.1,.32-.21,.77-.58,1.35-1.1,.58-.52,1.08-1,1.51-1.42l.48-.79c-1.38-.73-2.59-1.89-3.65-3.46-.11-.32-.42-.26-.95,.16-.53,.42-1.06,1.21-1.59,2.36-1.17,3.25-1.22,5.04-.16,5.35Zm7.14-5.19c.1,0,.4-.26,.87-.79,.48-.52,1.03-1.18,1.67-1.97,.63-.79,1.11-1.44,1.43-1.97,.63-.84,1.06-1.57,1.27-2.2,.21-.52,.26-.84,.16-.94-.32-.32-2.06,.26-5.24,1.73-2.54,1.36-3.81,2.31-3.81,2.83,0,.31,.45,.94,1.35,1.89,.9,.94,1.67,1.42,2.3,1.42Z"/>
        <path class="cls-1" d="M217.69,65.15c0-1.47,1.16-3.78,3.49-6.92l1.11-1.57-.16,.16c-.11,0-.29,.08-.56,.24-.26,.16-.5,.29-.71,.39-3.17,1.68-5.13,2.52-5.87,2.52-.42,0-.74-.1-.95-.31-.74-1.05-.05-2.88,2.06-5.51,2.22-3.04,3.97-4.82,5.24-5.35l.48-.16c.42,0,.74,.31,.95,.94,.21,.31-.53,1.26-2.22,2.83-.85,.74-1.72,1.6-2.62,2.6-.9,1-1.61,1.84-2.14,2.52-.53,.68-.74,1.08-.63,1.18,0,.11,.45-.02,1.35-.39,.9-.37,1.96-.87,3.17-1.5,1.21-.63,2.25-1.2,3.09-1.73,.95-.63,2.17-1.57,3.65-2.83,1.69-1.57,2.7-2.2,3.01-1.89,.32,.42,.37,.84,.16,1.26-.21,.42-1.17,1.42-2.86,2.99-4.55,4.51-7.19,7.71-7.93,9.6-.95,2.41,.79,2.67,5.24,.79,5.61-2.41,12.69-6.77,21.26-13.06,.42-.21,.79-.16,1.11,.16-3.07,2.52-6.82,5.09-11.27,7.71-5.39,3.46-9.47,5.66-12.22,6.61-3.49,1.36-5.24,.94-5.24-1.26Z"/>
        <path class="cls-1" d="M248.78,64.21c-.42-.42-.58-.89-.48-1.42,.21-2.31,2.59-5.72,7.14-10.23l.95-1.1h-.32c-.63,.31-1.01,.53-1.11,.63-5.61,4.62-9.42,6.66-11.42,6.14-1.48-.52-1.69-1.68-.63-3.46,.63-.84,1.11-1.42,1.43-1.73l.48-.47c1.06-1.05,1.69-1.26,1.9-.63,.1,.21-.37,1-1.43,2.36-1.38,1.57-1.9,2.52-1.59,2.83,.21,.21,1.21-.16,3.02-1.1,2.11-.94,4.12-2.2,6.03-3.78l1.27-.94-.63-.79c-1.59-1.47-1.06-3.51,1.59-6.14,3.07-2.83,4.97-3.36,5.71-1.57,.32,.74,.1,1.79-.63,3.15-.32,.63-1.17,1.89-2.54,3.78l-.48,.47,.48-.16c.21-.21,.61-.31,1.19-.31s.98,.11,1.19,.31c.21,.31-.58,1.31-2.38,2.99-4.12,4.09-6.77,7.29-7.93,9.6l-.48,.94,.63,.16c.32,0,1.27-.26,2.86-.79,.74-.31,2.12-1.1,4.13-2.36,2.86-1.78,6.93-4.56,12.22-8.34,.42-.32,.95-.47,1.59-.47l.16,.16-.63,.63-11.74,8.18c-1.9,1.26-3.39,2.15-4.44,2.68-2.65,1.36-4.34,1.63-5.08,.79Zm5.24-13.85c.53,.21,1.32-.31,2.38-1.57,2.33-2.52,3.49-4.35,3.49-5.51,0-.21-.37-.21-1.11,0-1.59,.84-2.96,2.1-4.13,3.78-1.17,1.68-1.38,2.78-.63,3.3Z"/>
      </g>
      <g>
        <path class="cls-1" d="M215.08,148.89c0-1.47,1.16-3.78,3.49-6.92l1.11-1.57-.16,.16c-.11,0-.29,.08-.56,.24-.26,.16-.5,.29-.71,.39-3.17,1.68-5.13,2.52-5.87,2.52-.42,0-.74-.1-.95-.31-.74-1.05-.05-2.88,2.06-5.51,2.22-3.04,3.97-4.82,5.24-5.35l.48-.16c.42,0,.74,.31,.95,.94,.21,.31-.53,1.26-2.22,2.83-.85,.74-1.72,1.6-2.62,2.6-.9,1-1.61,1.84-2.14,2.52-.53,.68-.74,1.08-.63,1.18,0,.11,.45-.02,1.35-.39,.9-.37,1.96-.87,3.17-1.5,1.21-.63,2.25-1.2,3.09-1.73,.95-.63,2.17-1.57,3.65-2.83,1.69-1.57,2.7-2.2,3.01-1.89,.32,.42,.37,.84,.16,1.26-.21,.42-1.17,1.42-2.86,2.99-4.55,4.51-7.19,7.71-7.93,9.6-.95,2.41,.79,2.67,5.24,.79,5.61-2.41,12.69-6.77,21.26-13.06,.42-.21,.79-.16,1.11,.16-3.07,2.52-6.82,5.09-11.27,7.71-5.39,3.46-9.47,5.66-12.22,6.61-3.49,1.36-5.24,.94-5.24-1.26Z"/>
        <path class="cls-1" d="M284.57,180.52c-.42,0-.85-.18-1.27-.55-.42-.37-.69-.76-.79-1.18-.53-2.52,3.91-10.54,13.33-24.07,3.38-4.82,7.06-9.94,11.03-15.34,3.97-5.4,8.01-10.78,12.14-16.13,4.13-5.35,6.77-8.81,7.93-10.39l1.75-2.2-4.76,3.78c-14.7,12.48-25.44,21.3-32.21,26.43-8.89,6.82-15.34,10.54-19.36,11.17-3.28,.42-5.5-.21-6.66-1.89-2.65-3.46,0-11.33,7.93-23.6,4.02-6.29,8.04-11.75,12.06-16.36,12.16-14.58,19.73-23.34,22.69-26.28,.63-.73,1.27-1.1,1.9-1.1,1.27,0,1.9,.37,1.9,1.1,0,.11-.24,.47-.71,1.1-.48,.63-1.3,1.63-2.46,2.99-1.17,1.36-2.49,2.89-3.97,4.56-1.48,1.68-3.54,4.04-6.19,7.08-2.64,3.04-5.34,6.19-8.09,9.44-5.82,6.92-11.27,14.32-16.34,22.19s-7.62,13.38-7.62,16.52c0,.53,.08,.94,.24,1.26,.16,.31,.4,.63,.71,.94l.63,.31c.21,.31,.9,.47,2.06,.47,3.17,0,9.1-3.04,17.77-9.13,10.26-7.24,23.96-18.09,41.1-32.57,3.38-2.94,6.35-5.92,8.89-8.97l6.35-7.24,4.76-5.35c1.27-1.26,2.27-1.68,3.02-1.26,.63,.42,.69,1.16,.16,2.2-.42,.74-1.46,1.99-3.09,3.78-1.64,1.79-4.02,4.38-7.14,7.79-3.12,3.41-5.9,6.53-8.33,9.36-8.25,9.13-17.51,20.77-27.77,34.93-9.42,13.01-16.45,23.66-21.1,31.94-.42,.31-.53,.89-.32,1.73l.32,1.42c0,.73-.16,1.1-.48,1.1Z"/>
        <path class="cls-1" d="M335.66,148.1c-.53-.21-.9-.47-1.11-.79-.21-.32-.32-.94-.32-1.89,.21-2.1,2.06-5.14,5.55-9.13l1.27-1.42-.95,.79c-1.69,1.26-4.23,2.94-7.62,5.04-3.28,1.79-5.29,2.26-6.03,1.42-.85-1.05-.63-2.46,.63-4.25,2.22-2.94,3.49-3.67,3.81-2.2,.1,.42-.32,1.1-1.27,2.05-.42,.42-.85,.94-1.27,1.57-.42,.63-.74,1.16-.95,1.57-.21,.42-.26,.68-.16,.79,.42,.42,2.17-.26,5.24-2.04,4.55-2.52,8.46-5.35,11.74-8.5,1.16-.94,1.8-1.42,1.9-1.42,1.27-.1,1.9,.16,1.9,.79,0,.42-1.32,1.84-3.97,4.25-3.81,3.88-6.29,6.77-7.46,8.65-1.48,2.41-1.69,3.72-.63,3.93,1.16,.21,2.67-.16,4.52-1.1,1.85-.94,5.05-2.94,9.6-5.98,.32-.21,.82-.55,1.51-1.02,.69-.47,1.29-.89,1.83-1.26,.53-.37,1-.71,1.43-1.02l2.06-1.42c.21-.1,.4-.08,.56,.08,.16,.16,.13,.34-.08,.55l-.79,.63-2.38,1.73c-8.78,5.98-14.23,9.18-16.34,9.6-1.27,.21-2.01,.21-2.22,0Z"/>
        <path class="cls-1" d="M352.01,144.48c-1.69-1.47,.32-5.04,6.03-10.7,1.9-1.89,3.12-2.67,3.65-2.36,.42,.21,.37,.58-.16,1.1-.21,.21-.4,.39-.56,.55-.16,.16-.42,.39-.79,.71-.37,.31-.71,.68-1.03,1.1l-2.86,3.15c1.8,.32,2.7,.94,2.7,1.89,0,1.05-.98,2.26-2.94,3.62-1.96,1.36-3.31,1.68-4.05,.94Zm.63-.47c.1,.21,.45,.21,1.03,0,.58-.21,1.14-.52,1.67-.94,1.59-1.26,2.48-2.15,2.7-2.67,.21-.52,0-.94-.63-1.26s-1.17-.37-1.59-.16c-.53,.31-1.22,1.08-2.06,2.28-.85,1.21-1.22,2.12-1.11,2.75Z"/>
        <path class="cls-1" d="M372,147.95c-.42-.42-.58-.89-.48-1.42,.21-2.31,2.59-5.72,7.14-10.23l.95-1.1h-.32c-.63,.31-1.01,.53-1.11,.63-5.61,4.62-9.42,6.66-11.42,6.14-1.48-.52-1.69-1.68-.63-3.46,.63-.84,1.11-1.42,1.43-1.73l.48-.47c1.06-1.05,1.69-1.26,1.9-.63,.1,.21-.37,1-1.43,2.36-1.38,1.57-1.9,2.52-1.59,2.83,.21,.21,1.21-.16,3.02-1.1,2.11-.94,4.12-2.2,6.03-3.78l1.27-.94-.63-.79c-1.59-1.47-1.06-3.51,1.59-6.14,3.07-2.83,4.97-3.36,5.71-1.57,.32,.74,.1,1.79-.63,3.15-.32,.63-1.17,1.89-2.54,3.78l-.48,.47,.48-.16c.21-.21,.61-.31,1.19-.31s.98,.11,1.19,.31c.21,.31-.58,1.31-2.38,2.99-4.12,4.09-6.77,7.29-7.93,9.6l-.48,.94,.63,.16c.32,0,1.27-.26,2.86-.79,.74-.31,2.12-1.1,4.13-2.36,2.86-1.78,6.93-4.56,12.22-8.34,.42-.32,.95-.47,1.59-.47l.16,.16-.63,.63-11.74,8.18c-1.9,1.26-3.39,2.15-4.44,2.68-2.65,1.36-4.34,1.63-5.08,.79Zm5.24-13.85c.53,.21,1.32-.31,2.38-1.57,2.33-2.52,3.49-4.35,3.49-5.51,0-.21-.37-.21-1.11,0-1.59,.84-2.96,2.1-4.13,3.78-1.17,1.68-1.38,2.78-.63,3.3Z"/>
      </g>
    </g>
  </g>
</svg>