<?xml version="1.0" encoding="UTF-8"?>
<svg id="_Слой_2" data-name="Слой 2" xmlns="http://www.w3.org/2000/svg" viewBox="0 0 386.27 88.29">
  <defs>
    <style>
      .cls-1 {
        fill: #4a494a;
      }
    </style>
  </defs>
  <g id="Layer_1" data-name="Layer 1">
    <g>
      <path class="cls-1" d="M11.94,71.46c-2.86,.02-5.14-.25-6.83-.83C1.89,69.4,.19,67.43,0,64.74c-.01-1.35,.31-2.74,.98-4.18,1.33-2.62,3.73-4.98,7.21-7.08,3.48-2.09,7.36-3.5,11.65-4.21,1.18-.18,1.81-.31,1.89-.4l3.12-4.2c12.83-16.88,22.88-28.84,30.15-35.9,2.17-2.21,3.43-3.27,3.77-3.19,.59,0,.89,.29,.89,.88,0,.08-.42,.64-1.25,1.65l-8.14,9.04-.5,.38,.5-.13,5.41-2.57c6.79-3.85,10.51-7.08,11.17-9.7,.08-.34,0-.63-.26-.88-.17-.25-.76-.37-1.77-.36-2.45-.15-5.6,.72-9.46,2.61-2.85,1.29-5.03,2.7-6.54,4.23l-1.13,.89c-.17-.25,.18-.82,1.06-1.71,.88-.89,1.98-1.76,3.33-2.62,3.27-2.05,6.54-3.42,9.82-4.13,1.93-.44,3.41-.37,4.42,.21,.93,.41,1.4,1.04,1.41,1.88-.15,2.61-3.41,5.76-9.78,9.43-2.1,1.2-4.7,2.53-7.8,3.99l-1.13,.39,.63,.12c5.15,.97,8.28,3.26,9.41,6.87,.26,.75,.35,1.98,.28,3.66,.01,1.69-.18,3.16-.59,4.43-.33,1.1-.78,2.45-1.36,4.05-1.24,2.96-2.77,5.84-4.6,8.63l-1.12,1.78c.17,.08,.65,.1,1.45,.05,.8-.05,1.83-.18,3.09-.41,1.26-.22,2.27-.42,3.03-.59,2.44-.61,4.54-1.64,6.29-3.09,.33-.26,.63-.38,.88-.39,.42,0,.46,.17,.13,.5-2.26,1.71-4.06,2.77-5.41,3.21-2.77,.87-5.67,1.44-8.71,1.72-1.09,.09-1.81,.4-2.14,.9-.08,.09-.21,.25-.38,.51-7.92,10.18-17.89,16.62-29.91,19.34-3.11,.7-5.8,1.06-8.08,1.08Zm-7.35-1.83c3.8,1.57,9.03,1.48,15.67-.26,8.91-2.35,16.79-6.88,23.64-13.6,3.51-3.57,5.18-5.48,5.01-5.73l-2.4,.15c-2.19,.02-4.42-.04-6.7-.2-10.12-.67-15.51-.75-16.18-.24-.08,.09-.48,.59-1.19,1.53-.71,.93-1.56,2.08-2.56,3.43-1,1.36-1.83,2.5-2.5,3.43-3.17,4.41-5.12,7.21-5.87,8.39-.33,.76-.71,.93-1.13,.52-.51-.67,.73-3.25,3.73-7.74l4.5-6.23,2-2.92-1.64,.27c-3.03,.62-5.95,1.69-8.75,3.23-2.81,1.54-5.01,3.25-6.59,5.11C.61,62.42,0,65.37,1.79,67.63c.6,.92,1.53,1.59,2.8,2Zm43.55-20.59c.93-.09,1.52-.22,1.77-.39,.25-.17,.79-.89,1.62-2.16,5.32-8.3,7.62-14.85,6.91-19.65-.62-3.62-3.25-5.83-7.89-6.63-.68-.33-1.33-.41-1.96-.24-.63,.17-1.05,.37-1.26,.58-.21,.21-.86,.96-1.94,2.23l-9.51,11.58c-7.59,9.5-11.38,14.29-11.38,14.38l2.4-.15c2.86-.02,5.52,.04,7.96,.19,6.74,.28,11.17,.37,13.27,.27Z"/>
      <path class="cls-1" d="M65.51,55.21c-.01-1.18,.9-3.04,2.73-5.58l.87-1.27-.12,.13c-.08,0-.23,.07-.44,.19-.21,.13-.4,.24-.57,.32-2.52,1.37-4.07,2.06-4.66,2.06-.34,0-.59-.08-.76-.25-.6-.84-.06-2.32,1.6-4.44,1.75-2.46,3.12-3.9,4.13-4.33l.38-.13c.34,0,.59,.25,.76,.75,.17,.25-.41,1.02-1.75,2.29-.67,.59-1.36,1.3-2.07,2.1-.71,.81-1.27,1.49-1.69,2.04-.42,.55-.58,.87-.5,.95,0,.08,.36-.02,1.07-.32,.71-.3,1.55-.71,2.52-1.22s1.78-.98,2.45-1.41c.75-.51,1.72-1.28,2.89-2.3,1.34-1.28,2.13-1.79,2.39-1.54,.26,.34,.3,.67,.14,1.01-.17,.34-.92,1.14-2.25,2.42-3.59,3.65-5.68,6.24-6.25,7.76-.74,1.95,.65,2.14,4.17,.6,4.45-1.97,10.06-5.52,16.84-10.63,.33-.17,.63-.13,.89,.12-2.43,2.04-5.4,4.13-8.92,6.27-4.27,2.82-7.5,4.61-9.69,5.39-2.77,1.12-4.16,.79-4.18-.98Z"/>
      <path class="cls-1" d="M91.39,52.71c-1.77-.57-2.09-2.76-.94-6.56l.24-1.01c-.17-.17-.71,.13-1.63,.9-.67,.51-1.55,1.3-2.63,2.36-1.09,1.06-1.71,1.76-1.88,2.1-.25,.42-.37,.72-.37,.89,0,.34-.17,.34-.51,0-.68-.67,.27-2.78,2.85-6.34,1.17-1.61,2.33-2.93,3.5-3.95,.67-.59,1.17-.68,1.51-.27,.26,.34-.16,1.1-1.24,2.29-1.09,1.02-1.92,2-2.5,2.93,.17-.08,.33-.21,.5-.38,3.26-2.81,6.53-4.82,9.8-6.02,.92-.34,1.64-.39,2.15-.14,.51,.25,.72,.71,.64,1.38-.08,.51-.56,1.42-1.43,2.73-.87,1.31-1.6,2.22-2.19,2.74-.58,.6-1,.77-1.26,.52-.09-.08,.04-.25,.38-.51,.42-.34,1.25-1.4,2.5-3.18,.83-1.52,1.24-2.45,1.24-2.79,0-.76-1.69-.24-5.04,1.56-.08,.09-.21,.17-.38,.26-2.1,1.2-3.31,1.97-3.64,2.31,0,.17,.04,.3,.13,.38,.25,.25,.18,.97-.23,2.15-.16,.68-.24,1.52-.23,2.53-.07,1.77,.48,2.65,1.67,2.64,1.68-.01,4.24-1.21,7.68-3.6,.67-.43,1.93-1.41,3.77-2.94l1.76-1.28,.38-.26c.17-.08,.29-.08,.38,0v.51s-1,.77-1,.77c-4.1,3.24-7.16,5.37-9.17,6.4-2.01,1.03-3.61,1.34-4.79,.92Z"/>
      <path class="cls-1" d="M121.09,52.71c1.35,.24,5.42-2.32,12.19-7.69,.92-.77,1.59-1.23,2.01-1.41,.17-.08,.29-.07,.38,.06,.08,.12,.08,.23,0,.32-.17,.17-.88,.76-2.13,1.79-.67,.51-1.49,1.13-2.45,1.85-.96,.73-1.72,1.3-2.26,1.73-.55,.43-1.17,.89-1.88,1.41-.71,.51-1.28,.9-1.7,1.15-.42,.26-.9,.54-1.45,.83-.55,.3-.99,.47-1.32,.52-.34,.05-.72,.09-1.14,.14-.42,.05-.78-.01-1.08-.18-.3-.17-.62-.42-.95-.75-.85-.83-1.12-2.26-.79-4.29,.08-.25,.2-.63,.37-1.14,.16-.51,.27-.87,.31-1.08,.04-.21,.02-.4-.07-.57-.67,.51-1.34,1.07-2.01,1.66-2.59,2.21-3.88,3.7-3.88,4.46,0,.17-.08,.25-.25,.25-.51,0-.68-.2-.51-.63,.16-.51,1.24-2.33,3.24-5.46,1.83-2.88,2.82-4.62,2.99-5.21,.08-.42,.04-.67-.13-.76-.17-.08-.55-.04-1.14,.14-3.2,.7-6.97,2.88-11.32,6.54-.42,.34-1.03,.92-1.82,1.72-.79,.81-1.5,1.53-2.13,2.17-.63,.64-.94,1-.94,1.08l-.12,.25c-.08,.09-.23,.07-.44-.06-.21-.12-.32-.23-.32-.31,0-.51,1.37-2.41,4.12-5.72,1-1.19,1.83-2.12,2.5-2.8,.83-.85,1.42-1.19,1.76-1.03,.08,.08,.13,.21,.13,.38,0,.42-.54,1.19-1.62,2.29l-.25,.25c.17-.08,.58-.38,1.26-.9,3.68-3.06,6.87-4.61,9.57-4.63,.76,0,1.35,.14,1.77,.43,.42,.29,.59,.73,.52,1.32-.08,.67-.7,1.82-1.87,3.43-.42,.51-.79,1.02-1.12,1.53l-.12,.13c.17-.08,.29-.17,.38-.26,.84-.6,1.42-.9,1.76-.9,.25,0,.44,.04,.57,.12,.13,.08,.19,.21,.19,.38,0,.17,0,.32,0,.44,0,.13-.06,.34-.18,.63-.12,.3-.18,.53-.18,.7-.81,3.54-.29,5.44,1.57,5.67Z"/>
      <path class="cls-1" d="M131.68,49.96c-.34-.42-.35-1.05-.02-1.9,.25-.84,1.08-2.07,2.5-3.69,.75-.85,1.46-1.53,2.13-2.04l1.26-.77c.42,0,.63-.13,.63-.38,0-.08,.21-.13,.63-.13,.59,.17,.93,.37,1.02,.62-.17,.17-.29,.21-.38,.13-.17,.09-.29,.25-.37,.51l-.24,1.14c-.16,1.01,.02,1.77,.53,2.27,2.55,2.25,5.91,1.76,10.1-1.48l.88-.51c.33-.17,.55-.09,.63,.25l-1.51,1.15c-1.34,1.02-2.89,1.75-4.66,2.19-1.77,.44-3.45,.24-5.06-.59-.51-.42-.89-.79-1.15-1.13-.17-.33-.3-.42-.38-.25-.58,1.19-1.37,2.29-2.37,3.31-1.92,1.87-3.31,2.3-4.16,1.3Zm.76-.13c.34,.42,1.3-.18,2.89-1.79,1.17-1.02,2-2.29,2.5-3.81,.16-.51,.25-.89,.24-1.14l-.13-.5-1.25,1.27c-1.5,1.36-2.67,2.68-3.5,3.95-.58,1.1-.83,1.78-.74,2.03Z"/>
      <path class="cls-1" d="M123.54,88.2c-.08,.17-.29,.09-.63-.25l-.38-.12,1.12-1.78,11.96-19.94c10.05-16.26,17.46-27.4,22.21-33.43,.58-.68,1-.98,1.26-.9,.25,0,.38,.04,.38,.12,0,.42-1.49,2.84-4.49,7.24l-3,4.32,.26,.38,.26,.5,2.26-1.28c2.18-1.11,3.78-1.76,4.79-1.94,.84,0,1.35,.24,1.52,.75,.34,.84-.4,2.49-2.23,4.95l-1.63,1.91c3.21,1.24,7.12,.53,11.73-2.12,1.42-.85,2.89-1.83,4.4-2.94,.17-.17,.31-.21,.44-.13,.13,.08,.15,.21,.07,.38l-.63,.64c-1.84,1.45-3.39,2.47-4.65,3.07-4.36,2.31-8.4,2.9-12.12,1.75l-1.13,1.27c-3.01,2.89-5.07,3.37-6.18,1.44-.43-.84-.44-1.93-.03-3.29l.12-.63c-.17,.25-1.17,1.7-3,4.32-4.25,5.93-9.03,13.43-14.34,22.49-4.98,8.21-7.77,12.62-8.35,13.21Zm26.74-35.74c.67,.16,1.47-.14,2.39-.91,.25-.17,.61-.47,1.07-.89,.46-.42,.86-.81,1.19-1.15l.37-.63c-1.1-.58-2.08-1.5-2.93-2.76-.09-.25-.34-.21-.76,.13-.42,.34-.84,.98-1.25,1.91-.91,2.62-.93,4.05-.09,4.3Zm5.65-4.22c.08,0,.31-.21,.69-.64,.38-.42,.81-.96,1.31-1.59,.5-.64,.88-1.16,1.12-1.59,.5-.68,.83-1.27,1-1.78,.16-.42,.2-.68,.12-.76-.25-.25-1.64,.23-4.16,1.43-2.01,1.11-3.02,1.88-3.01,2.3,0,.25,.36,.75,1.09,1.51,.72,.75,1.34,1.13,1.84,1.12Z"/>
      <path class="cls-1" d="M173.3,54.29c-.01-1.18,.9-3.04,2.73-5.58l.87-1.27-.12,.13c-.08,0-.23,.07-.44,.19-.21,.13-.4,.24-.57,.32-2.52,1.37-4.07,2.06-4.66,2.06-.34,0-.59-.08-.76-.25-.6-.84-.06-2.32,1.6-4.44,1.75-2.46,3.13-3.9,4.13-4.33l.38-.13c.34,0,.59,.25,.76,.75,.17,.25-.41,1.01-1.75,2.29-.67,.6-1.36,1.3-2.07,2.1-.71,.81-1.27,1.49-1.69,2.04-.42,.55-.58,.87-.5,.95,0,.08,.36-.02,1.07-.33,.71-.3,1.55-.71,2.52-1.22,.96-.51,1.78-.98,2.45-1.41,.75-.51,1.72-1.28,2.89-2.3,1.34-1.28,2.13-1.79,2.39-1.54,.26,.34,.3,.67,.14,1.01-.17,.34-.92,1.14-2.25,2.42-3.59,3.66-5.68,6.24-6.25,7.76-.74,1.95,.65,2.14,4.18,.6,4.45-1.97,10.06-5.52,16.84-10.63,.33-.17,.63-.13,.89,.12-2.43,2.04-5.4,4.13-8.92,6.27-4.27,2.82-7.5,4.61-9.69,5.39-2.77,1.12-4.16,.79-4.18-.98Z"/>
      <path class="cls-1" d="M202.24,54.8c-2.69,.45-4.17-.09-4.44-1.6-.18-.84,.15-2.02,.98-3.55,1-1.69,1.79-2.84,2.37-3.43l2.13-2.29,.75-.89h-.25c-.5,.26-.8,.43-.88,.52-4.44,3.75-7.45,5.42-9.06,5.01-1.18-.41-1.36-1.33-.53-2.78,.5-.68,.87-1.14,1.12-1.4l.38-.38c.83-.85,1.34-1.02,1.51-.52,.08,.17-.29,.8-1.12,1.91-1.09,1.27-1.5,2.03-1.24,2.29,.17,.17,.97-.13,2.39-.91,1.68-.77,3.27-1.8,4.78-3.07l1-.77-.51-.63c-1.27-1.17-.87-2.82,1.22-4.94,1-1.02,1.94-1.66,2.83-1.92,.88-.26,1.45-.05,1.71,.62,.26,.59,.09,1.43-.48,2.53-.25,.51-.92,1.52-2,3.05l-.38,.38,.38-.13c.17-.17,.48-.26,.95-.26,.46,0,.78,.08,.95,.24,.17,.25-.46,1.06-1.88,2.42l-2.63,2.8c-2.59,2.63-3.84,4.54-3.74,5.72,.43,1.09,1.82,1.46,4.18,1.1,2.36-.36,4.71-1.13,7.06-2.33,3.69-1.8,6.37-3.51,8.04-5.12,.92-.77,1.38-1.7,1.37-2.79,0-.08,.04-.13,.13-.13,.42,0,.63,.29,.64,.88,.01,1.26-1.79,3.09-5.39,5.48-1.51,1.02-3.54,2.05-6.1,3.09-2.56,1.03-4.64,1.64-6.24,1.82Zm-.11-12.64c.42,.17,1.05-.26,1.88-1.28,1.83-2.04,2.75-3.52,2.74-4.45,0-.17-.3-.17-.88,0-1.26,.69-2.34,1.71-3.26,3.06-.92,1.36-1.08,2.24-.48,2.66Z"/>
      <path class="cls-1" d="M241.43,56.61c1.61,.91,3.8,.71,6.57-.62s5.28-3.14,7.54-5.44c.83-.85,1.75-1.99,2.75-3.44,.33-.51,.46-.84,.37-1.01,0-.08,.04-.13,.12-.13,.84,0,.43,1.09-1.24,3.3-2.42,3.14-5.45,5.57-9.1,7.28-3.65,1.72-6.33,1.7-8.03-.06-.51-.67-.83-1.36-.97-2.08-.13-.71,.03-1.52,.49-2.41,.45-.89,.79-1.5,1-1.84,.21-.34,.69-1.02,1.44-2.03l.87-1.27-.12,.13c-.08,0-.23,.07-.44,.19-.21,.13-.4,.24-.57,.32-2.52,1.37-4.07,2.06-4.66,2.06-.34,0-.59-.08-.76-.25-.6-.84-.06-2.32,1.6-4.44,1.75-2.46,3.13-3.9,4.13-4.33l.38-.13c.34,0,.59,.25,.76,.75,.17,.25-.41,1.02-1.75,2.29-.67,.59-1.36,1.3-2.07,2.1-.71,.81-1.27,1.49-1.69,2.04-.42,.55-.58,.87-.5,.95,0,.08,.36-.02,1.07-.32,.71-.3,1.55-.71,2.52-1.22,.96-.51,1.78-.98,2.45-1.41,.75-.51,1.72-1.28,2.89-2.3,1.34-1.28,2.13-1.79,2.39-1.54,.34,.25,.38,.59,.14,1.01-.25,.42-1,1.23-2.25,2.42-1.51,1.36-2.88,2.89-4.13,4.58-2.58,3.56-2.98,5.84-1.21,6.83Z"/>
      <path class="cls-1" d="M294.95,78.65c-.34,0-.68-.14-1.01-.43-.34-.29-.55-.61-.64-.94-.44-2.02,3.04-8.49,10.45-19.43,2.66-3.9,5.56-8.03,8.68-12.4,3.12-4.37,6.31-8.71,9.56-13.04,3.25-4.32,5.33-7.12,6.25-8.39l1.38-1.78-3.77,3.07c-11.63,10.13-20.12,17.28-25.47,21.45-7.03,5.54-12.14,8.57-15.34,9.1-2.61,.36-4.38-.13-5.32-1.47-2.13-2.76-.08-9.1,6.16-19.01,3.16-5.08,6.32-9.49,9.49-13.22,9.59-11.79,15.55-18.88,17.89-21.26,.5-.59,1-.89,1.51-.9,1.01,0,1.52,.28,1.52,.87,0,.08-.19,.38-.56,.89-.37,.51-1.02,1.32-1.94,2.42-.92,1.1-1.96,2.33-3.13,3.69s-2.79,3.27-4.88,5.73c-2.09,2.46-4.21,5.01-6.38,7.64-4.59,5.6-8.87,11.58-12.86,17.93-3.99,6.35-5.97,10.79-5.95,13.32,0,.42,.07,.76,.2,1.01,.13,.25,.32,.5,.57,.75l.51,.25c.17,.25,.72,.37,1.65,.37,2.53-.02,7.22-2.5,14.09-7.45,8.12-5.88,18.96-14.7,32.51-26.44,2.68-2.38,5.01-4.8,7.01-7.26l5.01-5.86,3.75-4.33c1-1.02,1.8-1.36,2.39-1.03,.51,.33,.55,.92,.14,1.77-.33,.59-1.15,1.61-2.44,3.05-1.29,1.44-3.17,3.54-5.63,6.3-2.46,2.76-4.65,5.28-6.57,7.58-6.51,7.39-13.8,16.8-21.88,28.24-7.41,10.51-12.94,19.11-16.59,25.8-.33,.26-.42,.72-.24,1.39l.26,1.14c0,.59-.12,.89-.37,.89Z"/>
      <path class="cls-1" d="M335.42,52.27c-.42-.17-.72-.37-.89-.62-.17-.25-.26-.76-.27-1.51,.15-1.69,1.61-4.14,4.36-7.37l1-1.15-.75,.64c-1.34,1.02-3.35,2.39-6.03,4.1-2.6,1.46-4.2,1.85-4.79,1.18-.68-.83-.52-1.97,.48-3.42,1.75-2.37,2.76-2.97,3.02-1.79,.09,.34-.25,.89-1,1.65-.33,.34-.67,.76-1,1.27-.33,.51-.58,.93-.75,1.27-.17,.34-.21,.55-.12,.63,.34,.33,1.72-.22,4.16-1.68,3.6-2.05,6.7-4.35,9.29-6.9,.92-.77,1.42-1.15,1.51-1.15,1.01-.09,1.52,.11,1.52,.62,0,.34-1.04,1.48-3.13,3.44-3.01,3.14-4.97,5.48-5.88,7-1.16,1.95-1.32,3-.48,3.16,.93,.16,2.12-.15,3.59-.92,1.47-.77,4-2.39,7.6-4.87,.25-.17,.65-.45,1.19-.83,.54-.38,1.02-.72,1.45-1.02,.42-.3,.79-.58,1.13-.83l1.63-1.15c.17-.08,.31-.07,.44,.06,.13,.12,.11,.27-.06,.44l-.63,.51-1.88,1.41c-6.95,4.86-11.27,7.47-12.95,7.82-1.01,.18-1.6,.18-1.77,.02Z"/>
      <path class="cls-1" d="M348.41,49.25c-1.36-1.17,.22-4.05,4.73-8.63,1.5-1.53,2.47-2.17,2.89-1.92,.34,.17,.3,.46-.12,.88-.17,.17-.31,.32-.44,.45-.12,.13-.34,.32-.63,.57-.29,.25-.56,.55-.81,.89l-2.25,2.55c1.43,.24,2.16,.74,2.16,1.5,0,.84-.76,1.82-2.31,2.93-1.55,1.11-2.62,1.37-3.22,.79Zm.5-.38c.08,.17,.36,.17,.82,0,.46-.17,.9-.43,1.32-.77,1.25-1.02,1.96-1.74,2.13-2.17,.16-.42,0-.76-.51-1.01-.51-.25-.93-.29-1.26-.12-.42,.26-.96,.87-1.63,1.85-.67,.97-.96,1.71-.87,2.22Z"/>
      <path class="cls-1" d="M368.54,53.38c-2.69,.45-4.17-.09-4.44-1.61-.18-.84,.15-2.02,.98-3.55,1-1.69,1.79-2.84,2.37-3.43l2.13-2.29,.75-.89h-.25c-.5,.26-.8,.43-.88,.52-4.44,3.75-7.45,5.42-9.06,5.01-1.18-.41-1.36-1.33-.53-2.78,.5-.68,.87-1.15,1.12-1.4l.38-.38c.83-.85,1.34-1.02,1.51-.52,.08,.17-.29,.8-1.12,1.91-1.09,1.27-1.5,2.04-1.24,2.29,.17,.17,.97-.13,2.39-.91,1.68-.77,3.27-1.8,4.78-3.07l1-.77-.51-.63c-1.27-1.17-.87-2.82,1.22-4.94,1-1.02,1.94-1.66,2.83-1.92,.88-.26,1.45-.05,1.71,.62,.26,.59,.09,1.43-.48,2.53-.25,.51-.92,1.52-2,3.05l-.38,.38,.38-.13c.17-.17,.48-.26,.95-.26,.46,0,.78,.08,.95,.25,.17,.25-.46,1.06-1.88,2.42l-2.63,2.8c-2.59,2.63-3.84,4.54-3.74,5.72,.43,1.09,1.82,1.46,4.18,1.1,2.36-.35,4.71-1.13,7.06-2.33,3.69-1.8,6.37-3.51,8.04-5.12,.92-.77,1.38-1.7,1.37-2.79,0-.08,.04-.13,.13-.13,.42,0,.63,.29,.64,.88,.01,1.26-1.79,3.09-5.39,5.48-1.51,1.02-3.54,2.05-6.1,3.09-2.56,1.03-4.64,1.64-6.24,1.82Zm-.11-12.64c.42,.17,1.05-.26,1.88-1.28,1.83-2.04,2.75-3.52,2.74-4.45,0-.17-.3-.17-.88,0-1.26,.69-2.34,1.71-3.26,3.06-.92,1.36-1.08,2.24-.48,2.66Z"/>
    </g>
  </g>
</svg>