<svg xmlns="http://www.w3.org/2000/svg" viewBox="0 0 343.16 100.09"><title>ourwedding</title><g id="Слой_2" data-name="Слой 2"><g id="Слой_1-2" data-name="Слой 1"><path d="M48.72,78.53c-.34-.25-.21-.46.38-.63a26.06,26.06,0,0,0,4.4-3.74A148.16,148.16,0,0,0,68.21,56.58q1.38-1.87,3.52-5.11c1.42-2.16,2.62-4.07,3.58-5.73s1.45-2.54,1.45-2.62q-9.56-2.25-24.27-9.73L47,41.25q-6.91,10-10.12,14a47.08,47.08,0,0,1-6.35,6.61q-7.92,6.62-13.2,8.48c-1.43.5-2.27.41-2.52-.25-.08-.17,0-.38.25-.63a.59.59,0,0,1,.63-.12,3.81,3.81,0,0,0,2-.5q.25-.12,3.65-2.37A56.26,56.26,0,0,0,31.49,58.2,142,142,0,0,0,42.81,43.49l5.78-8.23c1.34-1.83,1.93-2.82,1.76-3L47.71,30.9Q45.07,29.66,41.62,28l-4.47-2.18q-11.05-5.37-18.73-6a37.16,37.16,0,0,0-8.93.62,43,43,0,0,0-4.27,1.25A17.44,17.44,0,0,0,1.7,23.29c-.92.58-1.3,1-1.13,1.37.08.17.37.34.88.5l-.13.25a1.53,1.53,0,0,1-1.13-.5q-.37-.37,0-1c.42-.83,1.59-1.67,3.52-2.5a21.76,21.76,0,0,1,5.91-1.87q3-.5,5.47-.68a23.73,23.73,0,0,1,5.15.18c1.8.25,3.21.46,4.21.63a23.09,23.09,0,0,1,4.66,1.56q3.13,1.31,4.4,1.87c.83.37,2.68,1.24,5.53,2.61s4.86,2.35,6,2.93c4.11,1.92,6.16,2.83,6.16,2.75l1.14-1.62q1-1.38,5.34-7.11t5.09-6.86q5.91-7.72,9.43-10.72Q77.39.84,81.91.1a4.56,4.56,0,0,1,3.65.63c.25.16.31.24.19.24a2.07,2.07,0,0,1-.7-.24A4.6,4.6,0,0,0,83.55.6a5.82,5.82,0,0,0-2.39.75,34.72,34.72,0,0,0-12.7,10.22L53.37,32.14l-.38.5q14.84,7.74,23.89,9.6a.51.51,0,0,0,.63-.25q.26-.37,2.64-4.48A99.25,99.25,0,0,1,94,20.3q5.91-6.1,8.17-5.24c.25.17.3.34.13.5l-.25.13a2.49,2.49,0,0,1-.51.31l-.62.31q-2.78,1.38-8.37,7.42a61.65,61.65,0,0,0-8.48,11.16c-.34.58-.9,1.49-1.7,2.74S80.86,40,80.28,41l-.88,1.49c0,.34,2.47.5,7.41.5a38.5,38.5,0,0,0,7.3-1c1.67-.33,2.51-.33,2.51,0,0,.09-.36.25-1.07.5a25.51,25.51,0,0,1-2.7.75,22.29,22.29,0,0,1-3,.5,60,60,0,0,1-10.94-.37l-1,1.74A178.39,178.39,0,0,1,67.7,60.7,109.14,109.14,0,0,1,53.5,76Q49.84,79.15,48.72,78.53Z"/><path d="M93.6,56.71a2,2,0,0,1-.88-1.87,6.83,6.83,0,0,1,.51-2.62l.25-.63-.76.38a6.85,6.85,0,0,1-1.13.75c-.17.08-.46.25-.88.5s-.75.45-1,.62a1.31,1.31,0,0,1-1.58-.06,1.42,1.42,0,0,1-.31-1.69,8.67,8.67,0,0,1,2.7-3,12,12,0,0,1,4-2.24,1.77,1.77,0,0,1,2.14.62c.17.25.29.33.38.25.42-.17.71-.08.88.25l-.13.12a3.45,3.45,0,0,1-.25.44,3.45,3.45,0,0,0-.25.44A13.54,13.54,0,0,0,94,53.46c-.42,1.34-.38,2.21.13,2.62q1.13.75,5.15-.87A47.2,47.2,0,0,0,109.57,49c1.42-1.08,2.09-1.37,2-.88-.08.34-1.24,1.29-3.46,2.87a59.48,59.48,0,0,1-5.84,3.74A29.69,29.69,0,0,1,99,56.21a14.24,14.24,0,0,1-3.08.81A3.77,3.77,0,0,1,93.6,56.71Zm-3.39-4.87c-.42.5-.59.75-.5.75a19.77,19.77,0,0,0,2.13-1.12c2.85-1.58,4.28-2.78,4.28-3.62-.17-.49-.84-.33-2,.5A17,17,0,0,0,90.21,51.84Z"/><path d="M121.26,56.83c-1.25.17-2-.21-2.26-1.12a2.51,2.51,0,0,1,.25-2.12c.08-.17,0-.17-.38,0a1.26,1.26,0,0,0-.5.25q-3.65,2.11-5,2.12c-.75,0-1.13-.42-1.13-1.25v-.5l-1.13.5c-1.76.75-2.94,1-3.52.87a1.3,1.3,0,0,1-1-.81,1.67,1.67,0,0,1-.06-1.31A15,15,0,0,1,110,49.1l1.25-1.37,2.39-2.12.63-.5a2.62,2.62,0,0,1,1-.5c.16,0,.29.13.37.38a.8.8,0,0,1-.12.75l-2.64,2.61a30.93,30.93,0,0,0-4.78,5l-.38.75q.76.38,4.53-1.5A4.43,4.43,0,0,0,114.1,51a26.76,26.76,0,0,1,3.52-3.36,8.76,8.76,0,0,1,2.89-1.87,1,1,0,0,1,.63.37c.08.25,0,.62-.38,1.12a21.94,21.94,0,0,1-4.9,4.61l-1.76,1.25a7.16,7.16,0,0,0-.63.81,2.21,2.21,0,0,0-.51.94c0,.08.3.06.88-.07a18.26,18.26,0,0,0,2-.56L118.5,53a8.82,8.82,0,0,0,2.39-2q4.14-4.74,6.78-6.11c.76-.33,1.14-.21,1.14.38a9.46,9.46,0,0,1-1.83,2,29.57,29.57,0,0,1-3.33,2.93,12.35,12.35,0,0,0-3.27,3.49c-.59.92-.82,1.58-.69,2s.69.54,1.7.37q3.64-.61,10.18-4.61,2.9-2,3.52-2.49l1.64-1.13a.51.51,0,0,1,.5.25l-.88.88-1.89,1.37-3.52,2.37a34,34,0,0,1-3.89,2A20,20,0,0,1,121.26,56.83ZM124.53,49l1.89-1.62c.75-.75,1-1.13.88-1.13-.59.5-1.18,1-1.76,1.62Z"/><path d="M104.41,92.49a4.39,4.39,0,0,1-1.76-.5,3.16,3.16,0,0,1-.88-2.74,13.44,13.44,0,0,1,1.64-5.49A48,48,0,0,1,111,73.48a76.28,76.28,0,0,1,10.82-9.67,21.72,21.72,0,0,1,10-4.61l1.64-.25,1-1.25,4.28-5.48-1.13.62q-2.64,1.62-3.78.75a2.09,2.09,0,0,1-.25-1.12q.25-1.5,2.77-4.86c1.17-1.33,1.93-2,2.26-2,.59,0,.88.17.88.5a12.53,12.53,0,0,1-1,1.12c-2.52,3.08-3.69,5.07-3.52,6q.87,0,4.52-2.5a13.28,13.28,0,0,0,3-2.74c2.18-2.24,3.48-3.33,3.9-3.24.25,0,.37,0,.37.12a11.48,11.48,0,0,1-1.88,2.37l-9.3,11.35Q138.74,58,146.91,54a55.76,55.76,0,0,0,8.68-5.23,14.79,14.79,0,0,1,1.25-.88.54.54,0,0,1,.51.25l-.76.75a77.31,77.31,0,0,1-10.81,6.48,65.3,65.3,0,0,1-10.44,4.12,2.64,2.64,0,0,0-1.19,1q-.69.87-5.34,7.23-8.69,11.71-13.52,17.08t-8.36,7.11A7.88,7.88,0,0,1,104.41,92.49Zm-1.25-1q2,1.38,8-4.36,4.78-4.48,14.59-17.58l6.91-9.48a.22.22,0,0,0-.25-.25q-4.65.38-11.19,5.36a61.65,61.65,0,0,0-5.78,5q-11.19,10.47-12.83,18.45C102.4,90,102.57,91,103.16,91.49Z"/><path d="M173.81,64.19q-1.87-7,3.52-16.71A82.18,82.18,0,0,1,186,35.26a138.38,138.38,0,0,1,20.12-20.07Q215.06,8,222.6,6a8.34,8.34,0,0,1,2.89-.37,5,5,0,0,1,2.76,1.31,3.67,3.67,0,0,1,1.26,2.43q.26,4.23-5.78,13a108.88,108.88,0,0,1-11.57,13.47c-4.27,4.49-7.38,6.73-9.3,6.73a1.82,1.82,0,0,1-1.13-.37,1.07,1.07,0,0,1-.51-.87c0-.34.09-.5.25-.5.51,0,.76.16.76.5s.21.33.63.25q2-.63,6.54-4.87a95.56,95.56,0,0,0,13.07-15,42.9,42.9,0,0,0,4.78-8.6c1.26-3.24,1.3-5.2.12-5.86-1.5-.92-4.82.08-9.93,3q-11.82,6.61-26.53,23.32Q180.35,45.35,177,53.71c-1.6,3.91-2.2,7.22-1.83,9.92s1.62,4.34,3.71,4.92,6.12-.37,11.82-3.12q10.07-4.86,24.9-16.83c.41-.33.71-.41.88-.25s.08.54-.51.88q-.12.12-5.4,4.05t-9.06,6.54c-2.51,1.75-4.57,3.08-6.16,4-2.85,1.58-5.19,2.79-7,3.62a31.07,31.07,0,0,1-6.09,2,7,7,0,0,1-5.41-.56A7.47,7.47,0,0,1,173.81,64.19Z"/><path d="M217.06,60.2a7.08,7.08,0,0,1-4.21,1.68c-1.21,0-1.86-.73-1.95-2.06a1.52,1.52,0,0,0-.5-1.12,1,1,0,0,1-.38-.87q.14-2.11,7.17-11.47l2.64-3.49c.5-.67,1.34-1.66,2.52-3A85,85,0,0,1,232.4,29.4a36.67,36.67,0,0,1,6.67-4.74,1.23,1.23,0,0,1,1.38.13c.33.25.33.58,0,1s-1.38,1.53-3.14,3.36a144.56,144.56,0,0,1-10.94,9.73,27.91,27.91,0,0,0-4.78,4.36L217.82,48c-1.26,1.58-1.89,2.58-1.89,3l.13.62.88-.62c1.93-1.49,3.6-2.16,5-2q2.39.24,2,2.37a9,9,0,0,1-1.51,3.36l-.5.75q3.76,0,13.58-7.48.49-.37.75.12a45.55,45.55,0,0,1-7.42,5.36,28.37,28.37,0,0,1-3.64,1.75,11.1,11.1,0,0,1-2.77.87l-1.13.13-.88,1A26,26,0,0,1,217.06,60.2Zm-4.9.75q.75,1,3.9-1.5a14.66,14.66,0,0,0,3.39-3.37,5.05,5.05,0,0,1-1.76-.93,5.48,5.48,0,0,1-1.88-1.93l-1,.87A10,10,0,0,0,212.54,57C211.53,58.87,211.41,60.2,212.16,61Zm2.14-8c.08.08.29,0,.63-.38s.5-.54.5-.62l-.13-.38a.16.16,0,0,0-.25,0,3.18,3.18,0,0,0-.37.63Zm4.4,2.12c.67.33,1.07.48,1.19.43s.36-.31.69-.81q2.4-2.87,2.14-4.49a.73.73,0,0,0-.63-.37,11.18,11.18,0,0,0-2.76,1c-1.93,1-2.89,1.66-2.89,2A3.36,3.36,0,0,0,218.7,55.09Zm7.79-17.33,1.14-.88a68.76,68.76,0,0,0,9.68-9l1-1.13q-.37,0-4.52,3.74a73.89,73.89,0,0,0-5.91,5.74Z"/><path d="M236.55,56.71a2,2,0,0,1-.88-1.87,7,7,0,0,1,.5-2.62l.25-.63-.75.38a7.3,7.3,0,0,1-1.13.75c-.17.08-.46.25-.88.5s-.76.45-1,.62a1.3,1.3,0,0,1-1.57-.06,1.42,1.42,0,0,1-.31-1.69,8.56,8.56,0,0,1,2.7-3,12,12,0,0,1,4-2.24,1.77,1.77,0,0,1,2.14.62c.16.25.29.33.37.25.42-.17.72-.08.88.25l-.12.12c-.09.17-.17.32-.25.44a2.55,2.55,0,0,0-.25.44,13.54,13.54,0,0,0-3.27,4.48c-.42,1.34-.38,2.21.12,2.62.76.5,2.47.21,5.16-.87A47.43,47.43,0,0,0,252.52,49c1.42-1.08,2.09-1.37,2-.88-.09.34-1.24,1.29-3.46,2.87a59.48,59.48,0,0,1-5.84,3.74,30.56,30.56,0,0,1-3.27,1.5,14.24,14.24,0,0,1-3.08.81A3.77,3.77,0,0,1,236.55,56.71Zm-3.39-4.87c-.43.5-.59.75-.51.75a19.25,19.25,0,0,0,2.14-1.12c2.85-1.58,4.27-2.78,4.27-3.62-.16-.49-.83-.33-2,.5A17.22,17.22,0,0,0,233.16,51.84Z"/><path d="M216.18,100.09q-3.51,0-.5-6.73l1-1.87q6.52-12.34,19.36-23.81a94.13,94.13,0,0,1,15.46-10.23A6.86,6.86,0,0,0,254.15,55l1.13-1.74-.5.37-.25.25a7.34,7.34,0,0,1-2.89,1.74c-.93.25-1.56.09-1.89-.49q-1-1.87,2.7-5.68c2.48-2.53,4.59-3.8,6.35-3.8.67,0,1.05.13,1.14.37.25.17.41.21.5.13L262.2,44A25.76,25.76,0,0,1,265,40.75c.76-.75,1.26-1.12,1.51-1.12l.25.24c0,.25-.33.71-1,1.38q-2.89,3.48-9.81,13.46L255,56a94.77,94.77,0,0,0,13.58-7.23l1.26-.88c.16-.16.33-.08.5.25a2,2,0,0,1-.63.63l-.5.37q-2.89,2.13-14.84,8l-1.51,2q-9.55,13.73-21.37,27.81Q220.47,100.1,216.18,100.09Zm-.37-.74q2.88.24,10.18-7.73a309.53,309.53,0,0,0,23.89-30.55L252.14,58a75.41,75.41,0,0,0-8,4.62,62.62,62.62,0,0,0-9.93,8.1,82.17,82.17,0,0,0-8.93,10q-8.92,11.22-9.93,16.95C215.05,98.76,215.22,99.35,215.81,99.35ZM251.13,55c.93,0,2.2-.77,3.84-2.31a27.72,27.72,0,0,0,3.83-4.3,4.26,4.26,0,0,0,.88-1.62.32.32,0,0,0-.37-.37q-2.26,0-6.54,5C250.67,53.76,250.13,55,251.13,55Z"/><path d="M265.84,55q-2-1.74,4.78-8.48c1.51-1.49,2.47-2.12,2.89-1.87s.3.46-.12.88l-.44.43c-.13.13-.34.31-.63.56a4.94,4.94,0,0,0-.82.88l-2.26,2.49q2.13.38,2.13,1.5c0,.83-.77,1.78-2.32,2.86S266.43,55.54,265.84,55Zm.51-.37q.12.24.81,0a4.86,4.86,0,0,0,1.32-.75,7.86,7.86,0,0,0,2.14-2.12c.17-.42,0-.75-.5-1a1.39,1.39,0,0,0-1.26-.12,6.66,6.66,0,0,0-1.63,1.8A3.36,3.36,0,0,0,266.35,54.59Z"/><path d="M273.51,55.71a2.11,2.11,0,0,1,0-2A12.25,12.25,0,0,1,276.15,50a8.38,8.38,0,0,1,2.26-2l1.26-.87c.42,0,.63-.13.63-.38q0-.12.63-.12a2.25,2.25,0,0,1,1,.25l.75-1.25a42,42,0,0,0,4.15-10.1,41.94,41.94,0,0,0,1.26-11.35q-.14-.87-.51-.87-1.12,0-7.16,2.37a.88.88,0,0,0-.38.13l-.63.24.25.13c.5.25.34.5-.5.75a1.11,1.11,0,0,0-.5.12c-.84.25-1.39.25-1.64,0s-.5-.37-.5-.62q0-1,4-2.49,8.29-3.5,21.88-5.24a71.35,71.35,0,0,1,12.95-.62c3.18.33,4.78,1.16,4.78,2.49a2.87,2.87,0,0,1-1.39,1.74.76.76,0,0,1-1,0l-.38-.24.75-.88c.51-.5.76-.83.76-1q-.13-1.12-8.55-.75a113,113,0,0,0-19,2.86l-2.76.63.12,2.37a50.33,50.33,0,0,1-.5,7.48,56.23,56.23,0,0,1-1.51,7,40.37,40.37,0,0,1-3,6.36q-3.51,6.24-5.9,8.23C275.86,56.17,274.43,56.62,273.51,55.71Zm.88-.25c.42.25,1.38-.37,2.89-1.87s2.35-2.78,2.52-3.62a1.43,1.43,0,0,0,.25-1.37v-.37l-1.26,1.25a18.3,18.3,0,0,0-3.64,4C274.47,54.46,274.22,55.13,274.39,55.46Z"/><path d="M256.29,92.49a4.34,4.34,0,0,1-1.76-.5,3.13,3.13,0,0,1-.88-2.74,13.39,13.39,0,0,1,1.63-5.49,48,48,0,0,1,7.54-10.28,76.28,76.28,0,0,1,10.82-9.67,21.72,21.72,0,0,1,10.05-4.61l1.64-.25,1-1.25,4.28-5.48-1.13.62q-2.64,1.62-3.77.75a2,2,0,0,1-.26-1.12q.26-1.5,2.77-4.86c1.17-1.33,1.93-2,2.26-2,.59,0,.88.17.88.5a12.53,12.53,0,0,1-1,1.12c-2.52,3.08-3.69,5.07-3.52,6q.87,0,4.52-2.5a13.28,13.28,0,0,0,3-2.74c2.18-2.24,3.48-3.33,3.9-3.24.25,0,.38,0,.38.12a11.78,11.78,0,0,1-1.89,2.37l-9.3,11.35Q290.61,58,298.78,54a55.3,55.3,0,0,0,8.68-5.23,14.79,14.79,0,0,1,1.25-.88.53.53,0,0,1,.51.25l-.76.75a77.31,77.31,0,0,1-10.81,6.48,65.3,65.3,0,0,1-10.44,4.12,2.64,2.64,0,0,0-1.19,1q-.69.87-5.34,7.23Q272,79.39,267.16,84.76t-8.36,7.11A7.9,7.9,0,0,1,256.29,92.49Zm-1.26-1q2,1.38,8-4.36,4.79-4.48,14.59-17.58l6.91-9.48a.22.22,0,0,0-.25-.25q-4.65.38-11.19,5.36a61.65,61.65,0,0,0-5.78,5q-11.19,10.47-12.82,18.45C254.27,90,254.44,91,255,91.49Z"/><path d="M310.72,58.45c-.67-.33-.71-.7-.12-1.12s.92-.37,1.26.12a.67.67,0,0,1-.19.88A.8.8,0,0,1,310.72,58.45Zm4.28-7c-.17-.08-.17-.5,0-1.25q.75-2.86,4.71-8.48t13-17.33q7.54-9.72,9.43-10.59a1.74,1.74,0,0,1,.75-.13.22.22,0,0,1,.25.25c0,.33-1.47,2.21-4.4,5.61q-9.3,11.1-15.21,19.2T316,51.1C315.84,51.59,315.5,51.72,315,51.47Z"/></g></g></svg>