<svg xmlns="http://www.w3.org/2000/svg" viewBox="0 0 115.3 85.27"><title>questions</title><g id="Слой_2" data-name="Слой 2"><g id="Слой_1-2" data-name="Слой 1"><path d="M46.91,8.26Q48,16.49,42.57,28A91.21,91.21,0,0,1,26.79,50.53Q14.22,64,6.42,64H5.79q-6,0-5.78-6.61Q.27,51.9,3.78,44a78.08,78.08,0,0,1,9.68-15.9,22.68,22.68,0,0,0,3.65-6q3.13-8.85,6.28-12.84Q28.06,3,33.83.9,38.74-1,42.44,1T46.91,8.26Zm-1,6q.89-6.73-2.39-7.74T34.33,10A82.61,82.61,0,0,0,19,24.47a9,9,0,0,0-2,4,4,4,0,0,0,.51,3.24l.37.37h-.25c-1,0-1.59-.41-1.76-1.24l-.5-2-2.26,3A63.67,63.67,0,0,0,6.3,43.48,50.13,50.13,0,0,0,2.21,55.7c-.63,3.62,0,5.92,1.82,6.92q5.16,2,14.08-5.42a95,95,0,0,0,15.6-16.4Q44.39,26.46,45.9,14.25ZM32.7,3.15Q24.27,8.39,19.88,20.6a13.88,13.88,0,0,1,2.2-2.43,80,80,0,0,1,6.41-5.48,60.65,60.65,0,0,1,9-5.93c2.85-1.49,5.4-1.82,7.67-1A6.52,6.52,0,0,0,40.24,1.4C37.89.9,35.38,1.49,32.7,3.15Z"/><path d="M38.36,48.28c-.26-.5,0-1.24.62-2.24a62.6,62.6,0,0,1,4.78-6l1.38-1.24a6.46,6.46,0,0,1,1.39-1.13c.42-.24.75-.24,1,0a.92.92,0,0,1-.37,1.13c-.09.08-.26.27-.51.56s-.58.64-1,1.06a11.41,11.41,0,0,0-1,1.12,41.78,41.78,0,0,0-3,3.24A7.81,7.81,0,0,0,43,43.92a26.5,26.5,0,0,1,3.27-2.06,12.7,12.7,0,0,1,2.39-1.18c.58,0,.79.25.62.75a6.49,6.49,0,0,1-1.13,1.62q-3.13,3.73-.63,4,1.89.12,5.66-1.69a37,37,0,0,0,6.41-3.8.65.65,0,0,1,.88.25q-6.78,5.36-12.32,5.86-2.76.26-2.64-1.62a7.11,7.11,0,0,1,1.89-3.49c.42-.58.58-.87.5-.87-.25-.25-1.89.74-4.9,3A22.46,22.46,0,0,0,40.12,47C39.11,48,38.52,48.45,38.36,48.28Z"/><path d="M32.7,85.19c-.09.16-.3.08-.63-.25l-.38-.13,1.13-1.74L44.89,63.49Q60.1,39.55,67.27,30.7q.89-1,1.26-.87c.25,0,.38,0,.38.13q0,.62-4.53,7.1l-3,4.24.25.38.26.49,2.26-1.24a19.6,19.6,0,0,1,4.78-1.87c.83,0,1.34.25,1.51.74q.49,1.26-2.27,4.87l-1.63,1.87q4.77,1.86,11.69-2,2.13-1.24,4.4-2.86c.17-.17.32-.21.44-.13s.15.21.06.37l-.63.63a26.15,26.15,0,0,1-4.65,3c-4.36,2.24-8.38,2.79-12.07,1.62l-1.13,1.25q-4.53,4.23-6.16,1.37a4.27,4.27,0,0,1,0-3.24l.13-.63c-.17.25-1.18,1.67-3,4.24q-6.42,8.73-14.46,22.07Q33.58,84.31,32.7,85.19Zm26.9-35A2.85,2.85,0,0,0,62,49.28a11.46,11.46,0,0,0,1.07-.87c.46-.42.86-.79,1.19-1.12l.38-.63a8.13,8.13,0,0,1-2.89-2.74c-.08-.25-.34-.21-.75.12a5.13,5.13,0,0,0-1.26,1.87C58.81,48.49,58.76,49.9,59.6,50.15ZM65.26,46c.08,0,.31-.21.69-.62s.82-.94,1.32-1.56A15.38,15.38,0,0,0,68.4,42.3a6.45,6.45,0,0,0,1-1.75q.25-.61.12-.75-.37-.37-4.14,1.38c-2,1.08-3,1.83-3,2.24,0,.25.35.75,1.07,1.5A2.92,2.92,0,0,0,65.26,46Z"/><path d="M79.59,47.53a1.84,1.84,0,0,1,0-1.87,11.53,11.53,0,0,1,2.52-3.61,15.27,15.27,0,0,1,2.13-2l1.26-.74c.42,0,.63-.13.63-.38q0-.12.63-.12c.58.16.92.37,1,.62-.16.17-.29.21-.37.12a.81.81,0,0,0-.38.5l-.25,1.13a2.43,2.43,0,0,0,.5,2.24Q91,46.78,97.32,42.05l.88-.5c.33-.17.54-.08.63.25l-1.51,1.12A12.37,12.37,0,0,1,92.67,45a7,7,0,0,1-5-.62,7.45,7.45,0,0,1-1.13-1.12c-.17-.34-.3-.42-.38-.25a12.55,12.55,0,0,1-2.39,3.24Q80.85,49,79.59,47.53Zm.76-.12c.33.42,1.29-.17,2.89-1.75a8.2,8.2,0,0,0,2.51-3.74A3.76,3.76,0,0,0,86,40.8l-.12-.5-1.26,1.25a20.62,20.62,0,0,0-3.52,3.87C80.51,46.5,80.26,47.16,80.35,47.41Z"/><path d="M95.43,48.78a2.53,2.53,0,0,1-.88-2.87,11,11,0,0,1,2.58-3.74,12.83,12.83,0,0,1,4-2.86,3.3,3.3,0,0,1,2-.32c.59.13.88.4.88.81a4.48,4.48,0,0,1-1.51,2.62C101.22,43.5,100.38,44,100,44c-.59,0-.5-.25.25-.74a10.36,10.36,0,0,0,2.39-2.06q1-1.18.63-1.56c-.25-.25-1,.08-2.39,1a13.59,13.59,0,0,0-4.21,3.92c-1,1.54-1.37,2.69-.95,3.43s1.6,1,3.78.75a23.08,23.08,0,0,0,7-2.12,42.82,42.82,0,0,0,6.66-4l1-.62.62-.5a.51.51,0,0,1,.51.37l-.63.5a46.32,46.32,0,0,1-5.28,3.49l-2.77,1.38Q98.7,51.15,95.43,48.78Z"/></g></g></svg>