<?xml version="1.0" encoding="UTF-8"?>
<svg id="_Слой_2" data-name="Слой 2" xmlns="http://www.w3.org/2000/svg" viewBox="0 0 103.09 112.63">
  <defs>
    <style>
      .cls-1 {
        fill: none;
        stroke: #48494a;
        stroke-linecap: round;
        stroke-linejoin: round;
      }
    </style>
  </defs>
  <g id="Layer_1" data-name="Layer 1">
    <g>
      <circle class="cls-1" cx="33.4" cy="70.02" r="32.89" transform="translate(-11.49 6.75) rotate(-9.86)"/>
      <circle class="cls-1" cx="33.4" cy="70.02" r="26.96" transform="translate(-30.07 25.4) rotate(-29.39)"/>
      <circle class="cls-1" cx="69.7" cy="79.24" r="32.89" transform="translate(-17.16 139.17) rotate(-83.27)"/>
      <circle class="cls-1" cx="69.7" cy="79.24" r="26.96" transform="translate(-15.83 17.42) rotate(-12.8)"/>
      <g>
        <polygon class="cls-1" points="30.14 27.16 24.01 38.5 12.66 32.37 10.06 23.63 14.02 17.92 21.04 15.83 27.54 18.42 30.14 27.16"/>
        <polyline class="cls-1" points="10.06 23.63 17.67 24.47 23.65 22.69 27.54 18.42"/>
        <polyline class="cls-1" points="21.04 15.83 23.65 22.69 24.01 38.5"/>
        <polyline class="cls-1" points="24.01 38.5 17.67 24.47 14.02 17.92"/>
        <line class="cls-1" x1="12.66" y1="32.37" x2="17.67" y2="24.47"/>
        <line class="cls-1" x1="23.65" y1="22.69" x2="30.14" y2="27.16"/>
      </g>
      <g>
        <line class="cls-1" x1="12.68" y1=".5" x2="16.05" y2="11.81"/>
        <line class="cls-1" x1="21.6" y1="11.43" x2="24.58" y2="3.11"/>
        <line class="cls-1" x1="11.04" y1="14.58" x2="3.99" y2="9.25"/>
      </g>
    </g>
  </g>
</svg>