<svg xmlns="http://www.w3.org/2000/svg" viewBox="0 0 220.46 70.64"><title>rsvp</title><g id="Слой_2" data-name="Слой 2"><g id="Слой_1-2" data-name="Слой 1"><path d="M33.36,70.27a.79.79,0,0,1-.69.37,2.05,2.05,0,0,1-1.13-.5A12.29,12.29,0,0,1,30,68.77Q27.2,66,21.67,59.17a76.9,76.9,0,0,1-9.06-13.71A7.14,7.14,0,0,0,11.48,44L9.85,46.58q-6.79,12.09-8,16.21l-.25.75.63.24q.75.25,0,.75c-1.09.67-1.81.38-2.14-.87a3.55,3.55,0,0,1,.13-1.5Q1.3,57.3,9.09,43.46a17.59,17.59,0,0,0,1.51-2.87L10,38.72c-.5-1.57-.5-2.32,0-2.24a1.91,1.91,0,0,1,.76.25c.33.08.63.42.88,1l.38.62L14.62,34A181.37,181.37,0,0,1,25.56,17.65Q29.21,12.79,34,7.43A55.24,55.24,0,0,1,40.65.7,2.23,2.23,0,0,1,42,.07c.76,0,1.13.21,1.13.63a13.67,13.67,0,0,1-1.5,1.74q-6,6.62-11.19,13.47-4.53,5.61-7.67,10.35l-1,1.37,1.38-1.5q2.4-2.49,4.66-4.61A88.1,88.1,0,0,1,39,12.79a62.3,62.3,0,0,1,17.72-8.6c2.94-.58,5.07-.58,6.42,0a6.48,6.48,0,0,1,3.14,2,6.15,6.15,0,0,1,1.63,4.24,14.24,14.24,0,0,1-.75,5.11q-2,6-8.8,12.6a52.7,52.7,0,0,1-8.3,6.6q-12.19,8.12-24.14,10.1a24.57,24.57,0,0,1-8.17.13A14.33,14.33,0,0,1,14,43.46l-.51-.37.76,1.62q4,7.86,14.08,20.32l3.27,4q.63.87.63-.12c0-.17.1-.25.31-.25a.78.78,0,0,1,.57.25A1.08,1.08,0,0,1,33.36,70.27ZM27.83,42.84A63.16,63.16,0,0,0,54,29.5a44,44,0,0,0,9.3-10.35q4-7.11,2.64-11.47a4.13,4.13,0,0,0-2.76-2.62Q59.5,3.93,51.09,7.56A73.42,73.42,0,0,0,31.47,20a68.42,68.42,0,0,0-9.18,9.1,47.67,47.67,0,0,0-3.83,5.05c-1.3,2-1.87,3.06-1.7,3.31l-.25.12h-.25c-.17,0-.25-.2-.25-.62s-.25-.13-.76.62l-.63,1.12-1.38,2.37c-.17.42.34,1,1.51,1.62Q18.4,45,27.83,42.84Z"/><path d="M63,69.77A20.4,20.4,0,0,1,56.62,69a14,14,0,0,1-8.93-7.23,14.28,14.28,0,0,1-1.64-6.48,19.25,19.25,0,0,1,.26-3.62,21,21,0,0,1,5-8.66,32.92,32.92,0,0,1,9.24-7.17q11.33-6,19.49-3l1.13.38.76-.5c3-1.58,5.28-2.74,6.79-3.49q4.14-1.87,18.86-7.23c1-.33,2.17-.75,3.52-1.25l3.39-1.25c.92-.33,1.55-.54,1.89-.62l2.13-.87L120,16A46,46,0,0,1,136.33,2.44,14.72,14.72,0,0,1,140.48.82c.5-.16.83-.16,1,0h.63c.17-.08.42,0,.75.31a1.19,1.19,0,0,1,.51.81c.08.42-.42,1.42-1.51,3q-2.64,3.24-10.06,7.6-7,3.75-9.55,4.86A4.61,4.61,0,0,0,120.36,19q-2,2.75-7.17,11Q103,46.34,92.32,55.68,80,66.52,67.68,69.27A20.65,20.65,0,0,1,63,69.77Zm-1.51-1.12a25.73,25.73,0,0,0,8.8-1.87A50.23,50.23,0,0,0,84.4,59.3,91.48,91.48,0,0,0,98.17,46.64a164.53,164.53,0,0,0,13.77-18.76L116.46,21l.88-1.37h-.25l-1.38.5c-.84.33-2.1.79-3.77,1.37s-3.44,1.21-5.28,1.87Q93.58,28.25,88.3,30.62a38.82,38.82,0,0,0-3.58,1.93A12.44,12.44,0,0,0,82.52,34a5.12,5.12,0,0,0,.75.62,13,13,0,0,1,3.14,3.24,20.69,20.69,0,0,1,3,6.86c.33,1.25.25,1.87-.25,1.87-.25,0-.42-.25-.5-.75a21.37,21.37,0,0,0-1.89-5.24,17.06,17.06,0,0,0-3.65-4.86,6.71,6.71,0,0,0-1.57-1.06c-.21,0-.77.23-1.69.81a32.31,32.31,0,0,0-8,8.11,20.2,20.2,0,0,0-3.77,8.73c-.09.58,0,1,.25,1.12s.5.08,1-.25c.51-.17.76-.21.76-.13a1.48,1.48,0,0,1-1.51.88,1.2,1.2,0,0,1-.88-.38,2.09,2.09,0,0,1-.38-1.74q.38-6.24,6.54-12.72A26,26,0,0,1,79,34.61c.66-.5,1-.79,1-.87a4.69,4.69,0,0,0-1.13-.38q-6.54-1.74-16.09,2.75A31.07,31.07,0,0,0,50.71,46.45q-5.41,7.86-1.76,15a12.38,12.38,0,0,0,8.17,6.85A20.41,20.41,0,0,0,61.52,68.65Zm61-52.74c0,.08.23,0,.69-.19s1.11-.52,2-.93l2.76-1.38Q141,6.32,142.11,1.94c.08-.16,0-.25-.25-.25q-3.53,0-12,6.61a44.31,44.31,0,0,0-5.9,6Z"/><path d="M113.32,67.9a8.59,8.59,0,0,0,4.65-2c.59-.41.67-.62.25-.62A.22.22,0,0,1,118,65a.85.85,0,0,1,.63,0c.25.09,1-.33,2.14-1.25q3.77-3,13.07-12.21Q157.2,28.38,172,17.9a72.82,72.82,0,0,1,11.19-7,14.34,14.34,0,0,1,5.28-1.49,3.79,3.79,0,0,1,3.4,1.49,14,14,0,0,1,2,3.49c0,.09-.06.13-.19.13a1.53,1.53,0,0,1-.44-.07.84.84,0,0,1-.38-.18l-.25-.25-.31-.63a3,3,0,0,0-.44-.62,5.5,5.5,0,0,1-.82-1.12,5.12,5.12,0,0,0-.57-.87,1.88,1.88,0,0,0-1.63-.63,20.48,20.48,0,0,0-5,1.62q-4.78,2.13-13.07,8.36-11.44,8.59-35.08,31.42Q124.89,62,122,64.41a24.18,24.18,0,0,1-4.77,3.36,7.09,7.09,0,0,1-5.22.82,3.52,3.52,0,0,1-2.45-3.43q-.63-6,5.53-17.83a122.74,122.74,0,0,1,15.46-23.44A131.64,131.64,0,0,1,145,8.8c1.17-1,1.93-1.16,2.26-.5.09.09-.25.59-1,1.5a7.65,7.65,0,0,1-.88,1,4.6,4.6,0,0,0-.76.87c-.17.25-.33.37-.5.37a.51.51,0,0,0-.5.25l-3.52,4q-9.32,10.61-12.45,15a150.16,150.16,0,0,0-11.82,19.2q-4.52,9-4.52,13.84c0,1.83.29,3,.88,3.37A2,2,0,0,0,113.32,67.9Z"/><path d="M148,69.89c-.42,0-.71-.37-.88-1.12q0-1.62,6.16-12.22Q164,37.23,172.16,26.63,182,13.42,183.1,13.17a.83.83,0,0,1,.56.37,1.11,1.11,0,0,1,.32.62q0,.38-3.65,5.36l-1.51,2,1.51-1.5a73.09,73.09,0,0,1,9.43-9q3.13-2.37,7.17-4.87A47.9,47.9,0,0,1,210.25.45,13.87,13.87,0,0,1,216,.2c3.18.66,4.65,2.66,4.4,6q-.25,7.37-9.18,19.08-2.52,3.24-8.17,9.35a81.08,81.08,0,0,1-14.71,11.6q-7.31,4.11-13.21,4.48a11.33,11.33,0,0,1-3.39,0,7.78,7.78,0,0,1-3.65-1.62q-2.13-1.74-2.64-6.23l-.25-2-1.38,2-7.8,12.47q-7.41,12-7,12.59l.26-.13c.25-.24.54-.16.88.25.08.17-.09.46-.51.88C149.07,69.73,148.52,70.06,148,69.89ZM173.41,49.2c3.78-.08,8.13-1.58,13.08-4.49q11.19-6.48,21.75-19.33T219.18,4.94a3.6,3.6,0,0,0-.63-2.5c-.42-.58-1.38-.95-2.89-1.12q-3.9-.5-10.25,2a61.39,61.39,0,0,0-12.88,7.1,85.29,85.29,0,0,0-12.07,11A186.19,186.19,0,0,0,166.63,38.6L165.75,40l.37.75c.08.33.3,1.33.63,3q.51,3.87,2.14,4.74A9.67,9.67,0,0,0,173.41,49.2Z"/></g></g></svg>