<svg xmlns="http://www.w3.org/2000/svg" viewBox="0 0 186.19 102.09"><g data-name="Слой 2"><g data-name="Слой 1"><path d="M6 66.56a1.74 1.74 0 0 1-1-.25c-.42-.58-.46-1-.13-1.12.09-.08.25 0 .51.12l.25.38 1-.5A58.28 58.28 0 0 0 16 58.7 61.6 61.6 0 0 0 25.14 48q3.27-4.23 8-11.72 6.54-9.84 10.69-15a65.74 65.74 0 0 1 8.55-8.85 70.64 70.64 0 0 1 5.66-4.37l.37-.25-.63-.37a44.28 44.28 0 0 0-13.9-5.71 35.59 35.59 0 0 0-18.74 1.62 78.75 78.75 0 0 0-13.32 6.23 37.28 37.28 0 0 0-8.68 6.61q-2.76 3-2.76 3.86c0 .17-.09.17-.25 0s-.17-.45 0-.87q1.88-5 11.94-11A71.94 71.94 0 0 1 23.26 2.6 37.09 37.09 0 0 1 34.45.1a33.3 33.3 0 0 1 12.32 1.38 60.15 60.15 0 0 1 10.94 4.86l1.63 1 1.51-.75q5-2.25 6.41-.63c.34.59.38 1 .13 1.13-.17-.17-.25-.29-.25-.38q0-1.74-5 .63l-1.39.74q0 .26 5.16 3.37a53.37 53.37 0 0 0 10.94 4.61q12.69 4 21.12 0a16.8 16.8 0 0 0 4.4-3 3.66 3.66 0 0 1 .88-.5c.17 0 .33.13.5.38a.62.62 0 0 1 .13.62 9.16 9.16 0 0 1-2.39 2.31 15 15 0 0 1-3.77 2.3l-2.64.75a29.09 29.09 0 0 1-5.16.37 33.58 33.58 0 0 1-4.77-.24 57.78 57.78 0 0 1-22.63-8.73l-2.8-1.61q-.63 0-5.28 4a92.67 92.67 0 0 0-7.17 7.35A159.22 159.22 0 0 0 37 34.27Q30 45 28 47.86a81.83 81.83 0 0 1-9.3 10.84 60.52 60.52 0 0 1-6.92 4.87C8.76 65.4 6.87 66.39 6 66.56Zm19.74 2.62c-.08-.17.17-.5.76-1a70.51 70.51 0 0 0 7.79-7.86q5.66-6.6 15-22.19a102.18 102.18 0 0 1 7.17-10.72q6.16-7.6 12.07-9.35a1.15 1.15 0 0 1 .69-.13 2 2 0 0 0 .82-.12 1.54 1.54 0 0 1 1.13.37c.25.25.38.44.38.56s-.13.11-.38-.06-.5-.2-1-.12a11.62 11.62 0 0 0-4.4 2.24 35.14 35.14 0 0 0-7.1 6.73 102.34 102.34 0 0 0-7.73 11.72q-6.68 11-11.82 18a61.4 61.4 0 0 1-11.46 11.3q-1.52 1.13-1.89.63ZM60.6 59.83a1.87 1.87 0 0 1-.88-.63 3 3 0 0 1-.25-1.49q.24-2.51 4.4-7.24l1-1.12-.75.63q-2 1.49-6 4-3.9 2.12-4.77 1.12c-.68-.83-.51-2 .5-3.37 1.76-2.32 2.77-2.91 3-1.74.08.33-.25.87-1 1.62a7.93 7.93 0 0 0-1 1.24 14.06 14.06 0 0 0-.75 1.25c-.17.33-.21.54-.13.62q.51.51 4.15-1.62a44.26 44.26 0 0 0 9.31-6.73 8.79 8.79 0 0 1 1.51-1.12c1-.08 1.51.12 1.51.62q0 .51-3.15 3.37a46.21 46.21 0 0 0-5.91 6.86q-1.79 2.9-.54 3.1a5.92 5.92 0 0 0 3.58-.87q2.2-1.12 7.61-4.74c.25-.16.65-.43 1.19-.81s1-.7 1.45-1 .8-.56 1.13-.81l1.64-1.12a.36.36 0 0 1 .44.06c.12.13.1.27-.07.44l-.63.5-1.88 1.37q-10.44 7.11-13 7.61c-.96.17-1.54.17-1.71 0Z"/><path d="M78.7 58.7a1.94 1.94 0 0 1-.88-1.87 7 7 0 0 1 .5-2.61l.26-.63-.76.38a6.51 6.51 0 0 1-1.13.74c-.17.09-.46.25-.88.5s-.76.46-1 .63a1.28 1.28 0 0 1-1.57-.07 1.4 1.4 0 0 1-.31-1.68 8.48 8.48 0 0 1 2.7-3 12.21 12.21 0 0 1 4-2.25 1.76 1.76 0 0 1 2.14.63c.17.25.29.33.38.25A.61.61 0 0 1 83 50l-.13.12a4.31 4.31 0 0 1-.25.44 2.87 2.87 0 0 0-.25.43 13.56 13.56 0 0 0-3.27 4.49c-.42 1.33-.38 2.2.12 2.62q1.14.75 5.16-.87A46.91 46.91 0 0 0 94.67 51q2.13-1.62 2-.87c-.08.33-1.24 1.29-3.46 2.87a61.42 61.42 0 0 1-5.84 3.74 27.85 27.85 0 0 1-3.27 1.49A13.74 13.74 0 0 1 81 59a3.69 3.69 0 0 1-2.3-.3Zm-3.39-4.86q-.63.75-.51.75a18.26 18.26 0 0 0 2.14-1.12q4.28-2.37 4.28-3.62c-.17-.5-.84-.33-2 .5a17.22 17.22 0 0 0-3.91 3.49Z"/><path d="M101.58 58.33q-3 .87-4-.75c-.5-1 0-2.49 1.51-4.49q.75-1 .63-1a5.49 5.49 0 0 1-2 .24l-1.76.13-1.89 2c-1.76 2-2.6 3.16-2.52 3.5s0 .37-.25.37l-.3-.25a1.56 1.56 0 0 1-.38-.25 1.34 1.34 0 0 1-.12-1l.88-1.62c.5-.66 1.78-2.1 3.83-4.3s3.42-3.63 4.09-4.3c.92-.75 1.51-1 1.76-.75q.89.63-2.64 4.24l-2 1.87 1.38-.12a5.76 5.76 0 0 0 3.4-1c1.76-1.66 2.89-2.25 3.39-1.75q.63.51-.63 1.5a33 33 0 0 0-3.08 2.93 18.18 18.18 0 0 0-2.2 2.68c-.42 1.25-.15 1.87.82 1.87a7.31 7.31 0 0 0 3.2-.87 51.79 51.79 0 0 0 9.69-5.74l2.38-1.62c.17-.08.3-.08.38 0s.08.21 0 .38a63.6 63.6 0 0 1-6 4.36 21.07 21.07 0 0 1-7.57 3.74ZM94.29 102.09q-3.53 0-.5-6.73l1-1.87q6.54-12.34 19.36-23.81 5.16-4.5 15.47-10.23a6.86 6.86 0 0 0 2.64-2.45l1.13-1.75-.5.38-.25.25a7.34 7.34 0 0 1-2.89 1.74c-.93.25-1.56.08-1.89-.5q-1-1.86 2.7-5.67t6.35-3.8c.67 0 1.05.12 1.13.37.25.17.42.21.51.13l1.76-2.15a25.76 25.76 0 0 1 2.76-3.24c.76-.75 1.26-1.13 1.51-1.13l.25.25c0 .25-.33.71-1 1.37q-2.9 3.49-9.81 13.47l-.88 1.28a93.79 93.79 0 0 0 13.58-7.24l1.26-.87c.16-.16.33-.08.5.25a2.27 2.27 0 0 1-.63.62l-.5.38q-2.9 2.11-14.84 8l-1.51 2q-9.56 13.73-21.37 27.81-11.07 13.15-15.34 13.14Zm-.38-.75q2.9.25 10.19-7.73A309 309 0 0 0 128 63.07l2.25-3.07a77.11 77.11 0 0 0-8 4.61 62.2 62.2 0 0 0-9.93 8.11 82.15 82.15 0 0 0-8.93 10q-8.93 11.22-9.93 17c-.3 1.04-.13 1.62.45 1.62ZM129.24 57q1.38 0 3.84-2.31a28.19 28.19 0 0 0 3.83-4.3 4.26 4.26 0 0 0 .88-1.62c0-.25-.12-.37-.38-.37-1.5 0-3.69 1.66-6.53 5-2.1 2.35-2.64 3.6-1.64 3.6Z"/><path d="M153.13 58.33q-3 .87-4-.75c-.51-1 0-2.49 1.5-4.49q.76-1 .63-1a5.42 5.42 0 0 1-2 .24l-1.76.13-1.88 2c-1.76 2-2.6 3.16-2.52 3.5s0 .37-.25.37l-.25-.25a1.56 1.56 0 0 1-.38-.25 1.29 1.29 0 0 1-.13-1l.89-1.62c.5-.66 1.77-2.1 3.83-4.3s3.41-3.63 4.09-4.3c.92-.75 1.5-1 1.76-.75q.87.63-2.64 4.24L148 52l1.39-.12a5.7 5.7 0 0 0 3.39-1c1.76-1.66 2.89-2.25 3.4-1.75q.61.51-.63 1.5a31.84 31.84 0 0 0-3.08 2.93 17.53 17.53 0 0 0-2.2 2.68c-.42 1.25-.15 1.87.81 1.87a7.32 7.32 0 0 0 3.21-.87 51.48 51.48 0 0 0 9.68-5.74l2.39-1.62c.17-.08.29-.08.38 0s.08.21 0 .38a64.65 64.65 0 0 1-6 4.36 21 21 0 0 1-7.61 3.71Z"/><path d="M168.84 59.7a1.17 1.17 0 0 1-.37-1.12q.24-2.74 5.65-8.11l.76-.87h-.25a4.69 4.69 0 0 0-.88.5q-6.67 5.49-9.05 4.86c-1.18-.41-1.35-1.33-.51-2.74a16.72 16.72 0 0 1 1.13-1.37l.38-.38c.84-.82 1.34-1 1.51-.49.08.16-.29.79-1.13 1.87-1.09 1.24-1.51 2-1.26 2.24s1-.12 2.39-.87a21 21 0 0 0 4.78-3l1-.75-.5-.63q-1.89-1.74 1.26-4.86c2.43-2.24 3.94-2.66 4.52-1.24a3 3 0 0 1-.5 2.49 28.84 28.84 0 0 1-2 3l-.38.37.38-.12a1.32 1.32 0 0 1 .94-.25 1.31 1.31 0 0 1 .94.25c.17.25-.46 1-1.88 2.37q-4.9 4.86-6.29 7.6l-.37.75.5.13a12.13 12.13 0 0 0 2.26-.63 28.75 28.75 0 0 0 3.27-1.87q3.39-2.11 9.68-6.6a2.07 2.07 0 0 1 1.26-.38l.12.13-.5.49-9.31 6.53a37.58 37.58 0 0 1-3.52 2.12q-3.15 1.58-4.03.58Zm4.15-11c.42.17 1-.25 1.89-1.25 1.84-2 2.76-3.45 2.76-4.36 0-.17-.29-.17-.88 0a9.32 9.32 0 0 0-3.26 3c-.93 1.35-1.09 2.22-.5 2.64Z"/></g></g></svg>