<svg xmlns="http://www.w3.org/2000/svg" viewBox="0 0 529.13 88.54"><g data-name="Слой 2"><g data-name="Слой 1"><path d="M13.8 68.26a1.47 1.47 0 0 1-1.51-1 2.26 2.26 0 0 1-.12-1.37q.49-2.61 6.54-11.34 6.15-9 15.58-21.2Q44.47 20.13 49.63 15l1.76-1.74-1.25-1.37a6.1 6.1 0 0 0-.76-.94 18.4 18.4 0 0 1-1.19-1.43 12.38 12.38 0 0 0-1.07-1.25 19.61 19.61 0 0 1-1.45-1.68q-.95-1.18-1.32-1.56-4-4-10.68-4a40.58 40.58 0 0 0-10.19 1.65Q10.91 6 3.37 14.4.73 17.4 1 17.64a.5.5 0 0 0 .37-.12c.17-.17.28-.17.32 0s-.06.33-.32.5c-.58.33-1 .33-1.25 0-.34-.5.19-1.64 1.57-3.43a26.2 26.2 0 0 1 4.84-4.8 44.62 44.62 0 0 1 12.57-7A50.33 50.33 0 0 1 29.64.19a26.82 26.82 0 0 1 6.42 0 25.75 25.75 0 0 1 2.64.62 20.42 20.42 0 0 1 5 2.37 27.5 27.5 0 0 1 4.91 4.74l2.89 3.36.88 1 .88-.87c.84-.83 1.55-1 2.14-.62.42.33.25 1-.51 2l-.75.87.5.38a19.81 19.81 0 0 0 3.9 2.49 20.5 20.5 0 0 0 9.43 2q8.42 0 12.82-2.86c.76-.5 1.26-.63 1.51-.38l-.25.5q-1.38 2.13-8.8 3.37a38.24 38.24 0 0 1-5.09.25 35.44 35.44 0 0 1-5-.25 22.23 22.23 0 0 1-8.55-3.49l-1.38-.88q-.37 0-9.68 11.23-6.54 7.72-15.15 19.13t-12 16.77q-3 4.74-2.39 6c.21.22.13.34-.21.34Z"/><path d="M40 50.81a1.85 1.85 0 0 1 0-1.87 11.54 11.54 0 0 1 2.52-3.62 15.14 15.14 0 0 1 2.13-2l1.26-.75c.42 0 .63-.13.63-.38q0-.12.63-.12c.58.17.92.37 1 .62-.16.17-.29.21-.37.13a.78.78 0 0 0-.38.5l-.25 1.12a2.42 2.42 0 0 0 .5 2.24q3.78 3.38 10.06-1.37l.88-.5c.33-.16.54-.08.63.25l-1.51 1.12A12.37 12.37 0 0 1 53 48.31a7 7 0 0 1-5-.62 7 7 0 0 1-1.13-1.12c-.17-.33-.3-.42-.38-.25a12.55 12.55 0 0 1-2.39 3.24c-1.93 1.83-3.31 2.24-4.1 1.25Zm.76-.13c.33.42 1.29-.16 2.89-1.74a8.31 8.31 0 0 0 2.51-3.74 3.88 3.88 0 0 0 .25-1.13l-.12-.49L45 44.82a20.62 20.62 0 0 0-3.52 3.87c-.61 1.08-.86 1.74-.77 1.99Z"/><path d="M31.53 88.46c-.08.17-.29.08-.63-.25l-.38-.12 1.13-1.75 12.07-19.57Q58.93 42.83 66.1 34c.59-.67 1-1 1.26-.88s.38 0 .38.13q0 .62-4.53 7.1l-3 4.24.25.38.26.5L63 44.2a20 20 0 0 1 4.78-1.87c.83 0 1.34.25 1.51.75.33.83-.42 2.45-2.27 4.86l-1.63 1.87q4.77 1.88 11.69-2 2.13-1.25 4.4-2.86c.17-.17.32-.21.44-.13s.15.21.06.38l-.62.62a26.53 26.53 0 0 1-4.66 3q-6.54 3.38-12.07 1.62l-1.13 1.25q-4.53 4.24-6.16 1.37a4.27 4.27 0 0 1 0-3.24l.13-.62q-.26.38-3 4.23Q48 62.15 40 75.49q-7.59 12.09-8.47 12.97Zm26.9-35a2.85 2.85 0 0 0 2.39-.87 8.88 8.88 0 0 0 1.07-.87c.46-.42.86-.79 1.19-1.12l.38-.63a8.13 8.13 0 0 1-2.89-2.74c-.08-.25-.34-.21-.75.13a5.07 5.07 0 0 0-1.26 1.87c-.92 2.53-.97 3.95-.13 4.19Zm5.66-4.11c.08 0 .32-.21.69-.62s.82-.94 1.32-1.56a13.08 13.08 0 0 0 1.13-1.56 6.41 6.41 0 0 0 1-1.74c.17-.42.21-.67.13-.75q-.39-.37-4.15 1.37c-2 1.08-3 1.83-3 2.24 0 .25.35.75 1.07 1.5a2.87 2.87 0 0 0 1.81 1.08Z"/><path d="M96.9 54.42q-3.14-1.24.26-6.11l1.13-1.37c.33-.5.46-.75.37-.75-.5 0-2.72 1.17-6.66 3.49l-3 2.12c-.67.67-1 1.13-1 1.38 0 .08-.13.08-.38 0-.25-.25-.29-.42-.13-.5q.25-.87 3.78-4.87l1.25-1.37-3.89 1.62c-.59.34-1.3.79-2.14 1.38q-4.65 3.73-5.79 3.74c-.75 0-1-.34-.62-1 .08-.17.25-.21.5-.13s1-.45 2.51-1.62a6 6 0 0 1 .51-.37c.58-.5.88-.79.88-.87s0-.21.25-.38l.63-.12a4.57 4.57 0 0 0 1-.75c.59-.5 1.22-1.08 1.89-1.75a15.78 15.78 0 0 0 1.38-1.49 14.49 14.49 0 0 0 2.26-3.24l.13-.63h-.5c-1.18 0-3.06.71-5.66 2.12a63.1 63.1 0 0 0-5.53 3.49l-.51-.5a34.14 34.14 0 0 1 10.31-5.73c1.34-.33 2.22-.17 2.64.5.34.5.26 1.16-.25 2a14.4 14.4 0 0 1-2.76 3.74l-.76 1a5.24 5.24 0 0 0 1-.37 12.58 12.58 0 0 0 4.52-2.62c1.34-1.25 2.18-1.62 2.52-1.12q.12.24-2.89 3.11l-3 3 .63-.38a65.21 65.21 0 0 1 6.79-3.24 21.28 21.28 0 0 0 2-1.12 13 13 0 0 1 4.76-2.71 2.91 2.91 0 0 1 1.13-.13c1.51 0 1.93.75 1.26 2.24a2.23 2.23 0 0 1-1 1.06c-.5.3-.84.36-1 .19a.43.43 0 0 1-.12-.31c0-.13.08-.19.25-.19s.29 0 .63-.31a4.48 4.48 0 0 0 .75-.81c.42-.66.38-1-.12-1-1.34 0-3.15 1-5.41 2.93a20.63 20.63 0 0 0-4.78 5.55c-.84 1.66-.62 2.58.63 2.74q5.79 1.13 18-6.6c.67-.42 1.43-.92 2.26-1.5 1-.66 1.6-.83 1.76-.5a5.87 5.87 0 0 1-1.32 1.06c-.88.62-2 1.35-3.39 2.18s-2.62 1.54-3.71 2.12q-10.23 5.33-14.25 3.7Z"/><path d="M115.76 51.68c-1.09-1.08-1-2.49.25-4.24A8.27 8.27 0 0 1 120 44q1.5-.63 2.13 0c.34.25.4.67.19 1.25a3.14 3.14 0 0 1-1.19 1.49 8.21 8.21 0 0 1-3.65 1.5 1.07 1.07 0 0 0-.88.62c-1 1.75-.54 2.74 1.39 3q5.66 0 14.08-5.86l1.51-1c.08-.08.2-.08.37 0a.24.24 0 0 1 .13.37 38.75 38.75 0 0 1-10.56 6c-3.9 1.43-6.52 1.56-7.76.31Zm1.89-4.24a5.47 5.47 0 0 0 2.51-1 3.87 3.87 0 0 0 1.51-1.62c.08-.25 0-.37-.25-.37l-1.42.75c-1.64 1.24-2.44 1.99-2.35 2.24Z"/><path d="M131.23 52.05a2.48 2.48 0 0 1-.88-2.86 10.68 10.68 0 0 1 2.57-3.74 12.71 12.71 0 0 1 4-2.87 3.28 3.28 0 0 1 2-.31c.59.12.89.39.89.81a4.56 4.56 0 0 1-1.51 2.62q-1.89 1.62-2.52 1.62c-.59 0-.5-.25.25-.75a10.36 10.36 0 0 0 2.39-2.06q1-1.18.63-1.56c-.25-.25-1.05.09-2.39 1a13.62 13.62 0 0 0-4.21 3.93c-1 1.54-1.36 2.68-.94 3.43s1.59 1 3.77.74a23 23 0 0 0 7-2.12 42.82 42.82 0 0 0 6.66-4l1-.62.63-.5a.49.49 0 0 1 .5.38l-.63.5a49.19 49.19 0 0 1-5.28 3.49l-2.76 1.37q-7.91 3.87-11.17 1.5Z"/><path d="M165.55 53.42q2 .38 12.19-7.48a9.92 9.92 0 0 1 2-1.37c.17-.08.3-.06.38.07a.23.23 0 0 1 0 .31c-.17.16-.88.75-2.14 1.74l-2.45 1.81-2.26 1.68c-.55.42-1.17.88-1.89 1.37s-1.27.88-1.69 1.13-.91.52-1.45.81a4.1 4.1 0 0 1-1.32.5l-1.13.12a1.75 1.75 0 0 1-1.07-.19 4.37 4.37 0 0 1-.94-.74c-.84-.83-1.09-2.25-.76-4.24.09-.25.21-.63.38-1.13a8.44 8.44 0 0 0 .31-1.06.82.82 0 0 0-.06-.56q-1 .75-2 1.62c-2.6 2.17-3.9 3.62-3.9 4.37a.22.22 0 0 1-.25.25c-.5 0-.67-.21-.5-.63a50.79 50.79 0 0 1 3.27-5.36 33.14 33.14 0 0 0 3-5.11q.14-.61-.12-.75a2 2 0 0 0-1.13.13q-4.78 1-11.32 6.36a22.78 22.78 0 0 0-1.82 1.68l-2.14 2.12a4.83 4.83 0 0 0-.94 1.06l-.13.25c-.08.08-.23.06-.44-.06s-.31-.23-.31-.32q0-.73 4.15-5.61c1-1.16 1.84-2.07 2.51-2.74.84-.83 1.43-1.16 1.76-1a.54.54 0 0 1 .13.38c0 .41-.55 1.16-1.64 2.24l-.25.25a11.43 11.43 0 0 0 1.26-.87Q158.39 40 162.4 40a3.11 3.11 0 0 1 1.77.44 1.27 1.27 0 0 1 .5 1.31 9.53 9.53 0 0 1-1.89 3.36 16.36 16.36 0 0 0-1.13 1.5l-.13.12a1.19 1.19 0 0 0 .38-.25 4.11 4.11 0 0 1 1.76-.87 1 1 0 0 1 .57.13.42.42 0 0 1 .19.37v.44a2.06 2.06 0 0 1-.19.62 1.81 1.81 0 0 0-.19.68q-1.26 5.21 1.51 5.57Z"/><path d="M179.75 57.17a7.08 7.08 0 0 1-4.21 1.68c-1.21 0-1.86-.73-1.95-2.06a1.52 1.52 0 0 0-.5-1.12 1 1 0 0 1-.38-.87q.14-2.13 7.17-11.47l2.64-3.5c.5-.66 1.34-1.66 2.51-3a85.81 85.81 0 0 1 10.06-10.47 36.67 36.67 0 0 1 6.67-4.74 1.23 1.23 0 0 1 1.38.13q.5.38 0 1c-.34.42-1.38 1.54-3.14 3.37q-7.17 6.86-10.94 9.73a27.91 27.91 0 0 0-4.78 4.36L180.51 45c-1.26 1.58-1.89 2.57-1.89 3l.13.62.88-.62c1.92-1.5 3.6-2.16 5-2q2.39.26 2 2.37a8.93 8.93 0 0 1-1.51 3.37l-.5.75q3.76 0 13.58-7.48.49-.37.75.12a46 46 0 0 1-7.42 5.36 28.37 28.37 0 0 1-3.64 1.75 11.1 11.1 0 0 1-2.77.87l-1.13.13-.88 1a26 26 0 0 1-3.36 2.93Zm-4.9.74q.75 1 3.9-1.49a14.88 14.88 0 0 0 3.39-3.37 5.05 5.05 0 0 1-1.76-.93 5.41 5.41 0 0 1-1.88-1.94l-1 .88a9.91 9.91 0 0 0-2.26 2.86c-1.02 1.92-1.14 3.25-.39 3.99Zm2.14-8c.08.09.29 0 .63-.37s.5-.54.5-.62l-.13-.38a.16.16 0 0 0-.25 0 3.23 3.23 0 0 0-.38.63Zm4.4 2.12a2.81 2.81 0 0 0 1.19.44q.19-.06.69-.81 2.4-2.86 2.14-4.49a.74.74 0 0 0-.63-.37 11.42 11.42 0 0 0-2.76 1c-1.93 1-2.9 1.67-2.9 2a3.38 3.38 0 0 0 2.27 2.25Zm7.79-17.33 1.13-.87a68.37 68.37 0 0 0 9.69-9l1-1.12q-.37 0-4.53 3.74a75.5 75.5 0 0 0-5.9 5.74Z"/><path d="M194.59 51.68q-1.64-1.62.25-4.24a8.24 8.24 0 0 1 4-3.49c1-.42 1.72-.42 2.14 0 .33.25.4.67.19 1.25a3.1 3.1 0 0 1-1.2 1.49 8.18 8.18 0 0 1-3.64 1.5 1.06 1.06 0 0 0-.88.62c-1 1.75-.55 2.74 1.38 3q5.66 0 14.08-5.86l1.51-1c.08-.08.21-.08.38 0a.24.24 0 0 1 .12.37 38.75 38.75 0 0 1-10.56 6c-3.92 1.48-6.52 1.61-7.77.36Zm1.88-4.24a5.46 5.46 0 0 0 2.52-1 3.93 3.93 0 0 0 1.51-1.62c.08-.25 0-.37-.25-.37l-1.39.75c-1.68 1.24-2.47 1.99-2.39 2.24Z"/><path d="M218 53.3q-3 .87-4-.75c-.5-1 0-2.49 1.51-4.49q.75-1 .63-1a5.45 5.45 0 0 1-2 .25l-1.76.12-1.88 2c-1.76 2-2.6 3.16-2.52 3.49s0 .37-.25.37l-.25-.25a1.31 1.31 0 0 1-.38-.25 1.34 1.34 0 0 1-.12-1l.88-1.62c.5-.66 1.78-2.1 3.83-4.3s3.42-3.63 4.09-4.3c.92-.75 1.51-1 1.76-.75q.87.63-2.64 4.24l-2 1.87 1.38-.12a5.63 5.63 0 0 0 3.39-1c1.76-1.66 2.9-2.24 3.4-1.75q.63.51-.63 1.5a33 33 0 0 0-3.08 2.93 17.53 17.53 0 0 0-2.2 2.68c-.42 1.25-.15 1.87.82 1.87a7.31 7.31 0 0 0 3.2-.87 50.92 50.92 0 0 0 9.68-5.74l2.39-1.62c.17-.08.3-.08.38 0s.08.21 0 .38a63 63 0 0 1-6 4.36A20.8 20.8 0 0 1 218 53.3Z"/><path d="M236.33 53.3c-2 .58-3.36.33-4-.75-.5-1 0-2.49 1.51-4.49.51-.66.71-1 .63-1a5.35 5.35 0 0 1-2 .25l-1.76.12-1.89 2c-1.76 2-2.59 3.16-2.51 3.49s0 .37-.25.37l-.25-.25a1.19 1.19 0 0 1-.38-.25 1.29 1.29 0 0 1-.13-1l.88-1.62c.51-.66 1.78-2.1 3.84-4.3s3.41-3.63 4.08-4.3c.93-.75 1.51-1 1.76-.75q.88.63-2.64 4.24l-2 1.87 1.38-.12a5.65 5.65 0 0 0 3.4-1q2.64-2.49 3.39-1.75c.42.34.21.84-.62 1.5a31.84 31.84 0 0 0-3.08 2.93 16.92 16.92 0 0 0-2.2 2.68c-.43 1.25-.15 1.87.81 1.87a7.39 7.39 0 0 0 3.21-.87 51.23 51.23 0 0 0 9.68-5.74l2.39-1.62c.17-.08.29-.08.38 0s.08.21 0 .38a66.35 66.35 0 0 1-6 4.36 20.88 20.88 0 0 1-7.63 3.75Z"/><path d="M250.66 53.67a1.94 1.94 0 0 1-.88-1.87 7 7 0 0 1 .5-2.61l.25-.63-.75.38a6.51 6.51 0 0 1-1.13.74c-.17.09-.46.25-.88.5s-.76.46-1 .63a1.28 1.28 0 0 1-1.57-.07 1.39 1.39 0 0 1-.31-1.68 8.48 8.48 0 0 1 2.7-3 11.78 11.78 0 0 1 4-2.24 1.77 1.77 0 0 1 2.14.62c.16.25.29.33.37.25.42-.17.71-.08.88.25l-.12.12c-.09.17-.17.31-.25.44a2.87 2.87 0 0 0-.25.43 13.56 13.56 0 0 0-3.36 4.5c-.42 1.33-.38 2.21.12 2.62.76.5 2.47.21 5.16-.87a47.14 47.14 0 0 0 10.31-6.24c1.42-1.07 2.09-1.37 2-.87q-.13.49-3.46 2.87a58.33 58.33 0 0 1-5.85 3.74 30.43 30.43 0 0 1-3.26 1.5A14.24 14.24 0 0 1 253 54a3.68 3.68 0 0 1-2.34-.33Zm-3.4-4.86c-.42.5-.58.75-.5.75a19.25 19.25 0 0 0 2.14-1.12q4.28-2.37 4.27-3.62c-.17-.5-.84-.33-2 .5a17.48 17.48 0 0 0-3.91 3.49Z"/><path d="M270.9 54.67a1.17 1.17 0 0 1-.38-1.12q.25-2.74 5.66-8.1l.76-.88h-.26a5.59 5.59 0 0 0-.88.5q-6.66 5.49-9.05 4.86c-1.17-.41-1.34-1.32-.5-2.74a14.85 14.85 0 0 1 1.13-1.37l.38-.37c.83-.83 1.34-1 1.51-.5.08.16-.3.79-1.14 1.87-1.09 1.24-1.5 2-1.25 2.24s1-.12 2.39-.87a21 21 0 0 0 4.77-3l1-.75-.5-.62q-1.89-1.76 1.25-4.87c2.43-2.24 3.94-2.66 4.53-1.24a3 3 0 0 1-.5 2.49 29.46 29.46 0 0 1-2 3l-.38.38.38-.13a1.36 1.36 0 0 1 .94-.25 1.38 1.38 0 0 1 .94.25c.17.25-.46 1-1.88 2.37q-4.9 4.86-6.29 7.6l-.38.75.51.13a12.13 12.13 0 0 0 2.26-.63 30.67 30.67 0 0 0 3.27-1.87q3.39-2.11 9.68-6.6a2 2 0 0 1 1.25-.38l.13.13-.5.5-9.31 6.48a35.14 35.14 0 0 1-3.52 2.12q-3.14 1.62-4.02.62Zm4.15-11c.42.17 1.05-.25 1.89-1.25 1.84-2 2.76-3.45 2.76-4.36 0-.17-.29-.17-.88 0a9.26 9.26 0 0 0-3.27 3c-.92 1.35-1.09 2.23-.5 2.64ZM278.19 88.46c-.08.17-.29.08-.63-.25l-.37-.12 1.13-1.75 12.07-19.57Q305.6 42.83 312.77 34c.58-.67 1-1 1.25-.88s.38 0 .38.13q0 .62-4.52 7.1l-3 4.24.25.38.25.5 2.26-1.25a20.2 20.2 0 0 1 4.78-1.87c.84 0 1.34.25 1.51.75.34.83-.42 2.45-2.26 4.86L312 49.81c3.19 1.25 7.08.58 11.7-2q2.13-1.25 4.4-2.86c.16-.17.31-.21.44-.13s.14.21.06.38l-.63.62a26.15 26.15 0 0 1-4.65 3q-6.54 3.38-12.07 1.62l-1.13 1.25q-4.53 4.24-6.16 1.37a4.27 4.27 0 0 1 0-3.24l.12-.62q-.25.38-3 4.23-6.42 8.73-14.46 22.07-7.55 12.08-8.43 12.96Zm26.91-35a2.86 2.86 0 0 0 2.39-.87 9.75 9.75 0 0 0 1.07-.87c.46-.42.85-.79 1.19-1.12l.38-.63a8.05 8.05 0 0 1-2.89-2.74c-.09-.25-.34-.21-.76.13a5.07 5.07 0 0 0-1.26 1.87c-.92 2.53-.96 3.95-.12 4.19Zm5.66-4.11c.08 0 .31-.21.69-.62s.81-.94 1.32-1.56a14.33 14.33 0 0 0 1.13-1.56 6.69 6.69 0 0 0 1-1.74q.24-.63.12-.75-.37-.37-4.15 1.37c-2 1.08-3 1.83-3 2.24 0 .25.36.75 1.07 1.5a2.86 2.86 0 0 0 1.82 1.08Z"/><path d="M324.83 51.68c-1.08-1.08-1-2.49.26-4.24a8.24 8.24 0 0 1 4-3.49c1-.42 1.72-.42 2.14 0 .33.25.39.67.19 1.25a3.1 3.1 0 0 1-1.2 1.49 8.18 8.18 0 0 1-3.64 1.5 1.06 1.06 0 0 0-.88.62c-1 1.75-.55 2.74 1.38 3q5.65 0 14.08-5.86l1.51-1c.08-.08.21-.08.38 0a.25.25 0 0 1 .12.37 38.75 38.75 0 0 1-10.56 6c-3.92 1.48-6.52 1.61-7.78.36Zm1.89-4.24a5.46 5.46 0 0 0 2.52-1 3.9 3.9 0 0 0 1.5-1.62c.09-.25 0-.37-.25-.37l-1.38.75c-1.68 1.24-2.47 1.99-2.39 2.24Z"/><path d="M359.16 44.82c.33-.08.54 0 .63.25l-.51.5-2.28 1.75-3.27 2.24-3.64 2.37a9.32 9.32 0 0 0-1.58.87 21.49 21.49 0 0 1-1.95 1.12 9.85 9.85 0 0 1-3.56 1.31 2.8 2.8 0 0 1-2.32-.5 1.88 1.88 0 0 1-.38-2 9.46 9.46 0 0 1 2.26-3.62 39.89 39.89 0 0 1 4.4-3.61c1.43-.92 2.22-1.62 2.39-2.12.08-.33-.12-.46-.63-.38a13.34 13.34 0 0 0-5.4 2.5c-.09 0-.32.16-.7.49a4.53 4.53 0 0 1-1.06.75l-.51.25c-.25-.25-.33-.41-.25-.5q1.89-1.48 3.27-2.37a10 10 0 0 1 3.77-1.68c1.17-.21 1.93.06 2.27.81s-.72 2-3.15 3.87q-5.77 4.49-5.78 6.6a1 1 0 0 0 .5 1 2.35 2.35 0 0 0 1.7-.18c.79-.3 1.49-.59 2.07-.88s1.43-.72 2.52-1.31l2.14-1.24q1.25-.75 3.77-2.5l3.64-2.62a11.46 11.46 0 0 1 1.64-1.17Z"/><path d="M358.78 55.42q0-1.74 2.76-5.49l.89-1.24-.13.12a1 1 0 0 0-.44.19c-.21.12-.4.23-.57.31q-3.77 2-4.65 2a1 1 0 0 1-.75-.25q-.88-1.25 1.63-4.37c1.76-2.41 3.15-3.82 4.15-4.24l.38-.12q.49 0 .75.75c.17.25-.42 1-1.76 2.24a23.54 23.54 0 0 0-2.04 2.06c-.72.79-1.28 1.45-1.7 2s-.59.86-.5.94.35 0 1.07-.31 1.55-.69 2.51-1.19 1.78-1 2.45-1.37a32.23 32.23 0 0 0 2.89-2.24c1.34-1.25 2.14-1.75 2.39-1.5a.89.89 0 0 1 .13 1 15 15 0 0 1-2.24 2.36q-5.42 5.35-6.29 7.6-1.12 2.86 4.15.62 6.66-2.86 16.85-10.34a.7.7 0 0 1 .88.12 71.56 71.56 0 0 1-8.93 6.11 52 52 0 0 1-9.68 5.24q-4.2 1.58-4.2-1Z"/><path d="M378.14 52.05a2.5 2.5 0 0 1-.88-2.86 10.87 10.87 0 0 1 2.58-3.74 12.71 12.71 0 0 1 4-2.87 3.26 3.26 0 0 1 2-.31c.58.12.88.39.88.81a4.51 4.51 0 0 1-1.51 2.62c-1.26 1.08-2.1 1.62-2.51 1.62-.59 0-.51-.25.25-.75a10.57 10.57 0 0 0 2.39-2.06c.67-.79.88-1.31.62-1.56s-1 .09-2.38 1a13.65 13.65 0 0 0-4.22 3.93c-1 1.54-1.36 2.68-.94 3.43s1.59 1 3.77.74a23 23 0 0 0 7-2.12 42.44 42.44 0 0 0 6.67-4c.25-.16.58-.37 1-.62l.63-.5a.49.49 0 0 1 .5.38l-.62.5a48.47 48.47 0 0 1-5.29 3.49l-2.76 1.37q-7.91 3.87-11.18 1.5Z"/><path d="M412.46 53.42q2 .38 12.2-7.48a9.92 9.92 0 0 1 2-1.37c.17-.08.29-.06.38.07a.23.23 0 0 1 0 .31c-.17.16-.88.75-2.14 1.74l-2.45 1.81-2.27 1.68c-.54.42-1.17.88-1.88 1.37s-1.28.88-1.7 1.13-.9.52-1.44.81a4.14 4.14 0 0 1-1.33.5l-1.13.12a1.77 1.77 0 0 1-1.07-.19 4.63 4.63 0 0 1-.94-.74c-.84-.83-1.09-2.25-.75-4.24.08-.25.21-.63.37-1.13a9 9 0 0 0 .32-1.06.89.89 0 0 0-.06-.56c-.68.5-1.35 1-2 1.62-2.6 2.17-3.89 3.62-3.89 4.37a.22.22 0 0 1-.25.25q-.76 0-.51-.63a50.79 50.79 0 0 1 3.27-5.36 34.62 34.62 0 0 0 3-5.11c.08-.41 0-.66-.13-.75a2 2 0 0 0-1.13.13q-4.79 1-11.31 6.36a24.34 24.34 0 0 0-1.83 1.68l-2.13 2.12a5.07 5.07 0 0 0-.95 1.06l-.12.25c-.09.08-.23.06-.44-.06s-.32-.23-.32-.32c0-.49 1.39-2.36 4.15-5.61 1-1.16 1.84-2.07 2.52-2.74.83-.83 1.42-1.16 1.76-1a.54.54 0 0 1 .12.38c0 .41-.54 1.16-1.63 2.24l-.25.25a13 13 0 0 0 1.25-.87q5.54-4.45 9.57-4.45a3.07 3.07 0 0 1 1.76.44 1.25 1.25 0 0 1 .5 1.31 9.29 9.29 0 0 1-1.88 3.36 18.58 18.58 0 0 0-1.14 1.5l-.12.12a1.31 1.31 0 0 0 .38-.25 4 4 0 0 1 1.76-.87 1 1 0 0 1 .56.13.4.4 0 0 1 .19.37v.44a1.8 1.8 0 0 1-.19.62 2 2 0 0 0-.19.68c-.84 3.46-.33 5.33 1.51 5.57Z"/><path d="M399.26 88.46c-.08.17-.29.08-.63-.25l-.38-.12 1.13-1.75 12.07-19.57Q426.66 42.83 433.83 34c.59-.67 1-1 1.26-.88s.38 0 .38.13q0 .62-4.53 7.1l-3 4.24.26.38.25.5 2.26-1.25a20 20 0 0 1 4.78-1.87c.84 0 1.34.25 1.51.75.33.83-.42 2.45-2.27 4.86l-1.63 1.87q4.77 1.88 11.69-2a55.28 55.28 0 0 0 4.4-2.86c.17-.17.32-.21.44-.13s.15.21.07.38l-.63.62a26.53 26.53 0 0 1-4.66 3c-4.41 2.22-8.41 2.76-12.08 1.59l-1.14 1.25q-4.51 4.24-6.16 1.37a4.27 4.27 0 0 1 0-3.24l.13-.62q-.26.38-3 4.23-6.4 8.73-14.46 22.07-7.56 12.09-8.44 12.97Zm26.91-35a2.84 2.84 0 0 0 2.38-.87 8.88 8.88 0 0 0 1.07-.87c.46-.42.86-.79 1.2-1.12l.37-.63a8.13 8.13 0 0 1-2.89-2.74c-.08-.25-.33-.21-.75.13a5.07 5.07 0 0 0-1.26 1.87c-.92 2.53-.96 3.95-.12 4.19Zm5.65-4.11c.09 0 .32-.21.69-.62s.82-.94 1.32-1.56a14.64 14.64 0 0 0 1.17-1.6 6.61 6.61 0 0 0 1-1.74c.17-.42.21-.67.13-.75-.25-.25-1.64.21-4.15 1.37-2 1.08-3 1.83-3 2.24 0 .25.36.75 1.07 1.5a2.87 2.87 0 0 0 1.77 1.12Z"/><path d="M450.55 53.67a2 2 0 0 1-.88-1.87 6.82 6.82 0 0 1 .51-2.61l.25-.63-.76.38a6.15 6.15 0 0 1-1.13.74c-.17.09-.46.25-.88.5s-.75.46-1 .63a1.28 1.28 0 0 1-1.57-.07 1.4 1.4 0 0 1-.32-1.68 8.69 8.69 0 0 1 2.7-3 12 12 0 0 1 4-2.24 1.76 1.76 0 0 1 2.14.62c.17.25.3.33.38.25.42-.17.71-.08.88.25l-.13.12a3 3 0 0 1-.25.44 4.09 4.09 0 0 0-.25.43 13.56 13.56 0 0 0-3.27 4.49c-.42 1.33-.38 2.21.13 2.62q1.13.75 5.15-.87a46.91 46.91 0 0 0 10.31-6.24c1.43-1.07 2.1-1.37 2-.87q-.12.49-3.45 2.87a59.48 59.48 0 0 1-5.85 3.74 29.69 29.69 0 0 1-3.27 1.5 14.24 14.24 0 0 1-3.08.81 3.71 3.71 0 0 1-2.36-.31Zm-3.39-4.86c-.42.5-.59.75-.5.75a19.77 19.77 0 0 0 2.13-1.12q4.27-2.37 4.28-3.62c-.17-.5-.84-.33-2 .5a17 17 0 0 0-3.91 3.49Z"/><path d="M467.53 57.29q-1.14-.61 2.13-2.87l1.26-.87 1.38-2.12 1.64-2.74.38-.5q-7.68 5.36-9.43 4.61t.63-4.86a39.78 39.78 0 0 1 4.14-5.11c.93-1 1.47-1.5 1.64-1.5q.63 0 .63.75c0 .25-.93 1.41-2.77 3.49a41.23 41.23 0 0 0-2.89 3.55 8.2 8.2 0 0 0-1.19 2.12c-.13.46-.07.77.18.94.84.33 2.56-.33 5.16-2a27.9 27.9 0 0 0 6.16-5.11c.75-.83 1.3-1.24 1.63-1.24.17 0 .26.08.26.24l-.26.38a11.16 11.16 0 0 0-1 1.12q-1.89 2.74-4.91 7.48a32.27 32.27 0 0 0 5.54-2.24 96.23 96.23 0 0 0 8.8-5.36.4.4 0 0 1 .63.12.16.16 0 0 1 0 .25 69.16 69.16 0 0 1-15.47 8.1 8.11 8.11 0 0 0-1.8 1.62c-1.22 1.46-2 2-2.47 1.75Zm.5-.62a8.8 8.8 0 0 0 1.38-1.25c.34-.33.34-.37 0-.13a5.22 5.22 0 0 1-.75.63q-1 .75-.66.75Z"/><path d="M487.14 55.42q0-1.74 2.77-5.49l.88-1.24-.13.12a1.06 1.06 0 0 0-.44.19c-.21.12-.4.23-.57.31q-3.76 2-4.65 2a1.06 1.06 0 0 1-.75-.25c-.59-.83 0-2.29 1.63-4.37 1.76-2.41 3.15-3.82 4.15-4.24l.38-.12q.49 0 .75.75c.17.25-.42 1-1.76 2.24a23.54 23.54 0 0 0-2.07 2.06c-.71.79-1.28 1.45-1.7 2s-.59.86-.5.94.35 0 1.07-.31 1.55-.69 2.51-1.19 1.78-1 2.45-1.37a32.23 32.23 0 0 0 2.89-2.24c1.34-1.25 2.14-1.75 2.39-1.5a.87.87 0 0 1 .13 1 15 15 0 0 1-2.26 2.37q-5.42 5.35-6.29 7.6-1.12 2.86 4.15.62Q498.83 52.43 509 45a.7.7 0 0 1 .88.12 71.56 71.56 0 0 1-8.88 6.06 51.71 51.71 0 0 1-9.68 5.24q-4.18 1.58-4.18-1Z"/><path d="M511.78 54.67a1.2 1.2 0 0 1-.38-1.12q.25-2.74 5.66-8.1l.76-.88h-.26a5.59 5.59 0 0 0-.88.5q-6.66 5.49-9 4.86c-1.17-.41-1.34-1.32-.5-2.74a14.85 14.85 0 0 1 1.13-1.37l.38-.37c.84-.83 1.34-1 1.51-.5.08.16-.3.79-1.13 1.87-1.1 1.24-1.51 2-1.26 2.24s1-.12 2.39-.87a21 21 0 0 0 4.77-3l1-.75-.5-.62q-1.89-1.76 1.25-4.87c2.44-2.24 3.94-2.66 4.53-1.24a3 3 0 0 1-.5 2.49 27.76 27.76 0 0 1-2 3l-.38.38.38-.13a1.36 1.36 0 0 1 .94-.25 1.38 1.38 0 0 1 .94.25c.17.25-.46 1-1.88 2.37q-4.91 4.86-6.29 7.6l-.38.75.51.13a12.13 12.13 0 0 0 2.26-.63 30.67 30.67 0 0 0 3.27-1.87q3.39-2.11 9.68-6.6a2 2 0 0 1 1.26-.38l.12.13-.5.5-9.3 6.48a36.21 36.21 0 0 1-3.53 2.12q-3.18 1.62-4.07.62Zm4.15-11c.42.17 1.05-.25 1.89-1.25 1.84-2 2.76-3.45 2.76-4.36 0-.17-.29-.17-.88 0a9.34 9.34 0 0 0-3.27 3c-.92 1.35-1.09 2.23-.5 2.64Z"/></g></g></svg>